<?xml version="1.0"?>
<!-- Generated by SVGo -->
<svg width="295.752mm" height="105.252mm"
     viewBox="0.000 0.000 295.752 105.252"
     xmlns="http://www.w3.org/2000/svg" 
     xmlns:xlink="http://www.w3.org/1999/xlink">
<polygon points="288.502,5.251 288.658,5.257 288.814,5.275 288.968,5.306 289.120,5.348 289.267,5.403 289.409,5.468 289.546,5.545 289.677,5.632 289.800,5.730 289.916,5.836 290.022,5.952 290.120,6.075 290.207,6.206 290.284,6.343 290.349,6.485 290.404,6.632 290.446,6.784 290.477,6.938 290.495,7.094 290.502,7.251 290.502,98.001 290.495,98.158 290.477,98.314 290.446,98.468 290.404,98.620 290.349,98.767 290.284,98.909 290.207,99.046 290.120,99.177 290.022,99.300 289.916,99.416 289.800,99.522 289.677,99.620 289.546,99.707 289.409,99.784 289.267,99.849 289.120,99.904 288.968,99.946 288.814,99.977 288.658,99.995 288.502,100.001 7.251,100.001 7.094,99.995 6.938,99.977 6.784,99.946 6.632,99.904 6.485,99.849 6.343,99.784 6.206,99.707 6.075,99.620 5.952,99.522 5.836,99.416 5.730,99.300 5.632,99.177 5.545,99.046 5.468,98.909 5.403,98.767 5.348,98.620 5.306,98.468 5.275,98.314 5.257,98.158 5.250,98.002 5.251,7.251 5.257,7.094 5.275,6.938 5.306,6.784 5.348,6.632 5.403,6.485 5.468,6.343 5.545,6.206 5.632,6.075 5.730,5.952 5.836,5.836 5.952,5.730 6.075,5.632 6.206,5.545 6.343,5.468 6.485,5.403 6.632,5.348 6.784,5.306 6.938,5.275 7.094,5.257 7.251,5.250" style="fill:none;stroke-width:0.050000mm;stroke:black"/>
<polygon points="274.226,83.726 274.226,97.726 288.226,97.726 288.226,83.726" style="fill:none;stroke-width:0.050000mm;stroke:black"/>
<polygon points="255.176,83.726 255.176,97.726 269.176,97.726 269.176,83.726" style="fill:none;stroke-width:0.050000mm;stroke:black"/>
<polygon points="236.126,83.726 236.126,97.726 250.126,97.726 250.126,83.726" style="fill:none;stroke-width:0.050000mm;stroke:black"/>
<polygon points="207.551,83.726 207.551,97.726 221.551,97.726 221.551,83.726" style="fill:none;stroke-width:0.050000mm;stroke:black"/>
<polygon points="188.501,83.726 188.501,97.726 202.501,97.726 202.501,83.726" style="fill:none;stroke-width:0.050000mm;stroke:black"/>
<polygon points="169.451,83.726 169.451,97.726 183.451,97.726 183.451,83.726" style="fill:none;stroke-width:0.050000mm;stroke:black"/>
<polygon points="136.113,83.726 136.113,97.726 150.113,97.726 150.113,83.726" style="fill:none;stroke-width:0.050000mm;stroke:black"/>
<polygon points="112.301,83.726 112.301,97.726 126.301,97.726 126.301,83.726" style="fill:none;stroke-width:0.050000mm;stroke:black"/>
<polygon points="88.488,83.726 88.488,97.726 102.488,97.726 102.488,83.726" style="fill:none;stroke-width:0.050000mm;stroke:black"/>
<polygon points="55.151,83.726 55.151,97.726 69.151,97.726 69.151,83.726" style="fill:none;stroke-width:0.050000mm;stroke:black"/>
<polygon points="36.101,83.726 36.101,97.726 50.101,97.726 50.101,83.726" style="fill:none;stroke-width:0.050000mm;stroke:black"/>
<polygon points="12.288,83.726 12.288,97.726 26.288,97.726 26.288,83.726" style="fill:none;stroke-width:0.050000mm;stroke:black"/>
<polygon points="274.226,64.676 274.226,78.676 288.226,78.676 288.226,64.676" style="fill:none;stroke-width:0.050000mm;stroke:black"/>
<polygon points="255.176,64.676 255.176,78.676 269.176,78.676 269.176,64.676" style="fill:none;stroke-width:0.050000mm;stroke:black"/>
<polygon points="231.363,64.676 231.363,78.676 245.363,78.676 245.363,64.676" style="fill:none;stroke-width:0.050000mm;stroke:black"/>
<polygon points="207.551,64.676 207.551,78.676 221.551,78.676 221.551,64.676" style="fill:none;stroke-width:0.050000mm;stroke:black"/>
<polygon points="188.501,64.676 188.501,78.676 202.501,78.676 202.501,64.676" style="fill:none;stroke-width:0.050000mm;stroke:black"/>
<polygon points="169.451,64.676 169.451,78.676 183.451,78.676 183.451,64.676" style="fill:none;stroke-width:0.050000mm;stroke:black"/>
<polygon points="150.401,64.676 150.401,78.676 164.401,78.676 164.401,64.676" style="fill:none;stroke-width:0.050000mm;stroke:black"/>
<polygon points="131.351,64.676 131.351,78.676 145.351,78.676 145.351,64.676" style="fill:none;stroke-width:0.050000mm;stroke:black"/>
<polygon points="112.301,64.676 112.301,78.676 126.301,78.676 126.301,64.676" style="fill:none;stroke-width:0.050000mm;stroke:black"/>
<polygon points="93.251,64.676 93.251,78.676 107.251,78.676 107.251,64.676" style="fill:none;stroke-width:0.050000mm;stroke:black"/>
<polygon points="74.201,64.676 74.201,78.676 88.201,78.676 88.201,64.676" style="fill:none;stroke-width:0.050000mm;stroke:black"/>
<polygon points="55.151,64.676 55.151,78.676 69.151,78.676 69.151,64.676" style="fill:none;stroke-width:0.050000mm;stroke:black"/>
<polygon points="36.101,64.676 36.101,78.676 50.101,78.676 50.101,64.676" style="fill:none;stroke-width:0.050000mm;stroke:black"/>
<polygon points="12.288,64.676 12.288,78.676 26.288,78.676 26.288,64.676" style="fill:none;stroke-width:0.050000mm;stroke:black"/>
<polygon points="274.226,45.626 274.226,59.626 288.226,59.626 288.226,45.626" style="fill:none;stroke-width:0.050000mm;stroke:black"/>
<polygon points="250.413,45.626 250.413,59.626 264.413,59.626 264.413,45.626" style="fill:none;stroke-width:0.050000mm;stroke:black"/>
<polygon points="226.601,45.626 226.601,59.626 240.601,59.626 240.601,45.626" style="fill:none;stroke-width:0.050000mm;stroke:black"/>
<polygon points="207.551,45.626 207.551,59.626 221.551,59.626 221.551,45.626" style="fill:none;stroke-width:0.050000mm;stroke:black"/>
<polygon points="188.501,45.626 188.501,59.626 202.501,59.626 202.501,45.626" style="fill:none;stroke-width:0.050000mm;stroke:black"/>
<polygon points="169.451,45.626 169.451,59.626 183.451,59.626 183.451,45.626" style="fill:none;stroke-width:0.050000mm;stroke:black"/>
<polygon points="150.401,45.626 150.401,59.626 164.401,59.626 164.401,45.626" style="fill:none;stroke-width:0.050000mm;stroke:black"/>
<polygon points="131.351,45.626 131.351,59.626 145.351,59.626 145.351,45.626" style="fill:none;stroke-width:0.050000mm;stroke:black"/>
<polygon points="112.301,45.626 112.301,59.626 126.301,59.626 126.301,45.626" style="fill:none;stroke-width:0.050000mm;stroke:black"/>
<polygon points="93.251,45.626 93.251,59.626 107.251,59.626 107.251,45.626" style="fill:none;stroke-width:0.050000mm;stroke:black"/>
<polygon points="74.201,45.626 74.201,59.626 88.201,59.626 88.201,45.626" style="fill:none;stroke-width:0.050000mm;stroke:black"/>
<polygon points="55.151,45.626 55.151,59.626 69.151,59.626 69.151,45.626" style="fill:none;stroke-width:0.050000mm;stroke:black"/>
<polygon points="36.101,45.626 36.101,59.626 50.101,59.626 50.101,45.626" style="fill:none;stroke-width:0.050000mm;stroke:black"/>
<polygon points="12.288,45.626 12.288,59.626 26.288,59.626 26.288,45.626" style="fill:none;stroke-width:0.050000mm;stroke:black"/>
<polygon points="269.463,26.576 269.463,40.576 283.463,40.576 283.463,26.576" style="fill:none;stroke-width:0.050000mm;stroke:black"/>
<polygon points="245.651,26.576 245.651,40.576 259.650,40.576 259.650,26.576" style="fill:none;stroke-width:0.050000mm;stroke:black"/>
<polygon points="226.601,26.576 226.601,40.576 240.601,40.576 240.601,26.576" style="fill:none;stroke-width:0.050000mm;stroke:black"/>
<polygon points="207.551,26.576 207.551,40.576 221.551,40.576 221.551,26.576" style="fill:none;stroke-width:0.050000mm;stroke:black"/>
<polygon points="188.501,26.576 188.501,40.576 202.501,40.576 202.501,26.576" style="fill:none;stroke-width:0.050000mm;stroke:black"/>
<polygon points="169.451,26.576 169.451,40.576 183.451,40.576 183.451,26.576" style="fill:none;stroke-width:0.050000mm;stroke:black"/>
<polygon points="150.401,26.576 150.401,40.576 164.401,40.576 164.401,26.576" style="fill:none;stroke-width:0.050000mm;stroke:black"/>
<polygon points="131.351,26.576 131.351,40.576 145.351,40.576 145.351,26.576" style="fill:none;stroke-width:0.050000mm;stroke:black"/>
<polygon points="112.301,26.576 112.301,40.576 126.301,40.576 126.301,26.576" style="fill:none;stroke-width:0.050000mm;stroke:black"/>
<polygon points="93.251,26.576 93.251,40.576 107.251,40.576 107.251,26.576" style="fill:none;stroke-width:0.050000mm;stroke:black"/>
<polygon points="74.201,26.576 74.201,40.576 88.201,40.576 88.201,26.576" style="fill:none;stroke-width:0.050000mm;stroke:black"/>
<polygon points="55.151,26.576 55.151,40.576 69.151,40.576 69.151,26.576" style="fill:none;stroke-width:0.050000mm;stroke:black"/>
<polygon points="36.101,26.576 36.101,40.576 50.101,40.576 50.101,26.576" style="fill:none;stroke-width:0.050000mm;stroke:black"/>
<polygon points="12.288,26.576 12.288,40.576 26.288,40.576 26.288,26.576" style="fill:none;stroke-width:0.050000mm;stroke:black"/>
<polygon points="269.463,7.526 269.463,21.526 283.463,21.526 283.463,7.526" style="fill:none;stroke-width:0.050000mm;stroke:black"/>
<polygon points="245.651,7.526 245.651,21.526 259.650,21.526 259.650,7.526" style="fill:none;stroke-width:0.050000mm;stroke:black"/>
<polygon points="226.601,7.526 226.601,21.526 240.601,21.526 240.601,7.526" style="fill:none;stroke-width:0.050000mm;stroke:black"/>
<polygon points="207.551,7.526 207.551,21.526 221.551,21.526 221.551,7.526" style="fill:none;stroke-width:0.050000mm;stroke:black"/>
<polygon points="188.501,7.526 188.501,21.526 202.501,21.526 202.501,7.526" style="fill:none;stroke-width:0.050000mm;stroke:black"/>
<polygon points="169.451,7.526 169.451,21.526 183.451,21.526 183.451,7.526" style="fill:none;stroke-width:0.050000mm;stroke:black"/>
<polygon points="150.401,7.526 150.401,21.526 164.401,21.526 164.401,7.526" style="fill:none;stroke-width:0.050000mm;stroke:black"/>
<polygon points="131.351,7.526 131.351,21.526 145.351,21.526 145.351,7.526" style="fill:none;stroke-width:0.050000mm;stroke:black"/>
<polygon points="112.301,7.526 112.301,21.526 126.301,21.526 126.301,7.526" style="fill:none;stroke-width:0.050000mm;stroke:black"/>
<polygon points="93.251,7.526 93.251,21.526 107.251,21.526 107.251,7.526" style="fill:none;stroke-width:0.050000mm;stroke:black"/>
<polygon points="74.201,7.526 74.201,21.526 88.201,21.526 88.201,7.526" style="fill:none;stroke-width:0.050000mm;stroke:black"/>
<polygon points="55.151,7.526 55.151,21.526 69.151,21.526 69.151,7.526" style="fill:none;stroke-width:0.050000mm;stroke:black"/>
<polygon points="36.101,7.526 36.101,21.526 50.101,21.526 50.101,7.526" style="fill:none;stroke-width:0.050000mm;stroke:black"/>
<polygon points="12.288,7.526 12.288,21.526 26.288,21.526 26.288,7.526" style="fill:none;stroke-width:0.050000mm;stroke:black"/>
</svg>
