  0
SECTION
  2
HEADER
  9
$ACADVER
  1
AC1009
  9
$EXTMIN
 10
0.0
 20
0.0
 30
0.0
  9
$EXTMAX
 10
1000.0
 20
1000.0
 30
0.0
  9
$FILLMODE
 70
 0
  9
$SPLFRAME
 70
 1
  0
ENDSEC
  0
SECTION
  2
TABLES
  0
TABLE
  2
LAYER
 70
1
  0
LAYER
  2
0
 70
     0
 62
     7
  6
CONTINUOUS
  0
ENDTAB
  0
ENDSEC
  0
SECTION
  2
ENTITIES
  0
LINE
  8
0
 62
     0
 10
283.347
 20
95.1548
 30
0.0
 11
283.502
 21
95.148
 31
0.0
  0
LINE
  8
0
 62
     0
 10
283.502
 20
95.148
 30
0.0
 11
283.658
 21
95.1301
 31
0.0
  0
LINE
  8
0
 62
     0
 10
283.658
 20
95.1301
 30
0.0
 11
283.813
 21
95.0997
 31
0.0
  0
LINE
  8
0
 62
     0
 10
283.813
 20
95.0997
 30
0.0
 11
283.964
 21
95.057
 31
0.0
  0
LINE
  8
0
 62
     0
 10
283.964
 20
95.057
 30
0.0
 11
284.111
 21
95.002
 31
0.0
  0
LINE
  8
0
 62
     0
 10
284.111
 20
95.002
 30
0.0
 11
284.254
 21
94.9371
 31
0.0
  0
LINE
  8
0
 62
     0
 10
284.254
 20
94.9371
 30
0.0
 11
284.39
 21
94.8602
 31
0.0
  0
LINE
  8
0
 62
     0
 10
284.39
 20
94.8602
 30
0.0
 11
284.522
 21
94.773
 31
0.0
  0
LINE
  8
0
 62
     0
 10
284.522
 20
94.773
 30
0.0
 11
284.645
 21
94.6753
 31
0.0
  0
LINE
  8
0
 62
     0
 10
284.645
 20
94.6753
 30
0.0
 11
284.76
 21
94.5691
 31
0.0
  0
LINE
  8
0
 62
     0
 10
284.76
 20
94.5691
 30
0.0
 11
284.867
 21
94.4534
 31
0.0
  0
LINE
  8
0
 62
     0
 10
284.867
 20
94.4534
 30
0.0
 11
284.964
 21
94.331
 31
0.0
  0
LINE
  8
0
 62
     0
 10
284.964
 20
94.331
 30
0.0
 11
285.052
 21
94.1998
 31
0.0
  0
LINE
  8
0
 62
     0
 10
285.052
 20
94.1998
 30
0.0
 11
285.128
 21
94.0622
 31
0.0
  0
LINE
  8
0
 62
     0
 10
285.128
 20
94.0622
 30
0.0
 11
285.193
 21
93.92
 31
0.0
  0
LINE
  8
0
 62
     0
 10
285.193
 20
93.92
 30
0.0
 11
285.248
 21
93.774
 31
0.0
  0
LINE
  8
0
 62
     0
 10
285.248
 20
93.774
 30
0.0
 11
285.291
 21
93.6212
 31
0.0
  0
LINE
  8
0
 62
     0
 10
285.291
 20
93.6212
 30
0.0
 11
285.321
 21
93.4681
 31
0.0
  0
LINE
  8
0
 62
     0
 10
285.321
 20
93.4681
 30
0.0
 11
285.339
 21
93.3111
 31
0.0
  0
LINE
  8
0
 62
     0
 10
285.339
 20
93.3111
 30
0.0
 11
285.346
 21
93.1541
 31
0.0
  0
LINE
  8
0
 62
     0
 10
285.346
 20
93.1541
 30
0.0
 11
285.346
 21
2.40468
 31
0.0
  0
LINE
  8
0
 62
     0
 10
285.346
 20
2.40468
 30
0.0
 11
285.339
 21
2.24758
 31
0.0
  0
LINE
  8
0
 62
     0
 10
285.339
 20
2.24758
 30
0.0
 11
285.321
 21
2.09186
 31
0.0
  0
LINE
  8
0
 62
     0
 10
285.321
 20
2.09186
 30
0.0
 11
285.291
 21
1.93752
 31
0.0
  0
LINE
  8
0
 62
     0
 10
285.291
 20
1.93752
 30
0.0
 11
285.248
 21
1.78594
 31
0.0
  0
LINE
  8
0
 62
     0
 10
285.248
 20
1.78594
 30
0.0
 11
285.193
 21
1.63849
 31
0.0
  0
LINE
  8
0
 62
     0
 10
285.193
 20
1.63849
 30
0.0
 11
285.128
 21
1.49655
 31
0.0
  0
LINE
  8
0
 62
     0
 10
285.128
 20
1.49655
 30
0.0
 11
285.052
 21
1.36012
 31
0.0
  0
LINE
  8
0
 62
     0
 10
285.052
 20
1.36012
 30
0.0
 11
284.964
 21
1.22783
 31
0.0
  0
LINE
  8
0
 62
     0
 10
284.964
 20
1.22783
 30
0.0
 11
284.867
 21
1.10519
 31
0.0
  0
LINE
  8
0
 62
     0
 10
284.867
 20
1.10519
 30
0.0
 11
284.76
 21
0.989432
 31
0.0
  0
LINE
  8
0
 62
     0
 10
284.76
 20
0.989432
 30
0.0
 11
284.645
 21
0.883324
 31
0.0
  0
LINE
  8
0
 62
     0
 10
284.645
 20
0.883324
 30
0.0
 11
284.522
 21
0.785481
 31
0.0
  0
LINE
  8
0
 62
     0
 10
284.522
 20
0.785481
 30
0.0
 11
284.39
 21
0.698666
 31
0.0
  0
LINE
  8
0
 62
     0
 10
284.39
 20
0.698666
 30
0.0
 11
284.254
 21
0.621496
 31
0.0
  0
LINE
  8
0
 62
     0
 10
284.254
 20
0.621496
 30
0.0
 11
284.111
 21
0.556729
 31
0.0
  0
LINE
  8
0
 62
     0
 10
284.111
 20
0.556729
 30
0.0
 11
283.964
 21
0.501608
 31
0.0
  0
LINE
  8
0
 62
     0
 10
283.964
 20
0.501608
 30
0.0
 11
283.813
 21
0.458886
 31
0.0
  0
LINE
  8
0
 62
     0
 10
283.813
 20
0.458886
 30
0.0
 11
283.658
 21
0.428569
 31
0.0
  0
LINE
  8
0
 62
     0
 10
283.658
 20
0.428569
 30
0.0
 11
283.502
 21
0.410655
 31
0.0
  0
LINE
  8
0
 62
     0
 10
283.502
 20
0.410655
 30
0.0
 11
283.347
 21
0.405144
 31
0.0
  0
LINE
  8
0
 62
     0
 10
283.347
 20
0.405144
 30
0.0
 11
2.096
 21
0.405144
 31
0.0
  0
LINE
  8
0
 62
     0
 10
2.096
 20
0.405144
 30
0.0
 11
1.9389
 21
0.410655
 31
0.0
  0
LINE
  8
0
 62
     0
 10
1.9389
 20
0.410655
 30
0.0
 11
1.7818
 21
0.428569
 31
0.0
  0
LINE
  8
0
 62
     0
 10
1.7818
 20
0.428569
 30
0.0
 11
1.62884
 21
0.458886
 31
0.0
  0
LINE
  8
0
 62
     0
 10
1.62884
 20
0.458886
 30
0.0
 11
1.47588
 21
0.501608
 31
0.0
  0
LINE
  8
0
 62
     0
 10
1.47588
 20
0.501608
 30
0.0
 11
1.32981
 21
0.556729
 31
0.0
  0
LINE
  8
0
 62
     0
 10
1.32981
 20
0.556729
 30
0.0
 11
1.18787
 21
0.621496
 31
0.0
  0
LINE
  8
0
 62
     0
 10
1.18787
 20
0.621496
 30
0.0
 11
1.05006
 21
0.698666
 31
0.0
  0
LINE
  8
0
 62
     0
 10
1.05006
 20
0.698666
 30
0.0
 11
0.919152
 21
0.785481
 31
0.0
  0
LINE
  8
0
 62
     0
 10
0.919152
 20
0.785481
 30
0.0
 11
0.796505
 21
0.883324
 31
0.0
  0
LINE
  8
0
 62
     0
 10
0.796505
 20
0.883324
 30
0.0
 11
0.680752
 21
0.989432
 31
0.0
  0
LINE
  8
0
 62
     0
 10
0.680752
 20
0.989432
 30
0.0
 11
0.574643
 21
1.10519
 31
0.0
  0
LINE
  8
0
 62
     0
 10
0.574643
 20
1.10519
 30
0.0
 11
0.4768
 21
1.22783
 31
0.0
  0
LINE
  8
0
 62
     0
 10
0.4768
 20
1.22783
 30
0.0
 11
0.389985
 21
1.36012
 31
0.0
  0
LINE
  8
0
 62
     0
 10
0.389985
 20
1.36012
 30
0.0
 11
0.312815
 21
1.49655
 31
0.0
  0
LINE
  8
0
 62
     0
 10
0.312815
 20
1.49655
 30
0.0
 11
0.248047
 21
1.63849
 31
0.0
  0
LINE
  8
0
 62
     0
 10
0.248047
 20
1.63849
 30
0.0
 11
0.192925
 21
1.78594
 31
0.0
  0
LINE
  8
0
 62
     0
 10
0.192925
 20
1.78594
 30
0.0
 11
0.150206
 21
1.93752
 31
0.0
  0
LINE
  8
0
 62
     0
 10
0.150206
 20
1.93752
 30
0.0
 11
0.119889
 21
2.09186
 31
0.0
  0
LINE
  8
0
 62
     0
 10
0.119889
 20
2.09186
 30
0.0
 11
0.101975
 21
2.24758
 31
0.0
  0
LINE
  8
0
 62
     0
 10
0.101975
 20
2.24758
 30
0.0
 11
0.0950846
 21
2.4033
 31
0.0
  0
LINE
  8
0
 62
     0
 10
0.0950846
 20
2.4033
 30
0.0
 11
0.0950846
 21
93.1541
 31
0.0
  0
LINE
  8
0
 62
     0
 10
0.0950846
 20
93.1541
 30
0.0
 11
0.101975
 21
93.3111
 31
0.0
  0
LINE
  8
0
 62
     0
 10
0.101975
 20
93.3111
 30
0.0
 11
0.119889
 21
93.4681
 31
0.0
  0
LINE
  8
0
 62
     0
 10
0.119889
 20
93.4681
 30
0.0
 11
0.150206
 21
93.6212
 31
0.0
  0
LINE
  8
0
 62
     0
 10
0.150206
 20
93.6212
 30
0.0
 11
0.192925
 21
93.774
 31
0.0
  0
LINE
  8
0
 62
     0
 10
0.192925
 20
93.774
 30
0.0
 11
0.248047
 21
93.92
 31
0.0
  0
LINE
  8
0
 62
     0
 10
0.248047
 20
93.92
 30
0.0
 11
0.312815
 21
94.0622
 31
0.0
  0
LINE
  8
0
 62
     0
 10
0.312815
 20
94.0622
 30
0.0
 11
0.389985
 21
94.1998
 31
0.0
  0
LINE
  8
0
 62
     0
 10
0.389985
 20
94.1998
 30
0.0
 11
0.4768
 21
94.331
 31
0.0
  0
LINE
  8
0
 62
     0
 10
0.4768
 20
94.331
 30
0.0
 11
0.574643
 21
94.4534
 31
0.0
  0
LINE
  8
0
 62
     0
 10
0.574643
 20
94.4534
 30
0.0
 11
0.680752
 21
94.5691
 31
0.0
  0
LINE
  8
0
 62
     0
 10
0.680752
 20
94.5691
 30
0.0
 11
0.796505
 21
94.6753
 31
0.0
  0
LINE
  8
0
 62
     0
 10
0.796505
 20
94.6753
 30
0.0
 11
0.919152
 21
94.773
 31
0.0
  0
LINE
  8
0
 62
     0
 10
0.919152
 20
94.773
 30
0.0
 11
1.05006
 21
94.8602
 31
0.0
  0
LINE
  8
0
 62
     0
 10
1.05006
 20
94.8602
 30
0.0
 11
1.18787
 21
94.9371
 31
0.0
  0
LINE
  8
0
 62
     0
 10
1.18787
 20
94.9371
 30
0.0
 11
1.32981
 21
95.002
 31
0.0
  0
LINE
  8
0
 62
     0
 10
1.32981
 20
95.002
 30
0.0
 11
1.47588
 21
95.057
 31
0.0
  0
LINE
  8
0
 62
     0
 10
1.47588
 20
95.057
 30
0.0
 11
1.62884
 21
95.0997
 31
0.0
  0
LINE
  8
0
 62
     0
 10
1.62884
 20
95.0997
 30
0.0
 11
1.7818
 21
95.1301
 31
0.0
  0
LINE
  8
0
 62
     0
 10
1.7818
 20
95.1301
 30
0.0
 11
1.9389
 21
95.148
 31
0.0
  0
LINE
  8
0
 62
     0
 10
1.9389
 20
95.148
 30
0.0
 11
2.096
 21
95.1548
 31
0.0
  0
LINE
  8
0
 62
     0
 10
2.096
 20
95.1548
 30
0.0
 11
283.347
 21
95.1548
 31
0.0
  0
LINE
  8
0
 62
     0
 10
269.07
 20
16.6798
 30
0.0
 11
283.071
 21
16.6798
 31
0.0
  0
LINE
  8
0
 62
     0
 10
283.071
 20
16.6798
 30
0.0
 11
283.071
 21
2.67891
 31
0.0
  0
LINE
  8
0
 62
     0
 10
283.071
 20
2.67891
 30
0.0
 11
269.07
 21
2.67891
 31
0.0
  0
LINE
  8
0
 62
     0
 10
269.07
 20
2.67891
 30
0.0
 11
269.07
 21
16.6798
 31
0.0
  0
LINE
  8
0
 62
     0
 10
250.02
 20
16.6798
 30
0.0
 11
264.021
 21
16.6798
 31
0.0
  0
LINE
  8
0
 62
     0
 10
264.021
 20
16.6798
 30
0.0
 11
264.021
 21
2.67891
 31
0.0
  0
LINE
  8
0
 62
     0
 10
264.021
 20
2.67891
 30
0.0
 11
250.02
 21
2.67891
 31
0.0
  0
LINE
  8
0
 62
     0
 10
250.02
 20
2.67891
 30
0.0
 11
250.02
 21
16.6798
 31
0.0
  0
LINE
  8
0
 62
     0
 10
230.97
 20
16.6798
 30
0.0
 11
244.971
 21
16.6798
 31
0.0
  0
LINE
  8
0
 62
     0
 10
244.971
 20
16.6798
 30
0.0
 11
244.971
 21
2.67891
 31
0.0
  0
LINE
  8
0
 62
     0
 10
244.971
 20
2.67891
 30
0.0
 11
230.97
 21
2.67891
 31
0.0
  0
LINE
  8
0
 62
     0
 10
230.97
 20
2.67891
 30
0.0
 11
230.97
 21
16.6798
 31
0.0
  0
LINE
  8
0
 62
     0
 10
202.395
 20
16.6798
 30
0.0
 11
216.396
 21
16.6798
 31
0.0
  0
LINE
  8
0
 62
     0
 10
216.396
 20
16.6798
 30
0.0
 11
216.396
 21
2.67891
 31
0.0
  0
LINE
  8
0
 62
     0
 10
216.396
 20
2.67891
 30
0.0
 11
202.395
 21
2.67891
 31
0.0
  0
LINE
  8
0
 62
     0
 10
202.395
 20
2.67891
 30
0.0
 11
202.395
 21
16.6798
 31
0.0
  0
LINE
  8
0
 62
     0
 10
183.345
 20
16.6798
 30
0.0
 11
197.346
 21
16.6798
 31
0.0
  0
LINE
  8
0
 62
     0
 10
197.346
 20
16.6798
 30
0.0
 11
197.346
 21
2.67891
 31
0.0
  0
LINE
  8
0
 62
     0
 10
197.346
 20
2.67891
 30
0.0
 11
183.345
 21
2.67891
 31
0.0
  0
LINE
  8
0
 62
     0
 10
183.345
 20
2.67891
 30
0.0
 11
183.345
 21
16.6798
 31
0.0
  0
LINE
  8
0
 62
     0
 10
164.295
 20
16.6798
 30
0.0
 11
178.296
 21
16.6798
 31
0.0
  0
LINE
  8
0
 62
     0
 10
178.296
 20
16.6798
 30
0.0
 11
178.296
 21
2.67891
 31
0.0
  0
LINE
  8
0
 62
     0
 10
178.296
 20
2.67891
 30
0.0
 11
164.295
 21
2.67891
 31
0.0
  0
LINE
  8
0
 62
     0
 10
164.295
 20
2.67891
 30
0.0
 11
164.295
 21
16.6798
 31
0.0
  0
LINE
  8
0
 62
     0
 10
130.958
 20
16.6798
 30
0.0
 11
144.957
 21
16.6798
 31
0.0
  0
LINE
  8
0
 62
     0
 10
144.957
 20
16.6798
 30
0.0
 11
144.957
 21
2.67891
 31
0.0
  0
LINE
  8
0
 62
     0
 10
144.957
 20
2.67891
 30
0.0
 11
130.958
 21
2.67891
 31
0.0
  0
LINE
  8
0
 62
     0
 10
130.958
 20
2.67891
 30
0.0
 11
130.958
 21
16.6798
 31
0.0
  0
LINE
  8
0
 62
     0
 10
107.145
 20
16.6798
 30
0.0
 11
121.146
 21
16.6798
 31
0.0
  0
LINE
  8
0
 62
     0
 10
121.146
 20
16.6798
 30
0.0
 11
121.146
 21
2.67891
 31
0.0
  0
LINE
  8
0
 62
     0
 10
121.146
 20
2.67891
 30
0.0
 11
107.145
 21
2.67891
 31
0.0
  0
LINE
  8
0
 62
     0
 10
107.145
 20
2.67891
 30
0.0
 11
107.145
 21
16.6798
 31
0.0
  0
LINE
  8
0
 62
     0
 10
83.3328
 20
16.6798
 30
0.0
 11
97.3321
 21
16.6798
 31
0.0
  0
LINE
  8
0
 62
     0
 10
97.3321
 20
16.6798
 30
0.0
 11
97.3321
 21
2.67891
 31
0.0
  0
LINE
  8
0
 62
     0
 10
97.3321
 20
2.67891
 30
0.0
 11
83.3328
 21
2.67891
 31
0.0
  0
LINE
  8
0
 62
     0
 10
83.3328
 20
2.67891
 30
0.0
 11
83.3328
 21
16.6798
 31
0.0
  0
LINE
  8
0
 62
     0
 10
49.9953
 20
16.6798
 30
0.0
 11
63.996
 21
16.6798
 31
0.0
  0
LINE
  8
0
 62
     0
 10
63.996
 20
16.6798
 30
0.0
 11
63.996
 21
2.67891
 31
0.0
  0
LINE
  8
0
 62
     0
 10
63.996
 20
2.67891
 30
0.0
 11
49.9953
 21
2.67891
 31
0.0
  0
LINE
  8
0
 62
     0
 10
49.9953
 20
2.67891
 30
0.0
 11
49.9953
 21
16.6798
 31
0.0
  0
LINE
  8
0
 62
     0
 10
30.9452
 20
16.6798
 30
0.0
 11
44.946
 21
16.6798
 31
0.0
  0
LINE
  8
0
 62
     0
 10
44.946
 20
16.6798
 30
0.0
 11
44.946
 21
2.67891
 31
0.0
  0
LINE
  8
0
 62
     0
 10
44.946
 20
2.67891
 30
0.0
 11
30.9452
 21
2.67891
 31
0.0
  0
LINE
  8
0
 62
     0
 10
30.9452
 20
2.67891
 30
0.0
 11
30.9452
 21
16.6798
 31
0.0
  0
LINE
  8
0
 62
     0
 10
7.13274
 20
16.6798
 30
0.0
 11
21.1322
 21
16.6798
 31
0.0
  0
LINE
  8
0
 62
     0
 10
21.1322
 20
16.6798
 30
0.0
 11
21.1322
 21
2.67891
 31
0.0
  0
LINE
  8
0
 62
     0
 10
21.1322
 20
2.67891
 30
0.0
 11
7.13274
 21
2.67891
 31
0.0
  0
LINE
  8
0
 62
     0
 10
7.13274
 20
2.67891
 30
0.0
 11
7.13274
 21
16.6798
 31
0.0
  0
LINE
  8
0
 62
     0
 10
269.07
 20
35.7297
 30
0.0
 11
283.071
 21
35.7297
 31
0.0
  0
LINE
  8
0
 62
     0
 10
283.071
 20
35.7297
 30
0.0
 11
283.071
 21
21.7289
 31
0.0
  0
LINE
  8
0
 62
     0
 10
283.071
 20
21.7289
 30
0.0
 11
269.07
 21
21.7289
 31
0.0
  0
LINE
  8
0
 62
     0
 10
269.07
 20
21.7289
 30
0.0
 11
269.07
 21
35.7297
 31
0.0
  0
LINE
  8
0
 62
     0
 10
250.02
 20
35.7297
 30
0.0
 11
264.021
 21
35.7297
 31
0.0
  0
LINE
  8
0
 62
     0
 10
264.021
 20
35.7297
 30
0.0
 11
264.021
 21
21.7289
 31
0.0
  0
LINE
  8
0
 62
     0
 10
264.021
 20
21.7289
 30
0.0
 11
250.02
 21
21.7289
 31
0.0
  0
LINE
  8
0
 62
     0
 10
250.02
 20
21.7289
 30
0.0
 11
250.02
 21
35.7297
 31
0.0
  0
LINE
  8
0
 62
     0
 10
226.208
 20
35.7297
 30
0.0
 11
240.207
 21
35.7297
 31
0.0
  0
LINE
  8
0
 62
     0
 10
240.207
 20
35.7297
 30
0.0
 11
240.207
 21
21.7289
 31
0.0
  0
LINE
  8
0
 62
     0
 10
240.207
 20
21.7289
 30
0.0
 11
226.208
 21
21.7289
 31
0.0
  0
LINE
  8
0
 62
     0
 10
226.208
 20
21.7289
 30
0.0
 11
226.208
 21
35.7297
 31
0.0
  0
LINE
  8
0
 62
     0
 10
202.395
 20
35.7297
 30
0.0
 11
216.396
 21
35.7297
 31
0.0
  0
LINE
  8
0
 62
     0
 10
216.396
 20
35.7297
 30
0.0
 11
216.396
 21
21.7289
 31
0.0
  0
LINE
  8
0
 62
     0
 10
216.396
 20
21.7289
 30
0.0
 11
202.395
 21
21.7289
 31
0.0
  0
LINE
  8
0
 62
     0
 10
202.395
 20
21.7289
 30
0.0
 11
202.395
 21
35.7297
 31
0.0
  0
LINE
  8
0
 62
     0
 10
183.345
 20
35.7297
 30
0.0
 11
197.346
 21
35.7297
 31
0.0
  0
LINE
  8
0
 62
     0
 10
197.346
 20
35.7297
 30
0.0
 11
197.346
 21
21.7289
 31
0.0
  0
LINE
  8
0
 62
     0
 10
197.346
 20
21.7289
 30
0.0
 11
183.345
 21
21.7289
 31
0.0
  0
LINE
  8
0
 62
     0
 10
183.345
 20
21.7289
 30
0.0
 11
183.345
 21
35.7297
 31
0.0
  0
LINE
  8
0
 62
     0
 10
164.295
 20
35.7297
 30
0.0
 11
178.296
 21
35.7297
 31
0.0
  0
LINE
  8
0
 62
     0
 10
178.296
 20
35.7297
 30
0.0
 11
178.296
 21
21.7289
 31
0.0
  0
LINE
  8
0
 62
     0
 10
178.296
 20
21.7289
 30
0.0
 11
164.295
 21
21.7289
 31
0.0
  0
LINE
  8
0
 62
     0
 10
164.295
 20
21.7289
 30
0.0
 11
164.295
 21
35.7297
 31
0.0
  0
LINE
  8
0
 62
     0
 10
145.245
 20
35.7297
 30
0.0
 11
159.246
 21
35.7297
 31
0.0
  0
LINE
  8
0
 62
     0
 10
159.246
 20
35.7297
 30
0.0
 11
159.246
 21
21.7289
 31
0.0
  0
LINE
  8
0
 62
     0
 10
159.246
 20
21.7289
 30
0.0
 11
145.245
 21
21.7289
 31
0.0
  0
LINE
  8
0
 62
     0
 10
145.245
 20
21.7289
 30
0.0
 11
145.245
 21
35.7297
 31
0.0
  0
LINE
  8
0
 62
     0
 10
126.195
 20
35.7297
 30
0.0
 11
140.196
 21
35.7297
 31
0.0
  0
LINE
  8
0
 62
     0
 10
140.196
 20
35.7297
 30
0.0
 11
140.196
 21
21.7289
 31
0.0
  0
LINE
  8
0
 62
     0
 10
140.196
 20
21.7289
 30
0.0
 11
126.195
 21
21.7289
 31
0.0
  0
LINE
  8
0
 62
     0
 10
126.195
 20
21.7289
 30
0.0
 11
126.195
 21
35.7297
 31
0.0
  0
LINE
  8
0
 62
     0
 10
107.145
 20
35.7297
 30
0.0
 11
121.146
 21
35.7297
 31
0.0
  0
LINE
  8
0
 62
     0
 10
121.146
 20
35.7297
 30
0.0
 11
121.146
 21
21.7289
 31
0.0
  0
LINE
  8
0
 62
     0
 10
121.146
 20
21.7289
 30
0.0
 11
107.145
 21
21.7289
 31
0.0
  0
LINE
  8
0
 62
     0
 10
107.145
 20
21.7289
 30
0.0
 11
107.145
 21
35.7297
 31
0.0
  0
LINE
  8
0
 62
     0
 10
88.0953
 20
35.7297
 30
0.0
 11
102.096
 21
35.7297
 31
0.0
  0
LINE
  8
0
 62
     0
 10
102.096
 20
35.7297
 30
0.0
 11
102.096
 21
21.7289
 31
0.0
  0
LINE
  8
0
 62
     0
 10
102.096
 20
21.7289
 30
0.0
 11
88.0953
 21
21.7289
 31
0.0
  0
LINE
  8
0
 62
     0
 10
88.0953
 20
21.7289
 30
0.0
 11
88.0953
 21
35.7297
 31
0.0
  0
LINE
  8
0
 62
     0
 10
69.0453
 20
35.7297
 30
0.0
 11
83.046
 21
35.7297
 31
0.0
  0
LINE
  8
0
 62
     0
 10
83.046
 20
35.7297
 30
0.0
 11
83.046
 21
21.7289
 31
0.0
  0
LINE
  8
0
 62
     0
 10
83.046
 20
21.7289
 30
0.0
 11
69.0453
 21
21.7289
 31
0.0
  0
LINE
  8
0
 62
     0
 10
69.0453
 20
21.7289
 30
0.0
 11
69.0453
 21
35.7297
 31
0.0
  0
LINE
  8
0
 62
     0
 10
49.9953
 20
35.7297
 30
0.0
 11
63.996
 21
35.7297
 31
0.0
  0
LINE
  8
0
 62
     0
 10
63.996
 20
35.7297
 30
0.0
 11
63.996
 21
21.7289
 31
0.0
  0
LINE
  8
0
 62
     0
 10
63.996
 20
21.7289
 30
0.0
 11
49.9953
 21
21.7289
 31
0.0
  0
LINE
  8
0
 62
     0
 10
49.9953
 20
21.7289
 30
0.0
 11
49.9953
 21
35.7297
 31
0.0
  0
LINE
  8
0
 62
     0
 10
30.9452
 20
35.7297
 30
0.0
 11
44.946
 21
35.7297
 31
0.0
  0
LINE
  8
0
 62
     0
 10
44.946
 20
35.7297
 30
0.0
 11
44.946
 21
21.7289
 31
0.0
  0
LINE
  8
0
 62
     0
 10
44.946
 20
21.7289
 30
0.0
 11
30.9452
 21
21.7289
 31
0.0
  0
LINE
  8
0
 62
     0
 10
30.9452
 20
21.7289
 30
0.0
 11
30.9452
 21
35.7297
 31
0.0
  0
LINE
  8
0
 62
     0
 10
7.13274
 20
35.7297
 30
0.0
 11
21.1322
 21
35.7297
 31
0.0
  0
LINE
  8
0
 62
     0
 10
21.1322
 20
35.7297
 30
0.0
 11
21.1322
 21
21.7289
 31
0.0
  0
LINE
  8
0
 62
     0
 10
21.1322
 20
21.7289
 30
0.0
 11
7.13274
 21
21.7289
 31
0.0
  0
LINE
  8
0
 62
     0
 10
7.13274
 20
21.7289
 30
0.0
 11
7.13274
 21
35.7297
 31
0.0
  0
LINE
  8
0
 62
     0
 10
269.07
 20
54.7797
 30
0.0
 11
283.071
 21
54.7797
 31
0.0
  0
LINE
  8
0
 62
     0
 10
283.071
 20
54.7797
 30
0.0
 11
283.071
 21
40.779
 31
0.0
  0
LINE
  8
0
 62
     0
 10
283.071
 20
40.779
 30
0.0
 11
269.07
 21
40.779
 31
0.0
  0
LINE
  8
0
 62
     0
 10
269.07
 20
40.779
 30
0.0
 11
269.07
 21
54.7797
 31
0.0
  0
LINE
  8
0
 62
     0
 10
245.258
 20
54.7797
 30
0.0
 11
259.257
 21
54.7797
 31
0.0
  0
LINE
  8
0
 62
     0
 10
259.257
 20
54.7797
 30
0.0
 11
259.257
 21
40.779
 31
0.0
  0
LINE
  8
0
 62
     0
 10
259.257
 20
40.779
 30
0.0
 11
245.258
 21
40.779
 31
0.0
  0
LINE
  8
0
 62
     0
 10
245.258
 20
40.779
 30
0.0
 11
245.258
 21
54.7797
 31
0.0
  0
LINE
  8
0
 62
     0
 10
221.445
 20
54.7797
 30
0.0
 11
235.446
 21
54.7797
 31
0.0
  0
LINE
  8
0
 62
     0
 10
235.446
 20
54.7797
 30
0.0
 11
235.446
 21
40.779
 31
0.0
  0
LINE
  8
0
 62
     0
 10
235.446
 20
40.779
 30
0.0
 11
221.445
 21
40.779
 31
0.0
  0
LINE
  8
0
 62
     0
 10
221.445
 20
40.779
 30
0.0
 11
221.445
 21
54.7797
 31
0.0
  0
LINE
  8
0
 62
     0
 10
202.395
 20
54.7797
 30
0.0
 11
216.396
 21
54.7797
 31
0.0
  0
LINE
  8
0
 62
     0
 10
216.396
 20
54.7797
 30
0.0
 11
216.396
 21
40.779
 31
0.0
  0
LINE
  8
0
 62
     0
 10
216.396
 20
40.779
 30
0.0
 11
202.395
 21
40.779
 31
0.0
  0
LINE
  8
0
 62
     0
 10
202.395
 20
40.779
 30
0.0
 11
202.395
 21
54.7797
 31
0.0
  0
LINE
  8
0
 62
     0
 10
183.345
 20
54.7797
 30
0.0
 11
197.346
 21
54.7797
 31
0.0
  0
LINE
  8
0
 62
     0
 10
197.346
 20
54.7797
 30
0.0
 11
197.346
 21
40.779
 31
0.0
  0
LINE
  8
0
 62
     0
 10
197.346
 20
40.779
 30
0.0
 11
183.345
 21
40.779
 31
0.0
  0
LINE
  8
0
 62
     0
 10
183.345
 20
40.779
 30
0.0
 11
183.345
 21
54.7797
 31
0.0
  0
LINE
  8
0
 62
     0
 10
164.295
 20
54.7797
 30
0.0
 11
178.296
 21
54.7797
 31
0.0
  0
LINE
  8
0
 62
     0
 10
178.296
 20
54.7797
 30
0.0
 11
178.296
 21
40.779
 31
0.0
  0
LINE
  8
0
 62
     0
 10
178.296
 20
40.779
 30
0.0
 11
164.295
 21
40.779
 31
0.0
  0
LINE
  8
0
 62
     0
 10
164.295
 20
40.779
 30
0.0
 11
164.295
 21
54.7797
 31
0.0
  0
LINE
  8
0
 62
     0
 10
145.245
 20
54.7797
 30
0.0
 11
159.246
 21
54.7797
 31
0.0
  0
LINE
  8
0
 62
     0
 10
159.246
 20
54.7797
 30
0.0
 11
159.246
 21
40.779
 31
0.0
  0
LINE
  8
0
 62
     0
 10
159.246
 20
40.779
 30
0.0
 11
145.245
 21
40.779
 31
0.0
  0
LINE
  8
0
 62
     0
 10
145.245
 20
40.779
 30
0.0
 11
145.245
 21
54.7797
 31
0.0
  0
LINE
  8
0
 62
     0
 10
126.195
 20
54.7797
 30
0.0
 11
140.196
 21
54.7797
 31
0.0
  0
LINE
  8
0
 62
     0
 10
140.196
 20
54.7797
 30
0.0
 11
140.196
 21
40.779
 31
0.0
  0
LINE
  8
0
 62
     0
 10
140.196
 20
40.779
 30
0.0
 11
126.195
 21
40.779
 31
0.0
  0
LINE
  8
0
 62
     0
 10
126.195
 20
40.779
 30
0.0
 11
126.195
 21
54.7797
 31
0.0
  0
LINE
  8
0
 62
     0
 10
107.145
 20
54.7797
 30
0.0
 11
121.146
 21
54.7797
 31
0.0
  0
LINE
  8
0
 62
     0
 10
121.146
 20
54.7797
 30
0.0
 11
121.146
 21
40.779
 31
0.0
  0
LINE
  8
0
 62
     0
 10
121.146
 20
40.779
 30
0.0
 11
107.145
 21
40.779
 31
0.0
  0
LINE
  8
0
 62
     0
 10
107.145
 20
40.779
 30
0.0
 11
107.145
 21
54.7797
 31
0.0
  0
LINE
  8
0
 62
     0
 10
88.0953
 20
54.7797
 30
0.0
 11
102.096
 21
54.7797
 31
0.0
  0
LINE
  8
0
 62
     0
 10
102.096
 20
54.7797
 30
0.0
 11
102.096
 21
40.779
 31
0.0
  0
LINE
  8
0
 62
     0
 10
102.096
 20
40.779
 30
0.0
 11
88.0953
 21
40.779
 31
0.0
  0
LINE
  8
0
 62
     0
 10
88.0953
 20
40.779
 30
0.0
 11
88.0953
 21
54.7797
 31
0.0
  0
LINE
  8
0
 62
     0
 10
69.0453
 20
54.7797
 30
0.0
 11
83.046
 21
54.7797
 31
0.0
  0
LINE
  8
0
 62
     0
 10
83.046
 20
54.7797
 30
0.0
 11
83.046
 21
40.779
 31
0.0
  0
LINE
  8
0
 62
     0
 10
83.046
 20
40.779
 30
0.0
 11
69.0453
 21
40.779
 31
0.0
  0
LINE
  8
0
 62
     0
 10
69.0453
 20
40.779
 30
0.0
 11
69.0453
 21
54.7797
 31
0.0
  0
LINE
  8
0
 62
     0
 10
49.9953
 20
54.7797
 30
0.0
 11
63.996
 21
54.7797
 31
0.0
  0
LINE
  8
0
 62
     0
 10
63.996
 20
54.7797
 30
0.0
 11
63.996
 21
40.779
 31
0.0
  0
LINE
  8
0
 62
     0
 10
63.996
 20
40.779
 30
0.0
 11
49.9953
 21
40.779
 31
0.0
  0
LINE
  8
0
 62
     0
 10
49.9953
 20
40.779
 30
0.0
 11
49.9953
 21
54.7797
 31
0.0
  0
LINE
  8
0
 62
     0
 10
30.9452
 20
54.7797
 30
0.0
 11
44.946
 21
54.7797
 31
0.0
  0
LINE
  8
0
 62
     0
 10
44.946
 20
54.7797
 30
0.0
 11
44.946
 21
40.779
 31
0.0
  0
LINE
  8
0
 62
     0
 10
44.946
 20
40.779
 30
0.0
 11
30.9452
 21
40.779
 31
0.0
  0
LINE
  8
0
 62
     0
 10
30.9452
 20
40.779
 30
0.0
 11
30.9452
 21
54.7797
 31
0.0
  0
LINE
  8
0
 62
     0
 10
7.13274
 20
54.7797
 30
0.0
 11
21.1322
 21
54.7797
 31
0.0
  0
LINE
  8
0
 62
     0
 10
21.1322
 20
54.7797
 30
0.0
 11
21.1322
 21
40.779
 31
0.0
  0
LINE
  8
0
 62
     0
 10
21.1322
 20
40.779
 30
0.0
 11
7.13274
 21
40.779
 31
0.0
  0
LINE
  8
0
 62
     0
 10
7.13274
 20
40.779
 30
0.0
 11
7.13274
 21
54.7797
 31
0.0
  0
LINE
  8
0
 62
     0
 10
264.308
 20
73.8297
 30
0.0
 11
278.307
 21
73.8297
 31
0.0
  0
LINE
  8
0
 62
     0
 10
278.307
 20
73.8297
 30
0.0
 11
278.307
 21
59.829
 31
0.0
  0
LINE
  8
0
 62
     0
 10
278.307
 20
59.829
 30
0.0
 11
264.308
 21
59.829
 31
0.0
  0
LINE
  8
0
 62
     0
 10
264.308
 20
59.829
 30
0.0
 11
264.308
 21
73.8297
 31
0.0
  0
LINE
  8
0
 62
     0
 10
240.495
 20
73.8297
 30
0.0
 11
254.495
 21
73.8297
 31
0.0
  0
LINE
  8
0
 62
     0
 10
254.495
 20
73.8297
 30
0.0
 11
254.495
 21
59.829
 31
0.0
  0
LINE
  8
0
 62
     0
 10
254.495
 20
59.829
 30
0.0
 11
240.495
 21
59.829
 31
0.0
  0
LINE
  8
0
 62
     0
 10
240.495
 20
59.829
 30
0.0
 11
240.495
 21
73.8297
 31
0.0
  0
LINE
  8
0
 62
     0
 10
221.445
 20
73.8297
 30
0.0
 11
235.446
 21
73.8297
 31
0.0
  0
LINE
  8
0
 62
     0
 10
235.446
 20
73.8297
 30
0.0
 11
235.446
 21
59.829
 31
0.0
  0
LINE
  8
0
 62
     0
 10
235.446
 20
59.829
 30
0.0
 11
221.445
 21
59.829
 31
0.0
  0
LINE
  8
0
 62
     0
 10
221.445
 20
59.829
 30
0.0
 11
221.445
 21
73.8297
 31
0.0
  0
LINE
  8
0
 62
     0
 10
202.395
 20
73.8297
 30
0.0
 11
216.396
 21
73.8297
 31
0.0
  0
LINE
  8
0
 62
     0
 10
216.396
 20
73.8297
 30
0.0
 11
216.396
 21
59.829
 31
0.0
  0
LINE
  8
0
 62
     0
 10
216.396
 20
59.829
 30
0.0
 11
202.395
 21
59.829
 31
0.0
  0
LINE
  8
0
 62
     0
 10
202.395
 20
59.829
 30
0.0
 11
202.395
 21
73.8297
 31
0.0
  0
LINE
  8
0
 62
     0
 10
183.345
 20
73.8297
 30
0.0
 11
197.346
 21
73.8297
 31
0.0
  0
LINE
  8
0
 62
     0
 10
197.346
 20
73.8297
 30
0.0
 11
197.346
 21
59.829
 31
0.0
  0
LINE
  8
0
 62
     0
 10
197.346
 20
59.829
 30
0.0
 11
183.345
 21
59.829
 31
0.0
  0
LINE
  8
0
 62
     0
 10
183.345
 20
59.829
 30
0.0
 11
183.345
 21
73.8297
 31
0.0
  0
LINE
  8
0
 62
     0
 10
164.295
 20
73.8297
 30
0.0
 11
178.296
 21
73.8297
 31
0.0
  0
LINE
  8
0
 62
     0
 10
178.296
 20
73.8297
 30
0.0
 11
178.296
 21
59.829
 31
0.0
  0
LINE
  8
0
 62
     0
 10
178.296
 20
59.829
 30
0.0
 11
164.295
 21
59.829
 31
0.0
  0
LINE
  8
0
 62
     0
 10
164.295
 20
59.829
 30
0.0
 11
164.295
 21
73.8297
 31
0.0
  0
LINE
  8
0
 62
     0
 10
145.245
 20
73.8297
 30
0.0
 11
159.246
 21
73.8297
 31
0.0
  0
LINE
  8
0
 62
     0
 10
159.246
 20
73.8297
 30
0.0
 11
159.246
 21
59.829
 31
0.0
  0
LINE
  8
0
 62
     0
 10
159.246
 20
59.829
 30
0.0
 11
145.245
 21
59.829
 31
0.0
  0
LINE
  8
0
 62
     0
 10
145.245
 20
59.829
 30
0.0
 11
145.245
 21
73.8297
 31
0.0
  0
LINE
  8
0
 62
     0
 10
126.195
 20
73.8297
 30
0.0
 11
140.196
 21
73.8297
 31
0.0
  0
LINE
  8
0
 62
     0
 10
140.196
 20
73.8297
 30
0.0
 11
140.196
 21
59.829
 31
0.0
  0
LINE
  8
0
 62
     0
 10
140.196
 20
59.829
 30
0.0
 11
126.195
 21
59.829
 31
0.0
  0
LINE
  8
0
 62
     0
 10
126.195
 20
59.829
 30
0.0
 11
126.195
 21
73.8297
 31
0.0
  0
LINE
  8
0
 62
     0
 10
107.145
 20
73.8297
 30
0.0
 11
121.146
 21
73.8297
 31
0.0
  0
LINE
  8
0
 62
     0
 10
121.146
 20
73.8297
 30
0.0
 11
121.146
 21
59.829
 31
0.0
  0
LINE
  8
0
 62
     0
 10
121.146
 20
59.829
 30
0.0
 11
107.145
 21
59.829
 31
0.0
  0
LINE
  8
0
 62
     0
 10
107.145
 20
59.829
 30
0.0
 11
107.145
 21
73.8297
 31
0.0
  0
LINE
  8
0
 62
     0
 10
88.0953
 20
73.8297
 30
0.0
 11
102.096
 21
73.8297
 31
0.0
  0
LINE
  8
0
 62
     0
 10
102.096
 20
73.8297
 30
0.0
 11
102.096
 21
59.829
 31
0.0
  0
LINE
  8
0
 62
     0
 10
102.096
 20
59.829
 30
0.0
 11
88.0953
 21
59.829
 31
0.0
  0
LINE
  8
0
 62
     0
 10
88.0953
 20
59.829
 30
0.0
 11
88.0953
 21
73.8297
 31
0.0
  0
LINE
  8
0
 62
     0
 10
69.0453
 20
73.8297
 30
0.0
 11
83.046
 21
73.8297
 31
0.0
  0
LINE
  8
0
 62
     0
 10
83.046
 20
73.8297
 30
0.0
 11
83.046
 21
59.829
 31
0.0
  0
LINE
  8
0
 62
     0
 10
83.046
 20
59.829
 30
0.0
 11
69.0453
 21
59.829
 31
0.0
  0
LINE
  8
0
 62
     0
 10
69.0453
 20
59.829
 30
0.0
 11
69.0453
 21
73.8297
 31
0.0
  0
LINE
  8
0
 62
     0
 10
49.9953
 20
73.8297
 30
0.0
 11
63.996
 21
73.8297
 31
0.0
  0
LINE
  8
0
 62
     0
 10
63.996
 20
73.8297
 30
0.0
 11
63.996
 21
59.829
 31
0.0
  0
LINE
  8
0
 62
     0
 10
63.996
 20
59.829
 30
0.0
 11
49.9953
 21
59.829
 31
0.0
  0
LINE
  8
0
 62
     0
 10
49.9953
 20
59.829
 30
0.0
 11
49.9953
 21
73.8297
 31
0.0
  0
LINE
  8
0
 62
     0
 10
30.9452
 20
73.8297
 30
0.0
 11
44.946
 21
73.8297
 31
0.0
  0
LINE
  8
0
 62
     0
 10
44.946
 20
73.8297
 30
0.0
 11
44.946
 21
59.829
 31
0.0
  0
LINE
  8
0
 62
     0
 10
44.946
 20
59.829
 30
0.0
 11
30.9452
 21
59.829
 31
0.0
  0
LINE
  8
0
 62
     0
 10
30.9452
 20
59.829
 30
0.0
 11
30.9452
 21
73.8297
 31
0.0
  0
LINE
  8
0
 62
     0
 10
7.13274
 20
73.8297
 30
0.0
 11
21.1322
 21
73.8297
 31
0.0
  0
LINE
  8
0
 62
     0
 10
21.1322
 20
73.8297
 30
0.0
 11
21.1322
 21
59.829
 31
0.0
  0
LINE
  8
0
 62
     0
 10
21.1322
 20
59.829
 30
0.0
 11
7.13274
 21
59.829
 31
0.0
  0
LINE
  8
0
 62
     0
 10
7.13274
 20
59.829
 30
0.0
 11
7.13274
 21
73.8297
 31
0.0
  0
LINE
  8
0
 62
     0
 10
264.308
 20
92.8797
 30
0.0
 11
278.307
 21
92.8797
 31
0.0
  0
LINE
  8
0
 62
     0
 10
278.307
 20
92.8797
 30
0.0
 11
278.307
 21
78.879
 31
0.0
  0
LINE
  8
0
 62
     0
 10
278.307
 20
78.879
 30
0.0
 11
264.308
 21
78.879
 31
0.0
  0
LINE
  8
0
 62
     0
 10
264.308
 20
78.879
 30
0.0
 11
264.308
 21
92.8797
 31
0.0
  0
LINE
  8
0
 62
     0
 10
240.495
 20
92.8797
 30
0.0
 11
254.495
 21
92.8797
 31
0.0
  0
LINE
  8
0
 62
     0
 10
254.495
 20
92.8797
 30
0.0
 11
254.495
 21
78.879
 31
0.0
  0
LINE
  8
0
 62
     0
 10
254.495
 20
78.879
 30
0.0
 11
240.495
 21
78.879
 31
0.0
  0
LINE
  8
0
 62
     0
 10
240.495
 20
78.879
 30
0.0
 11
240.495
 21
92.8797
 31
0.0
  0
LINE
  8
0
 62
     0
 10
221.445
 20
92.8797
 30
0.0
 11
235.446
 21
92.8797
 31
0.0
  0
LINE
  8
0
 62
     0
 10
235.446
 20
92.8797
 30
0.0
 11
235.446
 21
78.879
 31
0.0
  0
LINE
  8
0
 62
     0
 10
235.446
 20
78.879
 30
0.0
 11
221.445
 21
78.879
 31
0.0
  0
LINE
  8
0
 62
     0
 10
221.445
 20
78.879
 30
0.0
 11
221.445
 21
92.8797
 31
0.0
  0
LINE
  8
0
 62
     0
 10
202.395
 20
92.8797
 30
0.0
 11
216.396
 21
92.8797
 31
0.0
  0
LINE
  8
0
 62
     0
 10
216.396
 20
92.8797
 30
0.0
 11
216.396
 21
78.879
 31
0.0
  0
LINE
  8
0
 62
     0
 10
216.396
 20
78.879
 30
0.0
 11
202.395
 21
78.879
 31
0.0
  0
LINE
  8
0
 62
     0
 10
202.395
 20
78.879
 30
0.0
 11
202.395
 21
92.8797
 31
0.0
  0
LINE
  8
0
 62
     0
 10
183.345
 20
92.8797
 30
0.0
 11
197.346
 21
92.8797
 31
0.0
  0
LINE
  8
0
 62
     0
 10
197.346
 20
92.8797
 30
0.0
 11
197.346
 21
78.879
 31
0.0
  0
LINE
  8
0
 62
     0
 10
197.346
 20
78.879
 30
0.0
 11
183.345
 21
78.879
 31
0.0
  0
LINE
  8
0
 62
     0
 10
183.345
 20
78.879
 30
0.0
 11
183.345
 21
92.8797
 31
0.0
  0
LINE
  8
0
 62
     0
 10
164.295
 20
92.8797
 30
0.0
 11
178.296
 21
92.8797
 31
0.0
  0
LINE
  8
0
 62
     0
 10
178.296
 20
92.8797
 30
0.0
 11
178.296
 21
78.879
 31
0.0
  0
LINE
  8
0
 62
     0
 10
178.296
 20
78.879
 30
0.0
 11
164.295
 21
78.879
 31
0.0
  0
LINE
  8
0
 62
     0
 10
164.295
 20
78.879
 30
0.0
 11
164.295
 21
92.8797
 31
0.0
  0
LINE
  8
0
 62
     0
 10
145.245
 20
92.8797
 30
0.0
 11
159.246
 21
92.8797
 31
0.0
  0
LINE
  8
0
 62
     0
 10
159.246
 20
92.8797
 30
0.0
 11
159.246
 21
78.879
 31
0.0
  0
LINE
  8
0
 62
     0
 10
159.246
 20
78.879
 30
0.0
 11
145.245
 21
78.879
 31
0.0
  0
LINE
  8
0
 62
     0
 10
145.245
 20
78.879
 30
0.0
 11
145.245
 21
92.8797
 31
0.0
  0
LINE
  8
0
 62
     0
 10
126.195
 20
92.8797
 30
0.0
 11
140.196
 21
92.8797
 31
0.0
  0
LINE
  8
0
 62
     0
 10
140.196
 20
92.8797
 30
0.0
 11
140.196
 21
78.879
 31
0.0
  0
LINE
  8
0
 62
     0
 10
140.196
 20
78.879
 30
0.0
 11
126.195
 21
78.879
 31
0.0
  0
LINE
  8
0
 62
     0
 10
126.195
 20
78.879
 30
0.0
 11
126.195
 21
92.8797
 31
0.0
  0
LINE
  8
0
 62
     0
 10
107.145
 20
92.8797
 30
0.0
 11
121.146
 21
92.8797
 31
0.0
  0
LINE
  8
0
 62
     0
 10
121.146
 20
92.8797
 30
0.0
 11
121.146
 21
78.879
 31
0.0
  0
LINE
  8
0
 62
     0
 10
121.146
 20
78.879
 30
0.0
 11
107.145
 21
78.879
 31
0.0
  0
LINE
  8
0
 62
     0
 10
107.145
 20
78.879
 30
0.0
 11
107.145
 21
92.8797
 31
0.0
  0
LINE
  8
0
 62
     0
 10
88.0953
 20
92.8797
 30
0.0
 11
102.096
 21
92.8797
 31
0.0
  0
LINE
  8
0
 62
     0
 10
102.096
 20
92.8797
 30
0.0
 11
102.096
 21
78.879
 31
0.0
  0
LINE
  8
0
 62
     0
 10
102.096
 20
78.879
 30
0.0
 11
88.0953
 21
78.879
 31
0.0
  0
LINE
  8
0
 62
     0
 10
88.0953
 20
78.879
 30
0.0
 11
88.0953
 21
92.8797
 31
0.0
  0
LINE
  8
0
 62
     0
 10
69.0453
 20
92.8797
 30
0.0
 11
83.046
 21
92.8797
 31
0.0
  0
LINE
  8
0
 62
     0
 10
83.046
 20
92.8797
 30
0.0
 11
83.046
 21
78.879
 31
0.0
  0
LINE
  8
0
 62
     0
 10
83.046
 20
78.879
 30
0.0
 11
69.0453
 21
78.879
 31
0.0
  0
LINE
  8
0
 62
     0
 10
69.0453
 20
78.879
 30
0.0
 11
69.0453
 21
92.8797
 31
0.0
  0
LINE
  8
0
 62
     0
 10
49.9953
 20
92.8797
 30
0.0
 11
63.996
 21
92.8797
 31
0.0
  0
LINE
  8
0
 62
     0
 10
63.996
 20
92.8797
 30
0.0
 11
63.996
 21
78.879
 31
0.0
  0
LINE
  8
0
 62
     0
 10
63.996
 20
78.879
 30
0.0
 11
49.9953
 21
78.879
 31
0.0
  0
LINE
  8
0
 62
     0
 10
49.9953
 20
78.879
 30
0.0
 11
49.9953
 21
92.8797
 31
0.0
  0
LINE
  8
0
 62
     0
 10
30.9452
 20
92.8797
 30
0.0
 11
44.946
 21
92.8797
 31
0.0
  0
LINE
  8
0
 62
     0
 10
44.946
 20
92.8797
 30
0.0
 11
44.946
 21
78.879
 31
0.0
  0
LINE
  8
0
 62
     0
 10
44.946
 20
78.879
 30
0.0
 11
30.9452
 21
78.879
 31
0.0
  0
LINE
  8
0
 62
     0
 10
30.9452
 20
78.879
 30
0.0
 11
30.9452
 21
92.8797
 31
0.0
  0
LINE
  8
0
 62
     0
 10
7.13274
 20
92.8797
 30
0.0
 11
21.1322
 21
92.8797
 31
0.0
  0
LINE
  8
0
 62
     0
 10
21.1322
 20
92.8797
 30
0.0
 11
21.1322
 21
78.879
 31
0.0
  0
LINE
  8
0
 62
     0
 10
21.1322
 20
78.879
 30
0.0
 11
7.13274
 21
78.879
 31
0.0
  0
LINE
  8
0
 62
     0
 10
7.13274
 20
78.879
 30
0.0
 11
7.13274
 21
92.8797
 31
0.0
  0
ENDSEC
  0
EOF
