<?xml version="1.0" encoding="utf-8"?>
<!-- Generator: Adobe Illustrator 25.4.1, SVG Export Plug-In . SVG Version: 6.00 Build 0)  -->
<svg version="1.1" id="Layer_1" xmlns="http://www.w3.org/2000/svg" xmlns:xlink="http://www.w3.org/1999/xlink" x="0px" y="0px"
	 viewBox="0 0 838.4 298.4" style="enable-background:new 0 0 838.4 298.4;" xml:space="preserve">
<style type="text/css">
	.st0{fill:none;stroke:#000000;stroke-width:0.4018;stroke-miterlimit:11.3386;}
	.st1{fill:#FFFFFF;stroke:#000000;stroke-width:0.2835;stroke-miterlimit:10;}
</style>
<polygon class="st0" points="817.8,14.9 818.2,14.9 818.7,15 819.1,15 819.6,15.2 820,15.3 820.4,15.5 820.8,15.7 821.1,16 
	821.5,16.2 821.8,16.5 822.1,16.9 822.4,17.2 822.6,17.6 822.9,18 823,18.4 823.2,18.8 823.3,19.2 823.4,19.7 823.5,20.1 
	823.5,20.6 823.5,277.8 823.5,278.2 823.4,278.7 823.3,279.1 823.2,279.6 823,280 822.9,280.4 822.6,280.8 822.4,281.1 822.1,281.5 
	821.8,281.8 821.5,282.1 821.1,282.4 820.8,282.6 820.4,282.9 820,283 819.6,283.2 819.1,283.3 818.7,283.4 818.2,283.5 
	817.8,283.5 20.6,283.5 20.1,283.5 19.7,283.4 19.2,283.3 18.8,283.2 18.4,283 18,282.9 17.6,282.6 17.2,282.4 16.9,282.1 
	16.5,281.8 16.2,281.5 16,281.1 15.7,280.8 15.5,280.4 15.3,280 15.2,279.6 15,279.1 15,278.7 14.9,278.2 14.9,277.8 14.9,20.6 
	14.9,20.1 15,19.7 15,19.2 15.2,18.8 15.3,18.4 15.5,18 15.7,17.6 16,17.2 16.2,16.9 16.5,16.5 16.9,16.2 17.2,16 17.6,15.7 
	18,15.5 18.4,15.3 18.8,15.2 19.2,15 19.7,15 20.1,14.9 20.6,14.9 "/>
<polygon class="st0" points="777.3,237.3 777.3,277 817,277 817,237.3 "/>
<polygon class="st0" points="723.3,237.3 723.3,277 763,277 763,237.3 "/>
<polygon class="st0" points="669.3,237.3 669.3,277 709,277 709,237.3 "/>
<polygon class="st0" points="588.3,237.3 588.3,277 628,277 628,237.3 "/>
<polygon class="st0" points="534.3,237.3 534.3,277 574,277 574,237.3 "/>
<polygon class="st0" points="480.3,237.3 480.3,277 520,277 520,237.3 "/>
<polygon class="st0" points="385.8,237.3 385.8,277 425.5,277 425.5,237.3 "/>
<polygon class="st0" points="318.3,237.3 318.3,277 358,277 358,237.3 "/>
<polygon class="st0" points="250.8,237.3 250.8,277 290.5,277 290.5,237.3 "/>
<polygon class="st0" points="156.3,237.3 156.3,277 196,277 196,237.3 "/>
<polygon class="st0" points="102.3,237.3 102.3,277 142,277 142,237.3 "/>
<polygon class="st0" points="34.8,237.3 34.8,277 74.5,277 74.5,237.3 "/>
<polygon class="st0" points="777.3,183.3 777.3,223 817,223 817,183.3 "/>
<polygon class="st0" points="723.3,183.3 723.3,223 763,223 763,183.3 "/>
<polygon class="st0" points="655.8,183.3 655.8,223 695.5,223 695.5,183.3 "/>
<polygon class="st0" points="588.3,183.3 588.3,223 628,223 628,183.3 "/>
<polygon class="st0" points="534.3,183.3 534.3,223 574,223 574,183.3 "/>
<polygon class="st0" points="480.3,183.3 480.3,223 520,223 520,183.3 "/>
<polygon class="st0" points="426.3,183.3 426.3,223 466,223 466,183.3 "/>
<polygon class="st0" points="372.3,183.3 372.3,223 412,223 412,183.3 "/>
<polygon class="st0" points="318.3,183.3 318.3,223 358,223 358,183.3 "/>
<polygon class="st0" points="264.3,183.3 264.3,223 304,223 304,183.3 "/>
<polygon class="st0" points="210.3,183.3 210.3,223 250,223 250,183.3 "/>
<polygon class="st0" points="156.3,183.3 156.3,223 196,223 196,183.3 "/>
<polygon class="st0" points="102.3,183.3 102.3,223 142,223 142,183.3 "/>
<polygon class="st0" points="34.8,183.3 34.8,223 74.5,223 74.5,183.3 "/>
<polygon class="st0" points="777.3,129.3 777.3,169 817,169 817,129.3 "/>
<polygon class="st0" points="709.8,129.3 709.8,169 749.5,169 749.5,129.3 "/>
<polygon class="st0" points="642.3,129.3 642.3,169 682,169 682,129.3 "/>
<polygon class="st0" points="588.3,129.3 588.3,169 628,169 628,129.3 "/>
<polygon class="st0" points="534.3,129.3 534.3,169 574,169 574,129.3 "/>
<polygon class="st0" points="480.3,129.3 480.3,169 520,169 520,129.3 "/>
<polygon class="st0" points="426.3,129.3 426.3,169 466,169 466,129.3 "/>
<polygon class="st0" points="372.3,129.3 372.3,169 412,169 412,129.3 "/>
<polygon class="st0" points="318.3,129.3 318.3,169 358,169 358,129.3 "/>
<polygon class="st0" points="264.3,129.3 264.3,169 304,169 304,129.3 "/>
<polygon class="st0" points="210.3,129.3 210.3,169 250,169 250,129.3 "/>
<polygon class="st0" points="156.3,129.3 156.3,169 196,169 196,129.3 "/>
<polygon class="st0" points="102.3,129.3 102.3,169 142,169 142,129.3 "/>
<polygon class="st0" points="34.8,129.3 34.8,169 74.5,169 74.5,129.3 "/>
<polygon class="st0" points="763.8,75.3 763.8,115 803.5,115 803.5,75.3 "/>
<polygon class="st0" points="696.3,75.3 696.3,115 736,115 736,75.3 "/>
<polygon class="st0" points="642.3,75.3 642.3,115 682,115 682,75.3 "/>
<polygon class="st0" points="588.3,75.3 588.3,115 628,115 628,75.3 "/>
<polygon class="st0" points="534.3,75.3 534.3,115 574,115 574,75.3 "/>
<polygon class="st0" points="480.3,75.3 480.3,115 520,115 520,75.3 "/>
<polygon class="st0" points="426.3,75.3 426.3,115 466,115 466,75.3 "/>
<polygon class="st0" points="372.3,75.3 372.3,115 412,115 412,75.3 "/>
<polygon class="st0" points="318.3,75.3 318.3,115 358,115 358,75.3 "/>
<polygon class="st0" points="264.3,75.3 264.3,115 304,115 304,75.3 "/>
<polygon class="st0" points="210.3,75.3 210.3,115 250,115 250,75.3 "/>
<polygon class="st0" points="156.3,75.3 156.3,115 196,115 196,75.3 "/>
<polygon class="st0" points="102.3,75.3 102.3,115 142,115 142,75.3 "/>
<polygon class="st0" points="34.8,75.3 34.8,115 74.5,115 74.5,75.3 "/>
<polygon class="st0" points="763.8,21.3 763.8,61 803.5,61 803.5,21.3 "/>
<polygon class="st0" points="696.3,21.3 696.3,61 736,61 736,21.3 "/>
<polygon class="st0" points="642.3,21.3 642.3,61 682,61 682,21.3 "/>
<polygon class="st0" points="588.3,21.3 588.3,61 628,61 628,21.3 "/>
<polygon class="st0" points="534.3,21.3 534.3,61 574,61 574,21.3 "/>
<polygon class="st0" points="480.3,21.3 480.3,61 520,61 520,21.3 "/>
<polygon class="st0" points="426.3,21.3 426.3,61 466,61 466,21.3 "/>
<polygon class="st0" points="372.3,21.3 372.3,61 412,61 412,21.3 "/>
<polygon class="st0" points="318.3,21.3 318.3,61 358,61 358,21.3 "/>
<polygon class="st0" points="264.3,21.3 264.3,61 304,61 304,21.3 "/>
<polygon class="st0" points="210.3,21.3 210.3,61 250,61 250,21.3 "/>
<polygon class="st0" points="156.3,21.3 156.3,61 196,61 196,21.3 "/>
<polygon class="st0" points="102.3,21.3 102.3,61 142,61 142,21.3 "/>
<polygon class="st0" points="34.8,21.3 34.8,61 74.5,61 74.5,21.3 "/>
<circle class="st1" cx="743.2" cy="230.2" r="4.4"/>
<circle class="st1" cx="41.2" cy="230.2" r="4.4"/>
<circle class="st1" cx="743.2" cy="68.2" r="4.4"/>
<circle class="st1" cx="41.2" cy="68.2" r="4.4"/>
<circle class="st1" cx="527.2" cy="184.8" r="4.4"/>
<circle class="st1" cx="257.2" cy="184.8" r="4.4"/>
</svg>
