  0
SECTION
  2
HEADER
  9
$ACADVER
  1
AC1009
  9
$EXTMIN
 10
0.0
 20
0.0
 30
0.0
  9
$EXTMAX
 10
1000.0
 20
1000.0
 30
0.0
  9
$FILLMODE
 70
 0
  9
$SPLFRAME
 70
 1
  0
ENDSEC
  0
SECTION
  2
TABLES
  0
TABLE
  2
LAYER
 70
1
  0
LAYER
  2
0
 70
     0
 62
     7
  6
CONTINUOUS
  0
ENDTAB
  0
ENDSEC
  0
SECTION
  2
ENTITIES
  0
LINE
  8
0
 62
     0
 10
0.0950846
 20
95.5075
 30
0.0
 11
285.845
 21
95.5075
 31
0.0
  0
LINE
  8
0
 62
     0
 10
285.845
 20
95.5075
 30
0.0
 11
285.845
 21
0.257693
 31
0.0
  0
LINE
  8
0
 62
     0
 10
285.845
 20
0.257693
 30
0.0
 11
0.0950846
 21
0.257693
 31
0.0
  0
LINE
  8
0
 62
     0
 10
0.0950846
 20
0.257693
 30
0.0
 11
0.0950846
 21
95.5075
 31
0.0
  0
LINE
  8
0
 62
     0
 10
269.32
 20
16.7831
 30
0.0
 11
283.319
 21
16.7831
 31
0.0
  0
LINE
  8
0
 62
     0
 10
283.319
 20
16.7831
 30
0.0
 11
283.319
 21
2.78364
 31
0.0
  0
LINE
  8
0
 62
     0
 10
283.319
 20
2.78364
 30
0.0
 11
269.32
 21
2.78364
 31
0.0
  0
LINE
  8
0
 62
     0
 10
269.32
 20
2.78364
 30
0.0
 11
269.32
 21
16.7831
 31
0.0
  0
LINE
  8
0
 62
     0
 10
250.27
 20
16.7831
 30
0.0
 11
264.269
 21
16.7831
 31
0.0
  0
LINE
  8
0
 62
     0
 10
264.269
 20
16.7831
 30
0.0
 11
264.269
 21
2.78364
 31
0.0
  0
LINE
  8
0
 62
     0
 10
264.269
 20
2.78364
 30
0.0
 11
250.27
 21
2.78364
 31
0.0
  0
LINE
  8
0
 62
     0
 10
250.27
 20
2.78364
 30
0.0
 11
250.27
 21
16.7831
 31
0.0
  0
LINE
  8
0
 62
     0
 10
231.22
 20
16.7831
 30
0.0
 11
245.219
 21
16.7831
 31
0.0
  0
LINE
  8
0
 62
     0
 10
245.219
 20
16.7831
 30
0.0
 11
245.219
 21
2.78364
 31
0.0
  0
LINE
  8
0
 62
     0
 10
245.219
 20
2.78364
 30
0.0
 11
231.22
 21
2.78364
 31
0.0
  0
LINE
  8
0
 62
     0
 10
231.22
 20
2.78364
 30
0.0
 11
231.22
 21
16.7831
 31
0.0
  0
LINE
  8
0
 62
     0
 10
202.645
 20
16.7831
 30
0.0
 11
216.644
 21
16.7831
 31
0.0
  0
LINE
  8
0
 62
     0
 10
216.644
 20
16.7831
 30
0.0
 11
216.644
 21
2.78364
 31
0.0
  0
LINE
  8
0
 62
     0
 10
216.644
 20
2.78364
 30
0.0
 11
202.645
 21
2.78364
 31
0.0
  0
LINE
  8
0
 62
     0
 10
202.645
 20
2.78364
 30
0.0
 11
202.645
 21
16.7831
 31
0.0
  0
LINE
  8
0
 62
     0
 10
183.595
 20
16.7831
 30
0.0
 11
197.594
 21
16.7831
 31
0.0
  0
LINE
  8
0
 62
     0
 10
197.594
 20
16.7831
 30
0.0
 11
197.594
 21
2.78364
 31
0.0
  0
LINE
  8
0
 62
     0
 10
197.594
 20
2.78364
 30
0.0
 11
183.595
 21
2.78364
 31
0.0
  0
LINE
  8
0
 62
     0
 10
183.595
 20
2.78364
 30
0.0
 11
183.595
 21
16.7831
 31
0.0
  0
LINE
  8
0
 62
     0
 10
164.545
 20
16.7831
 30
0.0
 11
178.544
 21
16.7831
 31
0.0
  0
LINE
  8
0
 62
     0
 10
178.544
 20
16.7831
 30
0.0
 11
178.544
 21
2.78364
 31
0.0
  0
LINE
  8
0
 62
     0
 10
178.544
 20
2.78364
 30
0.0
 11
164.545
 21
2.78364
 31
0.0
  0
LINE
  8
0
 62
     0
 10
164.545
 20
2.78364
 30
0.0
 11
164.545
 21
16.7831
 31
0.0
  0
LINE
  8
0
 62
     0
 10
131.207
 20
16.7831
 30
0.0
 11
145.207
 21
16.7831
 31
0.0
  0
LINE
  8
0
 62
     0
 10
145.207
 20
16.7831
 30
0.0
 11
145.207
 21
2.78364
 31
0.0
  0
LINE
  8
0
 62
     0
 10
145.207
 20
2.78364
 30
0.0
 11
131.207
 21
2.78364
 31
0.0
  0
LINE
  8
0
 62
     0
 10
131.207
 20
2.78364
 30
0.0
 11
131.207
 21
16.7831
 31
0.0
  0
LINE
  8
0
 62
     0
 10
107.395
 20
16.7831
 30
0.0
 11
121.394
 21
16.7831
 31
0.0
  0
LINE
  8
0
 62
     0
 10
121.394
 20
16.7831
 30
0.0
 11
121.394
 21
2.78364
 31
0.0
  0
LINE
  8
0
 62
     0
 10
121.394
 20
2.78364
 30
0.0
 11
107.395
 21
2.78364
 31
0.0
  0
LINE
  8
0
 62
     0
 10
107.395
 20
2.78364
 30
0.0
 11
107.395
 21
16.7831
 31
0.0
  0
LINE
  8
0
 62
     0
 10
83.5822
 20
16.7831
 30
0.0
 11
97.5815
 21
16.7831
 31
0.0
  0
LINE
  8
0
 62
     0
 10
97.5815
 20
16.7831
 30
0.0
 11
97.5815
 21
2.78364
 31
0.0
  0
LINE
  8
0
 62
     0
 10
97.5815
 20
2.78364
 30
0.0
 11
83.5822
 21
2.78364
 31
0.0
  0
LINE
  8
0
 62
     0
 10
83.5822
 20
2.78364
 30
0.0
 11
83.5822
 21
16.7831
 31
0.0
  0
LINE
  8
0
 62
     0
 10
50.2447
 20
16.7831
 30
0.0
 11
64.244
 21
16.7831
 31
0.0
  0
LINE
  8
0
 62
     0
 10
64.244
 20
16.7831
 30
0.0
 11
64.244
 21
2.78364
 31
0.0
  0
LINE
  8
0
 62
     0
 10
64.244
 20
2.78364
 30
0.0
 11
50.2447
 21
2.78364
 31
0.0
  0
LINE
  8
0
 62
     0
 10
50.2447
 20
2.78364
 30
0.0
 11
50.2447
 21
16.7831
 31
0.0
  0
LINE
  8
0
 62
     0
 10
31.1947
 20
16.7831
 30
0.0
 11
45.194
 21
16.7831
 31
0.0
  0
LINE
  8
0
 62
     0
 10
45.194
 20
16.7831
 30
0.0
 11
45.194
 21
2.78364
 31
0.0
  0
LINE
  8
0
 62
     0
 10
45.194
 20
2.78364
 30
0.0
 11
31.1947
 21
2.78364
 31
0.0
  0
LINE
  8
0
 62
     0
 10
31.1947
 20
2.78364
 30
0.0
 11
31.1947
 21
16.7831
 31
0.0
  0
LINE
  8
0
 62
     0
 10
7.38216
 20
16.7831
 30
0.0
 11
21.3817
 21
16.7831
 31
0.0
  0
LINE
  8
0
 62
     0
 10
21.3817
 20
16.7831
 30
0.0
 11
21.3817
 21
2.78364
 31
0.0
  0
LINE
  8
0
 62
     0
 10
21.3817
 20
2.78364
 30
0.0
 11
7.38216
 21
2.78364
 31
0.0
  0
LINE
  8
0
 62
     0
 10
7.38216
 20
2.78364
 30
0.0
 11
7.38216
 21
16.7831
 31
0.0
  0
LINE
  8
0
 62
     0
 10
269.32
 20
35.833
 30
0.0
 11
283.319
 21
35.833
 31
0.0
  0
LINE
  8
0
 62
     0
 10
283.319
 20
35.833
 30
0.0
 11
283.319
 21
21.8336
 31
0.0
  0
LINE
  8
0
 62
     0
 10
283.319
 20
21.8336
 30
0.0
 11
269.32
 21
21.8336
 31
0.0
  0
LINE
  8
0
 62
     0
 10
269.32
 20
21.8336
 30
0.0
 11
269.32
 21
35.833
 31
0.0
  0
LINE
  8
0
 62
     0
 10
250.27
 20
35.833
 30
0.0
 11
264.269
 21
35.833
 31
0.0
  0
LINE
  8
0
 62
     0
 10
264.269
 20
35.833
 30
0.0
 11
264.269
 21
21.8336
 31
0.0
  0
LINE
  8
0
 62
     0
 10
264.269
 20
21.8336
 30
0.0
 11
250.27
 21
21.8336
 31
0.0
  0
LINE
  8
0
 62
     0
 10
250.27
 20
21.8336
 30
0.0
 11
250.27
 21
35.833
 31
0.0
  0
LINE
  8
0
 62
     0
 10
226.457
 20
35.833
 30
0.0
 11
240.457
 21
35.833
 31
0.0
  0
LINE
  8
0
 62
     0
 10
240.457
 20
35.833
 30
0.0
 11
240.457
 21
21.8336
 31
0.0
  0
LINE
  8
0
 62
     0
 10
240.457
 20
21.8336
 30
0.0
 11
226.457
 21
21.8336
 31
0.0
  0
LINE
  8
0
 62
     0
 10
226.457
 20
21.8336
 30
0.0
 11
226.457
 21
35.833
 31
0.0
  0
LINE
  8
0
 62
     0
 10
202.645
 20
35.833
 30
0.0
 11
216.644
 21
35.833
 31
0.0
  0
LINE
  8
0
 62
     0
 10
216.644
 20
35.833
 30
0.0
 11
216.644
 21
21.8336
 31
0.0
  0
LINE
  8
0
 62
     0
 10
216.644
 20
21.8336
 30
0.0
 11
202.645
 21
21.8336
 31
0.0
  0
LINE
  8
0
 62
     0
 10
202.645
 20
21.8336
 30
0.0
 11
202.645
 21
35.833
 31
0.0
  0
LINE
  8
0
 62
     0
 10
183.595
 20
35.833
 30
0.0
 11
197.594
 21
35.833
 31
0.0
  0
LINE
  8
0
 62
     0
 10
197.594
 20
35.833
 30
0.0
 11
197.594
 21
21.8336
 31
0.0
  0
LINE
  8
0
 62
     0
 10
197.594
 20
21.8336
 30
0.0
 11
183.595
 21
21.8336
 31
0.0
  0
LINE
  8
0
 62
     0
 10
183.595
 20
21.8336
 30
0.0
 11
183.595
 21
35.833
 31
0.0
  0
LINE
  8
0
 62
     0
 10
164.545
 20
35.833
 30
0.0
 11
178.544
 21
35.833
 31
0.0
  0
LINE
  8
0
 62
     0
 10
178.544
 20
35.833
 30
0.0
 11
178.544
 21
21.8336
 31
0.0
  0
LINE
  8
0
 62
     0
 10
178.544
 20
21.8336
 30
0.0
 11
164.545
 21
21.8336
 31
0.0
  0
LINE
  8
0
 62
     0
 10
164.545
 20
21.8336
 30
0.0
 11
164.545
 21
35.833
 31
0.0
  0
LINE
  8
0
 62
     0
 10
145.495
 20
35.833
 30
0.0
 11
159.494
 21
35.833
 31
0.0
  0
LINE
  8
0
 62
     0
 10
159.494
 20
35.833
 30
0.0
 11
159.494
 21
21.8336
 31
0.0
  0
LINE
  8
0
 62
     0
 10
159.494
 20
21.8336
 30
0.0
 11
145.495
 21
21.8336
 31
0.0
  0
LINE
  8
0
 62
     0
 10
145.495
 20
21.8336
 30
0.0
 11
145.495
 21
35.833
 31
0.0
  0
LINE
  8
0
 62
     0
 10
126.445
 20
35.833
 30
0.0
 11
140.444
 21
35.833
 31
0.0
  0
LINE
  8
0
 62
     0
 10
140.444
 20
35.833
 30
0.0
 11
140.444
 21
21.8336
 31
0.0
  0
LINE
  8
0
 62
     0
 10
140.444
 20
21.8336
 30
0.0
 11
126.445
 21
21.8336
 31
0.0
  0
LINE
  8
0
 62
     0
 10
126.445
 20
21.8336
 30
0.0
 11
126.445
 21
35.833
 31
0.0
  0
LINE
  8
0
 62
     0
 10
107.395
 20
35.833
 30
0.0
 11
121.394
 21
35.833
 31
0.0
  0
LINE
  8
0
 62
     0
 10
121.394
 20
35.833
 30
0.0
 11
121.394
 21
21.8336
 31
0.0
  0
LINE
  8
0
 62
     0
 10
121.394
 20
21.8336
 30
0.0
 11
107.395
 21
21.8336
 31
0.0
  0
LINE
  8
0
 62
     0
 10
107.395
 20
21.8336
 30
0.0
 11
107.395
 21
35.833
 31
0.0
  0
LINE
  8
0
 62
     0
 10
88.3447
 20
35.833
 30
0.0
 11
102.344
 21
35.833
 31
0.0
  0
LINE
  8
0
 62
     0
 10
102.344
 20
35.833
 30
0.0
 11
102.344
 21
21.8336
 31
0.0
  0
LINE
  8
0
 62
     0
 10
102.344
 20
21.8336
 30
0.0
 11
88.3447
 21
21.8336
 31
0.0
  0
LINE
  8
0
 62
     0
 10
88.3447
 20
21.8336
 30
0.0
 11
88.3447
 21
35.833
 31
0.0
  0
LINE
  8
0
 62
     0
 10
69.2947
 20
35.833
 30
0.0
 11
83.294
 21
35.833
 31
0.0
  0
LINE
  8
0
 62
     0
 10
83.294
 20
35.833
 30
0.0
 11
83.294
 21
21.8336
 31
0.0
  0
LINE
  8
0
 62
     0
 10
83.294
 20
21.8336
 30
0.0
 11
69.2947
 21
21.8336
 31
0.0
  0
LINE
  8
0
 62
     0
 10
69.2947
 20
21.8336
 30
0.0
 11
69.2947
 21
35.833
 31
0.0
  0
LINE
  8
0
 62
     0
 10
50.2447
 20
35.833
 30
0.0
 11
64.244
 21
35.833
 31
0.0
  0
LINE
  8
0
 62
     0
 10
64.244
 20
35.833
 30
0.0
 11
64.244
 21
21.8336
 31
0.0
  0
LINE
  8
0
 62
     0
 10
64.244
 20
21.8336
 30
0.0
 11
50.2447
 21
21.8336
 31
0.0
  0
LINE
  8
0
 62
     0
 10
50.2447
 20
21.8336
 30
0.0
 11
50.2447
 21
35.833
 31
0.0
  0
LINE
  8
0
 62
     0
 10
31.1947
 20
35.833
 30
0.0
 11
45.194
 21
35.833
 31
0.0
  0
LINE
  8
0
 62
     0
 10
45.194
 20
35.833
 30
0.0
 11
45.194
 21
21.8336
 31
0.0
  0
LINE
  8
0
 62
     0
 10
45.194
 20
21.8336
 30
0.0
 11
31.1947
 21
21.8336
 31
0.0
  0
LINE
  8
0
 62
     0
 10
31.1947
 20
21.8336
 30
0.0
 11
31.1947
 21
35.833
 31
0.0
  0
LINE
  8
0
 62
     0
 10
7.38216
 20
35.833
 30
0.0
 11
21.3817
 21
35.833
 31
0.0
  0
LINE
  8
0
 62
     0
 10
21.3817
 20
35.833
 30
0.0
 11
21.3817
 21
21.8336
 31
0.0
  0
LINE
  8
0
 62
     0
 10
21.3817
 20
21.8336
 30
0.0
 11
7.38216
 21
21.8336
 31
0.0
  0
LINE
  8
0
 62
     0
 10
7.38216
 20
21.8336
 30
0.0
 11
7.38216
 21
35.833
 31
0.0
  0
LINE
  8
0
 62
     0
 10
269.32
 20
54.8831
 30
0.0
 11
283.319
 21
54.8831
 31
0.0
  0
LINE
  8
0
 62
     0
 10
283.319
 20
54.8831
 30
0.0
 11
283.319
 21
40.8838
 31
0.0
  0
LINE
  8
0
 62
     0
 10
283.319
 20
40.8838
 30
0.0
 11
269.32
 21
40.8838
 31
0.0
  0
LINE
  8
0
 62
     0
 10
269.32
 20
40.8838
 30
0.0
 11
269.32
 21
54.8831
 31
0.0
  0
LINE
  8
0
 62
     0
 10
245.507
 20
54.8831
 30
0.0
 11
259.507
 21
54.8831
 31
0.0
  0
LINE
  8
0
 62
     0
 10
259.507
 20
54.8831
 30
0.0
 11
259.507
 21
40.8838
 31
0.0
  0
LINE
  8
0
 62
     0
 10
259.507
 20
40.8838
 30
0.0
 11
245.507
 21
40.8838
 31
0.0
  0
LINE
  8
0
 62
     0
 10
245.507
 20
40.8838
 30
0.0
 11
245.507
 21
54.8831
 31
0.0
  0
LINE
  8
0
 62
     0
 10
221.695
 20
54.8831
 30
0.0
 11
235.694
 21
54.8831
 31
0.0
  0
LINE
  8
0
 62
     0
 10
235.694
 20
54.8831
 30
0.0
 11
235.694
 21
40.8838
 31
0.0
  0
LINE
  8
0
 62
     0
 10
235.694
 20
40.8838
 30
0.0
 11
221.695
 21
40.8838
 31
0.0
  0
LINE
  8
0
 62
     0
 10
221.695
 20
40.8838
 30
0.0
 11
221.695
 21
54.8831
 31
0.0
  0
LINE
  8
0
 62
     0
 10
202.645
 20
54.8831
 30
0.0
 11
216.644
 21
54.8831
 31
0.0
  0
LINE
  8
0
 62
     0
 10
216.644
 20
54.8831
 30
0.0
 11
216.644
 21
40.8838
 31
0.0
  0
LINE
  8
0
 62
     0
 10
216.644
 20
40.8838
 30
0.0
 11
202.645
 21
40.8838
 31
0.0
  0
LINE
  8
0
 62
     0
 10
202.645
 20
40.8838
 30
0.0
 11
202.645
 21
54.8831
 31
0.0
  0
LINE
  8
0
 62
     0
 10
183.595
 20
54.8831
 30
0.0
 11
197.594
 21
54.8831
 31
0.0
  0
LINE
  8
0
 62
     0
 10
197.594
 20
54.8831
 30
0.0
 11
197.594
 21
40.8838
 31
0.0
  0
LINE
  8
0
 62
     0
 10
197.594
 20
40.8838
 30
0.0
 11
183.595
 21
40.8838
 31
0.0
  0
LINE
  8
0
 62
     0
 10
183.595
 20
40.8838
 30
0.0
 11
183.595
 21
54.8831
 31
0.0
  0
LINE
  8
0
 62
     0
 10
164.545
 20
54.8831
 30
0.0
 11
178.544
 21
54.8831
 31
0.0
  0
LINE
  8
0
 62
     0
 10
178.544
 20
54.8831
 30
0.0
 11
178.544
 21
40.8838
 31
0.0
  0
LINE
  8
0
 62
     0
 10
178.544
 20
40.8838
 30
0.0
 11
164.545
 21
40.8838
 31
0.0
  0
LINE
  8
0
 62
     0
 10
164.545
 20
40.8838
 30
0.0
 11
164.545
 21
54.8831
 31
0.0
  0
LINE
  8
0
 62
     0
 10
145.495
 20
54.8831
 30
0.0
 11
159.494
 21
54.8831
 31
0.0
  0
LINE
  8
0
 62
     0
 10
159.494
 20
54.8831
 30
0.0
 11
159.494
 21
40.8838
 31
0.0
  0
LINE
  8
0
 62
     0
 10
159.494
 20
40.8838
 30
0.0
 11
145.495
 21
40.8838
 31
0.0
  0
LINE
  8
0
 62
     0
 10
145.495
 20
40.8838
 30
0.0
 11
145.495
 21
54.8831
 31
0.0
  0
LINE
  8
0
 62
     0
 10
126.445
 20
54.8831
 30
0.0
 11
140.444
 21
54.8831
 31
0.0
  0
LINE
  8
0
 62
     0
 10
140.444
 20
54.8831
 30
0.0
 11
140.444
 21
40.8838
 31
0.0
  0
LINE
  8
0
 62
     0
 10
140.444
 20
40.8838
 30
0.0
 11
126.445
 21
40.8838
 31
0.0
  0
LINE
  8
0
 62
     0
 10
126.445
 20
40.8838
 30
0.0
 11
126.445
 21
54.8831
 31
0.0
  0
LINE
  8
0
 62
     0
 10
107.395
 20
54.8831
 30
0.0
 11
121.394
 21
54.8831
 31
0.0
  0
LINE
  8
0
 62
     0
 10
121.394
 20
54.8831
 30
0.0
 11
121.394
 21
40.8838
 31
0.0
  0
LINE
  8
0
 62
     0
 10
121.394
 20
40.8838
 30
0.0
 11
107.395
 21
40.8838
 31
0.0
  0
LINE
  8
0
 62
     0
 10
107.395
 20
40.8838
 30
0.0
 11
107.395
 21
54.8831
 31
0.0
  0
LINE
  8
0
 62
     0
 10
88.3447
 20
54.8831
 30
0.0
 11
102.344
 21
54.8831
 31
0.0
  0
LINE
  8
0
 62
     0
 10
102.344
 20
54.8831
 30
0.0
 11
102.344
 21
40.8838
 31
0.0
  0
LINE
  8
0
 62
     0
 10
102.344
 20
40.8838
 30
0.0
 11
88.3447
 21
40.8838
 31
0.0
  0
LINE
  8
0
 62
     0
 10
88.3447
 20
40.8838
 30
0.0
 11
88.3447
 21
54.8831
 31
0.0
  0
LINE
  8
0
 62
     0
 10
69.2947
 20
54.8831
 30
0.0
 11
83.294
 21
54.8831
 31
0.0
  0
LINE
  8
0
 62
     0
 10
83.294
 20
54.8831
 30
0.0
 11
83.294
 21
40.8838
 31
0.0
  0
LINE
  8
0
 62
     0
 10
83.294
 20
40.8838
 30
0.0
 11
69.2947
 21
40.8838
 31
0.0
  0
LINE
  8
0
 62
     0
 10
69.2947
 20
40.8838
 30
0.0
 11
69.2947
 21
54.8831
 31
0.0
  0
LINE
  8
0
 62
     0
 10
50.2447
 20
54.8831
 30
0.0
 11
64.244
 21
54.8831
 31
0.0
  0
LINE
  8
0
 62
     0
 10
64.244
 20
54.8831
 30
0.0
 11
64.244
 21
40.8838
 31
0.0
  0
LINE
  8
0
 62
     0
 10
64.244
 20
40.8838
 30
0.0
 11
50.2447
 21
40.8838
 31
0.0
  0
LINE
  8
0
 62
     0
 10
50.2447
 20
40.8838
 30
0.0
 11
50.2447
 21
54.8831
 31
0.0
  0
LINE
  8
0
 62
     0
 10
31.1947
 20
54.8831
 30
0.0
 11
45.194
 21
54.8831
 31
0.0
  0
LINE
  8
0
 62
     0
 10
45.194
 20
54.8831
 30
0.0
 11
45.194
 21
40.8838
 31
0.0
  0
LINE
  8
0
 62
     0
 10
45.194
 20
40.8838
 30
0.0
 11
31.1947
 21
40.8838
 31
0.0
  0
LINE
  8
0
 62
     0
 10
31.1947
 20
40.8838
 30
0.0
 11
31.1947
 21
54.8831
 31
0.0
  0
LINE
  8
0
 62
     0
 10
7.38216
 20
54.8831
 30
0.0
 11
21.3817
 21
54.8831
 31
0.0
  0
LINE
  8
0
 62
     0
 10
21.3817
 20
54.8831
 30
0.0
 11
21.3817
 21
40.8838
 31
0.0
  0
LINE
  8
0
 62
     0
 10
21.3817
 20
40.8838
 30
0.0
 11
7.38216
 21
40.8838
 31
0.0
  0
LINE
  8
0
 62
     0
 10
7.38216
 20
40.8838
 30
0.0
 11
7.38216
 21
54.8831
 31
0.0
  0
LINE
  8
0
 62
     0
 10
264.557
 20
73.9331
 30
0.0
 11
278.557
 21
73.9331
 31
0.0
  0
LINE
  8
0
 62
     0
 10
278.557
 20
73.9331
 30
0.0
 11
278.557
 21
59.9338
 31
0.0
  0
LINE
  8
0
 62
     0
 10
278.557
 20
59.9338
 30
0.0
 11
264.557
 21
59.9338
 31
0.0
  0
LINE
  8
0
 62
     0
 10
264.557
 20
59.9338
 30
0.0
 11
264.557
 21
73.9331
 31
0.0
  0
LINE
  8
0
 62
     0
 10
240.745
 20
73.9331
 30
0.0
 11
254.744
 21
73.9331
 31
0.0
  0
LINE
  8
0
 62
     0
 10
254.744
 20
73.9331
 30
0.0
 11
254.744
 21
59.9338
 31
0.0
  0
LINE
  8
0
 62
     0
 10
254.744
 20
59.9338
 30
0.0
 11
240.745
 21
59.9338
 31
0.0
  0
LINE
  8
0
 62
     0
 10
240.745
 20
59.9338
 30
0.0
 11
240.745
 21
73.9331
 31
0.0
  0
LINE
  8
0
 62
     0
 10
221.695
 20
73.9331
 30
0.0
 11
235.694
 21
73.9331
 31
0.0
  0
LINE
  8
0
 62
     0
 10
235.694
 20
73.9331
 30
0.0
 11
235.694
 21
59.9338
 31
0.0
  0
LINE
  8
0
 62
     0
 10
235.694
 20
59.9338
 30
0.0
 11
221.695
 21
59.9338
 31
0.0
  0
LINE
  8
0
 62
     0
 10
221.695
 20
59.9338
 30
0.0
 11
221.695
 21
73.9331
 31
0.0
  0
LINE
  8
0
 62
     0
 10
202.645
 20
73.9331
 30
0.0
 11
216.644
 21
73.9331
 31
0.0
  0
LINE
  8
0
 62
     0
 10
216.644
 20
73.9331
 30
0.0
 11
216.644
 21
59.9338
 31
0.0
  0
LINE
  8
0
 62
     0
 10
216.644
 20
59.9338
 30
0.0
 11
202.645
 21
59.9338
 31
0.0
  0
LINE
  8
0
 62
     0
 10
202.645
 20
59.9338
 30
0.0
 11
202.645
 21
73.9331
 31
0.0
  0
LINE
  8
0
 62
     0
 10
183.595
 20
73.9331
 30
0.0
 11
197.594
 21
73.9331
 31
0.0
  0
LINE
  8
0
 62
     0
 10
197.594
 20
73.9331
 30
0.0
 11
197.594
 21
59.9338
 31
0.0
  0
LINE
  8
0
 62
     0
 10
197.594
 20
59.9338
 30
0.0
 11
183.595
 21
59.9338
 31
0.0
  0
LINE
  8
0
 62
     0
 10
183.595
 20
59.9338
 30
0.0
 11
183.595
 21
73.9331
 31
0.0
  0
LINE
  8
0
 62
     0
 10
164.545
 20
73.9331
 30
0.0
 11
178.544
 21
73.9331
 31
0.0
  0
LINE
  8
0
 62
     0
 10
178.544
 20
73.9331
 30
0.0
 11
178.544
 21
59.9338
 31
0.0
  0
LINE
  8
0
 62
     0
 10
178.544
 20
59.9338
 30
0.0
 11
164.545
 21
59.9338
 31
0.0
  0
LINE
  8
0
 62
     0
 10
164.545
 20
59.9338
 30
0.0
 11
164.545
 21
73.9331
 31
0.0
  0
LINE
  8
0
 62
     0
 10
145.495
 20
73.9331
 30
0.0
 11
159.494
 21
73.9331
 31
0.0
  0
LINE
  8
0
 62
     0
 10
159.494
 20
73.9331
 30
0.0
 11
159.494
 21
59.9338
 31
0.0
  0
LINE
  8
0
 62
     0
 10
159.494
 20
59.9338
 30
0.0
 11
145.495
 21
59.9338
 31
0.0
  0
LINE
  8
0
 62
     0
 10
145.495
 20
59.9338
 30
0.0
 11
145.495
 21
73.9331
 31
0.0
  0
LINE
  8
0
 62
     0
 10
126.445
 20
73.9331
 30
0.0
 11
140.444
 21
73.9331
 31
0.0
  0
LINE
  8
0
 62
     0
 10
140.444
 20
73.9331
 30
0.0
 11
140.444
 21
59.9338
 31
0.0
  0
LINE
  8
0
 62
     0
 10
140.444
 20
59.9338
 30
0.0
 11
126.445
 21
59.9338
 31
0.0
  0
LINE
  8
0
 62
     0
 10
126.445
 20
59.9338
 30
0.0
 11
126.445
 21
73.9331
 31
0.0
  0
LINE
  8
0
 62
     0
 10
107.395
 20
73.9331
 30
0.0
 11
121.394
 21
73.9331
 31
0.0
  0
LINE
  8
0
 62
     0
 10
121.394
 20
73.9331
 30
0.0
 11
121.394
 21
59.9338
 31
0.0
  0
LINE
  8
0
 62
     0
 10
121.394
 20
59.9338
 30
0.0
 11
107.395
 21
59.9338
 31
0.0
  0
LINE
  8
0
 62
     0
 10
107.395
 20
59.9338
 30
0.0
 11
107.395
 21
73.9331
 31
0.0
  0
LINE
  8
0
 62
     0
 10
88.3447
 20
73.9331
 30
0.0
 11
102.344
 21
73.9331
 31
0.0
  0
LINE
  8
0
 62
     0
 10
102.344
 20
73.9331
 30
0.0
 11
102.344
 21
59.9338
 31
0.0
  0
LINE
  8
0
 62
     0
 10
102.344
 20
59.9338
 30
0.0
 11
88.3447
 21
59.9338
 31
0.0
  0
LINE
  8
0
 62
     0
 10
88.3447
 20
59.9338
 30
0.0
 11
88.3447
 21
73.9331
 31
0.0
  0
LINE
  8
0
 62
     0
 10
69.2947
 20
73.9331
 30
0.0
 11
83.294
 21
73.9331
 31
0.0
  0
LINE
  8
0
 62
     0
 10
83.294
 20
73.9331
 30
0.0
 11
83.294
 21
59.9338
 31
0.0
  0
LINE
  8
0
 62
     0
 10
83.294
 20
59.9338
 30
0.0
 11
69.2947
 21
59.9338
 31
0.0
  0
LINE
  8
0
 62
     0
 10
69.2947
 20
59.9338
 30
0.0
 11
69.2947
 21
73.9331
 31
0.0
  0
LINE
  8
0
 62
     0
 10
50.2447
 20
73.9331
 30
0.0
 11
64.244
 21
73.9331
 31
0.0
  0
LINE
  8
0
 62
     0
 10
64.244
 20
73.9331
 30
0.0
 11
64.244
 21
59.9338
 31
0.0
  0
LINE
  8
0
 62
     0
 10
64.244
 20
59.9338
 30
0.0
 11
50.2447
 21
59.9338
 31
0.0
  0
LINE
  8
0
 62
     0
 10
50.2447
 20
59.9338
 30
0.0
 11
50.2447
 21
73.9331
 31
0.0
  0
LINE
  8
0
 62
     0
 10
31.1947
 20
73.9331
 30
0.0
 11
45.194
 21
73.9331
 31
0.0
  0
LINE
  8
0
 62
     0
 10
45.194
 20
73.9331
 30
0.0
 11
45.194
 21
59.9338
 31
0.0
  0
LINE
  8
0
 62
     0
 10
45.194
 20
59.9338
 30
0.0
 11
31.1947
 21
59.9338
 31
0.0
  0
LINE
  8
0
 62
     0
 10
31.1947
 20
59.9338
 30
0.0
 11
31.1947
 21
73.9331
 31
0.0
  0
LINE
  8
0
 62
     0
 10
7.38216
 20
73.9331
 30
0.0
 11
21.3817
 21
73.9331
 31
0.0
  0
LINE
  8
0
 62
     0
 10
21.3817
 20
73.9331
 30
0.0
 11
21.3817
 21
59.9338
 31
0.0
  0
LINE
  8
0
 62
     0
 10
21.3817
 20
59.9338
 30
0.0
 11
7.38216
 21
59.9338
 31
0.0
  0
LINE
  8
0
 62
     0
 10
7.38216
 20
59.9338
 30
0.0
 11
7.38216
 21
73.9331
 31
0.0
  0
LINE
  8
0
 62
     0
 10
264.557
 20
92.9831
 30
0.0
 11
278.557
 21
92.9831
 31
0.0
  0
LINE
  8
0
 62
     0
 10
278.557
 20
92.9831
 30
0.0
 11
278.557
 21
78.9838
 31
0.0
  0
LINE
  8
0
 62
     0
 10
278.557
 20
78.9838
 30
0.0
 11
264.557
 21
78.9838
 31
0.0
  0
LINE
  8
0
 62
     0
 10
264.557
 20
78.9838
 30
0.0
 11
264.557
 21
92.9831
 31
0.0
  0
LINE
  8
0
 62
     0
 10
240.745
 20
92.9831
 30
0.0
 11
254.744
 21
92.9831
 31
0.0
  0
LINE
  8
0
 62
     0
 10
254.744
 20
92.9831
 30
0.0
 11
254.744
 21
78.9838
 31
0.0
  0
LINE
  8
0
 62
     0
 10
254.744
 20
78.9838
 30
0.0
 11
240.745
 21
78.9838
 31
0.0
  0
LINE
  8
0
 62
     0
 10
240.745
 20
78.9838
 30
0.0
 11
240.745
 21
92.9831
 31
0.0
  0
LINE
  8
0
 62
     0
 10
221.695
 20
92.9831
 30
0.0
 11
235.694
 21
92.9831
 31
0.0
  0
LINE
  8
0
 62
     0
 10
235.694
 20
92.9831
 30
0.0
 11
235.694
 21
78.9838
 31
0.0
  0
LINE
  8
0
 62
     0
 10
235.694
 20
78.9838
 30
0.0
 11
221.695
 21
78.9838
 31
0.0
  0
LINE
  8
0
 62
     0
 10
221.695
 20
78.9838
 30
0.0
 11
221.695
 21
92.9831
 31
0.0
  0
LINE
  8
0
 62
     0
 10
202.645
 20
92.9831
 30
0.0
 11
216.644
 21
92.9831
 31
0.0
  0
LINE
  8
0
 62
     0
 10
216.644
 20
92.9831
 30
0.0
 11
216.644
 21
78.9838
 31
0.0
  0
LINE
  8
0
 62
     0
 10
216.644
 20
78.9838
 30
0.0
 11
202.645
 21
78.9838
 31
0.0
  0
LINE
  8
0
 62
     0
 10
202.645
 20
78.9838
 30
0.0
 11
202.645
 21
92.9831
 31
0.0
  0
LINE
  8
0
 62
     0
 10
183.595
 20
92.9831
 30
0.0
 11
197.594
 21
92.9831
 31
0.0
  0
LINE
  8
0
 62
     0
 10
197.594
 20
92.9831
 30
0.0
 11
197.594
 21
78.9838
 31
0.0
  0
LINE
  8
0
 62
     0
 10
197.594
 20
78.9838
 30
0.0
 11
183.595
 21
78.9838
 31
0.0
  0
LINE
  8
0
 62
     0
 10
183.595
 20
78.9838
 30
0.0
 11
183.595
 21
92.9831
 31
0.0
  0
LINE
  8
0
 62
     0
 10
164.545
 20
92.9831
 30
0.0
 11
178.544
 21
92.9831
 31
0.0
  0
LINE
  8
0
 62
     0
 10
178.544
 20
92.9831
 30
0.0
 11
178.544
 21
78.9838
 31
0.0
  0
LINE
  8
0
 62
     0
 10
178.544
 20
78.9838
 30
0.0
 11
164.545
 21
78.9838
 31
0.0
  0
LINE
  8
0
 62
     0
 10
164.545
 20
78.9838
 30
0.0
 11
164.545
 21
92.9831
 31
0.0
  0
LINE
  8
0
 62
     0
 10
145.495
 20
92.9831
 30
0.0
 11
159.494
 21
92.9831
 31
0.0
  0
LINE
  8
0
 62
     0
 10
159.494
 20
92.9831
 30
0.0
 11
159.494
 21
78.9838
 31
0.0
  0
LINE
  8
0
 62
     0
 10
159.494
 20
78.9838
 30
0.0
 11
145.495
 21
78.9838
 31
0.0
  0
LINE
  8
0
 62
     0
 10
145.495
 20
78.9838
 30
0.0
 11
145.495
 21
92.9831
 31
0.0
  0
LINE
  8
0
 62
     0
 10
126.445
 20
92.9831
 30
0.0
 11
140.444
 21
92.9831
 31
0.0
  0
LINE
  8
0
 62
     0
 10
140.444
 20
92.9831
 30
0.0
 11
140.444
 21
78.9838
 31
0.0
  0
LINE
  8
0
 62
     0
 10
140.444
 20
78.9838
 30
0.0
 11
126.445
 21
78.9838
 31
0.0
  0
LINE
  8
0
 62
     0
 10
126.445
 20
78.9838
 30
0.0
 11
126.445
 21
92.9831
 31
0.0
  0
LINE
  8
0
 62
     0
 10
107.395
 20
92.9831
 30
0.0
 11
121.394
 21
92.9831
 31
0.0
  0
LINE
  8
0
 62
     0
 10
121.394
 20
92.9831
 30
0.0
 11
121.394
 21
78.9838
 31
0.0
  0
LINE
  8
0
 62
     0
 10
121.394
 20
78.9838
 30
0.0
 11
107.395
 21
78.9838
 31
0.0
  0
LINE
  8
0
 62
     0
 10
107.395
 20
78.9838
 30
0.0
 11
107.395
 21
92.9831
 31
0.0
  0
LINE
  8
0
 62
     0
 10
88.3447
 20
92.9831
 30
0.0
 11
102.344
 21
92.9831
 31
0.0
  0
LINE
  8
0
 62
     0
 10
102.344
 20
92.9831
 30
0.0
 11
102.344
 21
78.9838
 31
0.0
  0
LINE
  8
0
 62
     0
 10
102.344
 20
78.9838
 30
0.0
 11
88.3447
 21
78.9838
 31
0.0
  0
LINE
  8
0
 62
     0
 10
88.3447
 20
78.9838
 30
0.0
 11
88.3447
 21
92.9831
 31
0.0
  0
LINE
  8
0
 62
     0
 10
69.2947
 20
92.9831
 30
0.0
 11
83.294
 21
92.9831
 31
0.0
  0
LINE
  8
0
 62
     0
 10
83.294
 20
92.9831
 30
0.0
 11
83.294
 21
78.9838
 31
0.0
  0
LINE
  8
0
 62
     0
 10
83.294
 20
78.9838
 30
0.0
 11
69.2947
 21
78.9838
 31
0.0
  0
LINE
  8
0
 62
     0
 10
69.2947
 20
78.9838
 30
0.0
 11
69.2947
 21
92.9831
 31
0.0
  0
LINE
  8
0
 62
     0
 10
50.2447
 20
92.9831
 30
0.0
 11
64.244
 21
92.9831
 31
0.0
  0
LINE
  8
0
 62
     0
 10
64.244
 20
92.9831
 30
0.0
 11
64.244
 21
78.9838
 31
0.0
  0
LINE
  8
0
 62
     0
 10
64.244
 20
78.9838
 30
0.0
 11
50.2447
 21
78.9838
 31
0.0
  0
LINE
  8
0
 62
     0
 10
50.2447
 20
78.9838
 30
0.0
 11
50.2447
 21
92.9831
 31
0.0
  0
LINE
  8
0
 62
     0
 10
31.1947
 20
92.9831
 30
0.0
 11
45.194
 21
92.9831
 31
0.0
  0
LINE
  8
0
 62
     0
 10
45.194
 20
92.9831
 30
0.0
 11
45.194
 21
78.9838
 31
0.0
  0
LINE
  8
0
 62
     0
 10
45.194
 20
78.9838
 30
0.0
 11
31.1947
 21
78.9838
 31
0.0
  0
LINE
  8
0
 62
     0
 10
31.1947
 20
78.9838
 30
0.0
 11
31.1947
 21
92.9831
 31
0.0
  0
LINE
  8
0
 62
     0
 10
7.38216
 20
92.9831
 30
0.0
 11
21.3817
 21
92.9831
 31
0.0
  0
LINE
  8
0
 62
     0
 10
21.3817
 20
92.9831
 30
0.0
 11
21.3817
 21
78.9838
 31
0.0
  0
LINE
  8
0
 62
     0
 10
21.3817
 20
78.9838
 30
0.0
 11
7.38216
 21
78.9838
 31
0.0
  0
LINE
  8
0
 62
     0
 10
7.38216
 20
78.9838
 30
0.0
 11
7.38216
 21
92.9831
 31
0.0
  0
ENDSEC
  0
EOF
