<?xml version="1.0" standalone="no"?>
 <!DOCTYPE svg PUBLIC "-//W3C//DTD SVG 1.1//EN" 
 "http://www.w3.org/Graphics/SVG/1.1/DTD/svg11.dtd"> 
<svg
  xmlns:svg="http://www.w3.org/2000/svg"
  xmlns="http://www.w3.org/2000/svg"
  xmlns:xlink="http://www.w3.org/1999/xlink"
  version="1.1"
  width="41.998900cm" height="29.700220cm" viewBox="0 0 419989000 297002200">
<title>SVG Picture created as Uniform-User_Drawings.svg date 2022/04/28 16:56:11 </title>
  <desc>Picture generated by PCBNEW </desc>
<g style="fill:#000000; fill-opacity:1.000000;stroke:#000000; stroke-opacity:1.000000;
stroke-linecap:round; stroke-linejoin:round;"
 transform="translate(0 0) scale(1 1)">
</g>
<g style="fill:#000000; fill-opacity:0.0; 
stroke:#000000; stroke-width:0.000000; stroke-opacity:1; 
stroke-linecap:round; stroke-linejoin:round;">
</g>
<g style="fill:#000000; fill-opacity:0.0; 
stroke:#000000; stroke-width:21200.000000; stroke-opacity:1; 
stroke-linecap:round; stroke-linejoin:round;">
</g>
<g style="fill:#000000; fill-opacity:0.0; 
stroke:#000000; stroke-width:150000.000000; stroke-opacity:1; 
stroke-linecap:round; stroke-linejoin:round;">
<rect x="299989000.000000" y="253002200.000000" width="108000000.000000" height="32000000.000000" rx="0.000000" />
</g>
<g style="fill:#000000; fill-opacity:0.0; 
stroke:#000000; stroke-width:21200.000000; stroke-opacity:1; 
stroke-linecap:round; stroke-linejoin:round;">
</g>
<g style="fill:#000000; fill-opacity:0.0; 
stroke:#000000; stroke-width:150000.000000; stroke-opacity:1; 
stroke-linecap:round; stroke-linejoin:round;">
<rect x="10000000.000000" y="10000000.000000" width="399989000.000000" height="277002200.000000" rx="0.000000" />
</g>
<g style="fill:#000000; fill-opacity:0.0; 
stroke:#000000; stroke-width:21200.000000; stroke-opacity:1; 
stroke-linecap:round; stroke-linejoin:round;">
</g>
<g style="fill:#000000; fill-opacity:0.0; 
stroke:#000000; stroke-width:150000.000000; stroke-opacity:1; 
stroke-linecap:round; stroke-linejoin:round;">
<rect x="12000000.000000" y="12000000.000000" width="395989000.000000" height="273002200.000000" rx="0.000000" />
</g>
<g style="fill:#000000; fill-opacity:0.0; 
stroke:#000000; stroke-width:21200.000000; stroke-opacity:1; 
stroke-linecap:round; stroke-linejoin:round;">
</g>
<g style="fill:#000000; fill-opacity:0.0; 
stroke:#000000; stroke-width:150000.000000; stroke-opacity:1; 
stroke-linecap:round; stroke-linejoin:round;">
<path d="M60000000 12000000
L60000000 10000000
" />
</g>
<g style="fill:#000000; fill-opacity:0.0; 
stroke:#000000; stroke-width:21200.000000; stroke-opacity:1; 
stroke-linecap:round; stroke-linejoin:round;">
</g>
<g style="fill:#000000; fill-opacity:0.0; 
stroke:#000000; stroke-width:150000.000000; stroke-opacity:1; 
stroke-linecap:round; stroke-linejoin:round;">
<path d="M110000000 12000000
L110000000 10000000
" />
</g>
<g style="fill:#000000; fill-opacity:0.0; 
stroke:#000000; stroke-width:21200.000000; stroke-opacity:1; 
stroke-linecap:round; stroke-linejoin:round;">
</g>
<g style="fill:#000000; fill-opacity:0.0; 
stroke:#000000; stroke-width:150000.000000; stroke-opacity:1; 
stroke-linecap:round; stroke-linejoin:round;">
<path d="M160000000 12000000
L160000000 10000000
" />
</g>
<g style="fill:#000000; fill-opacity:0.0; 
stroke:#000000; stroke-width:21200.000000; stroke-opacity:1; 
stroke-linecap:round; stroke-linejoin:round;">
</g>
<g style="fill:#000000; fill-opacity:0.0; 
stroke:#000000; stroke-width:150000.000000; stroke-opacity:1; 
stroke-linecap:round; stroke-linejoin:round;">
<path d="M210000000 12000000
L210000000 10000000
" />
</g>
<g style="fill:#000000; fill-opacity:0.0; 
stroke:#000000; stroke-width:21200.000000; stroke-opacity:1; 
stroke-linecap:round; stroke-linejoin:round;">
</g>
<g style="fill:#000000; fill-opacity:0.0; 
stroke:#000000; stroke-width:150000.000000; stroke-opacity:1; 
stroke-linecap:round; stroke-linejoin:round;">
<path d="M260000000 12000000
L260000000 10000000
" />
</g>
<g style="fill:#000000; fill-opacity:0.0; 
stroke:#000000; stroke-width:21200.000000; stroke-opacity:1; 
stroke-linecap:round; stroke-linejoin:round;">
</g>
<g style="fill:#000000; fill-opacity:0.0; 
stroke:#000000; stroke-width:150000.000000; stroke-opacity:1; 
stroke-linecap:round; stroke-linejoin:round;">
<path d="M310000000 12000000
L310000000 10000000
" />
</g>
<g style="fill:#000000; fill-opacity:0.0; 
stroke:#000000; stroke-width:21200.000000; stroke-opacity:1; 
stroke-linecap:round; stroke-linejoin:round;">
</g>
<g style="fill:#000000; fill-opacity:0.0; 
stroke:#000000; stroke-width:150000.000000; stroke-opacity:1; 
stroke-linecap:round; stroke-linejoin:round;">
<path d="M360000000 12000000
L360000000 10000000
" />
</g>
<g style="fill:#000000; fill-opacity:0.0; 
stroke:#000000; stroke-width:21200.000000; stroke-opacity:1; 
stroke-linecap:round; stroke-linejoin:round;">
</g>
<g style="fill:#000000; fill-opacity:0.0; 
stroke:#000000; stroke-width:150000.000000; stroke-opacity:1; 
stroke-linecap:round; stroke-linejoin:round;">
<text x="35000000.000000" y="11650000.000000"
textLength="1388095.000000" font-size="1733333.000000" lengthAdjust="spacingAndGlyphs"
text-anchor="start" opacity="0">1</text>
<g class="stroked-text"><desc>1</desc>
<path d="M36065476 11588095
L35322619 11588095
" />
<path d="M35694047 11588095
L35694047 10288095
L35570238 10473809
L35446428 10597619
L35322619 10659523
" />
</g></g>
<g style="fill:#000000; fill-opacity:0.0; 
stroke:#000000; stroke-width:21200.000000; stroke-opacity:1; 
stroke-linecap:round; stroke-linejoin:round;">
</g>
<g style="fill:#000000; fill-opacity:0.0; 
stroke:#000000; stroke-width:150000.000000; stroke-opacity:1; 
stroke-linecap:round; stroke-linejoin:round;">
<text x="85000000.000000" y="11650000.000000"
textLength="1388095.000000" font-size="1733333.000000" lengthAdjust="spacingAndGlyphs"
text-anchor="start" opacity="0">2</text>
<g class="stroked-text"><desc>2</desc>
<path d="M85322619 10411904
L85384523 10350000
L85508333 10288095
L85817857 10288095
L85941666 10350000
L86003571 10411904
L86065476 10535714
L86065476 10659523
L86003571 10845238
L85260714 11588095
L86065476 11588095
" />
</g></g>
<g style="fill:#000000; fill-opacity:0.0; 
stroke:#000000; stroke-width:21200.000000; stroke-opacity:1; 
stroke-linecap:round; stroke-linejoin:round;">
</g>
<g style="fill:#000000; fill-opacity:0.0; 
stroke:#000000; stroke-width:150000.000000; stroke-opacity:1; 
stroke-linecap:round; stroke-linejoin:round;">
<text x="135000000.000000" y="11650000.000000"
textLength="1388095.000000" font-size="1733333.000000" lengthAdjust="spacingAndGlyphs"
text-anchor="start" opacity="0">3</text>
<g class="stroked-text"><desc>3</desc>
<path d="M135260714 10288095
L136065476 10288095
L135632142 10783333
L135817857 10783333
L135941666 10845238
L136003571 10907142
L136065476 11030952
L136065476 11340476
L136003571 11464285
L135941666 11526190
L135817857 11588095
L135446428 11588095
L135322619 11526190
L135260714 11464285
" />
</g></g>
<g style="fill:#000000; fill-opacity:0.0; 
stroke:#000000; stroke-width:21200.000000; stroke-opacity:1; 
stroke-linecap:round; stroke-linejoin:round;">
</g>
<g style="fill:#000000; fill-opacity:0.0; 
stroke:#000000; stroke-width:150000.000000; stroke-opacity:1; 
stroke-linecap:round; stroke-linejoin:round;">
<text x="185000000.000000" y="11650000.000000"
textLength="1388095.000000" font-size="1733333.000000" lengthAdjust="spacingAndGlyphs"
text-anchor="start" opacity="0">4</text>
<g class="stroked-text"><desc>4</desc>
<path d="M185941666 10721428
L185941666 11588095
" />
<path d="M185632142 10226190
L185322619 11154761
L186127380 11154761
" />
</g></g>
<g style="fill:#000000; fill-opacity:0.0; 
stroke:#000000; stroke-width:21200.000000; stroke-opacity:1; 
stroke-linecap:round; stroke-linejoin:round;">
</g>
<g style="fill:#000000; fill-opacity:0.0; 
stroke:#000000; stroke-width:150000.000000; stroke-opacity:1; 
stroke-linecap:round; stroke-linejoin:round;">
<text x="235000000.000000" y="11650000.000000"
textLength="1388095.000000" font-size="1733333.000000" lengthAdjust="spacingAndGlyphs"
text-anchor="start" opacity="0">5</text>
<g class="stroked-text"><desc>5</desc>
<path d="M236003571 10288095
L235384523 10288095
L235322619 10907142
L235384523 10845238
L235508333 10783333
L235817857 10783333
L235941666 10845238
L236003571 10907142
L236065476 11030952
L236065476 11340476
L236003571 11464285
L235941666 11526190
L235817857 11588095
L235508333 11588095
L235384523 11526190
L235322619 11464285
" />
</g></g>
<g style="fill:#000000; fill-opacity:0.0; 
stroke:#000000; stroke-width:21200.000000; stroke-opacity:1; 
stroke-linecap:round; stroke-linejoin:round;">
</g>
<g style="fill:#000000; fill-opacity:0.0; 
stroke:#000000; stroke-width:150000.000000; stroke-opacity:1; 
stroke-linecap:round; stroke-linejoin:round;">
<text x="285000000.000000" y="11650000.000000"
textLength="1388095.000000" font-size="1733333.000000" lengthAdjust="spacingAndGlyphs"
text-anchor="start" opacity="0">6</text>
<g class="stroked-text"><desc>6</desc>
<path d="M285941666 10288095
L285694047 10288095
L285570238 10350000
L285508333 10411904
L285384523 10597619
L285322619 10845238
L285322619 11340476
L285384523 11464285
L285446428 11526190
L285570238 11588095
L285817857 11588095
L285941666 11526190
L286003571 11464285
L286065476 11340476
L286065476 11030952
L286003571 10907142
L285941666 10845238
L285817857 10783333
L285570238 10783333
L285446428 10845238
L285384523 10907142
L285322619 11030952
" />
</g></g>
<g style="fill:#000000; fill-opacity:0.0; 
stroke:#000000; stroke-width:21200.000000; stroke-opacity:1; 
stroke-linecap:round; stroke-linejoin:round;">
</g>
<g style="fill:#000000; fill-opacity:0.0; 
stroke:#000000; stroke-width:150000.000000; stroke-opacity:1; 
stroke-linecap:round; stroke-linejoin:round;">
<text x="335000000.000000" y="11650000.000000"
textLength="1388095.000000" font-size="1733333.000000" lengthAdjust="spacingAndGlyphs"
text-anchor="start" opacity="0">7</text>
<g class="stroked-text"><desc>7</desc>
<path d="M335260714 10288095
L336127380 10288095
L335570238 11588095
" />
</g></g>
<g style="fill:#000000; fill-opacity:0.0; 
stroke:#000000; stroke-width:21200.000000; stroke-opacity:1; 
stroke-linecap:round; stroke-linejoin:round;">
</g>
<g style="fill:#000000; fill-opacity:0.0; 
stroke:#000000; stroke-width:150000.000000; stroke-opacity:1; 
stroke-linecap:round; stroke-linejoin:round;">
<text x="385000000.000000" y="11650000.000000"
textLength="1388095.000000" font-size="1733333.000000" lengthAdjust="spacingAndGlyphs"
text-anchor="start" opacity="0">8</text>
<g class="stroked-text"><desc>8</desc>
<path d="M385570238 10845238
L385446428 10783333
L385384523 10721428
L385322619 10597619
L385322619 10535714
L385384523 10411904
L385446428 10350000
L385570238 10288095
L385817857 10288095
L385941666 10350000
L386003571 10411904
L386065476 10535714
L386065476 10597619
L386003571 10721428
L385941666 10783333
L385817857 10845238
L385570238 10845238
L385446428 10907142
L385384523 10969047
L385322619 11092857
L385322619 11340476
L385384523 11464285
L385446428 11526190
L385570238 11588095
L385817857 11588095
L385941666 11526190
L386003571 11464285
L386065476 11340476
L386065476 11092857
L386003571 10969047
L385941666 10907142
L385817857 10845238
" />
</g></g>
<g style="fill:#000000; fill-opacity:0.0; 
stroke:#000000; stroke-width:21200.000000; stroke-opacity:1; 
stroke-linecap:round; stroke-linejoin:round;">
</g>
<g style="fill:#000000; fill-opacity:0.0; 
stroke:#000000; stroke-width:150000.000000; stroke-opacity:1; 
stroke-linecap:round; stroke-linejoin:round;">
<path d="M60000000 285002200
L60000000 287002200
" />
</g>
<g style="fill:#000000; fill-opacity:0.0; 
stroke:#000000; stroke-width:21200.000000; stroke-opacity:1; 
stroke-linecap:round; stroke-linejoin:round;">
</g>
<g style="fill:#000000; fill-opacity:0.0; 
stroke:#000000; stroke-width:150000.000000; stroke-opacity:1; 
stroke-linecap:round; stroke-linejoin:round;">
<path d="M110000000 285002200
L110000000 287002200
" />
</g>
<g style="fill:#000000; fill-opacity:0.0; 
stroke:#000000; stroke-width:21200.000000; stroke-opacity:1; 
stroke-linecap:round; stroke-linejoin:round;">
</g>
<g style="fill:#000000; fill-opacity:0.0; 
stroke:#000000; stroke-width:150000.000000; stroke-opacity:1; 
stroke-linecap:round; stroke-linejoin:round;">
<path d="M160000000 285002200
L160000000 287002200
" />
</g>
<g style="fill:#000000; fill-opacity:0.0; 
stroke:#000000; stroke-width:21200.000000; stroke-opacity:1; 
stroke-linecap:round; stroke-linejoin:round;">
</g>
<g style="fill:#000000; fill-opacity:0.0; 
stroke:#000000; stroke-width:150000.000000; stroke-opacity:1; 
stroke-linecap:round; stroke-linejoin:round;">
<path d="M210000000 285002200
L210000000 287002200
" />
</g>
<g style="fill:#000000; fill-opacity:0.0; 
stroke:#000000; stroke-width:21200.000000; stroke-opacity:1; 
stroke-linecap:round; stroke-linejoin:round;">
</g>
<g style="fill:#000000; fill-opacity:0.0; 
stroke:#000000; stroke-width:150000.000000; stroke-opacity:1; 
stroke-linecap:round; stroke-linejoin:round;">
<path d="M260000000 285002200
L260000000 287002200
" />
</g>
<g style="fill:#000000; fill-opacity:0.0; 
stroke:#000000; stroke-width:21200.000000; stroke-opacity:1; 
stroke-linecap:round; stroke-linejoin:round;">
</g>
<g style="fill:#000000; fill-opacity:0.0; 
stroke:#000000; stroke-width:150000.000000; stroke-opacity:1; 
stroke-linecap:round; stroke-linejoin:round;">
<path d="M310000000 285002200
L310000000 287002200
" />
</g>
<g style="fill:#000000; fill-opacity:0.0; 
stroke:#000000; stroke-width:21200.000000; stroke-opacity:1; 
stroke-linecap:round; stroke-linejoin:round;">
</g>
<g style="fill:#000000; fill-opacity:0.0; 
stroke:#000000; stroke-width:150000.000000; stroke-opacity:1; 
stroke-linecap:round; stroke-linejoin:round;">
<path d="M360000000 285002200
L360000000 287002200
" />
</g>
<g style="fill:#000000; fill-opacity:0.0; 
stroke:#000000; stroke-width:21200.000000; stroke-opacity:1; 
stroke-linecap:round; stroke-linejoin:round;">
</g>
<g style="fill:#000000; fill-opacity:0.0; 
stroke:#000000; stroke-width:150000.000000; stroke-opacity:1; 
stroke-linecap:round; stroke-linejoin:round;">
<text x="35000000.000000" y="286652200.000000"
textLength="1388095.000000" font-size="1733333.000000" lengthAdjust="spacingAndGlyphs"
text-anchor="start" opacity="0">1</text>
<g class="stroked-text"><desc>1</desc>
<path d="M36065476 286590295
L35322619 286590295
" />
<path d="M35694047 286590295
L35694047 285290295
L35570238 285476009
L35446428 285599819
L35322619 285661723
" />
</g></g>
<g style="fill:#000000; fill-opacity:0.0; 
stroke:#000000; stroke-width:21200.000000; stroke-opacity:1; 
stroke-linecap:round; stroke-linejoin:round;">
</g>
<g style="fill:#000000; fill-opacity:0.0; 
stroke:#000000; stroke-width:150000.000000; stroke-opacity:1; 
stroke-linecap:round; stroke-linejoin:round;">
<text x="85000000.000000" y="286652200.000000"
textLength="1388095.000000" font-size="1733333.000000" lengthAdjust="spacingAndGlyphs"
text-anchor="start" opacity="0">2</text>
<g class="stroked-text"><desc>2</desc>
<path d="M85322619 285414104
L85384523 285352200
L85508333 285290295
L85817857 285290295
L85941666 285352200
L86003571 285414104
L86065476 285537914
L86065476 285661723
L86003571 285847438
L85260714 286590295
L86065476 286590295
" />
</g></g>
<g style="fill:#000000; fill-opacity:0.0; 
stroke:#000000; stroke-width:21200.000000; stroke-opacity:1; 
stroke-linecap:round; stroke-linejoin:round;">
</g>
<g style="fill:#000000; fill-opacity:0.0; 
stroke:#000000; stroke-width:150000.000000; stroke-opacity:1; 
stroke-linecap:round; stroke-linejoin:round;">
<text x="135000000.000000" y="286652200.000000"
textLength="1388095.000000" font-size="1733333.000000" lengthAdjust="spacingAndGlyphs"
text-anchor="start" opacity="0">3</text>
<g class="stroked-text"><desc>3</desc>
<path d="M135260714 285290295
L136065476 285290295
L135632142 285785533
L135817857 285785533
L135941666 285847438
L136003571 285909342
L136065476 286033152
L136065476 286342676
L136003571 286466485
L135941666 286528390
L135817857 286590295
L135446428 286590295
L135322619 286528390
L135260714 286466485
" />
</g></g>
<g style="fill:#000000; fill-opacity:0.0; 
stroke:#000000; stroke-width:21200.000000; stroke-opacity:1; 
stroke-linecap:round; stroke-linejoin:round;">
</g>
<g style="fill:#000000; fill-opacity:0.0; 
stroke:#000000; stroke-width:150000.000000; stroke-opacity:1; 
stroke-linecap:round; stroke-linejoin:round;">
<text x="185000000.000000" y="286652200.000000"
textLength="1388095.000000" font-size="1733333.000000" lengthAdjust="spacingAndGlyphs"
text-anchor="start" opacity="0">4</text>
<g class="stroked-text"><desc>4</desc>
<path d="M185941666 285723628
L185941666 286590295
" />
<path d="M185632142 285228390
L185322619 286156961
L186127380 286156961
" />
</g></g>
<g style="fill:#000000; fill-opacity:0.0; 
stroke:#000000; stroke-width:21200.000000; stroke-opacity:1; 
stroke-linecap:round; stroke-linejoin:round;">
</g>
<g style="fill:#000000; fill-opacity:0.0; 
stroke:#000000; stroke-width:150000.000000; stroke-opacity:1; 
stroke-linecap:round; stroke-linejoin:round;">
<text x="235000000.000000" y="286652200.000000"
textLength="1388095.000000" font-size="1733333.000000" lengthAdjust="spacingAndGlyphs"
text-anchor="start" opacity="0">5</text>
<g class="stroked-text"><desc>5</desc>
<path d="M236003571 285290295
L235384523 285290295
L235322619 285909342
L235384523 285847438
L235508333 285785533
L235817857 285785533
L235941666 285847438
L236003571 285909342
L236065476 286033152
L236065476 286342676
L236003571 286466485
L235941666 286528390
L235817857 286590295
L235508333 286590295
L235384523 286528390
L235322619 286466485
" />
</g></g>
<g style="fill:#000000; fill-opacity:0.0; 
stroke:#000000; stroke-width:21200.000000; stroke-opacity:1; 
stroke-linecap:round; stroke-linejoin:round;">
</g>
<g style="fill:#000000; fill-opacity:0.0; 
stroke:#000000; stroke-width:150000.000000; stroke-opacity:1; 
stroke-linecap:round; stroke-linejoin:round;">
<text x="285000000.000000" y="286652200.000000"
textLength="1388095.000000" font-size="1733333.000000" lengthAdjust="spacingAndGlyphs"
text-anchor="start" opacity="0">6</text>
<g class="stroked-text"><desc>6</desc>
<path d="M285941666 285290295
L285694047 285290295
L285570238 285352200
L285508333 285414104
L285384523 285599819
L285322619 285847438
L285322619 286342676
L285384523 286466485
L285446428 286528390
L285570238 286590295
L285817857 286590295
L285941666 286528390
L286003571 286466485
L286065476 286342676
L286065476 286033152
L286003571 285909342
L285941666 285847438
L285817857 285785533
L285570238 285785533
L285446428 285847438
L285384523 285909342
L285322619 286033152
" />
</g></g>
<g style="fill:#000000; fill-opacity:0.0; 
stroke:#000000; stroke-width:21200.000000; stroke-opacity:1; 
stroke-linecap:round; stroke-linejoin:round;">
</g>
<g style="fill:#000000; fill-opacity:0.0; 
stroke:#000000; stroke-width:150000.000000; stroke-opacity:1; 
stroke-linecap:round; stroke-linejoin:round;">
<text x="335000000.000000" y="286652200.000000"
textLength="1388095.000000" font-size="1733333.000000" lengthAdjust="spacingAndGlyphs"
text-anchor="start" opacity="0">7</text>
<g class="stroked-text"><desc>7</desc>
<path d="M335260714 285290295
L336127380 285290295
L335570238 286590295
" />
</g></g>
<g style="fill:#000000; fill-opacity:0.0; 
stroke:#000000; stroke-width:21200.000000; stroke-opacity:1; 
stroke-linecap:round; stroke-linejoin:round;">
</g>
<g style="fill:#000000; fill-opacity:0.0; 
stroke:#000000; stroke-width:150000.000000; stroke-opacity:1; 
stroke-linecap:round; stroke-linejoin:round;">
<text x="385000000.000000" y="286652200.000000"
textLength="1388095.000000" font-size="1733333.000000" lengthAdjust="spacingAndGlyphs"
text-anchor="start" opacity="0">8</text>
<g class="stroked-text"><desc>8</desc>
<path d="M385570238 285847438
L385446428 285785533
L385384523 285723628
L385322619 285599819
L385322619 285537914
L385384523 285414104
L385446428 285352200
L385570238 285290295
L385817857 285290295
L385941666 285352200
L386003571 285414104
L386065476 285537914
L386065476 285599819
L386003571 285723628
L385941666 285785533
L385817857 285847438
L385570238 285847438
L385446428 285909342
L385384523 285971247
L385322619 286095057
L385322619 286342676
L385384523 286466485
L385446428 286528390
L385570238 286590295
L385817857 286590295
L385941666 286528390
L386003571 286466485
L386065476 286342676
L386065476 286095057
L386003571 285971247
L385941666 285909342
L385817857 285847438
" />
</g></g>
<g style="fill:#000000; fill-opacity:0.0; 
stroke:#000000; stroke-width:21200.000000; stroke-opacity:1; 
stroke-linecap:round; stroke-linejoin:round;">
</g>
<g style="fill:#000000; fill-opacity:0.0; 
stroke:#000000; stroke-width:150000.000000; stroke-opacity:1; 
stroke-linecap:round; stroke-linejoin:round;">
<path d="M10000000 60000000
L12000000 60000000
" />
</g>
<g style="fill:#000000; fill-opacity:0.0; 
stroke:#000000; stroke-width:21200.000000; stroke-opacity:1; 
stroke-linecap:round; stroke-linejoin:round;">
</g>
<g style="fill:#000000; fill-opacity:0.0; 
stroke:#000000; stroke-width:150000.000000; stroke-opacity:1; 
stroke-linecap:round; stroke-linejoin:round;">
<path d="M10000000 110000000
L12000000 110000000
" />
</g>
<g style="fill:#000000; fill-opacity:0.0; 
stroke:#000000; stroke-width:21200.000000; stroke-opacity:1; 
stroke-linecap:round; stroke-linejoin:round;">
</g>
<g style="fill:#000000; fill-opacity:0.0; 
stroke:#000000; stroke-width:150000.000000; stroke-opacity:1; 
stroke-linecap:round; stroke-linejoin:round;">
<path d="M10000000 160000000
L12000000 160000000
" />
</g>
<g style="fill:#000000; fill-opacity:0.0; 
stroke:#000000; stroke-width:21200.000000; stroke-opacity:1; 
stroke-linecap:round; stroke-linejoin:round;">
</g>
<g style="fill:#000000; fill-opacity:0.0; 
stroke:#000000; stroke-width:150000.000000; stroke-opacity:1; 
stroke-linecap:round; stroke-linejoin:round;">
<path d="M10000000 210000000
L12000000 210000000
" />
</g>
<g style="fill:#000000; fill-opacity:0.0; 
stroke:#000000; stroke-width:21200.000000; stroke-opacity:1; 
stroke-linecap:round; stroke-linejoin:round;">
</g>
<g style="fill:#000000; fill-opacity:0.0; 
stroke:#000000; stroke-width:150000.000000; stroke-opacity:1; 
stroke-linecap:round; stroke-linejoin:round;">
<path d="M10000000 260000000
L12000000 260000000
" />
</g>
<g style="fill:#000000; fill-opacity:0.0; 
stroke:#000000; stroke-width:21200.000000; stroke-opacity:1; 
stroke-linecap:round; stroke-linejoin:round;">
</g>
<g style="fill:#000000; fill-opacity:0.0; 
stroke:#000000; stroke-width:150000.000000; stroke-opacity:1; 
stroke-linecap:round; stroke-linejoin:round;">
<text x="11000000.000000" y="35650000.000000"
textLength="1264286.000000" font-size="1733333.000000" lengthAdjust="spacingAndGlyphs"
text-anchor="middle" opacity="0">A</text>
<g class="stroked-text"><desc>A</desc>
<path d="M10690476 35216666
L11309523 35216666
" />
<path d="M10566666 35588095
L11000000 34288095
L11433333 35588095
" />
</g></g>
<g style="fill:#000000; fill-opacity:0.0; 
stroke:#000000; stroke-width:21200.000000; stroke-opacity:1; 
stroke-linecap:round; stroke-linejoin:round;">
</g>
<g style="fill:#000000; fill-opacity:0.0; 
stroke:#000000; stroke-width:150000.000000; stroke-opacity:1; 
stroke-linecap:round; stroke-linejoin:round;">
<text x="11000000.000000" y="85650000.000000"
textLength="1450000.000000" font-size="1733333.000000" lengthAdjust="spacingAndGlyphs"
text-anchor="middle" opacity="0">B</text>
<g class="stroked-text"><desc>B</desc>
<path d="M11092857 84907142
L11278571 84969047
L11340476 85030952
L11402380 85154761
L11402380 85340476
L11340476 85464285
L11278571 85526190
L11154761 85588095
L10659523 85588095
L10659523 84288095
L11092857 84288095
L11216666 84350000
L11278571 84411904
L11340476 84535714
L11340476 84659523
L11278571 84783333
L11216666 84845238
L11092857 84907142
L10659523 84907142
" />
</g></g>
<g style="fill:#000000; fill-opacity:0.0; 
stroke:#000000; stroke-width:21200.000000; stroke-opacity:1; 
stroke-linecap:round; stroke-linejoin:round;">
</g>
<g style="fill:#000000; fill-opacity:0.0; 
stroke:#000000; stroke-width:150000.000000; stroke-opacity:1; 
stroke-linecap:round; stroke-linejoin:round;">
<text x="11000000.000000" y="135650000.000000"
textLength="1450000.000000" font-size="1733333.000000" lengthAdjust="spacingAndGlyphs"
text-anchor="middle" opacity="0">C</text>
<g class="stroked-text"><desc>C</desc>
<path d="M11402380 135464285
L11340476 135526190
L11154761 135588095
L11030952 135588095
L10845238 135526190
L10721428 135402380
L10659523 135278571
L10597619 135030952
L10597619 134845238
L10659523 134597619
L10721428 134473809
L10845238 134350000
L11030952 134288095
L11154761 134288095
L11340476 134350000
L11402380 134411904
" />
</g></g>
<g style="fill:#000000; fill-opacity:0.0; 
stroke:#000000; stroke-width:21200.000000; stroke-opacity:1; 
stroke-linecap:round; stroke-linejoin:round;">
</g>
<g style="fill:#000000; fill-opacity:0.0; 
stroke:#000000; stroke-width:150000.000000; stroke-opacity:1; 
stroke-linecap:round; stroke-linejoin:round;">
<text x="11000000.000000" y="185650000.000000"
textLength="1450000.000000" font-size="1733333.000000" lengthAdjust="spacingAndGlyphs"
text-anchor="middle" opacity="0">D</text>
<g class="stroked-text"><desc>D</desc>
<path d="M10659523 185588095
L10659523 184288095
L10969047 184288095
L11154761 184350000
L11278571 184473809
L11340476 184597619
L11402380 184845238
L11402380 185030952
L11340476 185278571
L11278571 185402380
L11154761 185526190
L10969047 185588095
L10659523 185588095
" />
</g></g>
<g style="fill:#000000; fill-opacity:0.0; 
stroke:#000000; stroke-width:21200.000000; stroke-opacity:1; 
stroke-linecap:round; stroke-linejoin:round;">
</g>
<g style="fill:#000000; fill-opacity:0.0; 
stroke:#000000; stroke-width:150000.000000; stroke-opacity:1; 
stroke-linecap:round; stroke-linejoin:round;">
<text x="11000000.000000" y="235650000.000000"
textLength="1326190.000000" font-size="1733333.000000" lengthAdjust="spacingAndGlyphs"
text-anchor="middle" opacity="0">E</text>
<g class="stroked-text"><desc>E</desc>
<path d="M10721428 234907142
L11154761 234907142
" />
<path d="M11340476 235588095
L10721428 235588095
L10721428 234288095
L11340476 234288095
" />
</g></g>
<g style="fill:#000000; fill-opacity:0.0; 
stroke:#000000; stroke-width:21200.000000; stroke-opacity:1; 
stroke-linecap:round; stroke-linejoin:round;">
</g>
<g style="fill:#000000; fill-opacity:0.0; 
stroke:#000000; stroke-width:150000.000000; stroke-opacity:1; 
stroke-linecap:round; stroke-linejoin:round;">
<text x="11000000.000000" y="285650000.000000"
textLength="1264286.000000" font-size="1733333.000000" lengthAdjust="spacingAndGlyphs"
text-anchor="middle" opacity="0">F</text>
<g class="stroked-text"><desc>F</desc>
<path d="M11185714 284907142
L10752380 284907142
" />
<path d="M10752380 285588095
L10752380 284288095
L11371428 284288095
" />
</g></g>
<g style="fill:#000000; fill-opacity:0.0; 
stroke:#000000; stroke-width:21200.000000; stroke-opacity:1; 
stroke-linecap:round; stroke-linejoin:round;">
</g>
<g style="fill:#000000; fill-opacity:0.0; 
stroke:#000000; stroke-width:150000.000000; stroke-opacity:1; 
stroke-linecap:round; stroke-linejoin:round;">
<path d="M409989000 60000000
L407989000 60000000
" />
</g>
<g style="fill:#000000; fill-opacity:0.0; 
stroke:#000000; stroke-width:21200.000000; stroke-opacity:1; 
stroke-linecap:round; stroke-linejoin:round;">
</g>
<g style="fill:#000000; fill-opacity:0.0; 
stroke:#000000; stroke-width:150000.000000; stroke-opacity:1; 
stroke-linecap:round; stroke-linejoin:round;">
<path d="M409989000 110000000
L407989000 110000000
" />
</g>
<g style="fill:#000000; fill-opacity:0.0; 
stroke:#000000; stroke-width:21200.000000; stroke-opacity:1; 
stroke-linecap:round; stroke-linejoin:round;">
</g>
<g style="fill:#000000; fill-opacity:0.0; 
stroke:#000000; stroke-width:150000.000000; stroke-opacity:1; 
stroke-linecap:round; stroke-linejoin:round;">
<path d="M409989000 160000000
L407989000 160000000
" />
</g>
<g style="fill:#000000; fill-opacity:0.0; 
stroke:#000000; stroke-width:21200.000000; stroke-opacity:1; 
stroke-linecap:round; stroke-linejoin:round;">
</g>
<g style="fill:#000000; fill-opacity:0.0; 
stroke:#000000; stroke-width:150000.000000; stroke-opacity:1; 
stroke-linecap:round; stroke-linejoin:round;">
<path d="M409989000 210000000
L407989000 210000000
" />
</g>
<g style="fill:#000000; fill-opacity:0.0; 
stroke:#000000; stroke-width:21200.000000; stroke-opacity:1; 
stroke-linecap:round; stroke-linejoin:round;">
</g>
<g style="fill:#000000; fill-opacity:0.0; 
stroke:#000000; stroke-width:150000.000000; stroke-opacity:1; 
stroke-linecap:round; stroke-linejoin:round;">
<path d="M409989000 260000000
L407989000 260000000
" />
</g>
<g style="fill:#000000; fill-opacity:0.0; 
stroke:#000000; stroke-width:21200.000000; stroke-opacity:1; 
stroke-linecap:round; stroke-linejoin:round;">
</g>
<g style="fill:#000000; fill-opacity:0.0; 
stroke:#000000; stroke-width:150000.000000; stroke-opacity:1; 
stroke-linecap:round; stroke-linejoin:round;">
<text x="408989000.000000" y="35650000.000000"
textLength="1264286.000000" font-size="1733333.000000" lengthAdjust="spacingAndGlyphs"
text-anchor="middle" opacity="0">A</text>
<g class="stroked-text"><desc>A</desc>
<path d="M408679476 35216666
L409298523 35216666
" />
<path d="M408555666 35588095
L408989000 34288095
L409422333 35588095
" />
</g></g>
<g style="fill:#000000; fill-opacity:0.0; 
stroke:#000000; stroke-width:21200.000000; stroke-opacity:1; 
stroke-linecap:round; stroke-linejoin:round;">
</g>
<g style="fill:#000000; fill-opacity:0.0; 
stroke:#000000; stroke-width:150000.000000; stroke-opacity:1; 
stroke-linecap:round; stroke-linejoin:round;">
<text x="408989000.000000" y="85650000.000000"
textLength="1450000.000000" font-size="1733333.000000" lengthAdjust="spacingAndGlyphs"
text-anchor="middle" opacity="0">B</text>
<g class="stroked-text"><desc>B</desc>
<path d="M409081857 84907142
L409267571 84969047
L409329476 85030952
L409391380 85154761
L409391380 85340476
L409329476 85464285
L409267571 85526190
L409143761 85588095
L408648523 85588095
L408648523 84288095
L409081857 84288095
L409205666 84350000
L409267571 84411904
L409329476 84535714
L409329476 84659523
L409267571 84783333
L409205666 84845238
L409081857 84907142
L408648523 84907142
" />
</g></g>
<g style="fill:#000000; fill-opacity:0.0; 
stroke:#000000; stroke-width:21200.000000; stroke-opacity:1; 
stroke-linecap:round; stroke-linejoin:round;">
</g>
<g style="fill:#000000; fill-opacity:0.0; 
stroke:#000000; stroke-width:150000.000000; stroke-opacity:1; 
stroke-linecap:round; stroke-linejoin:round;">
<text x="408989000.000000" y="135650000.000000"
textLength="1450000.000000" font-size="1733333.000000" lengthAdjust="spacingAndGlyphs"
text-anchor="middle" opacity="0">C</text>
<g class="stroked-text"><desc>C</desc>
<path d="M409391380 135464285
L409329476 135526190
L409143761 135588095
L409019952 135588095
L408834238 135526190
L408710428 135402380
L408648523 135278571
L408586619 135030952
L408586619 134845238
L408648523 134597619
L408710428 134473809
L408834238 134350000
L409019952 134288095
L409143761 134288095
L409329476 134350000
L409391380 134411904
" />
</g></g>
<g style="fill:#000000; fill-opacity:0.0; 
stroke:#000000; stroke-width:21200.000000; stroke-opacity:1; 
stroke-linecap:round; stroke-linejoin:round;">
</g>
<g style="fill:#000000; fill-opacity:0.0; 
stroke:#000000; stroke-width:150000.000000; stroke-opacity:1; 
stroke-linecap:round; stroke-linejoin:round;">
<text x="408989000.000000" y="185650000.000000"
textLength="1450000.000000" font-size="1733333.000000" lengthAdjust="spacingAndGlyphs"
text-anchor="middle" opacity="0">D</text>
<g class="stroked-text"><desc>D</desc>
<path d="M408648523 185588095
L408648523 184288095
L408958047 184288095
L409143761 184350000
L409267571 184473809
L409329476 184597619
L409391380 184845238
L409391380 185030952
L409329476 185278571
L409267571 185402380
L409143761 185526190
L408958047 185588095
L408648523 185588095
" />
</g></g>
<g style="fill:#000000; fill-opacity:0.0; 
stroke:#000000; stroke-width:21200.000000; stroke-opacity:1; 
stroke-linecap:round; stroke-linejoin:round;">
</g>
<g style="fill:#000000; fill-opacity:0.0; 
stroke:#000000; stroke-width:150000.000000; stroke-opacity:1; 
stroke-linecap:round; stroke-linejoin:round;">
<text x="408989000.000000" y="235650000.000000"
textLength="1326190.000000" font-size="1733333.000000" lengthAdjust="spacingAndGlyphs"
text-anchor="middle" opacity="0">E</text>
<g class="stroked-text"><desc>E</desc>
<path d="M408710428 234907142
L409143761 234907142
" />
<path d="M409329476 235588095
L408710428 235588095
L408710428 234288095
L409329476 234288095
" />
</g></g>
<g style="fill:#000000; fill-opacity:0.0; 
stroke:#000000; stroke-width:21200.000000; stroke-opacity:1; 
stroke-linecap:round; stroke-linejoin:round;">
</g>
<g style="fill:#000000; fill-opacity:0.0; 
stroke:#000000; stroke-width:150000.000000; stroke-opacity:1; 
stroke-linecap:round; stroke-linejoin:round;">
<text x="408989000.000000" y="285650000.000000"
textLength="1264286.000000" font-size="1733333.000000" lengthAdjust="spacingAndGlyphs"
text-anchor="middle" opacity="0">F</text>
<g class="stroked-text"><desc>F</desc>
<path d="M409174714 284907142
L408741380 284907142
" />
<path d="M408741380 285588095
L408741380 284288095
L409360428 284288095
" />
</g></g>
<g style="fill:#000000; fill-opacity:0.0; 
stroke:#000000; stroke-width:21200.000000; stroke-opacity:1; 
stroke-linecap:round; stroke-linejoin:round;">
</g>
<g style="fill:#000000; fill-opacity:0.0; 
stroke:#000000; stroke-width:150000.000000; stroke-opacity:1; 
stroke-linecap:round; stroke-linejoin:round;">
<text x="322989000.000000" y="280852200.000000"
textLength="7007143.000000" font-size="2000000.000000" lengthAdjust="spacingAndGlyphs"
text-anchor="start" opacity="0">Date: </text>
<g class="stroked-text"><desc>Date: </desc>
<path d="M323421142 280780771
L323421142 279280771
L323778285 279280771
L323992571 279352200
L324135428 279495057
L324206857 279637914
L324278285 279923628
L324278285 280137914
L324206857 280423628
L324135428 280566485
L323992571 280709342
L323778285 280780771
L323421142 280780771
" />
<path d="M325564000 280780771
L325564000 279995057
L325492571 279852200
L325349714 279780771
L325064000 279780771
L324921142 279852200
" />
<path d="M325564000 280709342
L325421142 280780771
L325064000 280780771
L324921142 280709342
L324849714 280566485
L324849714 280423628
L324921142 280280771
L325064000 280209342
L325421142 280209342
L325564000 280137914
" />
<path d="M326064000 279780771
L326635428 279780771
" />
<path d="M326278285 279280771
L326278285 280566485
L326349714 280709342
L326492571 280780771
L326635428 280780771
" />
<path d="M327706857 280709342
L327564000 280780771
L327278285 280780771
L327135428 280709342
L327064000 280566485
L327064000 279995057
L327135428 279852200
L327278285 279780771
L327564000 279780771
L327706857 279852200
L327778285 279995057
L327778285 280137914
L327064000 280280771
" />
<path d="M328421142 280637914
L328492571 280709342
L328421142 280780771
L328349714 280709342
L328421142 280637914
L328421142 280780771
" />
<path d="M328421142 279852200
L328492571 279923628
L328421142 279995057
L328349714 279923628
L328421142 279852200
L328421142 279995057
" />
</g></g>
<g style="fill:#000000; fill-opacity:0.0; 
stroke:#000000; stroke-width:21200.000000; stroke-opacity:1; 
stroke-linecap:round; stroke-linejoin:round;">
</g>
<g style="fill:#000000; fill-opacity:0.0; 
stroke:#000000; stroke-width:150000.000000; stroke-opacity:1; 
stroke-linecap:round; stroke-linejoin:round;">
<path d="M299989000 281502200
L407989000 281502200
" />
</g>
<g style="fill:#000000; fill-opacity:0.0; 
stroke:#000000; stroke-width:21200.000000; stroke-opacity:1; 
stroke-linecap:round; stroke-linejoin:round;">
</g>
<g style="fill:#000000; fill-opacity:0.0; 
stroke:#000000; stroke-width:150000.000000; stroke-opacity:1; 
stroke-linecap:round; stroke-linejoin:round;">
<text x="300989000.000000" y="283652200.000000"
textLength="31078571.000000" font-size="2000000.000000" lengthAdjust="spacingAndGlyphs"
text-anchor="start" opacity="0">KiCad E.D.A.  kicad (6.0.2)</text>
<g class="stroked-text"><desc>KiCad E.D.A.  kicad (6.0.2)</desc>
<path d="M301421142 283580771
L301421142 282080771
" />
<path d="M302278285 283580771
L301635428 282723628
" />
<path d="M302278285 282080771
L301421142 282937914
" />
<path d="M302921142 283580771
L302921142 282580771
" />
<path d="M302921142 282080771
L302849714 282152200
L302921142 282223628
L302992571 282152200
L302921142 282080771
L302921142 282223628
" />
<path d="M304492571 283437914
L304421142 283509342
L304206857 283580771
L304064000 283580771
L303849714 283509342
L303706857 283366485
L303635428 283223628
L303564000 282937914
L303564000 282723628
L303635428 282437914
L303706857 282295057
L303849714 282152200
L304064000 282080771
L304206857 282080771
L304421142 282152200
L304492571 282223628
" />
<path d="M305778285 283580771
L305778285 282795057
L305706857 282652200
L305564000 282580771
L305278285 282580771
L305135428 282652200
" />
<path d="M305778285 283509342
L305635428 283580771
L305278285 283580771
L305135428 283509342
L305064000 283366485
L305064000 283223628
L305135428 283080771
L305278285 283009342
L305635428 283009342
L305778285 282937914
" />
<path d="M307135428 283580771
L307135428 282080771
" />
<path d="M307135428 283509342
L306992571 283580771
L306706857 283580771
L306564000 283509342
L306492571 283437914
L306421142 283295057
L306421142 282866485
L306492571 282723628
L306564000 282652200
L306706857 282580771
L306992571 282580771
L307135428 282652200
" />
<path d="M308992571 282795057
L309492571 282795057
" />
<path d="M309706857 283580771
L308992571 283580771
L308992571 282080771
L309706857 282080771
" />
<path d="M310349714 283437914
L310421142 283509342
L310349714 283580771
L310278285 283509342
L310349714 283437914
L310349714 283580771
" />
<path d="M311064000 283580771
L311064000 282080771
L311421142 282080771
L311635428 282152200
L311778285 282295057
L311849714 282437914
L311921142 282723628
L311921142 282937914
L311849714 283223628
L311778285 283366485
L311635428 283509342
L311421142 283580771
L311064000 283580771
" />
<path d="M312564000 283437914
L312635428 283509342
L312564000 283580771
L312492571 283509342
L312564000 283437914
L312564000 283580771
" />
<path d="M313206857 283152200
L313921142 283152200
" />
<path d="M313064000 283580771
L313564000 282080771
L314064000 283580771
" />
<path d="M314564000 283437914
L314635428 283509342
L314564000 283580771
L314492571 283509342
L314564000 283437914
L314564000 283580771
" />
<path d="M317564000 283580771
L317564000 282080771
" />
<path d="M317706857 283009342
L318135428 283580771
" />
<path d="M318135428 282580771
L317564000 283152200
" />
<path d="M318778285 283580771
L318778285 282580771
" />
<path d="M318778285 282080771
L318706857 282152200
L318778285 282223628
L318849714 282152200
L318778285 282080771
L318778285 282223628
" />
<path d="M320135428 283509342
L319992571 283580771
L319706857 283580771
L319564000 283509342
L319492571 283437914
L319421142 283295057
L319421142 282866485
L319492571 282723628
L319564000 282652200
L319706857 282580771
L319992571 282580771
L320135428 282652200
" />
<path d="M321421142 283580771
L321421142 282795057
L321349714 282652200
L321206857 282580771
L320921142 282580771
L320778285 282652200
" />
<path d="M321421142 283509342
L321278285 283580771
L320921142 283580771
L320778285 283509342
L320706857 283366485
L320706857 283223628
L320778285 283080771
L320921142 283009342
L321278285 283009342
L321421142 282937914
" />
<path d="M322778285 283580771
L322778285 282080771
" />
<path d="M322778285 283509342
L322635428 283580771
L322349714 283580771
L322206857 283509342
L322135428 283437914
L322064000 283295057
L322064000 282866485
L322135428 282723628
L322206857 282652200
L322349714 282580771
L322635428 282580771
L322778285 282652200
" />
<path d="M325064000 284152200
L324992571 284080771
L324849714 283866485
L324778285 283723628
L324706857 283509342
L324635428 283152200
L324635428 282866485
L324706857 282509342
L324778285 282295057
L324849714 282152200
L324992571 281937914
L325064000 281866485
" />
<path d="M326278285 282080771
L325992571 282080771
L325849714 282152200
L325778285 282223628
L325635428 282437914
L325564000 282723628
L325564000 283295057
L325635428 283437914
L325706857 283509342
L325849714 283580771
L326135428 283580771
L326278285 283509342
L326349714 283437914
L326421142 283295057
L326421142 282937914
L326349714 282795057
L326278285 282723628
L326135428 282652200
L325849714 282652200
L325706857 282723628
L325635428 282795057
L325564000 282937914
" />
<path d="M327064000 283437914
L327135428 283509342
L327064000 283580771
L326992571 283509342
L327064000 283437914
L327064000 283580771
" />
<path d="M328064000 282080771
L328206857 282080771
L328349714 282152200
L328421142 282223628
L328492571 282366485
L328564000 282652200
L328564000 283009342
L328492571 283295057
L328421142 283437914
L328349714 283509342
L328206857 283580771
L328064000 283580771
L327921142 283509342
L327849714 283437914
L327778285 283295057
L327706857 283009342
L327706857 282652200
L327778285 282366485
L327849714 282223628
L327921142 282152200
L328064000 282080771
" />
<path d="M329206857 283437914
L329278285 283509342
L329206857 283580771
L329135428 283509342
L329206857 283437914
L329206857 283580771
" />
<path d="M329849714 282223628
L329921142 282152200
L330064000 282080771
L330421142 282080771
L330564000 282152200
L330635428 282223628
L330706857 282366485
L330706857 282509342
L330635428 282723628
L329778285 283580771
L330706857 283580771
" />
<path d="M331206857 284152200
L331278285 284080771
L331421142 283866485
L331492571 283723628
L331564000 283509342
L331635428 283152200
L331635428 282866485
L331564000 282509342
L331492571 282295057
L331421142 282152200
L331278285 281937914
L331206857 281866485
" />
</g></g>
<g style="fill:#000000; fill-opacity:0.0; 
stroke:#000000; stroke-width:21200.000000; stroke-opacity:1; 
stroke-linecap:round; stroke-linejoin:round;">
</g>
<g style="fill:#000000; fill-opacity:0.0; 
stroke:#000000; stroke-width:150000.000000; stroke-opacity:1; 
stroke-linecap:round; stroke-linejoin:round;">
<path d="M299989000 278502200
L407989000 278502200
" />
</g>
<g style="fill:#000000; fill-opacity:0.0; 
stroke:#000000; stroke-width:21200.000000; stroke-opacity:1; 
stroke-linecap:round; stroke-linejoin:round;">
</g>
<g style="fill:#000000; fill-opacity:0.0; 
stroke:#000000; stroke-width:300000.000000; stroke-opacity:1; 
stroke-linecap:round; stroke-linejoin:round;">
<text x="385989000.000000" y="280852200.000000"
textLength="5935714.000000" font-size="2000000.000000" lengthAdjust="spacingAndGlyphs"
text-anchor="start" opacity="0">Rev: </text>
<g class="stroked-text"><desc>Rev: </desc>
<path d="M387398285 280780771
L386898285 280066485
" />
<path d="M386541142 280780771
L386541142 279280771
L387112571 279280771
L387255428 279352200
L387326857 279423628
L387398285 279566485
L387398285 279780771
L387326857 279923628
L387255428 279995057
L387112571 280066485
L386541142 280066485
" />
<path d="M388612571 280709342
L388469714 280780771
L388184000 280780771
L388041142 280709342
L387969714 280566485
L387969714 279995057
L388041142 279852200
L388184000 279780771
L388469714 279780771
L388612571 279852200
L388684000 279995057
L388684000 280137914
L387969714 280280771
" />
<path d="M389184000 279780771
L389541142 280780771
L389898285 279780771
" />
<path d="M390469714 280637914
L390541142 280709342
L390469714 280780771
L390398285 280709342
L390469714 280637914
L390469714 280780771
" />
<path d="M390469714 279852200
L390541142 279923628
L390469714 279995057
L390398285 279923628
L390469714 279852200
L390469714 279995057
" />
</g></g>
<g style="fill:#000000; fill-opacity:0.0; 
stroke:#000000; stroke-width:21200.000000; stroke-opacity:1; 
stroke-linecap:round; stroke-linejoin:round;">
</g>
<g style="fill:#000000; fill-opacity:0.0; 
stroke:#000000; stroke-width:150000.000000; stroke-opacity:1; 
stroke-linecap:round; stroke-linejoin:round;">
<text x="300989000.000000" y="280852200.000000"
textLength="9604286.000000" font-size="2000000.000000" lengthAdjust="spacingAndGlyphs"
text-anchor="start" opacity="0">Size: A3</text>
<g class="stroked-text"><desc>Size: A3</desc>
<path d="M301349714 280709342
L301564000 280780771
L301921142 280780771
L302064000 280709342
L302135428 280637914
L302206857 280495057
L302206857 280352200
L302135428 280209342
L302064000 280137914
L301921142 280066485
L301635428 279995057
L301492571 279923628
L301421142 279852200
L301349714 279709342
L301349714 279566485
L301421142 279423628
L301492571 279352200
L301635428 279280771
L301992571 279280771
L302206857 279352200
" />
<path d="M302849714 280780771
L302849714 279780771
" />
<path d="M302849714 279280771
L302778285 279352200
L302849714 279423628
L302921142 279352200
L302849714 279280771
L302849714 279423628
" />
<path d="M303421142 279780771
L304206857 279780771
L303421142 280780771
L304206857 280780771
" />
<path d="M305349714 280709342
L305206857 280780771
L304921142 280780771
L304778285 280709342
L304706857 280566485
L304706857 279995057
L304778285 279852200
L304921142 279780771
L305206857 279780771
L305349714 279852200
L305421142 279995057
L305421142 280137914
L304706857 280280771
" />
<path d="M306064000 280637914
L306135428 280709342
L306064000 280780771
L305992571 280709342
L306064000 280637914
L306064000 280780771
" />
<path d="M306064000 279852200
L306135428 279923628
L306064000 279995057
L305992571 279923628
L306064000 279852200
L306064000 279995057
" />
<path d="M307849714 280352200
L308564000 280352200
" />
<path d="M307706857 280780771
L308206857 279280771
L308706857 280780771
" />
<path d="M309064000 279280771
L309992571 279280771
L309492571 279852200
L309706857 279852200
L309849714 279923628
L309921142 279995057
L309992571 280137914
L309992571 280495057
L309921142 280637914
L309849714 280709342
L309706857 280780771
L309278285 280780771
L309135428 280709342
L309064000 280637914
" />
</g></g>
<g style="fill:#000000; fill-opacity:0.0; 
stroke:#000000; stroke-width:21200.000000; stroke-opacity:1; 
stroke-linecap:round; stroke-linejoin:round;">
</g>
<g style="fill:#000000; fill-opacity:0.0; 
stroke:#000000; stroke-width:150000.000000; stroke-opacity:1; 
stroke-linecap:round; stroke-linejoin:round;">
<text x="385989000.000000" y="283652200.000000"
textLength="8507143.000000" font-size="2000000.000000" lengthAdjust="spacingAndGlyphs"
text-anchor="start" opacity="0">Id: 1/1</text>
<g class="stroked-text"><desc>Id: 1/1</desc>
<path d="M386421142 283580771
L386421142 282080771
" />
<path d="M387778285 283580771
L387778285 282080771
" />
<path d="M387778285 283509342
L387635428 283580771
L387349714 283580771
L387206857 283509342
L387135428 283437914
L387064000 283295057
L387064000 282866485
L387135428 282723628
L387206857 282652200
L387349714 282580771
L387635428 282580771
L387778285 282652200
" />
<path d="M388492571 283437914
L388564000 283509342
L388492571 283580771
L388421142 283509342
L388492571 283437914
L388492571 283580771
" />
<path d="M388492571 282652200
L388564000 282723628
L388492571 282795057
L388421142 282723628
L388492571 282652200
L388492571 282795057
" />
<path d="M391135428 283580771
L390278285 283580771
" />
<path d="M390706857 283580771
L390706857 282080771
L390564000 282295057
L390421142 282437914
L390278285 282509342
" />
<path d="M392849714 282009342
L391564000 283937914
" />
<path d="M394135428 283580771
L393278285 283580771
" />
<path d="M393706857 283580771
L393706857 282080771
L393564000 282295057
L393421142 282437914
L393278285 282509342
" />
</g></g>
<g style="fill:#000000; fill-opacity:0.0; 
stroke:#000000; stroke-width:21200.000000; stroke-opacity:1; 
stroke-linecap:round; stroke-linejoin:round;">
</g>
<g style="fill:#000000; fill-opacity:0.0; 
stroke:#000000; stroke-width:150000.000000; stroke-opacity:1; 
stroke-linecap:round; stroke-linejoin:round;">
<path d="M299989000 274502200
L407989000 274502200
" />
</g>
<g style="fill:#000000; fill-opacity:0.0; 
stroke:#000000; stroke-width:21200.000000; stroke-opacity:1; 
stroke-linecap:round; stroke-linejoin:round;">
</g>
<g style="fill:#000000; fill-opacity:0.0; 
stroke:#000000; stroke-width:400000.000000; stroke-opacity:1; 
stroke-linecap:round; stroke-linejoin:round;">
<text x="300989000.000000" y="277302200.000000"
textLength="9409643.000000" font-size="2666666.000000" lengthAdjust="spacingAndGlyphs"
text-anchor="start" opacity="0">Title: </text>
<g class="stroked-text"><desc>Title: </desc>
<path d="M301701380 275206961
L302844238 275206961
" />
<path d="M302022809 277206961
L302272809 275206961
" />
<path d="M303260904 277206961
L303427571 275873628
" />
<path d="M303510904 275206961
L303403761 275302200
L303487095 275397438
L303594238 275302200
L303510904 275206961
L303487095 275397438
" />
<path d="M304094238 275873628
L304856142 275873628
" />
<path d="M304463285 275206961
L304249000 276921247
L304320428 277111723
L304499000 277206961
L304689476 277206961
" />
<path d="M305641857 277206961
L305463285 277111723
L305391857 276921247
L305606142 275206961
" />
<path d="M307177571 277111723
L306975190 277206961
L306594238 277206961
L306415666 277111723
L306344238 276921247
L306439476 276159342
L306558523 275968866
L306760904 275873628
L307141857 275873628
L307320428 275968866
L307391857 276159342
L307368047 276349819
L306391857 276540295
" />
<path d="M308141857 277016485
L308225190 277111723
L308118047 277206961
L308034714 277111723
L308141857 277016485
L308118047 277206961
" />
<path d="M308272809 275968866
L308356142 276064104
L308249000 276159342
L308165666 276064104
L308272809 275968866
L308249000 276159342
" />
</g></g>
<g style="fill:#000000; fill-opacity:0.0; 
stroke:#000000; stroke-width:21200.000000; stroke-opacity:1; 
stroke-linecap:round; stroke-linejoin:round;">
</g>
<g style="fill:#000000; fill-opacity:0.0; 
stroke:#000000; stroke-width:150000.000000; stroke-opacity:1; 
stroke-linecap:round; stroke-linejoin:round;">
<text x="300989000.000000" y="273452200.000000"
textLength="27020000.000000" font-size="2000000.000000" lengthAdjust="spacingAndGlyphs"
text-anchor="start" opacity="0">File: Uniform.kicad_pcb</text>
<g class="stroked-text"><desc>File: Uniform.kicad_pcb</desc>
<path d="M301921142 272595057
L301421142 272595057
" />
<path d="M301421142 273380771
L301421142 271880771
L302135428 271880771
" />
<path d="M302706857 273380771
L302706857 272380771
" />
<path d="M302706857 271880771
L302635428 271952200
L302706857 272023628
L302778285 271952200
L302706857 271880771
L302706857 272023628
" />
<path d="M303635428 273380771
L303492571 273309342
L303421142 273166485
L303421142 271880771
" />
<path d="M304778285 273309342
L304635428 273380771
L304349714 273380771
L304206857 273309342
L304135428 273166485
L304135428 272595057
L304206857 272452200
L304349714 272380771
L304635428 272380771
L304778285 272452200
L304849714 272595057
L304849714 272737914
L304135428 272880771
" />
<path d="M305492571 273237914
L305564000 273309342
L305492571 273380771
L305421142 273309342
L305492571 273237914
L305492571 273380771
" />
<path d="M305492571 272452200
L305564000 272523628
L305492571 272595057
L305421142 272523628
L305492571 272452200
L305492571 272595057
" />
<path d="M307349714 271880771
L307349714 273095057
L307421142 273237914
L307492571 273309342
L307635428 273380771
L307921142 273380771
L308064000 273309342
L308135428 273237914
L308206857 273095057
L308206857 271880771
" />
<path d="M308921142 272380771
L308921142 273380771
" />
<path d="M308921142 272523628
L308992571 272452200
L309135428 272380771
L309349714 272380771
L309492571 272452200
L309564000 272595057
L309564000 273380771
" />
<path d="M310278285 273380771
L310278285 272380771
" />
<path d="M310278285 271880771
L310206857 271952200
L310278285 272023628
L310349714 271952200
L310278285 271880771
L310278285 272023628
" />
<path d="M310778285 272380771
L311349714 272380771
" />
<path d="M310992571 273380771
L310992571 272095057
L311064000 271952200
L311206857 271880771
L311349714 271880771
" />
<path d="M312064000 273380771
L311921142 273309342
L311849714 273237914
L311778285 273095057
L311778285 272666485
L311849714 272523628
L311921142 272452200
L312064000 272380771
L312278285 272380771
L312421142 272452200
L312492571 272523628
L312564000 272666485
L312564000 273095057
L312492571 273237914
L312421142 273309342
L312278285 273380771
L312064000 273380771
" />
<path d="M313206857 273380771
L313206857 272380771
" />
<path d="M313206857 272666485
L313278285 272523628
L313349714 272452200
L313492571 272380771
L313635428 272380771
" />
<path d="M314135428 273380771
L314135428 272380771
" />
<path d="M314135428 272523628
L314206857 272452200
L314349714 272380771
L314564000 272380771
L314706857 272452200
L314778285 272595057
L314778285 273380771
" />
<path d="M314778285 272595057
L314849714 272452200
L314992571 272380771
L315206857 272380771
L315349714 272452200
L315421142 272595057
L315421142 273380771
" />
<path d="M316135428 273237914
L316206857 273309342
L316135428 273380771
L316064000 273309342
L316135428 273237914
L316135428 273380771
" />
<path d="M316849714 273380771
L316849714 271880771
" />
<path d="M316992571 272809342
L317421142 273380771
" />
<path d="M317421142 272380771
L316849714 272952200
" />
<path d="M318064000 273380771
L318064000 272380771
" />
<path d="M318064000 271880771
L317992571 271952200
L318064000 272023628
L318135428 271952200
L318064000 271880771
L318064000 272023628
" />
<path d="M319421142 273309342
L319278285 273380771
L318992571 273380771
L318849714 273309342
L318778285 273237914
L318706857 273095057
L318706857 272666485
L318778285 272523628
L318849714 272452200
L318992571 272380771
L319278285 272380771
L319421142 272452200
" />
<path d="M320706857 273380771
L320706857 272595057
L320635428 272452200
L320492571 272380771
L320206857 272380771
L320064000 272452200
" />
<path d="M320706857 273309342
L320564000 273380771
L320206857 273380771
L320064000 273309342
L319992571 273166485
L319992571 273023628
L320064000 272880771
L320206857 272809342
L320564000 272809342
L320706857 272737914
" />
<path d="M322064000 273380771
L322064000 271880771
" />
<path d="M322064000 273309342
L321921142 273380771
L321635428 273380771
L321492571 273309342
L321421142 273237914
L321349714 273095057
L321349714 272666485
L321421142 272523628
L321492571 272452200
L321635428 272380771
L321921142 272380771
L322064000 272452200
" />
<path d="M322421142 273523628
L323564000 273523628
" />
<path d="M323921142 272380771
L323921142 273880771
" />
<path d="M323921142 272452200
L324064000 272380771
L324349714 272380771
L324492571 272452200
L324564000 272523628
L324635428 272666485
L324635428 273095057
L324564000 273237914
L324492571 273309342
L324349714 273380771
L324064000 273380771
L323921142 273309342
" />
<path d="M325921142 273309342
L325778285 273380771
L325492571 273380771
L325349714 273309342
L325278285 273237914
L325206857 273095057
L325206857 272666485
L325278285 272523628
L325349714 272452200
L325492571 272380771
L325778285 272380771
L325921142 272452200
" />
<path d="M326564000 273380771
L326564000 271880771
" />
<path d="M326564000 272452200
L326706857 272380771
L326992571 272380771
L327135428 272452200
L327206857 272523628
L327278285 272666485
L327278285 273095057
L327206857 273237914
L327135428 273309342
L326992571 273380771
L326706857 273380771
L326564000 273309342
" />
</g></g>
<g style="fill:#000000; fill-opacity:0.0; 
stroke:#000000; stroke-width:21200.000000; stroke-opacity:1; 
stroke-linecap:round; stroke-linejoin:round;">
</g>
<g style="fill:#000000; fill-opacity:0.0; 
stroke:#000000; stroke-width:150000.000000; stroke-opacity:1; 
stroke-linecap:round; stroke-linejoin:round;">
<path d="M299989000 268502200
L407989000 268502200
" />
</g>
<g style="fill:#000000; fill-opacity:0.0; 
stroke:#000000; stroke-width:21200.000000; stroke-opacity:1; 
stroke-linecap:round; stroke-linejoin:round;">
</g>
<g style="fill:#000000; fill-opacity:0.0; 
stroke:#000000; stroke-width:150000.000000; stroke-opacity:1; 
stroke-linecap:round; stroke-linejoin:round;">
<text x="300989000.000000" y="270752200.000000"
textLength="8221429.000000" font-size="2000000.000000" lengthAdjust="spacingAndGlyphs"
text-anchor="start" opacity="0">Sheet: </text>
<g class="stroked-text"><desc>Sheet: </desc>
<path d="M301349714 270609342
L301564000 270680771
L301921142 270680771
L302064000 270609342
L302135428 270537914
L302206857 270395057
L302206857 270252200
L302135428 270109342
L302064000 270037914
L301921142 269966485
L301635428 269895057
L301492571 269823628
L301421142 269752200
L301349714 269609342
L301349714 269466485
L301421142 269323628
L301492571 269252200
L301635428 269180771
L301992571 269180771
L302206857 269252200
" />
<path d="M302849714 270680771
L302849714 269180771
" />
<path d="M303492571 270680771
L303492571 269895057
L303421142 269752200
L303278285 269680771
L303064000 269680771
L302921142 269752200
L302849714 269823628
" />
<path d="M304778285 270609342
L304635428 270680771
L304349714 270680771
L304206857 270609342
L304135428 270466485
L304135428 269895057
L304206857 269752200
L304349714 269680771
L304635428 269680771
L304778285 269752200
L304849714 269895057
L304849714 270037914
L304135428 270180771
" />
<path d="M306064000 270609342
L305921142 270680771
L305635428 270680771
L305492571 270609342
L305421142 270466485
L305421142 269895057
L305492571 269752200
L305635428 269680771
L305921142 269680771
L306064000 269752200
L306135428 269895057
L306135428 270037914
L305421142 270180771
" />
<path d="M306564000 269680771
L307135428 269680771
" />
<path d="M306778285 269180771
L306778285 270466485
L306849714 270609342
L306992571 270680771
L307135428 270680771
" />
<path d="M307635428 270537914
L307706857 270609342
L307635428 270680771
L307564000 270609342
L307635428 270537914
L307635428 270680771
" />
<path d="M307635428 269752200
L307706857 269823628
L307635428 269895057
L307564000 269823628
L307635428 269752200
L307635428 269895057
" />
</g></g>
<g style="fill:#000000; fill-opacity:0.0; 
stroke:#000000; stroke-width:21200.000000; stroke-opacity:1; 
stroke-linecap:round; stroke-linejoin:round;">
</g>
<g style="fill:#000000; fill-opacity:0.0; 
stroke:#000000; stroke-width:300000.000000; stroke-opacity:1; 
stroke-linecap:round; stroke-linejoin:round;">
<text x="300989000.000000" y="267752200.000000"
textLength="150000.000000" font-size="2000000.000000" lengthAdjust="spacingAndGlyphs"
text-anchor="start" opacity="0"></text>
<g class="stroked-text"><desc></desc>
</g></g>
<g style="fill:#000000; fill-opacity:0.0; 
stroke:#000000; stroke-width:21200.000000; stroke-opacity:1; 
stroke-linecap:round; stroke-linejoin:round;">
</g>
<g style="fill:#000000; fill-opacity:0.0; 
stroke:#000000; stroke-width:150000.000000; stroke-opacity:1; 
stroke-linecap:round; stroke-linejoin:round;">
<text x="300989000.000000" y="264752200.000000"
textLength="300000.000000" font-size="2000000.000000" lengthAdjust="spacingAndGlyphs"
text-anchor="start" opacity="0"></text>
<g class="stroked-text"><desc></desc>
</g></g>
<g style="fill:#000000; fill-opacity:0.0; 
stroke:#000000; stroke-width:21200.000000; stroke-opacity:1; 
stroke-linecap:round; stroke-linejoin:round;">
</g>
<g style="fill:#000000; fill-opacity:0.0; 
stroke:#000000; stroke-width:150000.000000; stroke-opacity:1; 
stroke-linecap:round; stroke-linejoin:round;">
<text x="300989000.000000" y="261752200.000000"
textLength="150000.000000" font-size="2000000.000000" lengthAdjust="spacingAndGlyphs"
text-anchor="start" opacity="0"></text>
<g class="stroked-text"><desc></desc>
</g></g>
<g style="fill:#000000; fill-opacity:0.0; 
stroke:#000000; stroke-width:21200.000000; stroke-opacity:1; 
stroke-linecap:round; stroke-linejoin:round;">
</g>
<g style="fill:#000000; fill-opacity:0.0; 
stroke:#000000; stroke-width:150000.000000; stroke-opacity:1; 
stroke-linecap:round; stroke-linejoin:round;">
<text x="300989000.000000" y="258752200.000000"
textLength="150000.000000" font-size="2000000.000000" lengthAdjust="spacingAndGlyphs"
text-anchor="start" opacity="0"></text>
<g class="stroked-text"><desc></desc>
</g></g>
<g style="fill:#000000; fill-opacity:0.0; 
stroke:#000000; stroke-width:21200.000000; stroke-opacity:1; 
stroke-linecap:round; stroke-linejoin:round;">
</g>
<g style="fill:#000000; fill-opacity:0.0; 
stroke:#000000; stroke-width:150000.000000; stroke-opacity:1; 
stroke-linecap:round; stroke-linejoin:round;">
<text x="300989000.000000" y="255752200.000000"
textLength="150000.000000" font-size="2000000.000000" lengthAdjust="spacingAndGlyphs"
text-anchor="start" opacity="0"></text>
<g class="stroked-text"><desc></desc>
</g></g>
<g style="fill:#000000; fill-opacity:0.0; 
stroke:#000000; stroke-width:21200.000000; stroke-opacity:1; 
stroke-linecap:round; stroke-linejoin:round;">
</g>
<g style="fill:#000000; fill-opacity:0.0; 
stroke:#000000; stroke-width:150000.000000; stroke-opacity:1; 
stroke-linecap:round; stroke-linejoin:round;">
<path d="M319989000 278502200
L319989000 281502200
" />
</g>
<g style="fill:#000000; fill-opacity:0.0; 
stroke:#000000; stroke-width:21200.000000; stroke-opacity:1; 
stroke-linecap:round; stroke-linejoin:round;">
</g>
<g style="fill:#000000; fill-opacity:0.0; 
stroke:#000000; stroke-width:150000.000000; stroke-opacity:1; 
stroke-linecap:round; stroke-linejoin:round;">
<path d="M383989000 278502200
L383989000 285002200
" />
</g>
<g style="fill:#C2C2C2; fill-opacity:0.0; 
stroke:#C2C2C2; stroke-width:150000.000000; stroke-opacity:1; 
stroke-linecap:round; stroke-linejoin:round;">
<path d="M57150000 100012500
L57150000 211931250
" />
<text x="48450000.000000" y="178680000.000000"
textLength="2864286.000000" font-size="1333333.000000" lengthAdjust="spacingAndGlyphs"
text-anchor="middle" opacity="0">10k</text>
<g class="stroked-text"><desc>10k</desc>
<path d="M47854761 178632380
L47283333 178632380
" />
<path d="M47569047 178632380
L47569047 177632380
L47473809 177775238
L47378571 177870476
L47283333 177918095
" />
<path d="M48473809 177632380
L48569047 177632380
L48664285 177680000
L48711904 177727619
L48759523 177822857
L48807142 178013333
L48807142 178251428
L48759523 178441904
L48711904 178537142
L48664285 178584761
L48569047 178632380
L48473809 178632380
L48378571 178584761
L48330952 178537142
L48283333 178441904
L48235714 178251428
L48235714 178013333
L48283333 177822857
L48330952 177727619
L48378571 177680000
L48473809 177632380
" />
<path d="M49235714 178632380
L49235714 177632380
" />
<path d="M49330952 178251428
L49616666 178632380
" />
<path d="M49616666 177965714
L49235714 178346666
" />
</g><text x="48450000.000000" y="180120000.000000"
textLength="2909286.000000" font-size="1333333.000000" lengthAdjust="spacingAndGlyphs"
text-anchor="middle" opacity="0">10k</text>
<g class="stroked-text"><desc>10k</desc>
<path d="M47854761 180072380
L47283333 180072380
" />
<path d="M47569047 180072380
L47569047 179072380
L47473809 179215238
L47378571 179310476
L47283333 179358095
" />
<path d="M48473809 179072380
L48569047 179072380
L48664285 179120000
L48711904 179167619
L48759523 179262857
L48807142 179453333
L48807142 179691428
L48759523 179881904
L48711904 179977142
L48664285 180024761
L48569047 180072380
L48473809 180072380
L48378571 180024761
L48330952 179977142
L48283333 179881904
L48235714 179691428
L48235714 179453333
L48283333 179262857
L48330952 179167619
L48378571 179120000
L48473809 179072380
" />
<path d="M49235714 180072380
L49235714 179072380
" />
<path d="M49330952 179691428
L49616666 180072380
" />
<path d="M49616666 179405714
L49235714 179786666
" />
</g></g>
<g style="fill:#C2C2C2; fill-opacity:0.0; 
stroke:#C2C2C2; stroke-width:120230.000000; stroke-opacity:1; 
stroke-linecap:round; stroke-linejoin:round;">
<text x="47779592.000000" y="182689134.000000"
textLength="6836276.000000" font-size="641226.000000" lengthAdjust="spacingAndGlyphs"
text-anchor="middle" opacity="0">OS102011MS2QN1</text>
<g class="stroked-text"><desc>OS102011MS2QN1</desc>
<path d="M44665062 182185313
L44756666 182185313
L44802468 182208214
L44848270 182254015
L44871171 182345619
L44871171 182505926
L44848270 182597530
L44802468 182643332
L44756666 182666233
L44665062 182666233
L44619260 182643332
L44573458 182597530
L44550557 182505926
L44550557 182345619
L44573458 182254015
L44619260 182208214
L44665062 182185313
" />
<path d="M45054378 182643332
L45123081 182666233
L45237586 182666233
L45283388 182643332
L45306289 182620431
L45329190 182574629
L45329190 182528827
L45306289 182483025
L45283388 182460124
L45237586 182437223
L45145982 182414322
L45100180 182391421
L45077279 182368520
L45054378 182322718
L45054378 182276916
L45077279 182231114
L45100180 182208214
L45145982 182185313
L45260487 182185313
L45329190 182208214
" />
<path d="M45787209 182666233
L45512397 182666233
" />
<path d="M45649803 182666233
L45649803 182185313
L45604001 182254015
L45558199 182299817
L45512397 182322718
" />
<path d="M46084921 182185313
L46130723 182185313
L46176525 182208214
L46199426 182231114
L46222327 182276916
L46245228 182368520
L46245228 182483025
L46222327 182574629
L46199426 182620431
L46176525 182643332
L46130723 182666233
L46084921 182666233
L46039119 182643332
L46016218 182620431
L45993317 182574629
L45970416 182483025
L45970416 182368520
L45993317 182276916
L46016218 182231114
L46039119 182208214
L46084921 182185313
" />
<path d="M46428435 182231114
L46451336 182208214
L46497138 182185313
L46611643 182185313
L46657445 182208214
L46680346 182231114
L46703247 182276916
L46703247 182322718
L46680346 182391421
L46405534 182666233
L46703247 182666233
" />
<path d="M47000959 182185313
L47046761 182185313
L47092563 182208214
L47115464 182231114
L47138365 182276916
L47161266 182368520
L47161266 182483025
L47138365 182574629
L47115464 182620431
L47092563 182643332
L47046761 182666233
L47000959 182666233
L46955157 182643332
L46932256 182620431
L46909355 182574629
L46886454 182483025
L46886454 182368520
L46909355 182276916
L46932256 182231114
L46955157 182208214
L47000959 182185313
" />
<path d="M47619285 182666233
L47344473 182666233
" />
<path d="M47481879 182666233
L47481879 182185313
L47436077 182254015
L47390275 182299817
L47344473 182322718
" />
<path d="M48077304 182666233
L47802492 182666233
" />
<path d="M47939898 182666233
L47939898 182185313
L47894096 182254015
L47848294 182299817
L47802492 182322718
" />
<path d="M48283412 182666233
L48283412 182185313
L48443719 182528827
L48604026 182185313
L48604026 182666233
" />
<path d="M48810134 182643332
L48878837 182666233
L48993342 182666233
L49039144 182643332
L49062045 182620431
L49084946 182574629
L49084946 182528827
L49062045 182483025
L49039144 182460124
L48993342 182437223
L48901738 182414322
L48855936 182391421
L48833035 182368520
L48810134 182322718
L48810134 182276916
L48833035 182231114
L48855936 182208214
L48901738 182185313
L49016243 182185313
L49084946 182208214
" />
<path d="M49268153 182231114
L49291054 182208214
L49336856 182185313
L49451361 182185313
L49497163 182208214
L49520064 182231114
L49542965 182276916
L49542965 182322718
L49520064 182391421
L49245252 182666233
L49542965 182666233
" />
<path d="M50069687 182712034
L50023885 182689134
L49978083 182643332
L49909380 182574629
L49863578 182551728
L49817776 182551728
" />
<path d="M49840677 182666233
L49794875 182643332
L49749073 182597530
L49726172 182505926
L49726172 182345619
L49749073 182254015
L49794875 182208214
L49840677 182185313
L49932281 182185313
L49978083 182208214
L50023885 182254015
L50046786 182345619
L50046786 182505926
L50023885 182597530
L49978083 182643332
L49932281 182666233
L49840677 182666233
" />
<path d="M50252894 182666233
L50252894 182185313
L50527706 182666233
L50527706 182185313
" />
<path d="M51008626 182666233
L50733814 182666233
" />
<path d="M50871220 182666233
L50871220 182185313
L50825418 182254015
L50779616 182299817
L50733814 182322718
" />
</g><text x="47779592.000000" y="187939134.000000"
textLength="6797575.000000" font-size="641226.000000" lengthAdjust="spacingAndGlyphs"
text-anchor="middle" opacity="0">OS102011MS2QN1</text>
<g class="stroked-text"><desc>OS102011MS2QN1</desc>
<path d="M44665062 187435313
L44756666 187435313
L44802468 187458214
L44848270 187504015
L44871171 187595619
L44871171 187755926
L44848270 187847530
L44802468 187893332
L44756666 187916233
L44665062 187916233
L44619260 187893332
L44573458 187847530
L44550557 187755926
L44550557 187595619
L44573458 187504015
L44619260 187458214
L44665062 187435313
" />
<path d="M45054378 187893332
L45123081 187916233
L45237586 187916233
L45283388 187893332
L45306289 187870431
L45329190 187824629
L45329190 187778827
L45306289 187733025
L45283388 187710124
L45237586 187687223
L45145982 187664322
L45100180 187641421
L45077279 187618520
L45054378 187572718
L45054378 187526916
L45077279 187481114
L45100180 187458214
L45145982 187435313
L45260487 187435313
L45329190 187458214
" />
<path d="M45787209 187916233
L45512397 187916233
" />
<path d="M45649803 187916233
L45649803 187435313
L45604001 187504015
L45558199 187549817
L45512397 187572718
" />
<path d="M46084921 187435313
L46130723 187435313
L46176525 187458214
L46199426 187481114
L46222327 187526916
L46245228 187618520
L46245228 187733025
L46222327 187824629
L46199426 187870431
L46176525 187893332
L46130723 187916233
L46084921 187916233
L46039119 187893332
L46016218 187870431
L45993317 187824629
L45970416 187733025
L45970416 187618520
L45993317 187526916
L46016218 187481114
L46039119 187458214
L46084921 187435313
" />
<path d="M46428435 187481114
L46451336 187458214
L46497138 187435313
L46611643 187435313
L46657445 187458214
L46680346 187481114
L46703247 187526916
L46703247 187572718
L46680346 187641421
L46405534 187916233
L46703247 187916233
" />
<path d="M47000959 187435313
L47046761 187435313
L47092563 187458214
L47115464 187481114
L47138365 187526916
L47161266 187618520
L47161266 187733025
L47138365 187824629
L47115464 187870431
L47092563 187893332
L47046761 187916233
L47000959 187916233
L46955157 187893332
L46932256 187870431
L46909355 187824629
L46886454 187733025
L46886454 187618520
L46909355 187526916
L46932256 187481114
L46955157 187458214
L47000959 187435313
" />
<path d="M47619285 187916233
L47344473 187916233
" />
<path d="M47481879 187916233
L47481879 187435313
L47436077 187504015
L47390275 187549817
L47344473 187572718
" />
<path d="M48077304 187916233
L47802492 187916233
" />
<path d="M47939898 187916233
L47939898 187435313
L47894096 187504015
L47848294 187549817
L47802492 187572718
" />
<path d="M48283412 187916233
L48283412 187435313
L48443719 187778827
L48604026 187435313
L48604026 187916233
" />
<path d="M48810134 187893332
L48878837 187916233
L48993342 187916233
L49039144 187893332
L49062045 187870431
L49084946 187824629
L49084946 187778827
L49062045 187733025
L49039144 187710124
L48993342 187687223
L48901738 187664322
L48855936 187641421
L48833035 187618520
L48810134 187572718
L48810134 187526916
L48833035 187481114
L48855936 187458214
L48901738 187435313
L49016243 187435313
L49084946 187458214
" />
<path d="M49268153 187481114
L49291054 187458214
L49336856 187435313
L49451361 187435313
L49497163 187458214
L49520064 187481114
L49542965 187526916
L49542965 187572718
L49520064 187641421
L49245252 187916233
L49542965 187916233
" />
<path d="M50069687 187962034
L50023885 187939134
L49978083 187893332
L49909380 187824629
L49863578 187801728
L49817776 187801728
" />
<path d="M49840677 187916233
L49794875 187893332
L49749073 187847530
L49726172 187755926
L49726172 187595619
L49749073 187504015
L49794875 187458214
L49840677 187435313
L49932281 187435313
L49978083 187458214
L50023885 187504015
L50046786 187595619
L50046786 187755926
L50023885 187847530
L49978083 187893332
L49932281 187916233
L49840677 187916233
" />
<path d="M50252894 187916233
L50252894 187435313
L50527706 187916233
L50527706 187435313
" />
<path d="M51008626 187916233
L50733814 187916233
" />
<path d="M50871220 187916233
L50871220 187435313
L50825418 187504015
L50779616 187549817
L50733814 187572718
" />
</g></g>
<g style="fill:#C2C2C2; fill-opacity:0.0; 
stroke:#C2C2C2; stroke-width:150000.000000; stroke-opacity:1; 
stroke-linecap:round; stroke-linejoin:round;">
<text x="42775000.000000" y="200300000.000000"
textLength="20299156.000000" font-size="1333333.000000" lengthAdjust="spacingAndGlyphs"
text-anchor="middle" opacity="0">MountingHole_2.7mm_M2.5</text>
<g class="stroked-text"><desc>MountingHole_2.7mm_M2.5</desc>
<path d="M32941666 200252380
L32941666 199252380
L33275000 199966666
L33608333 199252380
L33608333 200252380
" />
<path d="M34227380 200252380
L34132142 200204761
L34084523 200157142
L34036904 200061904
L34036904 199776190
L34084523 199680952
L34132142 199633333
L34227380 199585714
L34370238 199585714
L34465476 199633333
L34513095 199680952
L34560714 199776190
L34560714 200061904
L34513095 200157142
L34465476 200204761
L34370238 200252380
L34227380 200252380
" />
<path d="M35417857 199585714
L35417857 200252380
" />
<path d="M34989285 199585714
L34989285 200109523
L35036904 200204761
L35132142 200252380
L35275000 200252380
L35370238 200204761
L35417857 200157142
" />
<path d="M35894047 199585714
L35894047 200252380
" />
<path d="M35894047 199680952
L35941666 199633333
L36036904 199585714
L36179761 199585714
L36275000 199633333
L36322619 199728571
L36322619 200252380
" />
<path d="M36655952 199585714
L37036904 199585714
" />
<path d="M36798809 199252380
L36798809 200109523
L36846428 200204761
L36941666 200252380
L37036904 200252380
" />
<path d="M37370238 200252380
L37370238 199585714
" />
<path d="M37370238 199252380
L37322619 199300000
L37370238 199347619
L37417857 199300000
L37370238 199252380
L37370238 199347619
" />
<path d="M37846428 199585714
L37846428 200252380
" />
<path d="M37846428 199680952
L37894047 199633333
L37989285 199585714
L38132142 199585714
L38227380 199633333
L38275000 199728571
L38275000 200252380
" />
<path d="M39179761 199585714
L39179761 200395238
L39132142 200490476
L39084523 200538095
L38989285 200585714
L38846428 200585714
L38751190 200538095
" />
<path d="M39179761 200204761
L39084523 200252380
L38894047 200252380
L38798809 200204761
L38751190 200157142
L38703571 200061904
L38703571 199776190
L38751190 199680952
L38798809 199633333
L38894047 199585714
L39084523 199585714
L39179761 199633333
" />
<path d="M39655952 200252380
L39655952 199252380
" />
<path d="M39655952 199728571
L40227380 199728571
" />
<path d="M40227380 200252380
L40227380 199252380
" />
<path d="M40846428 200252380
L40751190 200204761
L40703571 200157142
L40655952 200061904
L40655952 199776190
L40703571 199680952
L40751190 199633333
L40846428 199585714
L40989285 199585714
L41084523 199633333
L41132142 199680952
L41179761 199776190
L41179761 200061904
L41132142 200157142
L41084523 200204761
L40989285 200252380
L40846428 200252380
" />
<path d="M41751190 200252380
L41655952 200204761
L41608333 200109523
L41608333 199252380
" />
<path d="M42513095 200204761
L42417857 200252380
L42227380 200252380
L42132142 200204761
L42084523 200109523
L42084523 199728571
L42132142 199633333
L42227380 199585714
L42417857 199585714
L42513095 199633333
L42560714 199728571
L42560714 199823809
L42084523 199919047
" />
<path d="M42751190 200347619
L43513095 200347619
" />
<path d="M43703571 199347619
L43751190 199300000
L43846428 199252380
L44084523 199252380
L44179761 199300000
L44227380 199347619
L44275000 199442857
L44275000 199538095
L44227380 199680952
L43655952 200252380
L44275000 200252380
" />
<path d="M44703571 200157142
L44751190 200204761
L44703571 200252380
L44655952 200204761
L44703571 200157142
L44703571 200252380
" />
<path d="M45084523 199252380
L45751190 199252380
L45322619 200252380
" />
<path d="M46132142 200252380
L46132142 199585714
" />
<path d="M46132142 199680952
L46179761 199633333
L46274999 199585714
L46417857 199585714
L46513095 199633333
L46560714 199728571
L46560714 200252380
" />
<path d="M46560714 199728571
L46608333 199633333
L46703571 199585714
L46846428 199585714
L46941666 199633333
L46989285 199728571
L46989285 200252380
" />
<path d="M47465476 200252380
L47465476 199585714
" />
<path d="M47465476 199680952
L47513095 199633333
L47608333 199585714
L47751190 199585714
L47846428 199633333
L47894047 199728571
L47894047 200252380
" />
<path d="M47894047 199728571
L47941666 199633333
L48036904 199585714
L48179761 199585714
L48274999 199633333
L48322619 199728571
L48322619 200252380
" />
<path d="M48560714 200347619
L49322619 200347619
" />
<path d="M49560714 200252380
L49560714 199252380
L49894047 199966666
L50227380 199252380
L50227380 200252380
" />
<path d="M50655952 199347619
L50703571 199300000
L50798809 199252380
L51036904 199252380
L51132142 199300000
L51179761 199347619
L51227380 199442857
L51227380 199538095
L51179761 199680952
L50608333 200252380
L51227380 200252380
" />
<path d="M51655952 200157142
L51703571 200204761
L51655952 200252380
L51608333 200204761
L51655952 200157142
L51655952 200252380
" />
<path d="M52608333 199252380
L52132142 199252380
L52084523 199728571
L52132142 199680952
L52227380 199633333
L52465476 199633333
L52560714 199680952
L52608333 199728571
L52655952 199823809
L52655952 200061904
L52608333 200157142
L52560714 200204761
L52465476 200252380
L52227380 200252380
L52132142 200204761
L52084523 200157142
" />
</g><text x="66345020.000000" y="102462851.000000"
transform="scale(-1 1) translate(-132690040.000000 0)"
textLength="17165079.000000" font-size="1335390.000000" lengthAdjust="spacingAndGlyphs"
text-anchor="middle" opacity="0">USB4085-GF-A_REVA4</text>
<g class="stroked-text"><desc>USB4085-GF-A_REVA4</desc>
<path d="M74786596 101413615
L74786596 102224388
L74738904 102319773
L74691211 102367466
L74595826 102415158
L74405056 102415158
L74309671 102367466
L74261978 102319773
L74214286 102224388
L74214286 101413615
" />
<path d="M73785053 102367466
L73641976 102415158
L73403513 102415158
L73308128 102367466
L73260435 102319773
L73212743 102224388
L73212743 102129003
L73260435 102033618
L73308128 101985926
L73403513 101938233
L73594283 101890541
L73689668 101842848
L73737361 101795156
L73785053 101699771
L73785053 101604386
L73737361 101509001
L73689668 101461308
L73594283 101413615
L73355821 101413615
L73212743 101461308
" />
<path d="M72449663 101890541
L72306585 101938233
L72258892 101985926
L72211200 102081311
L72211200 102224388
L72258892 102319773
L72306585 102367466
L72401970 102415158
L72783510 102415158
L72783510 101413615
L72449663 101413615
L72354278 101461308
L72306585 101509001
L72258892 101604386
L72258892 101699771
L72306585 101795156
L72354278 101842848
L72449663 101890541
L72783510 101890541
" />
<path d="M71352735 101747463
L71352735 102415158
" />
<path d="M71591197 101365923
L71829660 102081311
L71209657 102081311
" />
<path d="M70637347 101413615
L70541962 101413615
L70446577 101461308
L70398884 101509001
L70351192 101604386
L70303499 101795156
L70303499 102033618
L70351192 102224388
L70398884 102319773
L70446577 102367466
L70541962 102415158
L70637347 102415158
L70732732 102367466
L70780424 102319773
L70828117 102224388
L70875809 102033618
L70875809 101795156
L70828117 101604386
L70780424 101509001
L70732732 101461308
L70637347 101413615
" />
<path d="M69731189 101842848
L69826574 101795156
L69874266 101747463
L69921959 101652078
L69921959 101604386
L69874266 101509001
L69826574 101461308
L69731189 101413615
L69540419 101413615
L69445034 101461308
L69397341 101509001
L69349649 101604386
L69349649 101652078
L69397341 101747463
L69445034 101795156
L69540419 101842848
L69731189 101842848
L69826574 101890541
L69874266 101938233
L69921959 102033618
L69921959 102224388
L69874266 102319773
L69826574 102367466
L69731189 102415158
L69540419 102415158
L69445034 102367466
L69397341 102319773
L69349649 102224388
L69349649 102033618
L69397341 101938233
L69445034 101890541
L69540419 101842848
" />
<path d="M68443491 101413615
L68920416 101413615
L68968108 101890541
L68920416 101842848
L68825031 101795156
L68586568 101795156
L68491183 101842848
L68443491 101890541
L68395798 101985926
L68395798 102224388
L68443491 102319773
L68491183 102367466
L68586568 102415158
L68825031 102415158
L68920416 102367466
L68968108 102319773
" />
<path d="M67966565 102033618
L67203485 102033618
" />
<path d="M66201942 101461308
L66297327 101413615
L66440405 101413615
L66583482 101461308
L66678867 101556693
L66726560 101652078
L66774252 101842848
L66774252 101985926
L66726560 102176696
L66678867 102272081
L66583482 102367466
L66440405 102415158
L66345020 102415158
L66201942 102367466
L66154249 102319773
L66154249 101985926
L66345020 101985926
" />
<path d="M65391169 101890541
L65725017 101890541
" />
<path d="M65725017 102415158
L65725017 101413615
L65248091 101413615
" />
<path d="M64866551 102033618
L64103471 102033618
" />
<path d="M63674238 102129003
L63197313 102129003
" />
<path d="M63769623 102415158
L63435776 101413615
L63101928 102415158
" />
<path d="M63006543 102510544
L62243462 102510544
" />
<path d="M61432690 102415158
L61766537 101938233
" />
<path d="M62005000 102415158
L62005000 101413615
L61623460 101413615
L61528075 101461308
L61480382 101509001
L61432690 101604386
L61432690 101747463
L61480382 101842848
L61528075 101890541
L61623460 101938233
L62005000 101938233
" />
<path d="M61003457 101890541
L60669609 101890541
" />
<path d="M60526532 102415158
L61003457 102415158
L61003457 101413615
L60526532 101413615
" />
<path d="M60240376 101413615
L59906529 102415158
L59572681 101413615
" />
<path d="M59286526 102129003
L58809601 102129003
" />
<path d="M59381911 102415158
L59048063 101413615
L58714216 102415158
" />
<path d="M57951135 101747463
L57951135 102415158
" />
<path d="M58189598 101365923
L58428061 102081311
L57808058 102081311
" />
</g><text x="62228380.000000" y="106043770.000000"
textLength="5193095.000000" font-size="853333.000000" lengthAdjust="spacingAndGlyphs"
text-anchor="middle" opacity="0">PCB-Edge</text>
<g class="stroked-text"><desc>PCB-Edge</desc>
<path d="M59881713 106013293
L59881713 105373293
L60125522 105373293
L60186475 105403770
L60216951 105434246
L60247427 105495198
L60247427 105586627
L60216951 105647579
L60186475 105678055
L60125522 105708531
L59881713 105708531
" />
<path d="M60887427 105952341
L60856951 105982817
L60765522 106013293
L60704570 106013293
L60613141 105982817
L60552189 105921865
L60521713 105860912
L60491237 105739008
L60491237 105647579
L60521713 105525674
L60552189 105464722
L60613141 105403770
L60704570 105373293
L60765522 105373293
L60856951 105403770
L60887427 105434246
" />
<path d="M61375046 105678055
L61466475 105708531
L61496951 105739008
L61527427 105799960
L61527427 105891389
L61496951 105952341
L61466475 105982817
L61405522 106013293
L61161713 106013293
L61161713 105373293
L61375046 105373293
L61435999 105403770
L61466475 105434246
L61496951 105495198
L61496951 105556150
L61466475 105617103
L61435999 105647579
L61375046 105678055
L61161713 105678055
" />
<path d="M61801713 105769484
L62289332 105769484
" />
<path d="M62594094 105678055
L62807427 105678055
" />
<path d="M62898856 106013293
L62594094 106013293
L62594094 105373293
L62898856 105373293
" />
<path d="M63447427 106013293
L63447427 105373293
" />
<path d="M63447427 105982817
L63386475 106013293
L63264570 106013293
L63203618 105982817
L63173141 105952341
L63142665 105891389
L63142665 105708531
L63173141 105647579
L63203618 105617103
L63264570 105586627
L63386475 105586627
L63447427 105617103
" />
<path d="M64026475 105586627
L64026475 106104722
L63995999 106165674
L63965522 106196150
L63904570 106226627
L63813141 106226627
L63752189 106196150
" />
<path d="M64026475 105982817
L63965522 106013293
L63843618 106013293
L63782665 105982817
L63752189 105952341
L63721713 105891389
L63721713 105708531
L63752189 105647579
L63782665 105617103
L63843618 105586627
L63965522 105586627
L64026475 105617103
" />
<path d="M64575046 105982817
L64514094 106013293
L64392189 106013293
L64331237 105982817
L64300760 105921865
L64300760 105678055
L64331237 105617103
L64392189 105586627
L64514094 105586627
L64575046 105617103
L64605522 105678055
L64605522 105739008
L64300760 105799960
" />
</g><g >
</g>
<g >
</g>
<g >
</g>
<g >
</g>
<g >
</g>
<g >
</g>
<g >
</g>
<g >
</g>
<g >
</g>
<g >
</g>
<g >
</g>
<g >
</g>
<g >
</g>
<g >
</g>
<g >
</g>
<g >
</g>
<g >
</g>
<g >
</g>
<g >
</g>
<g >
</g>
<g >
</g>
<g >
</g>
<g >
</g>
<g >
</g>
<g >
</g>
<g >
</g>
<g >
</g>
<g >
</g>
<g >
</g>
<g >
</g>
<g >
</g>
<g >
</g>
<g >
</g>
<g >
</g>
<g >
</g>
<g >
</g>
<g >
</g>
<g >
</g>
<g >
</g>
<g >
</g>
<g >
</g>
<g >
</g>
<g >
</g>
<g >
</g>
<g >
</g>
<g >
</g>
<g >
</g>
<g >
</g>
<g >
</g>
<g >
</g>
<g >
</g>
<g >
</g>
<g >
</g>
<g >
</g>
<g >
</g>
<g >
</g>
<g >
</g>
<g >
</g>
<g >
</g>
<g >
</g>
<g >
</g>
<g >
</g>
<g >
</g>
<g >
</g>
<g >
</g>
<g >
</g>
<g >
</g>
<g >
</g>
<g >
</g>
<g >
</g>
<g >
</g>
<g >
</g>
<g >
</g>
<g >
</g>
<g >
</g>
<g >
</g>
<g >
</g>
<g >
</g>
<g >
</g>
<g >
</g>
<g >
</g>
<g >
</g>
<g >
</g>
<g >
</g>
<g >
</g>
<g >
</g>
<g >
</g>
<g >
</g>
<g >
</g>
<g >
</g>
<g >
</g>
<g >
</g>
<g >
</g>
<g >
</g>
<g >
</g>
<g >
</g>
<g >
</g>
<g >
</g>
<g >
</g>
<g >
</g>
<g >
</g>
<g >
</g>
<g >
</g>
<g >
</g>
<g >
</g>
<g >
</g>
<g >
</g>
<g >
</g>
<g >
</g>
<g >
</g>
<g >
</g>
<g >
</g>
<g >
</g>
<g >
</g>
<g >
</g>
<g >
</g>
<g >
</g>
<g >
</g>
<g >
</g>
<g >
</g>
<g >
</g>
<g >
</g>
<g >
</g>
<g >
</g>
<g >
</g>
<g >
</g>
<g >
</g>
<g >
</g>
<g >
</g>
<g >
</g>
<g >
</g>
<g >
</g>
<g >
</g>
<g >
</g>
<g >
</g>
<g >
</g>
<g >
</g>
<g >
</g>
<g >
</g>
<g >
</g>
<g >
</g>
<g >
</g>
<g >
</g>
<g >
</g>
<g >
</g>
<g >
</g>
<g >
</g>
<g >
</g>
<g >
</g>
<g >
</g>
<g >
</g>
<g >
</g>
<g >
</g>
<g >
</g>
<g >
</g>
<g >
</g>
<g >
</g>
<g >
</g>
<g >
</g>
<g >
</g>
<g >
</g>
<g >
</g>
<g >
</g>
<g >
</g>
<g >
</g>
<g >
</g>
<g >
</g>
<g >
</g>
<g >
</g>
<g >
</g>
<g >
</g>
<g >
</g>
<g >
</g>
<g >
</g>
<g >
</g>
<g >
</g>
</g>
<g style="fill:#000000; fill-opacity:0.0; 
stroke:#000000; stroke-width:150000.000000; stroke-opacity:1; 
stroke-linecap:round; stroke-linejoin:round;">
</g>
<g style="fill:#D0D2CD; fill-opacity:0.0; 
stroke:#D0D2CD; stroke-width:150000.000000; stroke-opacity:1; 
stroke-linecap:round; stroke-linejoin:round;">
<path d="M341225000 196100000
L341225000 108700000
" />
<path d="M42775000 105700000
L338225000 105700000
" />
<path d="M39775000.000000 196100000.000000 A3000001.000000 3000001.000000 0.0 0 0 42775000.000000 199100000.000000" />
<path d="M42775000.000000 105700000.000000 A3000001.000000 3000001.000000 0.0 0 0 39775000.000000 108700000.000000" />
<path d="M338225000 199100000
L42775000 199100000
" />
<path d="M39775000 196100000
L39775000 108700000
" />
<path d="M338225000.000000 199100000.000000 A3000001.000000 3000001.000000 0.0 0 0 341225000.000000 196100000.000000" />
<path d="M341225000.000000 108700000.000000 A3000001.000000 3000001.000000 0.0 0 0 338225000.000000 105700000.000000" />
<g >
</g>
<g >
</g>
<g >
</g>
<g >
</g>
<g >
</g>
<g >
</g>
<g >
</g>
<g >
</g>
<g >
</g>
<g >
</g>
<g >
</g>
<g >
</g>
<g >
</g>
<g >
</g>
<g >
</g>
<g >
</g>
<g >
</g>
<g >
</g>
<g >
</g>
<g >
</g>
<g >
</g>
<g >
</g>
<g >
</g>
<g >
</g>
<g >
</g>
<g >
</g>
<g >
</g>
<g >
</g>
<g >
</g>
<g >
</g>
<g >
</g>
<g >
</g>
<g >
</g>
<g >
</g>
<g >
</g>
<g >
</g>
<g >
</g>
<g >
</g>
<g >
</g>
<g >
</g>
<g >
</g>
<g >
</g>
<g >
</g>
<g >
</g>
<g >
</g>
<g >
</g>
<g >
</g>
<g >
</g>
<g >
</g>
<g >
</g>
<g >
</g>
<g >
</g>
<g >
</g>
<g >
</g>
<g >
</g>
<g >
</g>
<g >
</g>
<g >
</g>
<g >
</g>
<g >
</g>
<g >
</g>
<g >
</g>
<g >
</g>
<g >
</g>
<g >
</g>
<g >
</g>
<g >
</g>
<g >
</g>
<g >
</g>
<g >
</g>
<g >
</g>
<g >
</g>
<g >
</g>
<g >
</g>
<g >
</g>
<g >
</g>
<g >
</g>
<g >
</g>
<g >
</g>
<g >
</g>
<g >
</g>
<g >
</g>
<g >
</g>
<g >
</g>
<g >
</g>
<g >
</g>
<g >
</g>
<g >
</g>
<g >
</g>
<g >
</g>
<g >
</g>
<g >
</g>
<g >
</g>
<g >
</g>
<g >
</g>
<g >
</g>
<g >
</g>
<g >
</g>
<g >
</g>
<g >
</g>
<g >
</g>
<g >
</g>
<g >
</g>
<g >
</g>
<g >
</g>
<g >
</g>
<g >
</g>
<g >
</g>
<g >
</g>
<g >
</g>
<g >
</g>
<g >
</g>
<g >
</g>
<g >
</g>
<g >
</g>
<g >
</g>
<g >
</g>
<g >
</g>
<g >
</g>
<g >
</g>
<g >
</g>
<g >
</g>
<g >
</g>
<g >
</g>
<g >
</g>
<g >
</g>
<g >
</g>
<g >
</g>
<g >
</g>
<g >
</g>
<g >
</g>
<g >
</g>
<g >
</g>
<g >
</g>
<g >
</g>
<g >
</g>
<g >
</g>
<g >
</g>
<g >
</g>
<g >
</g>
<g >
</g>
<g >
</g>
<g >
</g>
<g >
</g>
<g >
</g>
<g >
</g>
<g >
</g>
<g >
</g>
<g >
</g>
<g >
</g>
<g >
</g>
<g >
</g>
<g >
</g>
<g >
</g>
<g >
</g>
<g >
</g>
<g >
</g>
<g >
</g>
<g >
</g>
<g >
</g>
<g >
</g>
<g >
</g>
<g >
</g>
<g >
</g>
<g >
</g>
<g >
</g>
<g >
</g>
<g >
</g>
<g >
</g>
<g >
</g>
<g >
</g>
<g >
</g>
<g >
</g>
<g >
</g>
<g >
</g>
<g >
</g>
</g> 
</svg>
