M48
; DRILL file {KiCad (6.0.2)} date Sat Feb 19 03:38:49 2022
; FORMAT={-:-/ absolute / inch / decimal}
; #@! TF.CreationDate,2022-02-19T03:38:49-07:00
; #@! TF.GenerationSoftware,Kicad,Pcbnew,(6.0.2)
; #@! TF.FileFunction,Plated,1,2,PTH
FMAT,2
INCH
; #@! TA.AperFunction,Plated,PTH,ViaDrill
T1C0.0157
; #@! TA.AperFunction,Plated,PTH,ComponentDrill
T2C0.0157
; #@! TA.AperFunction,Plated,PTH,ViaDrill
T3C0.0236
; #@! TA.AperFunction,Plated,PTH,ComponentDrill
T4C0.0236
; #@! TA.AperFunction,Plated,PTH,ComponentDrill
T5C0.0287
; #@! TA.AperFunction,Plated,PTH,ComponentDrill
T6C0.0295
; #@! TA.AperFunction,Plated,PTH,ComponentDrill
T7C0.0315
; #@! TA.AperFunction,Plated,PTH,ComponentDrill
T8C0.0340
; #@! TA.AperFunction,Plated,PTH,ComponentDrill
T9C0.0354
; #@! TA.AperFunction,Plated,PTH,ComponentDrill
T10C0.0394
; #@! TA.AperFunction,Plated,PTH,ComponentDrill
T11C0.0590
%
G90
G05
T1
X1.6674Y-6.8366
X1.7067Y-6.8366
X1.7461Y-6.8366
X1.7854Y-6.8366
X2.3957Y-5.6654
T2
X2.1083Y-4.3494
X2.1083Y-4.4026
X2.1417Y-4.3494
X2.1417Y-4.4026
X2.1752Y-4.3494
X2.1752Y-4.4026
X2.2087Y-4.3494
X2.2087Y-4.4026
X2.2421Y-4.3494
X2.2421Y-4.4026
X2.2756Y-4.3494
X2.2756Y-4.4026
X2.3091Y-4.3494
X2.3091Y-4.4026
X2.3425Y-4.3494
X2.3425Y-4.4026
T3
X1.8248Y-6.2657
X2.002Y-6.8366
X2.1688Y-6.2332
X2.1791Y-6.7194
X2.1791Y-6.8071
T5
X2.4375Y-4.4305
X2.4375Y-4.757
X2.4375Y-5.1805
X2.4375Y-5.507
X2.4375Y-5.9305
X2.4375Y-6.257
X2.4375Y-6.6805
X2.4375Y-7.007
X2.4375Y-7.4305
X2.4375Y-7.757
X3.375Y-4.4305
X3.375Y-4.757
X3.375Y-5.1805
X3.375Y-5.507
X3.375Y-5.9305
X3.375Y-6.257
X3.375Y-6.6805
X3.375Y-7.007
X3.375Y-7.4305
X3.375Y-7.757
X4.125Y-4.4305
X4.125Y-4.757
X4.125Y-5.1805
X4.125Y-5.507
X4.125Y-5.9305
X4.125Y-6.257
X4.125Y-6.6805
X4.125Y-7.007
X4.125Y-7.4305
X4.125Y-7.757
X4.875Y-4.4305
X4.875Y-4.757
X4.875Y-5.1805
X4.875Y-5.507
X4.875Y-5.9305
X4.875Y-6.257
X4.875Y-6.6805
X4.875Y-7.007
X5.4375Y-7.4305
X5.4375Y-7.757
X5.625Y-4.4305
X5.625Y-4.757
X5.625Y-5.1805
X5.625Y-5.507
X5.625Y-5.9305
X5.625Y-6.257
X5.625Y-6.6805
X5.625Y-7.007
X6.375Y-4.4305
X6.375Y-4.757
X6.375Y-5.1805
X6.375Y-5.507
X6.375Y-5.9305
X6.375Y-6.257
X6.375Y-6.6805
X6.375Y-7.007
X6.375Y-7.4305
X6.375Y-7.757
X7.125Y-4.4305
X7.125Y-4.757
X7.125Y-5.1805
X7.125Y-5.507
X7.125Y-5.9305
X7.125Y-6.257
X7.125Y-6.6805
X7.125Y-7.007
X7.3125Y-7.4305
X7.3125Y-7.757
X7.875Y-4.4305
X7.875Y-4.757
X7.875Y-5.1805
X7.875Y-5.507
X7.875Y-5.9305
X7.875Y-6.257
X7.875Y-6.6805
X7.875Y-7.007
X8.625Y-4.4305
X8.625Y-4.757
X8.625Y-5.1805
X8.625Y-5.507
X8.625Y-5.9305
X8.625Y-6.257
X8.625Y-6.6805
X8.625Y-7.007
X8.625Y-7.4305
X8.625Y-7.757
X9.375Y-4.4305
X9.375Y-4.757
X9.375Y-5.1805
X9.375Y-5.507
X9.375Y-5.9305
X9.375Y-6.257
X9.375Y-6.6805
X9.375Y-7.007
X9.375Y-7.4305
X9.375Y-7.757
X10.125Y-4.4305
X10.125Y-4.757
X10.125Y-5.1805
X10.125Y-5.507
X10.125Y-5.9305
X10.125Y-6.257
X10.125Y-6.6805
X10.125Y-7.007
X10.125Y-7.4305
X10.125Y-7.757
X10.875Y-4.4305
X10.875Y-4.757
X10.875Y-5.1805
X10.875Y-5.507
X10.875Y-5.9305
X10.875Y-6.257
X11.0625Y-6.6805
X11.0625Y-7.007
X11.25Y-7.4305
X11.25Y-7.757
X11.625Y-4.4305
X11.625Y-4.757
X11.625Y-5.1805
X11.625Y-5.507
X11.8125Y-5.9305
X11.8125Y-6.257
X12.0Y-6.6805
X12.0Y-7.007
X12.0Y-7.4305
X12.0Y-7.757
X12.5625Y-4.4305
X12.5625Y-4.757
X12.5625Y-5.1805
X12.5625Y-5.507
X12.75Y-5.9305
X12.75Y-6.257
X12.75Y-6.6805
X12.75Y-7.007
X12.75Y-7.4305
X12.75Y-7.757
T6
X1.6383Y-5.3504
X1.6383Y-5.5472
T7
X1.6575Y-4.622
X1.6575Y-4.7795
X1.6575Y-5.7146
X1.6575Y-5.872
X1.6575Y-6.9646
X1.6575Y-7.122
X1.7614Y-5.3268
X1.7614Y-5.4488
X1.7614Y-5.5709
X1.8292Y-7.3091
X1.8292Y-7.5157
X1.908Y-7.3091
X1.908Y-7.5157
X1.9867Y-7.3091
X1.9867Y-7.5157
X2.0614Y-5.3268
X2.0614Y-5.4488
X2.0614Y-5.5709
X2.1575Y-4.622
X2.1575Y-4.7795
X2.1575Y-5.7146
X2.1575Y-5.872
X2.1575Y-6.9646
X2.1575Y-7.122
T8
X1.6811Y-4.9405
X1.6811Y-5.0389
X2.1304Y-4.94
X2.1304Y-5.0384
T9
X1.8577Y-4.4094
X1.9577Y-4.4094
T10
X1.7097Y-6.0236
X1.8097Y-6.0236
X1.9097Y-6.0236
X2.0097Y-6.0236
X2.1097Y-6.0236
X2.1816Y-5.3494
X2.1816Y-5.4494
X2.1816Y-5.5494
T11
X2.6625Y-4.4
X2.6625Y-5.15
X2.6625Y-5.9
X2.6625Y-6.65
X2.6625Y-7.4
X2.9125Y-4.3
X2.9125Y-5.05
X2.9125Y-5.8
X2.9125Y-6.55
X2.9125Y-7.3
X3.6Y-4.4
X3.6Y-5.15
X3.6Y-5.9
X3.6Y-6.65
X3.6Y-7.4
X3.85Y-4.3
X3.85Y-5.05
X3.85Y-5.8
X3.85Y-6.55
X3.85Y-7.3
X4.35Y-4.4
X4.35Y-5.15
X4.35Y-5.9
X4.35Y-6.65
X4.35Y-7.4
X4.6Y-4.3
X4.6Y-5.05
X4.6Y-5.8
X4.6Y-6.55
X4.6Y-7.3
X5.1Y-4.4
X5.1Y-5.15
X5.1Y-5.9
X5.1Y-6.65
X5.35Y-4.3
X5.35Y-5.05
X5.35Y-5.8
X5.35Y-6.55
X5.6625Y-7.4
X5.85Y-4.4
X5.85Y-5.15
X5.85Y-5.9
X5.85Y-6.65
X5.9125Y-7.3
X6.1Y-4.3
X6.1Y-5.05
X6.1Y-5.8
X6.1Y-6.55
X6.6Y-4.4
X6.6Y-5.15
X6.6Y-5.9
X6.6Y-6.65
X6.6Y-7.4
X6.85Y-4.3
X6.85Y-5.05
X6.85Y-5.8
X6.85Y-6.55
X6.85Y-7.3
X7.35Y-4.4
X7.35Y-5.15
X7.35Y-5.9
X7.35Y-6.65
X7.5375Y-7.4
X7.6Y-4.3
X7.6Y-5.05
X7.6Y-5.8
X7.6Y-6.55
X7.7875Y-7.3
X8.1Y-4.4
X8.1Y-5.15
X8.1Y-5.9
X8.1Y-6.65
X8.35Y-4.3
X8.35Y-5.05
X8.35Y-5.8
X8.35Y-6.55
X8.85Y-4.4
X8.85Y-5.15
X8.85Y-5.9
X8.85Y-6.65
X8.85Y-7.4
X9.1Y-4.3
X9.1Y-5.05
X9.1Y-5.8
X9.1Y-6.55
X9.1Y-7.3
X9.6Y-4.4
X9.6Y-5.15
X9.6Y-5.9
X9.6Y-6.65
X9.6Y-7.4
X9.85Y-4.3
X9.85Y-5.05
X9.85Y-5.8
X9.85Y-6.55
X9.85Y-7.3
X10.35Y-4.4
X10.35Y-5.15
X10.35Y-5.9
X10.35Y-6.65
X10.35Y-7.4
X10.6Y-4.3
X10.6Y-5.05
X10.6Y-5.8
X10.6Y-6.55
X10.6Y-7.3
X11.1Y-4.4
X11.1Y-5.15
X11.1Y-5.9
X11.2875Y-6.65
X11.35Y-4.3
X11.35Y-5.05
X11.35Y-5.8
X11.475Y-7.4
X11.5375Y-6.55
X11.725Y-7.3
X11.85Y-4.4
X11.85Y-5.15
X12.0375Y-5.9
X12.1Y-4.3
X12.1Y-5.05
X12.225Y-6.65
X12.225Y-7.4
X12.2875Y-5.8
X12.475Y-6.55
X12.475Y-7.3
X12.7875Y-4.4
X12.7875Y-5.15
X12.975Y-5.9
X12.975Y-6.65
X12.975Y-7.4
X13.0375Y-4.3
X13.0375Y-5.05
X13.225Y-5.8
X13.225Y-6.55
X13.225Y-7.3
T4
G00X2.0551Y-4.2152
M15
G01X2.0551Y-4.2467
M16
G05
G00X2.0551Y-4.3344
M15
G01X2.0551Y-4.3935
M16
G05
G00X2.3957Y-4.2152
M15
G01X2.3957Y-4.2467
M16
G05
G00X2.3957Y-4.3344
M15
G01X2.3957Y-4.3935
M16
G05
T0
M30
