%TF.GenerationSoftware,KiCad,Pcbnew,(6.0.2)*%
%TF.CreationDate,2022-02-18T22:42:53-07:00*%
%TF.ProjectId,Uniform,556e6966-6f72-46d2-9e6b-696361645f70,rev?*%
%TF.SameCoordinates,Original*%
%TF.FileFunction,Copper,L1,Top*%
%TF.FilePolarity,Positive*%
%FSLAX46Y46*%
G04 Gerber Fmt 4.6, Leading zero omitted, Abs format (unit mm)*
G04 Created by KiCad (PCBNEW (6.0.2)) date 2022-02-18 22:42:53*
%MOMM*%
%LPD*%
G01*
G04 APERTURE LIST*
G04 Aperture macros list*
%AMRotRect*
0 Rectangle, with rotation*
0 The origin of the aperture is its center*
0 $1 length*
0 $2 width*
0 $3 Rotation angle, in degrees counterclockwise*
0 Add horizontal line*
21,1,$1,$2,0,0,$3*%
G04 Aperture macros list end*
%TA.AperFunction,ComponentPad*%
%ADD10C,1.371600*%
%TD*%
%TA.AperFunction,ComponentPad*%
%ADD11C,1.600000*%
%TD*%
%TA.AperFunction,ComponentPad*%
%ADD12O,1.600000X1.600000*%
%TD*%
%TA.AperFunction,ComponentPad*%
%ADD13C,1.150000*%
%TD*%
%TA.AperFunction,ComponentPad*%
%ADD14R,1.508000X1.508000*%
%TD*%
%TA.AperFunction,ComponentPad*%
%ADD15C,1.508000*%
%TD*%
%TA.AperFunction,ComponentPad*%
%ADD16R,1.700000X1.700000*%
%TD*%
%TA.AperFunction,ComponentPad*%
%ADD17O,1.700000X1.700000*%
%TD*%
%TA.AperFunction,ComponentPad*%
%ADD18R,1.238000X1.238000*%
%TD*%
%TA.AperFunction,ComponentPad*%
%ADD19C,1.238000*%
%TD*%
%TA.AperFunction,ComponentPad*%
%ADD20C,2.286000*%
%TD*%
%TA.AperFunction,ComponentPad*%
%ADD21R,1.800000X1.800000*%
%TD*%
%TA.AperFunction,ComponentPad*%
%ADD22C,1.800000*%
%TD*%
%TA.AperFunction,ComponentPad*%
%ADD23R,1.308000X1.308000*%
%TD*%
%TA.AperFunction,ComponentPad*%
%ADD24C,1.308000*%
%TD*%
%TA.AperFunction,SMDPad,CuDef*%
%ADD25RotRect,0.600000X1.475000X225.000000*%
%TD*%
%TA.AperFunction,SMDPad,CuDef*%
%ADD26RotRect,0.600000X1.475000X135.000000*%
%TD*%
%TA.AperFunction,SMDPad,CuDef*%
%ADD27R,0.950000X2.150000*%
%TD*%
%TA.AperFunction,SMDPad,CuDef*%
%ADD28R,3.250000X2.150000*%
%TD*%
%TA.AperFunction,ComponentPad*%
%ADD29C,4.000000*%
%TD*%
%TA.AperFunction,ComponentPad*%
%ADD30C,0.650000*%
%TD*%
%TA.AperFunction,ComponentPad*%
%ADD31O,1.108000X2.216000*%
%TD*%
%TA.AperFunction,ViaPad*%
%ADD32C,1.200000*%
%TD*%
%TA.AperFunction,ViaPad*%
%ADD33C,0.800000*%
%TD*%
%TA.AperFunction,Conductor*%
%ADD34C,0.250000*%
%TD*%
%TA.AperFunction,Conductor*%
%ADD35C,0.500000*%
%TD*%
%TA.AperFunction,Conductor*%
%ADD36C,0.200000*%
%TD*%
G04 APERTURE END LIST*
D10*
%TO.P,C1,1*%
%TO.N,+5V*%
X54112500Y-127975000D03*
%TO.P,C1,2*%
%TO.N,GND*%
X54112500Y-125475000D03*
%TD*%
%TO.P,C2,1*%
%TO.N,+3V3*%
X42700000Y-125487500D03*
%TO.P,C2,2*%
%TO.N,GND*%
X42700000Y-127987500D03*
%TD*%
D11*
%TO.P,C3,1*%
%TO.N,+3V3*%
X44740000Y-141500000D03*
D12*
%TO.P,C3,2*%
%TO.N,GND*%
X52360000Y-141500000D03*
%TD*%
D11*
%TO.P,C4,1*%
%TO.N,+3V3*%
X44740000Y-135300000D03*
D12*
%TO.P,C4,2*%
%TO.N,GND*%
X52360000Y-135300000D03*
%TD*%
D11*
%TO.P,C5,1*%
%TO.N,+3V3*%
X44740000Y-138400000D03*
D12*
%TO.P,C5,2*%
%TO.N,GND*%
X52360000Y-138400000D03*
%TD*%
D13*
%TO.P,C6,1*%
%TO.N,+3V3*%
X41612500Y-140900000D03*
%TO.P,C6,2*%
%TO.N,GND*%
X41612500Y-135900000D03*
%TD*%
D14*
%TO.P,SWD,1,1*%
%TO.N,+3V3*%
X53587500Y-153000000D03*
D15*
%TO.P,SWD,2,2*%
%TO.N,SWDIO*%
X51047500Y-153000000D03*
%TO.P,SWD,3,3*%
%TO.N,SWCLK*%
X48507500Y-153000000D03*
%TO.P,SWD,4,4*%
%TO.N,RESET*%
X45967500Y-153000000D03*
%TO.P,SWD,5,5*%
%TO.N,GND*%
X43427500Y-153000000D03*
%TD*%
D16*
%TO.P,LED2,1,Pin_1*%
%TO.N,+5V*%
X55412500Y-135875000D03*
D17*
%TO.P,LED2,2,Pin_2*%
%TO.N,Net-(CON2-Pad2)*%
X55412500Y-138415000D03*
%TO.P,LED2,3,Pin_3*%
%TO.N,GND*%
X55412500Y-140955000D03*
%TD*%
D18*
%TO.P,D_0_0,1*%
%TO.N,R0*%
X61912500Y-120827250D03*
D19*
%TO.P,D_0_0,2*%
%TO.N,Net-(D_0_0-Pad2)*%
X61912500Y-112535250D03*
%TD*%
D18*
%TO.P,D_0_1,1*%
%TO.N,R0*%
X85725000Y-120827250D03*
D19*
%TO.P,D_0_1,2*%
%TO.N,Net-(D_0_1-Pad2)*%
X85725000Y-112535250D03*
%TD*%
D18*
%TO.P,D_0_2,1*%
%TO.N,R0*%
X104775000Y-120827250D03*
D19*
%TO.P,D_0_2,2*%
%TO.N,Net-(D_0_2-Pad2)*%
X104775000Y-112535250D03*
%TD*%
D18*
%TO.P,D_0_3,1*%
%TO.N,R0*%
X123825000Y-120827250D03*
D19*
%TO.P,D_0_3,2*%
%TO.N,Net-(D_0_3-Pad2)*%
X123825000Y-112535250D03*
%TD*%
D18*
%TO.P,D_0_4,1*%
%TO.N,R0*%
X142875000Y-120827250D03*
D19*
%TO.P,D_0_4,2*%
%TO.N,Net-(D_0_4-Pad2)*%
X142875000Y-112535250D03*
%TD*%
D18*
%TO.P,D_0_5,1*%
%TO.N,R0*%
X161925000Y-120827250D03*
D19*
%TO.P,D_0_5,2*%
%TO.N,Net-(D_0_5-Pad2)*%
X161925000Y-112535250D03*
%TD*%
D18*
%TO.P,D_0_6,1*%
%TO.N,R0*%
X180975000Y-120827250D03*
D19*
%TO.P,D_0_6,2*%
%TO.N,Net-(D_0_6-Pad2)*%
X180975000Y-112535250D03*
%TD*%
D18*
%TO.P,D_0_7,1*%
%TO.N,R0*%
X200025000Y-120827250D03*
D19*
%TO.P,D_0_7,2*%
%TO.N,Net-(D_0_7-Pad2)*%
X200025000Y-112535250D03*
%TD*%
D18*
%TO.P,D_0_8,1*%
%TO.N,R0*%
X219075000Y-120827250D03*
D19*
%TO.P,D_0_8,2*%
%TO.N,Net-(D_0_8-Pad2)*%
X219075000Y-112535250D03*
%TD*%
D18*
%TO.P,D_0_9,1*%
%TO.N,R0*%
X238125000Y-120827250D03*
D19*
%TO.P,D_0_9,2*%
%TO.N,Net-(D_0_9-Pad2)*%
X238125000Y-112535250D03*
%TD*%
D18*
%TO.P,D_0_10,1*%
%TO.N,R0*%
X257175000Y-120827250D03*
D19*
%TO.P,D_0_10,2*%
%TO.N,Net-(D_0_10-Pad2)*%
X257175000Y-112535250D03*
%TD*%
D18*
%TO.P,D_0_11,1*%
%TO.N,R0*%
X276225000Y-120827250D03*
D19*
%TO.P,D_0_11,2*%
%TO.N,Net-(D_0_11-Pad2)*%
X276225000Y-112535250D03*
%TD*%
D18*
%TO.P,D_0_12,1*%
%TO.N,R0*%
X295275000Y-120827250D03*
D19*
%TO.P,D_0_12,2*%
%TO.N,Net-(D_0_12-Pad2)*%
X295275000Y-112535250D03*
%TD*%
D18*
%TO.P,D_0_13,1*%
%TO.N,R0*%
X319087500Y-120827250D03*
D19*
%TO.P,D_0_13,2*%
%TO.N,Net-(D_0_13-Pad2)*%
X319087500Y-112535250D03*
%TD*%
D18*
%TO.P,D_1_0,1*%
%TO.N,R1*%
X61912500Y-139877250D03*
D19*
%TO.P,D_1_0,2*%
%TO.N,Net-(D_1_0-Pad2)*%
X61912500Y-131585250D03*
%TD*%
D18*
%TO.P,D_1_1,1*%
%TO.N,R1*%
X85725000Y-139877250D03*
D19*
%TO.P,D_1_1,2*%
%TO.N,Net-(D_1_1-Pad2)*%
X85725000Y-131585250D03*
%TD*%
D18*
%TO.P,D_1_2,1*%
%TO.N,R1*%
X104775000Y-139877250D03*
D19*
%TO.P,D_1_2,2*%
%TO.N,Net-(D_1_2-Pad2)*%
X104775000Y-131585250D03*
%TD*%
D18*
%TO.P,D_1_3,1*%
%TO.N,R1*%
X123825000Y-139877250D03*
D19*
%TO.P,D_1_3,2*%
%TO.N,Net-(D_1_3-Pad2)*%
X123825000Y-131585250D03*
%TD*%
D18*
%TO.P,D_1_4,1*%
%TO.N,R1*%
X142875000Y-139877250D03*
D19*
%TO.P,D_1_4,2*%
%TO.N,Net-(D_1_4-Pad2)*%
X142875000Y-131585250D03*
%TD*%
D18*
%TO.P,D_1_5,1*%
%TO.N,R1*%
X161925000Y-139877250D03*
D19*
%TO.P,D_1_5,2*%
%TO.N,Net-(D_1_5-Pad2)*%
X161925000Y-131585250D03*
%TD*%
D18*
%TO.P,D_1_6,1*%
%TO.N,R1*%
X180975000Y-139877250D03*
D19*
%TO.P,D_1_6,2*%
%TO.N,Net-(D_1_6-Pad2)*%
X180975000Y-131585250D03*
%TD*%
D18*
%TO.P,D_1_7,1*%
%TO.N,R1*%
X200025000Y-139877250D03*
D19*
%TO.P,D_1_7,2*%
%TO.N,Net-(D_1_7-Pad2)*%
X200025000Y-131585250D03*
%TD*%
D18*
%TO.P,D_1_8,1*%
%TO.N,R1*%
X219075000Y-139877250D03*
D19*
%TO.P,D_1_8,2*%
%TO.N,Net-(D_1_8-Pad2)*%
X219075000Y-131585250D03*
%TD*%
D18*
%TO.P,D_1_9,1*%
%TO.N,R1*%
X238125000Y-139877250D03*
D19*
%TO.P,D_1_9,2*%
%TO.N,Net-(D_1_9-Pad2)*%
X238125000Y-131585250D03*
%TD*%
D18*
%TO.P,D_1_10,1*%
%TO.N,R1*%
X257175000Y-139877250D03*
D19*
%TO.P,D_1_10,2*%
%TO.N,Net-(D_1_10-Pad2)*%
X257175000Y-131585250D03*
%TD*%
D18*
%TO.P,D_1_11,1*%
%TO.N,R1*%
X276225000Y-139877250D03*
D19*
%TO.P,D_1_11,2*%
%TO.N,Net-(D_1_11-Pad2)*%
X276225000Y-131585250D03*
%TD*%
D18*
%TO.P,D_1_12,1*%
%TO.N,R1*%
X295275000Y-139877250D03*
D19*
%TO.P,D_1_12,2*%
%TO.N,Net-(D_1_12-Pad2)*%
X295275000Y-131585250D03*
%TD*%
D18*
%TO.P,D_1_13,1*%
%TO.N,R1*%
X319087500Y-139877250D03*
D19*
%TO.P,D_1_13,2*%
%TO.N,Net-(D_1_13-Pad2)*%
X319087500Y-131585250D03*
%TD*%
D18*
%TO.P,D_2_0,1*%
%TO.N,R2*%
X61912500Y-158927250D03*
D19*
%TO.P,D_2_0,2*%
%TO.N,Net-(D_2_0-Pad2)*%
X61912500Y-150635250D03*
%TD*%
D18*
%TO.P,D_2_1,1*%
%TO.N,R2*%
X85725000Y-158927250D03*
D19*
%TO.P,D_2_1,2*%
%TO.N,Net-(D_2_1-Pad2)*%
X85725000Y-150635250D03*
%TD*%
D18*
%TO.P,D_2_2,1*%
%TO.N,R2*%
X104775000Y-158927250D03*
D19*
%TO.P,D_2_2,2*%
%TO.N,Net-(D_2_2-Pad2)*%
X104775000Y-150635250D03*
%TD*%
D18*
%TO.P,D_2_3,1*%
%TO.N,R2*%
X123825000Y-158927250D03*
D19*
%TO.P,D_2_3,2*%
%TO.N,Net-(D_2_3-Pad2)*%
X123825000Y-150635250D03*
%TD*%
D18*
%TO.P,D_2_4,1*%
%TO.N,R2*%
X142875000Y-158927250D03*
D19*
%TO.P,D_2_4,2*%
%TO.N,Net-(D_2_4-Pad2)*%
X142875000Y-150635250D03*
%TD*%
D18*
%TO.P,D_2_5,1*%
%TO.N,R2*%
X161925000Y-158927250D03*
D19*
%TO.P,D_2_5,2*%
%TO.N,Net-(D_2_5-Pad2)*%
X161925000Y-150635250D03*
%TD*%
D18*
%TO.P,D_2_6,1*%
%TO.N,R2*%
X180975000Y-158927250D03*
D19*
%TO.P,D_2_6,2*%
%TO.N,Net-(D_2_6-Pad2)*%
X180975000Y-150635250D03*
%TD*%
D18*
%TO.P,D_2_7,1*%
%TO.N,R2*%
X200025000Y-158927250D03*
D19*
%TO.P,D_2_7,2*%
%TO.N,Net-(D_2_7-Pad2)*%
X200025000Y-150635250D03*
%TD*%
D18*
%TO.P,D_2_8,1*%
%TO.N,R2*%
X219075000Y-158927250D03*
D19*
%TO.P,D_2_8,2*%
%TO.N,Net-(D_2_8-Pad2)*%
X219075000Y-150635250D03*
%TD*%
D18*
%TO.P,D_2_9,1*%
%TO.N,R2*%
X238125000Y-158927250D03*
D19*
%TO.P,D_2_9,2*%
%TO.N,Net-(D_2_9-Pad2)*%
X238125000Y-150635250D03*
%TD*%
D18*
%TO.P,D_2_10,1*%
%TO.N,R2*%
X257175000Y-158927250D03*
D19*
%TO.P,D_2_10,2*%
%TO.N,Net-(D_2_10-Pad2)*%
X257175000Y-150635250D03*
%TD*%
D18*
%TO.P,D_2_11,1*%
%TO.N,R2*%
X276225000Y-158927250D03*
D19*
%TO.P,D_2_11,2*%
%TO.N,Net-(D_2_11-Pad2)*%
X276225000Y-150635250D03*
%TD*%
D18*
%TO.P,D_2_12,1*%
%TO.N,R2*%
X300037500Y-158927250D03*
D19*
%TO.P,D_2_12,2*%
%TO.N,Net-(D_2_12-Pad2)*%
X300037500Y-150635250D03*
%TD*%
D18*
%TO.P,D_2_13,1*%
%TO.N,R2*%
X323850000Y-158927250D03*
D19*
%TO.P,D_2_13,2*%
%TO.N,Net-(D_2_13-Pad2)*%
X323850000Y-150635250D03*
%TD*%
D18*
%TO.P,D_3_0,1*%
%TO.N,R3*%
X61912500Y-177977250D03*
D19*
%TO.P,D_3_0,2*%
%TO.N,Net-(D_3_0-Pad2)*%
X61912500Y-169685250D03*
%TD*%
D18*
%TO.P,D_3_1,1*%
%TO.N,R3*%
X85725000Y-177977250D03*
D19*
%TO.P,D_3_1,2*%
%TO.N,Net-(D_3_1-Pad2)*%
X85725000Y-169685250D03*
%TD*%
D18*
%TO.P,D_3_2,1*%
%TO.N,R3*%
X104775000Y-177977250D03*
D19*
%TO.P,D_3_2,2*%
%TO.N,Net-(D_3_2-Pad2)*%
X104775000Y-169685250D03*
%TD*%
D18*
%TO.P,D_3_3,1*%
%TO.N,R3*%
X123825000Y-177977250D03*
D19*
%TO.P,D_3_3,2*%
%TO.N,Net-(D_3_3-Pad2)*%
X123825000Y-169685250D03*
%TD*%
D18*
%TO.P,D_3_4,1*%
%TO.N,R3*%
X142875000Y-177977250D03*
D19*
%TO.P,D_3_4,2*%
%TO.N,Net-(D_3_4-Pad2)*%
X142875000Y-169685250D03*
%TD*%
D18*
%TO.P,D_3_5,1*%
%TO.N,R3*%
X161925000Y-177977250D03*
D19*
%TO.P,D_3_5,2*%
%TO.N,Net-(D_3_5-Pad2)*%
X161925000Y-169685250D03*
%TD*%
D18*
%TO.P,D_3_6,1*%
%TO.N,R3*%
X180975000Y-177977250D03*
D19*
%TO.P,D_3_6,2*%
%TO.N,Net-(D_3_6-Pad2)*%
X180975000Y-169685250D03*
%TD*%
D18*
%TO.P,D_3_7,1*%
%TO.N,R3*%
X200025000Y-177977250D03*
D19*
%TO.P,D_3_7,2*%
%TO.N,Net-(D_3_7-Pad2)*%
X200025000Y-169685250D03*
%TD*%
D18*
%TO.P,D_3_8,1*%
%TO.N,R3*%
X219075000Y-177977250D03*
D19*
%TO.P,D_3_8,2*%
%TO.N,Net-(D_3_8-Pad2)*%
X219075000Y-169685250D03*
%TD*%
D18*
%TO.P,D_3_9,1*%
%TO.N,R3*%
X238125000Y-177977250D03*
D19*
%TO.P,D_3_9,2*%
%TO.N,Net-(D_3_9-Pad2)*%
X238125000Y-169685250D03*
%TD*%
D18*
%TO.P,D_3_10,1*%
%TO.N,R3*%
X257175000Y-177977250D03*
D19*
%TO.P,D_3_10,2*%
%TO.N,Net-(D_3_10-Pad2)*%
X257175000Y-169685250D03*
%TD*%
D18*
%TO.P,D_3_11,1*%
%TO.N,R3*%
X280987500Y-177977250D03*
D19*
%TO.P,D_3_11,2*%
%TO.N,Net-(D_3_11-Pad2)*%
X280987500Y-169685250D03*
%TD*%
D18*
%TO.P,D_3_12,1*%
%TO.N,R3*%
X304800000Y-177977250D03*
D19*
%TO.P,D_3_12,2*%
%TO.N,Net-(D_3_12-Pad2)*%
X304800000Y-169685250D03*
%TD*%
D18*
%TO.P,D_3_13,1*%
%TO.N,R3*%
X323850000Y-177977250D03*
D19*
%TO.P,D_3_13,2*%
%TO.N,Net-(D_3_13-Pad2)*%
X323850000Y-169685250D03*
%TD*%
D18*
%TO.P,D_4_0,1*%
%TO.N,R4*%
X61912500Y-197027250D03*
D19*
%TO.P,D_4_0,2*%
%TO.N,Net-(D_4_0-Pad2)*%
X61912500Y-188735250D03*
%TD*%
D18*
%TO.P,D_4_1,1*%
%TO.N,R4*%
X85725000Y-197027250D03*
D19*
%TO.P,D_4_1,2*%
%TO.N,Net-(D_4_1-Pad2)*%
X85725000Y-188735250D03*
%TD*%
D18*
%TO.P,D_4_2,1*%
%TO.N,R4*%
X104775000Y-197027250D03*
D19*
%TO.P,D_4_2,2*%
%TO.N,Net-(D_4_2-Pad2)*%
X104775000Y-188735250D03*
%TD*%
D18*
%TO.P,D_4_4,1*%
%TO.N,R4*%
X138112500Y-197027250D03*
D19*
%TO.P,D_4_4,2*%
%TO.N,Net-(D_4_4-Pad2)*%
X138112500Y-188735250D03*
%TD*%
D18*
%TO.P,D_4_5,1*%
%TO.N,R4*%
X161925000Y-197027250D03*
D19*
%TO.P,D_4_5,2*%
%TO.N,Net-(D_4_5-Pad2)*%
X161925000Y-188735250D03*
%TD*%
D18*
%TO.P,D_4_6,1*%
%TO.N,R4*%
X185737500Y-197027250D03*
D19*
%TO.P,D_4_6,2*%
%TO.N,Net-(D_4_6-Pad2)*%
X185737500Y-188735250D03*
%TD*%
D18*
%TO.P,D_4_8,1*%
%TO.N,R4*%
X219075000Y-197027250D03*
D19*
%TO.P,D_4_8,2*%
%TO.N,Net-(D_4_8-Pad2)*%
X219075000Y-188735250D03*
%TD*%
D18*
%TO.P,D_4_9,1*%
%TO.N,R4*%
X238125000Y-197027250D03*
D19*
%TO.P,D_4_9,2*%
%TO.N,Net-(D_4_9-Pad2)*%
X238125000Y-188735250D03*
%TD*%
D18*
%TO.P,D_4_10,1*%
%TO.N,R4*%
X257175000Y-197027250D03*
D19*
%TO.P,D_4_10,2*%
%TO.N,Net-(D_4_10-Pad2)*%
X257175000Y-188735250D03*
%TD*%
D18*
%TO.P,D_4_11,1*%
%TO.N,R4*%
X285750000Y-197027250D03*
D19*
%TO.P,D_4_11,2*%
%TO.N,Net-(D_4_11-Pad2)*%
X285750000Y-188735250D03*
%TD*%
D18*
%TO.P,D_4_12,1*%
%TO.N,R4*%
X304800000Y-197027250D03*
D19*
%TO.P,D_4_12,2*%
%TO.N,Net-(D_4_12-Pad2)*%
X304800000Y-188735250D03*
%TD*%
D18*
%TO.P,D_4_13,1*%
%TO.N,R4*%
X323850000Y-197027250D03*
D19*
%TO.P,D_4_13,2*%
%TO.N,Net-(D_4_13-Pad2)*%
X323850000Y-188735250D03*
%TD*%
D20*
%TO.P,K_0_0,1*%
%TO.N,C0*%
X73977500Y-109220000D03*
%TO.P,K_0_0,2*%
%TO.N,Net-(D_0_0-Pad2)*%
X67627500Y-111760000D03*
%TD*%
%TO.P,K_0_1,1*%
%TO.N,C1*%
X97790000Y-109220000D03*
%TO.P,K_0_1,2*%
%TO.N,Net-(D_0_1-Pad2)*%
X91440000Y-111760000D03*
%TD*%
%TO.P,K_0_2,1*%
%TO.N,C2*%
X116840000Y-109220000D03*
%TO.P,K_0_2,2*%
%TO.N,Net-(D_0_2-Pad2)*%
X110490000Y-111760000D03*
%TD*%
%TO.P,K_0_3,1*%
%TO.N,C3*%
X135890000Y-109220000D03*
%TO.P,K_0_3,2*%
%TO.N,Net-(D_0_3-Pad2)*%
X129540000Y-111760000D03*
%TD*%
%TO.P,K_0_4,1*%
%TO.N,C4*%
X154940000Y-109220000D03*
%TO.P,K_0_4,2*%
%TO.N,Net-(D_0_4-Pad2)*%
X148590000Y-111760000D03*
%TD*%
%TO.P,K_0_5,1*%
%TO.N,C5*%
X173990000Y-109220000D03*
%TO.P,K_0_5,2*%
%TO.N,Net-(D_0_5-Pad2)*%
X167640000Y-111760000D03*
%TD*%
%TO.P,K_0_6,1*%
%TO.N,C6*%
X193040000Y-109220000D03*
%TO.P,K_0_6,2*%
%TO.N,Net-(D_0_6-Pad2)*%
X186690000Y-111760000D03*
%TD*%
%TO.P,K_0_7,1*%
%TO.N,C7*%
X212090000Y-109220000D03*
%TO.P,K_0_7,2*%
%TO.N,Net-(D_0_7-Pad2)*%
X205740000Y-111760000D03*
%TD*%
%TO.P,K_0_8,1*%
%TO.N,C8*%
X231140000Y-109220000D03*
%TO.P,K_0_8,2*%
%TO.N,Net-(D_0_8-Pad2)*%
X224790000Y-111760000D03*
%TD*%
%TO.P,K_0_9,1*%
%TO.N,C9*%
X250190000Y-109220000D03*
%TO.P,K_0_9,2*%
%TO.N,Net-(D_0_9-Pad2)*%
X243840000Y-111760000D03*
%TD*%
%TO.P,K_0_10,1*%
%TO.N,C10*%
X269240000Y-109220000D03*
%TO.P,K_0_10,2*%
%TO.N,Net-(D_0_10-Pad2)*%
X262890000Y-111760000D03*
%TD*%
%TO.P,K_0_11,1*%
%TO.N,C11*%
X288290000Y-109220000D03*
%TO.P,K_0_11,2*%
%TO.N,Net-(D_0_11-Pad2)*%
X281940000Y-111760000D03*
%TD*%
%TO.P,K_0_12,1*%
%TO.N,C12*%
X307340000Y-109220000D03*
%TO.P,K_0_12,2*%
%TO.N,Net-(D_0_12-Pad2)*%
X300990000Y-111760000D03*
%TD*%
%TO.P,K_0_13,1*%
%TO.N,C13*%
X331152500Y-109220000D03*
%TO.P,K_0_13,2*%
%TO.N,Net-(D_0_13-Pad2)*%
X324802500Y-111760000D03*
%TD*%
%TO.P,K_1_0,1*%
%TO.N,C0*%
X73977500Y-128270000D03*
%TO.P,K_1_0,2*%
%TO.N,Net-(D_1_0-Pad2)*%
X67627500Y-130810000D03*
%TD*%
%TO.P,K_1_1,1*%
%TO.N,C1*%
X97790000Y-128270000D03*
%TO.P,K_1_1,2*%
%TO.N,Net-(D_1_1-Pad2)*%
X91440000Y-130810000D03*
%TD*%
%TO.P,K_1_2,1*%
%TO.N,C2*%
X116840000Y-128270000D03*
%TO.P,K_1_2,2*%
%TO.N,Net-(D_1_2-Pad2)*%
X110490000Y-130810000D03*
%TD*%
%TO.P,K_1_3,1*%
%TO.N,C3*%
X135890000Y-128270000D03*
%TO.P,K_1_3,2*%
%TO.N,Net-(D_1_3-Pad2)*%
X129540000Y-130810000D03*
%TD*%
%TO.P,K_1_4,1*%
%TO.N,C4*%
X154940000Y-128270000D03*
%TO.P,K_1_4,2*%
%TO.N,Net-(D_1_4-Pad2)*%
X148590000Y-130810000D03*
%TD*%
%TO.P,K_1_5,1*%
%TO.N,C5*%
X173990000Y-128270000D03*
%TO.P,K_1_5,2*%
%TO.N,Net-(D_1_5-Pad2)*%
X167640000Y-130810000D03*
%TD*%
%TO.P,K_1_6,1*%
%TO.N,C6*%
X193040000Y-128270000D03*
%TO.P,K_1_6,2*%
%TO.N,Net-(D_1_6-Pad2)*%
X186690000Y-130810000D03*
%TD*%
%TO.P,K_1_7,1*%
%TO.N,C7*%
X212090000Y-128270000D03*
%TO.P,K_1_7,2*%
%TO.N,Net-(D_1_7-Pad2)*%
X205740000Y-130810000D03*
%TD*%
%TO.P,K_1_8,1*%
%TO.N,C8*%
X231140000Y-128270000D03*
%TO.P,K_1_8,2*%
%TO.N,Net-(D_1_8-Pad2)*%
X224790000Y-130810000D03*
%TD*%
%TO.P,K_1_9,1*%
%TO.N,C9*%
X250190000Y-128270000D03*
%TO.P,K_1_9,2*%
%TO.N,Net-(D_1_9-Pad2)*%
X243840000Y-130810000D03*
%TD*%
%TO.P,K_1_10,1*%
%TO.N,C10*%
X269240000Y-128270000D03*
%TO.P,K_1_10,2*%
%TO.N,Net-(D_1_10-Pad2)*%
X262890000Y-130810000D03*
%TD*%
%TO.P,K_1_11,1*%
%TO.N,C11*%
X288290000Y-128270000D03*
%TO.P,K_1_11,2*%
%TO.N,Net-(D_1_11-Pad2)*%
X281940000Y-130810000D03*
%TD*%
%TO.P,K_1_12,1*%
%TO.N,C12*%
X307340000Y-128270000D03*
%TO.P,K_1_12,2*%
%TO.N,Net-(D_1_12-Pad2)*%
X300990000Y-130810000D03*
%TD*%
%TO.P,K_1_13,1*%
%TO.N,C13*%
X331152500Y-128270000D03*
%TO.P,K_1_13,2*%
%TO.N,Net-(D_1_13-Pad2)*%
X324802500Y-130810000D03*
%TD*%
%TO.P,K_2_0,1*%
%TO.N,C0*%
X73977500Y-147320000D03*
%TO.P,K_2_0,2*%
%TO.N,Net-(D_2_0-Pad2)*%
X67627500Y-149860000D03*
%TD*%
%TO.P,K_2_1,1*%
%TO.N,C1*%
X97790000Y-147320000D03*
%TO.P,K_2_1,2*%
%TO.N,Net-(D_2_1-Pad2)*%
X91440000Y-149860000D03*
%TD*%
%TO.P,K_2_2,1*%
%TO.N,C2*%
X116840000Y-147320000D03*
%TO.P,K_2_2,2*%
%TO.N,Net-(D_2_2-Pad2)*%
X110490000Y-149860000D03*
%TD*%
%TO.P,K_2_3,1*%
%TO.N,C3*%
X135890000Y-147320000D03*
%TO.P,K_2_3,2*%
%TO.N,Net-(D_2_3-Pad2)*%
X129540000Y-149860000D03*
%TD*%
%TO.P,K_2_4,1*%
%TO.N,C4*%
X154940000Y-147320000D03*
%TO.P,K_2_4,2*%
%TO.N,Net-(D_2_4-Pad2)*%
X148590000Y-149860000D03*
%TD*%
%TO.P,K_2_5,1*%
%TO.N,C5*%
X173990000Y-147320000D03*
%TO.P,K_2_5,2*%
%TO.N,Net-(D_2_5-Pad2)*%
X167640000Y-149860000D03*
%TD*%
%TO.P,K_2_6,1*%
%TO.N,C6*%
X193040000Y-147320000D03*
%TO.P,K_2_6,2*%
%TO.N,Net-(D_2_6-Pad2)*%
X186690000Y-149860000D03*
%TD*%
%TO.P,K_2_7,1*%
%TO.N,C7*%
X212090000Y-147320000D03*
%TO.P,K_2_7,2*%
%TO.N,Net-(D_2_7-Pad2)*%
X205740000Y-149860000D03*
%TD*%
%TO.P,K_2_8,1*%
%TO.N,C8*%
X231140000Y-147320000D03*
%TO.P,K_2_8,2*%
%TO.N,Net-(D_2_8-Pad2)*%
X224790000Y-149860000D03*
%TD*%
%TO.P,K_2_9,1*%
%TO.N,C9*%
X250190000Y-147320000D03*
%TO.P,K_2_9,2*%
%TO.N,Net-(D_2_9-Pad2)*%
X243840000Y-149860000D03*
%TD*%
%TO.P,K_2_10,1*%
%TO.N,C10*%
X269240000Y-147320000D03*
%TO.P,K_2_10,2*%
%TO.N,Net-(D_2_10-Pad2)*%
X262890000Y-149860000D03*
%TD*%
%TO.P,K_2_11,1*%
%TO.N,C11*%
X288290000Y-147320000D03*
%TO.P,K_2_11,2*%
%TO.N,Net-(D_2_11-Pad2)*%
X281940000Y-149860000D03*
%TD*%
%TO.P,K_2_12,1*%
%TO.N,C12*%
X312102500Y-147320000D03*
%TO.P,K_2_12,2*%
%TO.N,Net-(D_2_12-Pad2)*%
X305752500Y-149860000D03*
%TD*%
%TO.P,K_2_13,1*%
%TO.N,C13*%
X335915000Y-147320000D03*
%TO.P,K_2_13,2*%
%TO.N,Net-(D_2_13-Pad2)*%
X329565000Y-149860000D03*
%TD*%
%TO.P,K_3_0,1*%
%TO.N,C0*%
X73977500Y-166370000D03*
%TO.P,K_3_0,2*%
%TO.N,Net-(D_3_0-Pad2)*%
X67627500Y-168910000D03*
%TD*%
%TO.P,K_3_1,1*%
%TO.N,C1*%
X97790000Y-166370000D03*
%TO.P,K_3_1,2*%
%TO.N,Net-(D_3_1-Pad2)*%
X91440000Y-168910000D03*
%TD*%
%TO.P,K_3_2,1*%
%TO.N,C2*%
X116840000Y-166370000D03*
%TO.P,K_3_2,2*%
%TO.N,Net-(D_3_2-Pad2)*%
X110490000Y-168910000D03*
%TD*%
%TO.P,K_3_3,1*%
%TO.N,C3*%
X135890000Y-166370000D03*
%TO.P,K_3_3,2*%
%TO.N,Net-(D_3_3-Pad2)*%
X129540000Y-168910000D03*
%TD*%
%TO.P,K_3_4,1*%
%TO.N,C4*%
X154940000Y-166370000D03*
%TO.P,K_3_4,2*%
%TO.N,Net-(D_3_4-Pad2)*%
X148590000Y-168910000D03*
%TD*%
%TO.P,K_3_5,1*%
%TO.N,C5*%
X173990000Y-166370000D03*
%TO.P,K_3_5,2*%
%TO.N,Net-(D_3_5-Pad2)*%
X167640000Y-168910000D03*
%TD*%
%TO.P,K_3_6,1*%
%TO.N,C6*%
X193040000Y-166370000D03*
%TO.P,K_3_6,2*%
%TO.N,Net-(D_3_6-Pad2)*%
X186690000Y-168910000D03*
%TD*%
%TO.P,K_3_7,1*%
%TO.N,C7*%
X212090000Y-166370000D03*
%TO.P,K_3_7,2*%
%TO.N,Net-(D_3_7-Pad2)*%
X205740000Y-168910000D03*
%TD*%
%TO.P,K_3_8,1*%
%TO.N,C8*%
X231140000Y-166370000D03*
%TO.P,K_3_8,2*%
%TO.N,Net-(D_3_8-Pad2)*%
X224790000Y-168910000D03*
%TD*%
%TO.P,K_3_9,1*%
%TO.N,C9*%
X250190000Y-166370000D03*
%TO.P,K_3_9,2*%
%TO.N,Net-(D_3_9-Pad2)*%
X243840000Y-168910000D03*
%TD*%
%TO.P,K_3_10,1*%
%TO.N,C10*%
X269240000Y-166370000D03*
%TO.P,K_3_10,2*%
%TO.N,Net-(D_3_10-Pad2)*%
X262890000Y-168910000D03*
%TD*%
%TO.P,K_3_11,1*%
%TO.N,C11*%
X293052500Y-166370000D03*
%TO.P,K_3_11,2*%
%TO.N,Net-(D_3_11-Pad2)*%
X286702500Y-168910000D03*
%TD*%
%TO.P,K_3_12,1*%
%TO.N,C12*%
X316865000Y-166370000D03*
%TO.P,K_3_12,2*%
%TO.N,Net-(D_3_12-Pad2)*%
X310515000Y-168910000D03*
%TD*%
%TO.P,K_3_13,1*%
%TO.N,C13*%
X335915000Y-166370000D03*
%TO.P,K_3_13,2*%
%TO.N,Net-(D_3_13-Pad2)*%
X329565000Y-168910000D03*
%TD*%
%TO.P,K_4_0,1*%
%TO.N,C0*%
X73977500Y-185420000D03*
%TO.P,K_4_0,2*%
%TO.N,Net-(D_4_0-Pad2)*%
X67627500Y-187960000D03*
%TD*%
%TO.P,K_4_1,1*%
%TO.N,C1*%
X97790000Y-185420000D03*
%TO.P,K_4_1,2*%
%TO.N,Net-(D_4_1-Pad2)*%
X91440000Y-187960000D03*
%TD*%
%TO.P,K_4_2,1*%
%TO.N,C2*%
X116840000Y-185420000D03*
%TO.P,K_4_2,2*%
%TO.N,Net-(D_4_2-Pad2)*%
X110490000Y-187960000D03*
%TD*%
%TO.P,K_4_4,1*%
%TO.N,C4*%
X150177500Y-185420000D03*
%TO.P,K_4_4,2*%
%TO.N,Net-(D_4_4-Pad2)*%
X143827500Y-187960000D03*
%TD*%
%TO.P,K_4_5,1*%
%TO.N,C5*%
X173990000Y-185420000D03*
%TO.P,K_4_5,2*%
%TO.N,Net-(D_4_5-Pad2)*%
X167640000Y-187960000D03*
%TD*%
%TO.P,K_4_6,1*%
%TO.N,C6*%
X197802500Y-185420000D03*
%TO.P,K_4_6,2*%
%TO.N,Net-(D_4_6-Pad2)*%
X191452500Y-187960000D03*
%TD*%
%TO.P,K_4_8,1*%
%TO.N,C8*%
X231140000Y-185420000D03*
%TO.P,K_4_8,2*%
%TO.N,Net-(D_4_8-Pad2)*%
X224790000Y-187960000D03*
%TD*%
%TO.P,K_4_9,1*%
%TO.N,C9*%
X250190000Y-185420000D03*
%TO.P,K_4_9,2*%
%TO.N,Net-(D_4_9-Pad2)*%
X243840000Y-187960000D03*
%TD*%
%TO.P,K_4_10,1*%
%TO.N,C10*%
X269240000Y-185420000D03*
%TO.P,K_4_10,2*%
%TO.N,Net-(D_4_10-Pad2)*%
X262890000Y-187960000D03*
%TD*%
%TO.P,K_4_11,1*%
%TO.N,C11*%
X297815000Y-185420000D03*
%TO.P,K_4_11,2*%
%TO.N,Net-(D_4_11-Pad2)*%
X291465000Y-187960000D03*
%TD*%
%TO.P,K_4_12,1*%
%TO.N,C12*%
X316865000Y-185420000D03*
%TO.P,K_4_12,2*%
%TO.N,Net-(D_4_12-Pad2)*%
X310515000Y-187960000D03*
%TD*%
%TO.P,K_4_13,1*%
%TO.N,C13*%
X335915000Y-185420000D03*
%TO.P,K_4_13,2*%
%TO.N,Net-(D_4_13-Pad2)*%
X329565000Y-187960000D03*
%TD*%
D21*
%TO.P,LED1,1,K*%
%TO.N,GND*%
X49725000Y-112000000D03*
D22*
%TO.P,LED1,2,A*%
%TO.N,Net-(LED1-Pad2)*%
X47185000Y-112000000D03*
%TD*%
D11*
%TO.P,R1,1*%
%TO.N,GND*%
X42100000Y-117400000D03*
D12*
%TO.P,R1,2*%
%TO.N,Net-(R1-Pad2)*%
X54800000Y-117400000D03*
%TD*%
D11*
%TO.P,R2,1*%
%TO.N,BOOT*%
X54800000Y-180900000D03*
D12*
%TO.P,R2,2*%
%TO.N,GND*%
X42100000Y-180900000D03*
%TD*%
D11*
%TO.P,R3,1*%
%TO.N,GND*%
X42100000Y-121400000D03*
D12*
%TO.P,R3,2*%
%TO.N,Net-(R3-Pad2)*%
X54800000Y-121400000D03*
%TD*%
D11*
%TO.P,R4,1*%
%TO.N,+3V3*%
X42100000Y-176900000D03*
D12*
%TO.P,R4,2*%
%TO.N,RESET*%
X54800000Y-176900000D03*
%TD*%
D11*
%TO.P,R5,1*%
%TO.N,Net-(CON2-Pad2)*%
X54800000Y-145150000D03*
D12*
%TO.P,R5,2*%
%TO.N,LED_DATA*%
X42100000Y-145150000D03*
%TD*%
D11*
%TO.P,R6,1*%
%TO.N,STATUS_LED_DATA*%
X54800000Y-149150000D03*
D12*
%TO.P,R6,2*%
%TO.N,Net-(LED1-Pad2)*%
X42100000Y-149150000D03*
%TD*%
D23*
%TO.P,S1,1,1*%
%TO.N,BOOT*%
X50462500Y-185650000D03*
D24*
%TO.P,S1,2,2*%
%TO.N,+3V3*%
X48462500Y-185650000D03*
%TO.P,S1,3,3*%
%TO.N,unconnected-(S1-Pad3)*%
X46462500Y-185650000D03*
%TD*%
D23*
%TO.P,S2,1,1*%
%TO.N,RESET*%
X50462500Y-190900000D03*
D24*
%TO.P,S2,2,2*%
%TO.N,GND*%
X48462500Y-190900000D03*
%TO.P,S2,3,3*%
%TO.N,unconnected-(S2-Pad3)*%
X46462500Y-190900000D03*
%TD*%
D25*
%TO.P,U1,1,VDD_1*%
%TO.N,+3V3*%
X49604320Y-170826618D03*
%TO.P,U1,2,PC14-_OSC32_IN_(PC14)*%
%TO.N,R4*%
X50170005Y-170260932D03*
%TO.P,U1,3,PC15-_OSC32_OUT_(PC15)*%
%TO.N,R3*%
X50735690Y-169695247D03*
%TO.P,U1,4,NRST*%
%TO.N,RESET*%
X51301376Y-169129561D03*
%TO.P,U1,5,VDDA*%
%TO.N,+3V3*%
X51867061Y-168563876D03*
%TO.P,U1,6,PA0*%
%TO.N,C0*%
X52432747Y-167998190D03*
%TO.P,U1,7,PA1*%
%TO.N,C1*%
X52998432Y-167432505D03*
%TO.P,U1,8,PA2*%
%TO.N,C2*%
X53564118Y-166866820D03*
D26*
%TO.P,U1,9,PA3*%
%TO.N,C3*%
X53564118Y-164833180D03*
%TO.P,U1,10,PA4*%
%TO.N,C4*%
X52998432Y-164267495D03*
%TO.P,U1,11,PA5*%
%TO.N,C5*%
X52432747Y-163701810D03*
%TO.P,U1,12,PA6*%
%TO.N,C6*%
X51867061Y-163136124D03*
%TO.P,U1,13,PA7*%
%TO.N,C7*%
X51301376Y-162570439D03*
%TO.P,U1,14,PB0*%
%TO.N,C8*%
X50735690Y-162004753D03*
%TO.P,U1,15,PB1*%
%TO.N,C9*%
X50170005Y-161439068D03*
%TO.P,U1,16,VSS_1*%
%TO.N,GND*%
X49604320Y-160873382D03*
D25*
%TO.P,U1,17,VDD_2*%
%TO.N,+3V3*%
X47570680Y-160873382D03*
%TO.P,U1,18,PA8*%
%TO.N,C10*%
X47004995Y-161439068D03*
%TO.P,U1,19,PA9*%
%TO.N,C11*%
X46439310Y-162004753D03*
%TO.P,U1,20,PA10*%
%TO.N,C12*%
X45873624Y-162570439D03*
%TO.P,U1,21,PA11*%
%TO.N,D_N*%
X45307939Y-163136124D03*
%TO.P,U1,22,PA12*%
%TO.N,D_P*%
X44742253Y-163701810D03*
%TO.P,U1,23,PA13*%
%TO.N,SWDIO*%
X44176568Y-164267495D03*
%TO.P,U1,24,PA14*%
%TO.N,SWCLK*%
X43610882Y-164833180D03*
D26*
%TO.P,U1,25,PA15*%
%TO.N,STATUS_LED_DATA*%
X43610882Y-166866820D03*
%TO.P,U1,26,PB3*%
%TO.N,LED_DATA*%
X44176568Y-167432505D03*
%TO.P,U1,27,PB4*%
%TO.N,R0*%
X44742253Y-167998190D03*
%TO.P,U1,28,PB5*%
%TO.N,R1*%
X45307939Y-168563876D03*
%TO.P,U1,29,PB6*%
%TO.N,C13*%
X45873624Y-169129561D03*
%TO.P,U1,30,PB7*%
%TO.N,R2*%
X46439310Y-169695247D03*
%TO.P,U1,31,BOOT0*%
%TO.N,BOOT*%
X47004995Y-170260932D03*
%TO.P,U1,32,VSS_2*%
%TO.N,GND*%
X47570680Y-170826618D03*
%TD*%
D27*
%TO.P,V_REG,1,GND*%
%TO.N,GND*%
X46112500Y-130800000D03*
%TO.P,V_REG,2,VO*%
%TO.N,+3V3*%
X48412500Y-130800000D03*
%TO.P,V_REG,3,VI*%
%TO.N,+5V*%
X50712500Y-130800000D03*
D28*
%TO.P,V_REG,4*%
%TO.N,N/C*%
X48412500Y-125000000D03*
%TD*%
D29*
%TO.P,HOLE_M3,1*%
%TO.N,N/C*%
X61912500Y-123825000D03*
%TD*%
%TO.P,HOLE_M3,1*%
%TO.N,N/C*%
X319087500Y-123825000D03*
%TD*%
%TO.P,HOLE_M3,1*%
%TO.N,N/C*%
X61912500Y-180975000D03*
%TD*%
%TO.P,HOLE_M3,1*%
%TO.N,N/C*%
X319087500Y-180975000D03*
%TD*%
%TO.P,HOLE_M3,1*%
%TO.N,N/C*%
X142875000Y-166687500D03*
%TD*%
%TO.P,HOLE_M3,1*%
%TO.N,N/C*%
X238125000Y-166687500D03*
%TD*%
D30*
%TO.P,USBC1,A1,GND*%
%TO.N,GND*%
X53550000Y-111825000D03*
%TO.P,USBC1,A4,VBUS*%
%TO.N,+5V*%
X54400000Y-111825000D03*
%TO.P,USBC1,A5,CC1*%
%TO.N,Net-(R3-Pad2)*%
X55250000Y-111825000D03*
%TO.P,USBC1,A6,DP1*%
%TO.N,D_P*%
X56100000Y-111825000D03*
%TO.P,USBC1,A7,DN1*%
%TO.N,D_N*%
X56950000Y-111825000D03*
%TO.P,USBC1,A8,SBU1*%
%TO.N,unconnected-(USBC1-PadA8)*%
X57800000Y-111825000D03*
%TO.P,USBC1,A9,VBUS*%
%TO.N,+5V*%
X58650000Y-111825000D03*
%TO.P,USBC1,A12,GND*%
%TO.N,GND*%
X59500000Y-111825000D03*
%TO.P,USBC1,B1,GND*%
X59500000Y-110475000D03*
%TO.P,USBC1,B4,VBUS*%
%TO.N,+5V*%
X58650000Y-110475000D03*
%TO.P,USBC1,B5,CC2*%
%TO.N,Net-(R1-Pad2)*%
X57800000Y-110475000D03*
%TO.P,USBC1,B6,DP2*%
%TO.N,D_P*%
X56950000Y-110475000D03*
%TO.P,USBC1,B7,DN2*%
%TO.N,D_N*%
X56100000Y-110475000D03*
%TO.P,USBC1,B8,SBU2*%
%TO.N,unconnected-(USBC1-PadB8)*%
X55250000Y-110475000D03*
%TO.P,USBC1,B9,VBUS*%
%TO.N,+5V*%
X54400000Y-110475000D03*
%TO.P,USBC1,B12,GND*%
%TO.N,GND*%
X53550000Y-110475000D03*
D31*
%TO.P,USBC1,P1,SHELL*%
X52200000Y-110845000D03*
%TO.P,USBC1,P2,SHELL*%
X60850000Y-110845000D03*
%TO.P,USBC1,P3,SHELL*%
X60850000Y-107465000D03*
%TO.P,USBC1,P4,SHELL*%
X52200000Y-107465000D03*
%TD*%
D32*
%TO.N,GND*%
X55087500Y-158324500D03*
%TO.N,+3V3*%
X55350000Y-170673540D03*
X46350000Y-159150000D03*
X50850000Y-173650000D03*
%TO.N,RESET*%
X55350000Y-172900000D03*
D33*
%TO.N,R0*%
X42351491Y-173650000D03*
%TO.N,R1*%
X43350994Y-173650000D03*
%TO.N,R2*%
X45350000Y-173650000D03*
%TO.N,C13*%
X60850000Y-143900000D03*
X44350497Y-173650000D03*
%TD*%
D34*
%TO.N,GND*%
X52200000Y-110845000D02*
X50880000Y-110845000D01*
X41162509Y-134587509D02*
X41162509Y-129524991D01*
X60850000Y-107465000D02*
X60850000Y-110845000D01*
X44625000Y-130800000D02*
X46112500Y-130800000D01*
X52900000Y-111825000D02*
X52200000Y-111125000D01*
X60480000Y-110475000D02*
X60850000Y-110845000D01*
X55087500Y-159100000D02*
X55087500Y-158324500D01*
X50726262Y-159751440D02*
X53087500Y-159751440D01*
X52360000Y-141500000D02*
X52360000Y-138400000D01*
X60150000Y-111825000D02*
X60850000Y-111125000D01*
X44275000Y-129562500D02*
X44275000Y-130450000D01*
X52360000Y-138400000D02*
X52360000Y-135300000D01*
X53550000Y-111825000D02*
X52900000Y-111825000D01*
X53475000Y-141500000D02*
X54020000Y-140955000D01*
X42100000Y-121400000D02*
X41162509Y-120462509D01*
X50880000Y-110845000D02*
X49725000Y-112000000D01*
X54436060Y-159751440D02*
X55087500Y-159100000D01*
X47570680Y-170826618D02*
X48587500Y-169809798D01*
X42100000Y-117400000D02*
X41162509Y-116462509D01*
X41162509Y-115660709D02*
X41873698Y-114949520D01*
X41162509Y-118337491D02*
X42100000Y-117400000D01*
X52570000Y-110475000D02*
X52200000Y-110845000D01*
X49725000Y-113712500D02*
X49725000Y-112000000D01*
X52200000Y-111125000D02*
X52200000Y-110845000D01*
X44275000Y-130450000D02*
X44625000Y-130800000D01*
X54020000Y-140955000D02*
X55412500Y-140955000D01*
X42700000Y-127987500D02*
X41162509Y-126450009D01*
X48587500Y-161890202D02*
X49604320Y-160873382D01*
X48487980Y-114949520D02*
X49725000Y-113712500D01*
X41612500Y-135037500D02*
X41162509Y-134587509D01*
X48587500Y-169809798D02*
X48587500Y-161890202D01*
X60850000Y-111125000D02*
X60850000Y-110845000D01*
X42700000Y-127987500D02*
X44275000Y-129562500D01*
X49604320Y-160873382D02*
X50726262Y-159751440D01*
X41162509Y-129524991D02*
X42700000Y-127987500D01*
X41162509Y-126450009D02*
X41162509Y-122337491D01*
X41162509Y-122337491D02*
X42100000Y-121400000D01*
X59500000Y-110475000D02*
X60480000Y-110475000D01*
X41162509Y-116462509D02*
X41162509Y-115660709D01*
X41873698Y-114949520D02*
X48487980Y-114949520D01*
X41612500Y-135900000D02*
X41612500Y-135037500D01*
X52360000Y-141500000D02*
X53475000Y-141500000D01*
X52200000Y-107465000D02*
X52200000Y-110845000D01*
X53087500Y-159751440D02*
X54436060Y-159751440D01*
X59500000Y-111825000D02*
X60150000Y-111825000D01*
X41162509Y-120462509D02*
X41162509Y-118337491D01*
X53550000Y-110475000D02*
X52570000Y-110475000D01*
D35*
%TO.N,+5V*%
X53162500Y-130800000D02*
X54112500Y-129850000D01*
X51562500Y-133150000D02*
X50712500Y-132300000D01*
X52550000Y-126412500D02*
X54112500Y-127975000D01*
X54112500Y-129850000D02*
X54112500Y-127975000D01*
X55412500Y-134250000D02*
X54312500Y-133150000D01*
X54400000Y-115250000D02*
X52550000Y-117100000D01*
X54400000Y-111825000D02*
X54400000Y-115250000D01*
X50712500Y-132300000D02*
X50712500Y-130800000D01*
X52550000Y-117100000D02*
X52550000Y-126412500D01*
X54312500Y-133150000D02*
X51562500Y-133150000D01*
X55412500Y-135875000D02*
X55412500Y-134250000D01*
X50712500Y-130800000D02*
X53162500Y-130800000D01*
%TO.N,+3V3*%
X48412500Y-130800000D02*
X48412500Y-129062500D01*
X46350000Y-159650000D02*
X46350000Y-159150000D01*
X47212500Y-184400000D02*
X42100000Y-184400000D01*
X44740000Y-141500000D02*
X44740000Y-146390000D01*
X47570680Y-160870680D02*
X46600000Y-159900000D01*
X51867061Y-168563876D02*
X53976725Y-170673540D01*
X47562500Y-133150000D02*
X48412500Y-132300000D01*
X44740000Y-141500000D02*
X44740000Y-138400000D01*
X48412500Y-129062500D02*
X44837500Y-125487500D01*
X58200480Y-147850480D02*
X58200480Y-153630958D01*
X58200480Y-153630958D02*
X56804040Y-155027398D01*
X42162500Y-141500000D02*
X44740000Y-141500000D01*
X49604320Y-170826618D02*
X50481586Y-171703884D01*
X44740000Y-135300000D02*
X44740000Y-133972500D01*
X44837500Y-125487500D02*
X42700000Y-125487500D01*
X53587500Y-154337500D02*
X53587500Y-153000000D01*
X56804040Y-155027398D02*
X54277398Y-155027398D01*
X45562500Y-133150000D02*
X47562500Y-133150000D01*
X44740000Y-146390000D02*
X45450000Y-147100000D01*
X54277398Y-155027398D02*
X53587500Y-154337500D01*
X44740000Y-133972500D02*
X45562500Y-133150000D01*
X50481586Y-171703884D02*
X50850000Y-172072298D01*
X45450000Y-147100000D02*
X57450000Y-147100000D01*
X41612500Y-140900000D02*
X41612500Y-140950000D01*
X40850489Y-178149511D02*
X42100000Y-176900000D01*
X40850489Y-183150489D02*
X40850489Y-178149511D01*
X47570680Y-160873382D02*
X47570680Y-160870680D01*
X48462500Y-185650000D02*
X47212500Y-184400000D01*
X53976725Y-170673540D02*
X55350000Y-170673540D01*
X57450000Y-147100000D02*
X58200480Y-147850480D01*
X42100000Y-184400000D02*
X40850489Y-183150489D01*
X50850000Y-172072298D02*
X50850000Y-173650000D01*
X41612500Y-140950000D02*
X42162500Y-141500000D01*
X44740000Y-138400000D02*
X44740000Y-135300000D01*
X48412500Y-132300000D02*
X48412500Y-130800000D01*
X46600000Y-159900000D02*
X46350000Y-159650000D01*
D34*
%TO.N,RESET*%
X51900480Y-188349520D02*
X50462500Y-189787500D01*
X52100000Y-170423839D02*
X54576161Y-172900000D01*
X54800000Y-176900000D02*
X56669007Y-176900000D01*
X51301376Y-169129561D02*
X51329561Y-169129561D01*
X54576161Y-172900000D02*
X55350000Y-172900000D01*
X51329561Y-169129561D02*
X52100000Y-169900000D01*
X56786197Y-188349520D02*
X51900480Y-188349520D01*
X58381974Y-186753744D02*
X56786197Y-188349520D01*
X58381974Y-178612967D02*
X58381974Y-186753744D01*
X52100000Y-169900000D02*
X52100000Y-170423839D01*
X56669007Y-176900000D02*
X58381974Y-178612967D01*
X50462500Y-189787500D02*
X50462500Y-190900000D01*
%TO.N,SWCLK*%
X43610882Y-164833180D02*
X42652881Y-163875179D01*
X46804619Y-154702881D02*
X48507500Y-153000000D01*
X42652881Y-163875179D02*
X42652881Y-157282812D01*
X42652881Y-157282812D02*
X45232814Y-154702881D01*
X45232814Y-154702881D02*
X46804619Y-154702881D01*
%TO.N,SWDIO*%
X48895099Y-155152401D02*
X51047500Y-153000000D01*
X45419011Y-155152401D02*
X48895099Y-155152401D01*
X43102401Y-163193328D02*
X43102401Y-157469010D01*
X43102401Y-157469010D02*
X45419011Y-155152401D01*
X44176568Y-164267495D02*
X43102401Y-163193328D01*
%TO.N,Net-(CON2-Pad2)*%
X58325480Y-138975480D02*
X58325480Y-144624520D01*
X55412500Y-138415000D02*
X57765000Y-138415000D01*
X57800000Y-145150000D02*
X54800000Y-145150000D01*
X57765000Y-138415000D02*
X58325480Y-138975480D01*
X58325480Y-144624520D02*
X57800000Y-145150000D01*
%TO.N,Net-(D_0_0-Pad2)*%
X62687750Y-111760000D02*
X61912500Y-112535250D01*
X67627500Y-111760000D02*
X62687750Y-111760000D01*
%TO.N,R0*%
X42351491Y-170388952D02*
X42351491Y-173650000D01*
X257175000Y-120827250D02*
X276225000Y-120827250D01*
X142875000Y-120827250D02*
X161925000Y-120827250D01*
X104775000Y-120827250D02*
X123825000Y-120827250D01*
X161925000Y-120827250D02*
X180975000Y-120827250D01*
X295275000Y-120827250D02*
X319087500Y-120827250D01*
X238125000Y-120827250D02*
X257175000Y-120827250D01*
X123825000Y-120827250D02*
X142875000Y-120827250D01*
X200025000Y-120827250D02*
X219075000Y-120827250D01*
X276225000Y-120827250D02*
X295275000Y-120827250D01*
X85725000Y-120827250D02*
X104775000Y-120827250D01*
X61912500Y-120827250D02*
X85725000Y-120827250D01*
X44742253Y-167998190D02*
X42351491Y-170388952D01*
X180975000Y-120827250D02*
X200025000Y-120827250D01*
X219075000Y-120827250D02*
X238125000Y-120827250D01*
%TO.N,Net-(D_0_1-Pad2)*%
X86500250Y-111760000D02*
X85725000Y-112535250D01*
X91440000Y-111760000D02*
X86500250Y-111760000D01*
%TO.N,Net-(D_0_2-Pad2)*%
X105550250Y-111760000D02*
X104775000Y-112535250D01*
X110490000Y-111760000D02*
X105550250Y-111760000D01*
%TO.N,Net-(D_0_3-Pad2)*%
X124600250Y-111760000D02*
X123825000Y-112535250D01*
X129540000Y-111760000D02*
X124600250Y-111760000D01*
%TO.N,Net-(D_0_4-Pad2)*%
X143650250Y-111760000D02*
X142875000Y-112535250D01*
X148590000Y-111760000D02*
X143650250Y-111760000D01*
%TO.N,Net-(D_0_5-Pad2)*%
X167640000Y-111760000D02*
X162700250Y-111760000D01*
X162700250Y-111760000D02*
X161925000Y-112535250D01*
%TO.N,Net-(D_0_6-Pad2)*%
X186690000Y-111760000D02*
X181750250Y-111760000D01*
X181750250Y-111760000D02*
X180975000Y-112535250D01*
%TO.N,Net-(D_0_7-Pad2)*%
X205740000Y-111760000D02*
X200800250Y-111760000D01*
X200800250Y-111760000D02*
X200025000Y-112535250D01*
%TO.N,Net-(D_0_8-Pad2)*%
X224790000Y-111760000D02*
X219850250Y-111760000D01*
X219850250Y-111760000D02*
X219075000Y-112535250D01*
%TO.N,Net-(D_0_9-Pad2)*%
X238900250Y-111760000D02*
X238125000Y-112535250D01*
X243840000Y-111760000D02*
X238900250Y-111760000D01*
%TO.N,Net-(D_0_10-Pad2)*%
X257950250Y-111760000D02*
X257175000Y-112535250D01*
X262890000Y-111760000D02*
X257950250Y-111760000D01*
%TO.N,Net-(D_0_11-Pad2)*%
X281940000Y-111760000D02*
X277000250Y-111760000D01*
X277000250Y-111760000D02*
X276225000Y-112535250D01*
%TO.N,Net-(D_0_12-Pad2)*%
X300990000Y-111760000D02*
X296050250Y-111760000D01*
X296050250Y-111760000D02*
X295275000Y-112535250D01*
%TO.N,Net-(D_0_13-Pad2)*%
X319862750Y-111760000D02*
X319087500Y-112535250D01*
X324802500Y-111760000D02*
X319862750Y-111760000D01*
%TO.N,Net-(D_1_0-Pad2)*%
X62687750Y-130810000D02*
X61912500Y-131585250D01*
X67627500Y-130810000D02*
X62687750Y-130810000D01*
%TO.N,R1*%
X276225000Y-139877250D02*
X257175000Y-139877250D01*
X43350994Y-170520821D02*
X43350994Y-173650000D01*
X257175000Y-139877250D02*
X238125000Y-139877250D01*
X104775000Y-139877250D02*
X85725000Y-139877250D01*
X295275000Y-139877250D02*
X276225000Y-139877250D01*
X219075000Y-139877250D02*
X200025000Y-139877250D01*
X142875000Y-139877250D02*
X123825000Y-139877250D01*
X161925000Y-139877250D02*
X142875000Y-139877250D01*
X45307939Y-168563876D02*
X43350994Y-170520821D01*
X180975000Y-139877250D02*
X161925000Y-139877250D01*
X319087500Y-139877250D02*
X295275000Y-139877250D01*
X123825000Y-139877250D02*
X104775000Y-139877250D01*
X238125000Y-139877250D02*
X219075000Y-139877250D01*
X200025000Y-139877250D02*
X180975000Y-139877250D01*
X85725000Y-139877250D02*
X61912500Y-139877250D01*
%TO.N,Net-(D_1_1-Pad2)*%
X91440000Y-130810000D02*
X86500250Y-130810000D01*
X86500250Y-130810000D02*
X85725000Y-131585250D01*
%TO.N,Net-(D_1_2-Pad2)*%
X105550250Y-130810000D02*
X104775000Y-131585250D01*
X110490000Y-130810000D02*
X105550250Y-130810000D01*
%TO.N,Net-(D_1_3-Pad2)*%
X129540000Y-130810000D02*
X124600250Y-130810000D01*
X124600250Y-130810000D02*
X123825000Y-131585250D01*
%TO.N,Net-(D_1_4-Pad2)*%
X148590000Y-130810000D02*
X143650250Y-130810000D01*
X143650250Y-130810000D02*
X142875000Y-131585250D01*
%TO.N,Net-(D_1_5-Pad2)*%
X167640000Y-130810000D02*
X162700250Y-130810000D01*
X162700250Y-130810000D02*
X161925000Y-131585250D01*
%TO.N,Net-(D_1_6-Pad2)*%
X181750250Y-130810000D02*
X180975000Y-131585250D01*
X186690000Y-130810000D02*
X181750250Y-130810000D01*
%TO.N,Net-(D_1_7-Pad2)*%
X200800250Y-130810000D02*
X200025000Y-131585250D01*
X205740000Y-130810000D02*
X200800250Y-130810000D01*
%TO.N,Net-(D_1_8-Pad2)*%
X219850250Y-130810000D02*
X219075000Y-131585250D01*
X224790000Y-130810000D02*
X219850250Y-130810000D01*
%TO.N,Net-(D_1_9-Pad2)*%
X238900250Y-130810000D02*
X238125000Y-131585250D01*
X243840000Y-130810000D02*
X238900250Y-130810000D01*
%TO.N,Net-(D_1_10-Pad2)*%
X257950250Y-130810000D02*
X257175000Y-131585250D01*
X262890000Y-130810000D02*
X257950250Y-130810000D01*
%TO.N,Net-(D_1_11-Pad2)*%
X277000250Y-130810000D02*
X276225000Y-131585250D01*
X281940000Y-130810000D02*
X277000250Y-130810000D01*
%TO.N,Net-(D_1_12-Pad2)*%
X300990000Y-130810000D02*
X296050250Y-130810000D01*
X296050250Y-130810000D02*
X295275000Y-131585250D01*
%TO.N,Net-(D_1_13-Pad2)*%
X324802500Y-130810000D02*
X319862750Y-130810000D01*
X319862750Y-130810000D02*
X319087500Y-131585250D01*
%TO.N,Net-(D_2_0-Pad2)*%
X62687750Y-149860000D02*
X61912500Y-150635250D01*
X67627500Y-149860000D02*
X62687750Y-149860000D01*
%TO.N,R2*%
X180975000Y-158927250D02*
X200025000Y-158927250D01*
X123825000Y-158927250D02*
X142875000Y-158927250D01*
X142875000Y-158927250D02*
X161925000Y-158927250D01*
X104775000Y-158927250D02*
X123825000Y-158927250D01*
X61912500Y-158927250D02*
X85725000Y-158927250D01*
X238125000Y-158927250D02*
X257175000Y-158927250D01*
X46439310Y-169695247D02*
X45350000Y-170784557D01*
X257175000Y-158927250D02*
X276225000Y-158927250D01*
X161925000Y-158927250D02*
X180975000Y-158927250D01*
X200025000Y-158927250D02*
X219075000Y-158927250D01*
X219075000Y-158927250D02*
X238125000Y-158927250D01*
X276225000Y-158927250D02*
X300037500Y-158927250D01*
X85725000Y-158927250D02*
X104775000Y-158927250D01*
X300037500Y-158927250D02*
X323850000Y-158927250D01*
X45350000Y-170784557D02*
X45350000Y-173650000D01*
%TO.N,Net-(D_2_1-Pad2)*%
X91440000Y-149860000D02*
X86500250Y-149860000D01*
X86500250Y-149860000D02*
X85725000Y-150635250D01*
%TO.N,Net-(D_2_2-Pad2)*%
X110490000Y-149860000D02*
X105550250Y-149860000D01*
X105550250Y-149860000D02*
X104775000Y-150635250D01*
%TO.N,Net-(D_2_3-Pad2)*%
X129540000Y-149860000D02*
X124600250Y-149860000D01*
X124600250Y-149860000D02*
X123825000Y-150635250D01*
%TO.N,Net-(D_2_4-Pad2)*%
X148590000Y-149860000D02*
X143650250Y-149860000D01*
X143650250Y-149860000D02*
X142875000Y-150635250D01*
%TO.N,Net-(D_2_5-Pad2)*%
X162700250Y-149860000D02*
X161925000Y-150635250D01*
X167640000Y-149860000D02*
X162700250Y-149860000D01*
%TO.N,Net-(D_2_6-Pad2)*%
X181750250Y-149860000D02*
X180975000Y-150635250D01*
X186690000Y-149860000D02*
X181750250Y-149860000D01*
%TO.N,Net-(D_2_7-Pad2)*%
X205740000Y-149860000D02*
X200800250Y-149860000D01*
X200800250Y-149860000D02*
X200025000Y-150635250D01*
%TO.N,Net-(D_2_8-Pad2)*%
X219850250Y-149860000D02*
X219075000Y-150635250D01*
X224790000Y-149860000D02*
X219850250Y-149860000D01*
%TO.N,Net-(D_2_9-Pad2)*%
X238900250Y-149860000D02*
X238125000Y-150635250D01*
X243840000Y-149860000D02*
X238900250Y-149860000D01*
%TO.N,Net-(D_2_10-Pad2)*%
X262890000Y-149860000D02*
X257950250Y-149860000D01*
X257950250Y-149860000D02*
X257175000Y-150635250D01*
%TO.N,Net-(D_2_11-Pad2)*%
X281940000Y-149860000D02*
X277000250Y-149860000D01*
X277000250Y-149860000D02*
X276225000Y-150635250D01*
%TO.N,Net-(D_2_12-Pad2)*%
X300812750Y-149860000D02*
X300037500Y-150635250D01*
X305752500Y-149860000D02*
X300812750Y-149860000D01*
%TO.N,Net-(D_2_13-Pad2)*%
X329565000Y-149860000D02*
X324625250Y-149860000D01*
X324625250Y-149860000D02*
X323850000Y-150635250D01*
%TO.N,Net-(D_3_0-Pad2)*%
X67627500Y-168910000D02*
X62687750Y-168910000D01*
X62687750Y-168910000D02*
X61912500Y-169685250D01*
%TO.N,R3*%
X123825000Y-177977250D02*
X104775000Y-177977250D01*
X323850000Y-177977250D02*
X304800000Y-177977250D01*
X85725000Y-177977250D02*
X61912500Y-177977250D01*
X104775000Y-177977250D02*
X85725000Y-177977250D01*
X59017693Y-177977250D02*
X61912500Y-177977250D01*
X257175000Y-177977250D02*
X238125000Y-177977250D01*
X50735690Y-169695247D02*
X59017693Y-177977250D01*
X200025000Y-177977250D02*
X180975000Y-177977250D01*
X304800000Y-177977250D02*
X280987500Y-177977250D01*
X280987500Y-177977250D02*
X257175000Y-177977250D01*
X219075000Y-177977250D02*
X200025000Y-177977250D01*
X180975000Y-177977250D02*
X161925000Y-177977250D01*
X219075000Y-177977250D02*
X238125000Y-177977250D01*
X142875000Y-177977250D02*
X123825000Y-177977250D01*
X161925000Y-177977250D02*
X142875000Y-177977250D01*
%TO.N,Net-(D_3_1-Pad2)*%
X91440000Y-168910000D02*
X86500250Y-168910000D01*
X86500250Y-168910000D02*
X85725000Y-169685250D01*
%TO.N,Net-(D_3_2-Pad2)*%
X105550250Y-168910000D02*
X104775000Y-169685250D01*
X110490000Y-168910000D02*
X105550250Y-168910000D01*
%TO.N,Net-(D_3_3-Pad2)*%
X129540000Y-168910000D02*
X124600250Y-168910000D01*
X124600250Y-168910000D02*
X123825000Y-169685250D01*
%TO.N,Net-(D_3_4-Pad2)*%
X143650250Y-168910000D02*
X142875000Y-169685250D01*
X148590000Y-168910000D02*
X143650250Y-168910000D01*
%TO.N,Net-(D_3_5-Pad2)*%
X167640000Y-168910000D02*
X162700250Y-168910000D01*
X162700250Y-168910000D02*
X161925000Y-169685250D01*
%TO.N,Net-(D_3_6-Pad2)*%
X181750250Y-168910000D02*
X180975000Y-169685250D01*
X186690000Y-168910000D02*
X181750250Y-168910000D01*
%TO.N,Net-(D_3_7-Pad2)*%
X205740000Y-168910000D02*
X200800250Y-168910000D01*
X200800250Y-168910000D02*
X200025000Y-169685250D01*
%TO.N,Net-(D_3_8-Pad2)*%
X219850250Y-168910000D02*
X219075000Y-169685250D01*
X224790000Y-168910000D02*
X219850250Y-168910000D01*
%TO.N,Net-(D_3_9-Pad2)*%
X238900250Y-168910000D02*
X238125000Y-169685250D01*
X243840000Y-168910000D02*
X238900250Y-168910000D01*
%TO.N,Net-(D_3_10-Pad2)*%
X257950250Y-168910000D02*
X257175000Y-169685250D01*
X262890000Y-168910000D02*
X257950250Y-168910000D01*
%TO.N,Net-(D_3_11-Pad2)*%
X281762750Y-168910000D02*
X280987500Y-169685250D01*
X286702500Y-168910000D02*
X281762750Y-168910000D01*
%TO.N,Net-(D_3_12-Pad2)*%
X305575250Y-168910000D02*
X304800000Y-169685250D01*
X310515000Y-168910000D02*
X305575250Y-168910000D01*
%TO.N,Net-(D_3_13-Pad2)*%
X329565000Y-168910000D02*
X324625250Y-168910000D01*
X324625250Y-168910000D02*
X323850000Y-169685250D01*
%TO.N,Net-(D_4_0-Pad2)*%
X62687750Y-187960000D02*
X61912500Y-188735250D01*
X67627500Y-187960000D02*
X62687750Y-187960000D01*
%TO.N,R4*%
X61912500Y-197027250D02*
X85725000Y-197027250D01*
X304800000Y-197027250D02*
X323850000Y-197027250D01*
X304800000Y-197027250D02*
X285750000Y-197027250D01*
X238125000Y-197027250D02*
X257175000Y-197027250D01*
X257175000Y-197027250D02*
X285750000Y-197027250D01*
X138112500Y-197027250D02*
X161925000Y-197027250D01*
X219075000Y-197027250D02*
X238125000Y-197027250D01*
X85725000Y-197027250D02*
X104775000Y-197027250D01*
X51452364Y-171047638D02*
X58831494Y-178426770D01*
X50170005Y-170260932D02*
X50956711Y-171047638D01*
X58831494Y-178426770D02*
X58831494Y-195881494D01*
X58831494Y-195881494D02*
X59977250Y-197027250D01*
X161925000Y-197027250D02*
X185737500Y-197027250D01*
X185737500Y-197027250D02*
X219075000Y-197027250D01*
X59977250Y-197027250D02*
X61912500Y-197027250D01*
X104775000Y-197027250D02*
X138112500Y-197027250D01*
X50956711Y-171047638D02*
X51452364Y-171047638D01*
%TO.N,Net-(D_4_1-Pad2)*%
X91440000Y-187960000D02*
X86500250Y-187960000D01*
X86500250Y-187960000D02*
X85725000Y-188735250D01*
%TO.N,Net-(D_4_2-Pad2)*%
X110490000Y-187960000D02*
X105550250Y-187960000D01*
X105550250Y-187960000D02*
X104775000Y-188735250D01*
%TO.N,Net-(D_4_4-Pad2)*%
X138887750Y-187960000D02*
X138112500Y-188735250D01*
X143827500Y-187960000D02*
X138887750Y-187960000D01*
%TO.N,Net-(D_4_5-Pad2)*%
X167640000Y-187960000D02*
X162700250Y-187960000D01*
X162700250Y-187960000D02*
X161925000Y-188735250D01*
%TO.N,Net-(D_4_6-Pad2)*%
X191452500Y-187960000D02*
X186512750Y-187960000D01*
X186512750Y-187960000D02*
X185737500Y-188735250D01*
%TO.N,Net-(D_4_8-Pad2)*%
X224790000Y-187960000D02*
X219850250Y-187960000D01*
X219850250Y-187960000D02*
X219075000Y-188735250D01*
%TO.N,Net-(D_4_9-Pad2)*%
X238900250Y-187960000D02*
X238125000Y-188735250D01*
X243840000Y-187960000D02*
X238900250Y-187960000D01*
%TO.N,Net-(D_4_10-Pad2)*%
X262890000Y-187960000D02*
X257950250Y-187960000D01*
X257950250Y-187960000D02*
X257175000Y-188735250D01*
%TO.N,Net-(D_4_11-Pad2)*%
X291465000Y-187960000D02*
X286525250Y-187960000D01*
X286525250Y-187960000D02*
X285750000Y-188735250D01*
%TO.N,Net-(D_4_12-Pad2)*%
X310515000Y-187960000D02*
X305575250Y-187960000D01*
X305575250Y-187960000D02*
X304800000Y-188735250D01*
%TO.N,Net-(D_4_13-Pad2)*%
X324625250Y-187960000D02*
X323850000Y-188735250D01*
X329565000Y-187960000D02*
X324625250Y-187960000D01*
%TO.N,C0*%
X54183597Y-169749040D02*
X57359896Y-169749040D01*
X57359896Y-169749040D02*
X62859896Y-164249040D01*
X52432747Y-167998190D02*
X54183597Y-169749040D01*
X71856540Y-164249040D02*
X73977500Y-166370000D01*
X62859896Y-164249040D02*
X71856540Y-164249040D01*
%TO.N,C1*%
X52998432Y-167432505D02*
X54865447Y-169299520D01*
X54865447Y-169299520D02*
X57173698Y-169299520D01*
X62673698Y-163799520D02*
X95219520Y-163799520D01*
X57173698Y-169299520D02*
X62673698Y-163799520D01*
X95219520Y-163799520D02*
X97790000Y-166370000D01*
%TO.N,C2*%
X113820000Y-163350000D02*
X116840000Y-166370000D01*
X56987500Y-168850000D02*
X62487500Y-163350000D01*
X55547298Y-168850000D02*
X56987500Y-168850000D01*
X53564118Y-166866820D02*
X55547298Y-168850000D01*
X62487500Y-163350000D02*
X113820000Y-163350000D01*
%TO.N,C3*%
X55496818Y-162900480D02*
X132420480Y-162900480D01*
X53564118Y-164833180D02*
X55496818Y-162900480D01*
X132420480Y-162900480D02*
X135890000Y-166370000D01*
%TO.N,C4*%
X151020960Y-162450960D02*
X154940000Y-166370000D01*
X54814967Y-162450960D02*
X151020960Y-162450960D01*
X52998432Y-164267495D02*
X54814967Y-162450960D01*
%TO.N,C5*%
X54133117Y-162001440D02*
X169621440Y-162001440D01*
X52432747Y-163701810D02*
X54133117Y-162001440D01*
X169621440Y-162001440D02*
X173990000Y-166370000D01*
%TO.N,C6*%
X51867061Y-163136124D02*
X53451265Y-161551920D01*
X53451265Y-161551920D02*
X188221920Y-161551920D01*
X188221920Y-161551920D02*
X193040000Y-166370000D01*
%TO.N,C7*%
X51301376Y-162570439D02*
X52771815Y-161100000D01*
X52771815Y-161100000D02*
X206820000Y-161100000D01*
X206820000Y-161100000D02*
X212090000Y-166370000D01*
%TO.N,C8*%
X52089963Y-160650480D02*
X225420480Y-160650480D01*
X50735690Y-162004753D02*
X52089963Y-160650480D01*
X225420480Y-160650480D02*
X231140000Y-166370000D01*
%TO.N,C9*%
X50170005Y-161439068D02*
X51408113Y-160200960D01*
X244020960Y-160200960D02*
X250190000Y-166370000D01*
X51408113Y-160200960D02*
X244020960Y-160200960D01*
%TO.N,C10*%
X47004995Y-161439068D02*
X45350000Y-159784073D01*
X45350000Y-158400000D02*
X46350000Y-157400000D01*
X46350000Y-157400000D02*
X57786803Y-157400000D01*
X265969520Y-144049520D02*
X269240000Y-147320000D01*
X60573079Y-154613724D02*
X60573080Y-151900000D01*
X45350000Y-159784073D02*
X45350000Y-158400000D01*
X60573080Y-151900000D02*
X60573080Y-146676920D01*
X57786803Y-157400000D02*
X60573079Y-154613724D01*
X60573080Y-146676920D02*
X63200480Y-144049520D01*
X63200480Y-144049520D02*
X265969520Y-144049520D01*
%TO.N,C11*%
X46163803Y-156950480D02*
X57600605Y-156950480D01*
X60123560Y-146490722D02*
X63014282Y-143600000D01*
X284570000Y-143600000D02*
X288290000Y-147320000D01*
X60123560Y-151900000D02*
X60123560Y-146490722D01*
X60123559Y-154427526D02*
X60123560Y-151900000D01*
X44900480Y-158213802D02*
X46163803Y-156950480D01*
X44900480Y-160465923D02*
X44900480Y-158213802D01*
X57600605Y-156950480D02*
X60123559Y-154427526D01*
X46439310Y-162004753D02*
X44900480Y-160465923D01*
X63014282Y-143600000D02*
X284570000Y-143600000D01*
%TO.N,C12*%
X62828085Y-143150480D02*
X307932980Y-143150480D01*
X307932980Y-143150480D02*
X312102500Y-147320000D01*
X44450960Y-161147775D02*
X44450960Y-158027604D01*
X59674039Y-154241329D02*
X59674040Y-151400000D01*
X57414410Y-156500958D02*
X59674039Y-154241329D01*
X59674040Y-146304524D02*
X62828085Y-143150480D01*
X44450960Y-158027604D02*
X45977606Y-156500960D01*
X45977606Y-156500960D02*
X49850000Y-156500960D01*
X59674040Y-151400000D02*
X59674040Y-146304524D01*
X49850000Y-156500960D02*
X57414410Y-156500958D01*
X45873624Y-162570439D02*
X44450960Y-161147775D01*
%TO.N,C13*%
X45873624Y-169129561D02*
X44350497Y-170652688D01*
X331295960Y-142700960D02*
X335915000Y-147320000D01*
X60850000Y-143900000D02*
X61442848Y-143900000D01*
X62641888Y-142700960D02*
X331295960Y-142700960D01*
X61442848Y-143900000D02*
X62641888Y-142700960D01*
X44350497Y-170652688D02*
X44350497Y-173650000D01*
%TO.N,Net-(LED1-Pad2)*%
X42100000Y-149150000D02*
X40712989Y-147762989D01*
X40712989Y-115474511D02*
X41687500Y-114500000D01*
X46187500Y-114500000D02*
X47185000Y-113502500D01*
X41687500Y-114500000D02*
X46187500Y-114500000D01*
X47185000Y-113502500D02*
X47185000Y-112000000D01*
X40712989Y-147762989D02*
X40712989Y-115474511D01*
%TO.N,BOOT*%
X56600000Y-187900000D02*
X51850000Y-187900000D01*
X57932454Y-182150000D02*
X57932454Y-186567546D01*
X57932454Y-186567546D02*
X56600000Y-187900000D01*
X47004995Y-170260932D02*
X46350000Y-170915927D01*
X46350000Y-170915927D02*
X46350000Y-179650000D01*
X51850000Y-187900000D02*
X50462500Y-186512500D01*
X54800000Y-180900000D02*
X56682454Y-180900000D01*
X47600000Y-180900000D02*
X54800000Y-180900000D01*
X56682454Y-180900000D02*
X57932454Y-182150000D01*
X46350000Y-179650000D02*
X47600000Y-180900000D01*
X50462500Y-186512500D02*
X50462500Y-185650000D01*
%TO.N,Net-(R3-Pad2)*%
X55250000Y-112671436D02*
X58325480Y-115746916D01*
X58325480Y-120824520D02*
X57750000Y-121400000D01*
X57750000Y-121400000D02*
X54800000Y-121400000D01*
X55250000Y-111825000D02*
X55250000Y-112671436D01*
X58325480Y-115746916D02*
X58325480Y-120824520D01*
%TO.N,LED_DATA*%
X41100480Y-151613802D02*
X41863803Y-150850480D01*
X41913802Y-168099520D02*
X41150480Y-167336197D01*
X44176568Y-167432505D02*
X43509553Y-168099520D01*
X43224511Y-150075969D02*
X43224511Y-146274511D01*
X41100480Y-154886198D02*
X41100480Y-151613802D01*
X42450000Y-150850480D02*
X43224511Y-150075969D01*
X43509553Y-168099520D02*
X41913802Y-168099520D01*
X43224511Y-146274511D02*
X42100000Y-145150000D01*
X41150480Y-167336197D02*
X41150480Y-164363802D01*
X41863803Y-150850480D02*
X42450000Y-150850480D01*
X41753841Y-163760441D02*
X41753841Y-155539559D01*
X41753841Y-155539559D02*
X41100480Y-154886198D01*
X41150480Y-164363802D02*
X41753841Y-163760441D01*
%TO.N,STATUS_LED_DATA*%
X54800000Y-150850000D02*
X54800000Y-149150000D01*
X41550000Y-154700000D02*
X41550000Y-151800000D01*
X42100000Y-167650000D02*
X41600000Y-167150000D01*
X42827702Y-167650000D02*
X42100000Y-167650000D01*
X41600000Y-164550000D02*
X42203361Y-163946639D01*
X43610882Y-166866820D02*
X42827702Y-167650000D01*
X42050000Y-151300000D02*
X54350000Y-151300000D01*
X54350000Y-151300000D02*
X54800000Y-150850000D01*
X41550000Y-151800000D02*
X42050000Y-151300000D01*
X42203361Y-155353361D02*
X41550000Y-154700000D01*
X42203361Y-163946639D02*
X42203361Y-155353361D01*
X41600000Y-167150000D02*
X41600000Y-164550000D01*
%TO.N,D_P*%
X45605208Y-155601921D02*
X43551921Y-157655208D01*
X56100000Y-112885718D02*
X58775000Y-115560718D01*
X58775000Y-115560718D02*
X58775000Y-153868932D01*
X56100000Y-111393548D02*
X56950000Y-110543548D01*
D36*
X56950000Y-110475000D02*
X56950000Y-110550000D01*
D34*
X56100000Y-111825000D02*
X56100000Y-112885718D01*
X58775000Y-153868932D02*
X57042014Y-155601918D01*
X43551921Y-162511478D02*
X44742253Y-163701810D01*
X43551921Y-157655208D02*
X43551921Y-162511478D01*
X57042014Y-155601918D02*
X45605208Y-155601921D01*
X56950000Y-110543548D02*
X56950000Y-110475000D01*
X56100000Y-111825000D02*
X56100000Y-111393548D01*
%TO.N,D_N*%
X44001441Y-157841406D02*
X45791406Y-156051441D01*
X57228212Y-156051438D02*
X59224519Y-154055131D01*
X56950000Y-113100000D02*
X56950000Y-111825000D01*
X44001440Y-161829625D02*
X44001441Y-157841406D01*
X45791406Y-156051441D02*
X57228212Y-156051438D01*
X45307939Y-163136124D02*
X44001440Y-161829625D01*
X59224519Y-154055131D02*
X59224520Y-150400000D01*
X59224520Y-150400000D02*
X59224520Y-115374520D01*
X59224520Y-115374520D02*
X56950000Y-113100000D01*
%TD*%
M02*
