%TF.GenerationSoftware,KiCad,Pcbnew,(6.0.2)*%
%TF.CreationDate,2022-05-11T02:42:15-06:00*%
%TF.ProjectId,Uniform,556e6966-6f72-46d2-9e6b-696361645f70,rev?*%
%TF.SameCoordinates,Original*%
%TF.FileFunction,Legend,Bot*%
%TF.FilePolarity,Positive*%
%FSLAX46Y46*%
G04 Gerber Fmt 4.6, Leading zero omitted, Abs format (unit mm)*
G04 Created by KiCad (PCBNEW (6.0.2)) date 2022-05-11 02:42:15*
%MOMM*%
%LPD*%
G01*
G04 APERTURE LIST*
%ADD10C,0.150000*%
%ADD11C,0.200000*%
G04 APERTURE END LIST*
D10*
%TO.C,USBC1*%
X58750930Y-113102298D02*
X58750930Y-113911944D01*
X58703304Y-114007196D01*
X58655678Y-114054822D01*
X58560426Y-114102448D01*
X58369921Y-114102448D01*
X58274669Y-114054822D01*
X58227042Y-114007196D01*
X58179416Y-113911944D01*
X58179416Y-113102298D01*
X57750780Y-114054822D02*
X57607902Y-114102448D01*
X57369771Y-114102448D01*
X57274519Y-114054822D01*
X57226892Y-114007196D01*
X57179266Y-113911944D01*
X57179266Y-113816691D01*
X57226892Y-113721439D01*
X57274519Y-113673813D01*
X57369771Y-113626186D01*
X57560276Y-113578560D01*
X57655528Y-113530934D01*
X57703154Y-113483308D01*
X57750780Y-113388055D01*
X57750780Y-113292803D01*
X57703154Y-113197551D01*
X57655528Y-113149925D01*
X57560276Y-113102298D01*
X57322145Y-113102298D01*
X57179266Y-113149925D01*
X56417247Y-113578560D02*
X56274369Y-113626186D01*
X56226742Y-113673813D01*
X56179116Y-113769065D01*
X56179116Y-113911944D01*
X56226742Y-114007196D01*
X56274369Y-114054822D01*
X56369621Y-114102448D01*
X56750630Y-114102448D01*
X56750630Y-113102298D01*
X56417247Y-113102298D01*
X56321995Y-113149925D01*
X56274369Y-113197551D01*
X56226742Y-113292803D01*
X56226742Y-113388055D01*
X56274369Y-113483308D01*
X56321995Y-113530934D01*
X56417247Y-113578560D01*
X56750630Y-113578560D01*
X55178966Y-114007196D02*
X55226592Y-114054822D01*
X55369471Y-114102448D01*
X55464723Y-114102448D01*
X55607602Y-114054822D01*
X55702854Y-113959570D01*
X55750480Y-113864317D01*
X55798107Y-113673813D01*
X55798107Y-113530934D01*
X55750480Y-113340429D01*
X55702854Y-113245177D01*
X55607602Y-113149925D01*
X55464723Y-113102298D01*
X55369471Y-113102298D01*
X55226592Y-113149925D01*
X55178966Y-113197551D01*
X54226442Y-114102448D02*
X54797957Y-114102448D01*
X54512200Y-114102448D02*
X54512200Y-113102298D01*
X54607452Y-113245177D01*
X54702704Y-113340429D01*
X54797957Y-113388055D01*
D11*
X52050000Y-112385000D02*
X61000000Y-112385000D01*
X52050000Y-106075000D02*
X52050000Y-105725000D01*
X61000000Y-105725000D02*
X61000000Y-106075000D01*
X52050000Y-105725000D02*
X61000000Y-105725000D01*
%TO.C,G\u002A\u002A\u002A*%
G36*
X54878225Y-161986684D02*
G01*
X54878233Y-162031379D01*
X54878253Y-162106973D01*
X54878283Y-162176665D01*
X54878325Y-162240679D01*
X54878379Y-162299240D01*
X54878447Y-162352570D01*
X54878531Y-162400893D01*
X54878631Y-162444434D01*
X54878750Y-162483417D01*
X54878888Y-162518064D01*
X54879047Y-162548600D01*
X54879229Y-162575249D01*
X54879435Y-162598234D01*
X54879667Y-162617780D01*
X54879925Y-162634110D01*
X54880211Y-162647447D01*
X54880527Y-162658017D01*
X54880874Y-162666042D01*
X54881253Y-162671746D01*
X54881666Y-162675354D01*
X54882115Y-162677088D01*
X54882600Y-162677173D01*
X54883865Y-162675249D01*
X54888359Y-162668239D01*
X54895946Y-162656338D01*
X54906485Y-162639766D01*
X54919837Y-162618744D01*
X54935861Y-162593495D01*
X54954416Y-162564238D01*
X54975364Y-162531195D01*
X54998564Y-162494587D01*
X55023876Y-162454636D01*
X55051159Y-162411561D01*
X55080274Y-162365585D01*
X55111081Y-162316929D01*
X55143439Y-162265813D01*
X55177209Y-162212458D01*
X55212250Y-162157087D01*
X55248423Y-162099919D01*
X55285587Y-162041176D01*
X55323602Y-161981080D01*
X55760329Y-161290624D01*
X55878602Y-161290625D01*
X55996875Y-161290625D01*
X55996875Y-163156250D01*
X55737515Y-163156250D01*
X55736726Y-162471707D01*
X55735938Y-161787164D01*
X55298025Y-162470925D01*
X54860112Y-163154687D01*
X54620313Y-163154687D01*
X54620313Y-161292187D01*
X54878125Y-161290555D01*
X54878225Y-161986684D01*
G37*
G36*
X52118658Y-162174064D02*
G01*
X52118696Y-162225019D01*
X52118699Y-162240791D01*
X52118697Y-162294741D01*
X52118667Y-162342967D01*
X52118594Y-162385879D01*
X52118461Y-162423890D01*
X52118252Y-162457411D01*
X52117951Y-162486856D01*
X52117542Y-162512636D01*
X52117010Y-162535162D01*
X52116338Y-162554848D01*
X52115511Y-162572106D01*
X52114511Y-162587347D01*
X52113325Y-162600983D01*
X52111934Y-162613427D01*
X52110325Y-162625091D01*
X52108479Y-162636386D01*
X52106383Y-162647726D01*
X52104019Y-162659521D01*
X52101371Y-162672185D01*
X52095076Y-162699315D01*
X52076707Y-162760216D01*
X52053098Y-162818798D01*
X52024573Y-162874311D01*
X51991457Y-162926006D01*
X51986785Y-162932327D01*
X51972183Y-162950328D01*
X51954517Y-162970288D01*
X51935106Y-162990839D01*
X51915266Y-163010611D01*
X51896314Y-163028236D01*
X51879566Y-163042343D01*
X51874101Y-163046561D01*
X51825584Y-163079701D01*
X51773174Y-163108293D01*
X51717437Y-163132120D01*
X51658940Y-163150968D01*
X51598252Y-163164621D01*
X51535938Y-163172863D01*
X51528545Y-163173376D01*
X51511115Y-163174046D01*
X51489973Y-163174388D01*
X51466749Y-163174414D01*
X51443078Y-163174138D01*
X51420591Y-163173574D01*
X51400921Y-163172734D01*
X51385699Y-163171632D01*
X51385284Y-163171591D01*
X51320534Y-163162341D01*
X51258803Y-163147768D01*
X51200217Y-163127926D01*
X51144900Y-163102874D01*
X51092978Y-163072668D01*
X51044577Y-163037364D01*
X50999822Y-162997019D01*
X50989297Y-162986262D01*
X50951299Y-162942663D01*
X50918019Y-162896167D01*
X50889292Y-162846418D01*
X50864949Y-162793063D01*
X50844823Y-162735746D01*
X50828749Y-162674114D01*
X50816558Y-162607812D01*
X50816156Y-162605061D01*
X50815311Y-162598658D01*
X50814562Y-162591758D01*
X50813903Y-162583976D01*
X50813328Y-162574929D01*
X50812832Y-162564234D01*
X50812409Y-162551507D01*
X50812053Y-162536365D01*
X50811758Y-162518424D01*
X50811520Y-162497301D01*
X50811331Y-162472612D01*
X50811187Y-162443974D01*
X50811082Y-162411003D01*
X50811011Y-162373316D01*
X50810967Y-162330530D01*
X50810944Y-162282260D01*
X50810938Y-162228125D01*
X50810940Y-162220312D01*
X51079688Y-162220312D01*
X51079692Y-162271950D01*
X51079710Y-162320353D01*
X51079746Y-162363241D01*
X51079807Y-162400990D01*
X51079899Y-162433977D01*
X51080028Y-162462577D01*
X51080198Y-162487168D01*
X51080418Y-162508125D01*
X51080691Y-162525825D01*
X51081024Y-162540644D01*
X51081424Y-162552958D01*
X51081895Y-162563143D01*
X51082443Y-162571577D01*
X51083075Y-162578634D01*
X51083797Y-162584691D01*
X51084613Y-162590125D01*
X51085531Y-162595312D01*
X51095225Y-162637177D01*
X51111312Y-162684761D01*
X51131929Y-162728576D01*
X51156863Y-162768395D01*
X51185896Y-162803991D01*
X51218815Y-162835137D01*
X51255403Y-162861608D01*
X51295445Y-162883175D01*
X51338726Y-162899611D01*
X51385030Y-162910691D01*
X51421638Y-162915638D01*
X51471754Y-162917707D01*
X51520559Y-162914293D01*
X51567595Y-162905519D01*
X51612403Y-162891506D01*
X51654526Y-162872377D01*
X51693504Y-162848254D01*
X51728880Y-162819257D01*
X51749038Y-162798551D01*
X51777034Y-162762704D01*
X51801063Y-162722523D01*
X51820828Y-162678531D01*
X51836030Y-162631250D01*
X51837392Y-162626058D01*
X51839622Y-162617363D01*
X51841592Y-162609100D01*
X51843322Y-162600854D01*
X51844828Y-162592205D01*
X51846128Y-162582736D01*
X51847241Y-162572030D01*
X51848184Y-162559669D01*
X51848976Y-162545235D01*
X51849633Y-162528310D01*
X51850175Y-162508477D01*
X51850618Y-162485317D01*
X51850981Y-162458415D01*
X51851282Y-162427350D01*
X51851538Y-162391707D01*
X51851767Y-162351066D01*
X51851988Y-162305012D01*
X51852218Y-162253125D01*
X51852303Y-162233331D01*
X51852506Y-162179675D01*
X51852635Y-162131729D01*
X51852678Y-162089090D01*
X51852625Y-162051355D01*
X51852462Y-162018123D01*
X51852179Y-161988990D01*
X51851764Y-161963555D01*
X51851206Y-161941415D01*
X51850492Y-161922168D01*
X51849612Y-161905411D01*
X51848554Y-161890742D01*
X51847306Y-161877759D01*
X51845857Y-161866059D01*
X51844194Y-161855239D01*
X51842308Y-161844899D01*
X51840185Y-161834634D01*
X51828359Y-161790456D01*
X51810547Y-161744330D01*
X51788127Y-161702088D01*
X51761290Y-161663937D01*
X51730230Y-161630083D01*
X51695138Y-161600734D01*
X51656207Y-161576097D01*
X51613630Y-161556377D01*
X51567599Y-161541782D01*
X51562330Y-161540542D01*
X51537765Y-161536288D01*
X51509386Y-161533305D01*
X51479053Y-161531661D01*
X51448629Y-161531424D01*
X51419975Y-161532662D01*
X51394953Y-161535445D01*
X51360127Y-161542456D01*
X51314561Y-161556686D01*
X51272517Y-161576007D01*
X51234117Y-161600299D01*
X51199478Y-161629444D01*
X51168721Y-161663320D01*
X51141966Y-161701809D01*
X51119332Y-161744789D01*
X51100939Y-161792143D01*
X51086907Y-161843750D01*
X51079688Y-161876562D01*
X51079688Y-162220312D01*
X50810940Y-162220312D01*
X50810955Y-162171653D01*
X50811008Y-162119833D01*
X50811103Y-162073646D01*
X50811241Y-162032782D01*
X50811426Y-161996929D01*
X50811662Y-161965775D01*
X50811952Y-161939010D01*
X50812300Y-161916320D01*
X50812708Y-161897397D01*
X50813181Y-161881926D01*
X50813721Y-161869599D01*
X50814332Y-161860102D01*
X50815017Y-161853125D01*
X50822204Y-161805804D01*
X50836806Y-161740307D01*
X50856260Y-161678489D01*
X50880441Y-161620484D01*
X50909224Y-161566423D01*
X50942484Y-161516441D01*
X50980095Y-161470671D01*
X51021932Y-161429245D01*
X51067870Y-161392297D01*
X51117783Y-161359960D01*
X51171547Y-161332368D01*
X51229036Y-161309652D01*
X51290125Y-161291947D01*
X51354688Y-161279386D01*
X51360016Y-161278651D01*
X51381136Y-161276559D01*
X51406419Y-161275009D01*
X51434383Y-161274011D01*
X51463544Y-161273579D01*
X51492420Y-161273723D01*
X51519527Y-161274455D01*
X51543382Y-161275788D01*
X51562500Y-161277732D01*
X51601417Y-161284016D01*
X51663711Y-161298204D01*
X51721963Y-161316985D01*
X51776405Y-161340466D01*
X51827273Y-161368752D01*
X51874800Y-161401951D01*
X51919221Y-161440169D01*
X51955385Y-161477504D01*
X51990117Y-161520717D01*
X52020853Y-161567697D01*
X52048279Y-161619398D01*
X52056402Y-161636966D01*
X52077756Y-161690570D01*
X52094522Y-161745773D01*
X52107017Y-161803738D01*
X52115559Y-161865625D01*
X52115646Y-161866560D01*
X52116115Y-161875396D01*
X52116555Y-161890059D01*
X52116964Y-161910189D01*
X52117337Y-161935430D01*
X52117671Y-161965420D01*
X52117964Y-161999802D01*
X52118213Y-162038216D01*
X52118413Y-162080304D01*
X52118442Y-162089090D01*
X52118563Y-162125706D01*
X52118658Y-162174064D01*
G37*
G36*
X54196875Y-163156250D02*
G01*
X53934365Y-163156250D01*
X53935152Y-162224218D01*
X53935938Y-161292187D01*
X54066407Y-161291371D01*
X54196875Y-161290556D01*
X54196875Y-163156250D01*
G37*
G36*
X46965625Y-161306250D02*
G01*
X46725000Y-161306250D01*
X46725000Y-163337425D01*
X46844532Y-163338244D01*
X46964063Y-163339062D01*
X46965701Y-163575000D01*
X46475000Y-163575000D01*
X46475000Y-161071875D01*
X46965625Y-161071875D01*
X46965625Y-161306250D01*
G37*
G36*
X58371875Y-163575000D02*
G01*
X57881175Y-163575000D01*
X57882813Y-163339062D01*
X58002344Y-163338244D01*
X58121875Y-163337425D01*
X58121875Y-161306250D01*
X57881250Y-161306250D01*
X57881250Y-161071875D01*
X58371875Y-161071875D01*
X58371875Y-163575000D01*
G37*
G36*
X50190625Y-163156250D02*
G01*
X50190625Y-162368750D01*
X49996094Y-162368801D01*
X49801563Y-162368853D01*
X49603125Y-162762495D01*
X49404688Y-163156137D01*
X49249066Y-163156193D01*
X49093445Y-163156250D01*
X49104185Y-163136718D01*
X49106113Y-163133200D01*
X49114370Y-163117973D01*
X49124800Y-163098539D01*
X49137208Y-163075273D01*
X49151398Y-163048549D01*
X49167175Y-163018740D01*
X49184343Y-162986223D01*
X49202707Y-162951371D01*
X49222071Y-162914559D01*
X49242239Y-162876162D01*
X49263017Y-162836553D01*
X49284207Y-162796108D01*
X49305615Y-162755201D01*
X49327045Y-162714206D01*
X49348302Y-162673498D01*
X49369189Y-162633452D01*
X49389512Y-162594442D01*
X49409074Y-162556843D01*
X49427680Y-162521028D01*
X49445135Y-162487373D01*
X49461243Y-162456252D01*
X49475808Y-162428040D01*
X49488635Y-162403111D01*
X49499528Y-162381840D01*
X49508291Y-162364601D01*
X49514729Y-162351768D01*
X49518647Y-162343717D01*
X49519848Y-162340821D01*
X49518666Y-162340091D01*
X49512517Y-162337204D01*
X49502677Y-162333056D01*
X49490625Y-162328282D01*
X49482075Y-162324901D01*
X49432204Y-162301404D01*
X49386063Y-162273012D01*
X49343857Y-162239969D01*
X49305787Y-162202521D01*
X49272056Y-162160915D01*
X49242868Y-162115395D01*
X49218425Y-162066208D01*
X49198930Y-162013598D01*
X49184587Y-161957812D01*
X49184161Y-161955703D01*
X49176389Y-161904144D01*
X49172916Y-161850012D01*
X49173047Y-161840351D01*
X49450765Y-161840351D01*
X49454142Y-161881427D01*
X49461842Y-161921513D01*
X49473879Y-161959800D01*
X49490269Y-161995478D01*
X49511025Y-162027737D01*
X49523702Y-162042863D01*
X49549890Y-162066977D01*
X49579927Y-162087080D01*
X49612767Y-162102519D01*
X49647363Y-162112642D01*
X49651109Y-162113391D01*
X49656711Y-162114382D01*
X49662774Y-162115241D01*
X49669743Y-162115978D01*
X49678065Y-162116602D01*
X49688183Y-162117122D01*
X49700544Y-162117549D01*
X49715593Y-162117891D01*
X49733775Y-162118158D01*
X49755535Y-162118359D01*
X49781318Y-162118503D01*
X49811571Y-162118601D01*
X49846737Y-162118662D01*
X49887263Y-162118694D01*
X49933594Y-162118708D01*
X50190625Y-162118750D01*
X50190625Y-161537115D01*
X49927344Y-161538341D01*
X49911773Y-161538414D01*
X49866555Y-161538640D01*
X49827028Y-161538864D01*
X49792769Y-161539097D01*
X49763352Y-161539348D01*
X49738354Y-161539629D01*
X49717350Y-161539948D01*
X49699915Y-161540316D01*
X49685627Y-161540744D01*
X49674059Y-161541241D01*
X49664788Y-161541817D01*
X49657390Y-161542482D01*
X49651440Y-161543247D01*
X49646514Y-161544122D01*
X49642188Y-161545116D01*
X49639784Y-161545739D01*
X49605258Y-161557788D01*
X49572711Y-161574816D01*
X49543352Y-161596084D01*
X49518392Y-161620851D01*
X49498208Y-161648466D01*
X49480191Y-161682345D01*
X49466424Y-161719282D01*
X49456921Y-161758469D01*
X49451696Y-161799095D01*
X49450765Y-161840351D01*
X49173047Y-161840351D01*
X49173667Y-161794795D01*
X49178568Y-161739980D01*
X49187545Y-161687052D01*
X49200524Y-161637500D01*
X49204528Y-161625721D01*
X49214772Y-161599925D01*
X49227328Y-161572338D01*
X49241230Y-161544922D01*
X49255508Y-161519637D01*
X49269194Y-161498443D01*
X49272243Y-161494220D01*
X49290097Y-161471931D01*
X49311315Y-161448597D01*
X49334283Y-161425836D01*
X49357382Y-161405266D01*
X49378998Y-161388504D01*
X49379239Y-161388335D01*
X49424789Y-161360026D01*
X49474308Y-161336236D01*
X49527257Y-161317160D01*
X49583096Y-161302993D01*
X49641284Y-161293930D01*
X49641812Y-161293876D01*
X49650827Y-161293324D01*
X49665983Y-161292822D01*
X49687182Y-161292369D01*
X49714323Y-161291967D01*
X49747308Y-161291615D01*
X49786037Y-161291316D01*
X49830411Y-161291069D01*
X49880332Y-161290876D01*
X49935699Y-161290737D01*
X49996414Y-161290653D01*
X50062377Y-161290625D01*
X50453125Y-161290625D01*
X50453125Y-163156250D01*
X50190625Y-163156250D01*
G37*
G36*
X53512500Y-163156250D02*
G01*
X53250000Y-163156250D01*
X53250000Y-162371875D01*
X52481250Y-162371875D01*
X52481250Y-162121875D01*
X53250000Y-162121875D01*
X53250000Y-161540625D01*
X52340625Y-161540625D01*
X52340625Y-161290625D01*
X53512500Y-161290625D01*
X53512500Y-163156250D01*
G37*
G36*
X56499134Y-161291371D02*
G01*
X56629688Y-161292187D01*
X56631419Y-161934375D01*
X56631566Y-161988111D01*
X56631764Y-162058801D01*
X56631955Y-162123686D01*
X56632141Y-162183025D01*
X56632326Y-162237080D01*
X56632512Y-162286111D01*
X56632702Y-162330378D01*
X56632899Y-162370140D01*
X56633104Y-162405660D01*
X56633323Y-162437196D01*
X56633556Y-162465009D01*
X56633807Y-162489359D01*
X56634078Y-162510507D01*
X56634372Y-162528713D01*
X56634693Y-162544238D01*
X56635042Y-162557340D01*
X56635423Y-162568282D01*
X56635838Y-162577323D01*
X56636290Y-162584723D01*
X56636782Y-162590743D01*
X56637317Y-162595643D01*
X56637897Y-162599684D01*
X56638525Y-162603125D01*
X56641000Y-162614807D01*
X56654629Y-162665456D01*
X56672034Y-162711213D01*
X56693313Y-162752222D01*
X56718562Y-162788629D01*
X56747879Y-162820578D01*
X56781361Y-162848214D01*
X56819105Y-162871681D01*
X56840083Y-162881922D01*
X56880329Y-162896932D01*
X56924080Y-162908008D01*
X56970341Y-162914973D01*
X57018116Y-162917648D01*
X57066407Y-162915855D01*
X57104573Y-162911429D01*
X57149985Y-162902386D01*
X57191174Y-162889430D01*
X57228662Y-162872352D01*
X57262972Y-162850944D01*
X57294625Y-162825000D01*
X57319278Y-162799849D01*
X57345744Y-162766001D01*
X57367840Y-162728842D01*
X57385719Y-162688015D01*
X57399532Y-162643160D01*
X57409431Y-162593919D01*
X57415570Y-162539935D01*
X57415721Y-162537498D01*
X57416115Y-162526698D01*
X57416484Y-162509864D01*
X57416828Y-162487154D01*
X57417147Y-162458724D01*
X57417439Y-162424733D01*
X57417703Y-162385337D01*
X57417940Y-162340695D01*
X57418147Y-162290965D01*
X57418325Y-162236302D01*
X57418473Y-162176866D01*
X57418589Y-162112813D01*
X57418673Y-162044301D01*
X57418725Y-161971488D01*
X57418743Y-161894531D01*
X57418750Y-161290625D01*
X57678282Y-161290625D01*
X57677333Y-161939843D01*
X57676384Y-162589062D01*
X57669341Y-162632812D01*
X57663935Y-162663776D01*
X57652138Y-162717729D01*
X57637830Y-162767562D01*
X57620652Y-162814461D01*
X57600242Y-162859607D01*
X57596306Y-162867405D01*
X57566739Y-162918475D01*
X57532847Y-162965054D01*
X57494685Y-163007105D01*
X57452307Y-163044595D01*
X57405766Y-163077490D01*
X57355115Y-163105755D01*
X57300410Y-163129355D01*
X57241703Y-163148256D01*
X57179049Y-163162424D01*
X57112500Y-163171824D01*
X57097219Y-163172965D01*
X57074373Y-163173789D01*
X57047889Y-163174057D01*
X57019177Y-163173806D01*
X56989642Y-163173073D01*
X56960691Y-163171894D01*
X56933732Y-163170306D01*
X56910171Y-163168347D01*
X56891415Y-163166051D01*
X56861219Y-163160826D01*
X56798674Y-163146054D01*
X56740263Y-163126598D01*
X56686000Y-163102474D01*
X56635899Y-163073696D01*
X56589974Y-163040281D01*
X56548239Y-163002243D01*
X56510709Y-162959598D01*
X56477396Y-162912360D01*
X56448316Y-162860545D01*
X56423482Y-162804167D01*
X56402908Y-162743242D01*
X56386608Y-162677786D01*
X56374596Y-162607812D01*
X56374300Y-162605076D01*
X56373841Y-162598252D01*
X56373413Y-162588345D01*
X56373013Y-162575156D01*
X56372642Y-162558488D01*
X56372296Y-162538142D01*
X56371976Y-162513920D01*
X56371678Y-162485626D01*
X56371403Y-162453061D01*
X56371148Y-162416026D01*
X56370911Y-162374325D01*
X56370693Y-162327759D01*
X56370490Y-162276130D01*
X56370302Y-162219241D01*
X56370127Y-162156894D01*
X56369964Y-162088890D01*
X56369811Y-162015032D01*
X56369667Y-161935121D01*
X56368579Y-161290556D01*
X56499134Y-161291371D01*
G37*
G36*
X48778125Y-163156250D02*
G01*
X48521891Y-163156250D01*
X48521102Y-162529514D01*
X48520313Y-161902779D01*
X48077169Y-162896875D01*
X47894720Y-162896875D01*
X47673141Y-162387434D01*
X47451563Y-161877994D01*
X47450774Y-162517122D01*
X47449986Y-163156250D01*
X47193750Y-163156250D01*
X47193750Y-161290552D01*
X47316187Y-161291369D01*
X47438624Y-161292187D01*
X47711030Y-161904687D01*
X47711412Y-161905545D01*
X47737530Y-161964244D01*
X47762988Y-162021410D01*
X47787669Y-162076779D01*
X47811455Y-162130092D01*
X47834229Y-162181087D01*
X47855874Y-162229504D01*
X47876273Y-162275080D01*
X47895309Y-162317555D01*
X47912864Y-162356667D01*
X47928821Y-162392157D01*
X47943064Y-162423761D01*
X47955474Y-162451220D01*
X47965934Y-162474272D01*
X47974328Y-162492655D01*
X47980538Y-162506110D01*
X47984447Y-162514374D01*
X47985938Y-162517187D01*
X47985942Y-162517186D01*
X47987468Y-162514293D01*
X47991411Y-162505952D01*
X47997654Y-162492424D01*
X48006078Y-162473971D01*
X48016568Y-162450854D01*
X48029005Y-162423333D01*
X48043273Y-162391671D01*
X48059254Y-162356128D01*
X48076832Y-162316965D01*
X48095888Y-162274443D01*
X48116306Y-162228824D01*
X48137968Y-162180369D01*
X48160758Y-162129338D01*
X48184558Y-162075993D01*
X48209250Y-162020596D01*
X48234719Y-161963407D01*
X48260846Y-161904687D01*
X48533252Y-161292187D01*
X48655689Y-161291369D01*
X48778125Y-161290552D01*
X48778125Y-163156250D01*
G37*
G36*
X43853898Y-166395769D02*
G01*
X43907261Y-166403250D01*
X43956803Y-166415983D01*
X44002485Y-166434264D01*
X44045274Y-166458482D01*
X44086140Y-166489027D01*
X44105829Y-166505589D01*
X44105829Y-166652940D01*
X44080515Y-166628056D01*
X44068611Y-166616819D01*
X44032586Y-166587361D01*
X43993651Y-166561369D01*
X43953685Y-166540018D01*
X43914569Y-166524480D01*
X43885219Y-166516476D01*
X43842875Y-166509933D01*
X43801867Y-166509368D01*
X43762913Y-166514607D01*
X43726730Y-166525479D01*
X43694037Y-166541809D01*
X43665553Y-166563426D01*
X43641994Y-166590155D01*
X43638439Y-166595225D01*
X43625446Y-166616166D01*
X43616116Y-166636638D01*
X43609852Y-166658603D01*
X43606057Y-166684029D01*
X43604136Y-166714881D01*
X43603851Y-166742245D01*
X43606717Y-166784689D01*
X43614082Y-166823042D01*
X43626257Y-166858723D01*
X43643558Y-166893153D01*
X43652144Y-166907289D01*
X43668253Y-166930817D01*
X43686524Y-166953696D01*
X43707686Y-166976648D01*
X43732467Y-167000394D01*
X43761597Y-167025657D01*
X43795803Y-167053158D01*
X43835815Y-167083620D01*
X43838051Y-167085288D01*
X43890560Y-167125061D01*
X43936976Y-167161614D01*
X43977669Y-167195484D01*
X44013010Y-167227209D01*
X44043368Y-167257327D01*
X44069114Y-167286375D01*
X44090618Y-167314890D01*
X44108251Y-167343410D01*
X44122383Y-167372474D01*
X44133384Y-167402617D01*
X44141625Y-167434379D01*
X44147476Y-167468296D01*
X44151308Y-167504906D01*
X44153490Y-167544747D01*
X44155724Y-167607563D01*
X43415609Y-167607563D01*
X43416639Y-167546622D01*
X43417670Y-167485682D01*
X43714872Y-167484722D01*
X43742352Y-167484631D01*
X43793121Y-167484451D01*
X43837111Y-167484266D01*
X43874803Y-167484063D01*
X43906681Y-167483831D01*
X43933228Y-167483558D01*
X43954928Y-167483232D01*
X43972263Y-167482839D01*
X43985717Y-167482368D01*
X43995773Y-167481807D01*
X44002915Y-167481144D01*
X44007625Y-167480366D01*
X44010387Y-167479461D01*
X44011684Y-167478417D01*
X44012000Y-167477221D01*
X44011140Y-167465616D01*
X44008862Y-167448887D01*
X44005675Y-167430511D01*
X44002084Y-167413384D01*
X43998594Y-167400405D01*
X43995975Y-167393354D01*
X43984349Y-167370638D01*
X43967498Y-167345722D01*
X43946316Y-167319845D01*
X43921702Y-167294243D01*
X43918395Y-167291087D01*
X43908700Y-167282134D01*
X43897916Y-167272667D01*
X43885488Y-167262253D01*
X43870863Y-167250461D01*
X43853485Y-167236862D01*
X43832800Y-167221025D01*
X43808253Y-167202519D01*
X43779290Y-167180914D01*
X43745356Y-167155778D01*
X43705896Y-167126681D01*
X43682483Y-167109043D01*
X43635200Y-167070343D01*
X43594596Y-167032210D01*
X43560200Y-166994035D01*
X43531543Y-166955210D01*
X43508153Y-166915129D01*
X43489561Y-166873182D01*
X43475295Y-166828763D01*
X43471022Y-166807583D01*
X43467773Y-166780799D01*
X43465674Y-166750744D01*
X43464782Y-166719510D01*
X43465157Y-166689190D01*
X43466858Y-166661876D01*
X43469945Y-166639661D01*
X43475166Y-166617590D01*
X43490780Y-166573836D01*
X43512303Y-166534264D01*
X43539374Y-166499104D01*
X43571631Y-166468585D01*
X43608715Y-166442937D01*
X43650264Y-166422388D01*
X43695917Y-166407167D01*
X43745315Y-166397505D01*
X43798095Y-166393629D01*
X43853898Y-166395769D01*
G37*
G36*
X44195833Y-165901229D02*
G01*
X44061235Y-165901229D01*
X44059943Y-165632153D01*
X44059839Y-165610609D01*
X44059595Y-165562036D01*
X44059358Y-165520165D01*
X44059108Y-165484427D01*
X44058828Y-165454253D01*
X44058499Y-165429074D01*
X44058104Y-165408320D01*
X44057623Y-165391422D01*
X44057039Y-165377811D01*
X44056332Y-165366917D01*
X44055486Y-165358173D01*
X44054481Y-165351007D01*
X44053299Y-165344851D01*
X44051923Y-165339137D01*
X44050333Y-165333294D01*
X44036440Y-165293940D01*
X44016550Y-165255825D01*
X43991944Y-165222265D01*
X43963168Y-165193886D01*
X43930767Y-165171315D01*
X43895286Y-165155176D01*
X43887887Y-165152863D01*
X43860590Y-165147242D01*
X43830566Y-165144594D01*
X43800941Y-165145083D01*
X43774841Y-165148872D01*
X43759210Y-165153118D01*
X43727299Y-165166237D01*
X43700346Y-165184448D01*
X43677910Y-165208175D01*
X43659551Y-165237840D01*
X43644830Y-165273867D01*
X43643431Y-165278139D01*
X43640158Y-165288782D01*
X43637316Y-165299435D01*
X43634874Y-165310674D01*
X43632803Y-165323076D01*
X43631071Y-165337216D01*
X43629649Y-165353670D01*
X43628507Y-165373016D01*
X43627614Y-165395829D01*
X43626941Y-165422685D01*
X43626457Y-165454160D01*
X43626133Y-165490831D01*
X43625938Y-165533273D01*
X43625842Y-165582064D01*
X43625816Y-165637778D01*
X43625805Y-165901229D01*
X43490798Y-165901229D01*
X43490873Y-165605902D01*
X43490898Y-165574029D01*
X43491015Y-165522650D01*
X43491221Y-165474956D01*
X43491510Y-165431422D01*
X43491877Y-165392528D01*
X43492316Y-165358748D01*
X43492821Y-165330561D01*
X43493387Y-165308443D01*
X43494009Y-165292872D01*
X43494679Y-165284324D01*
X43500074Y-165253044D01*
X43512711Y-165205423D01*
X43529943Y-165163649D01*
X43551868Y-165127598D01*
X43578584Y-165097147D01*
X43610188Y-165072173D01*
X43646777Y-165052551D01*
X43688448Y-165038157D01*
X43689883Y-165037783D01*
X43714543Y-165033208D01*
X43743877Y-165030482D01*
X43775497Y-165029604D01*
X43807016Y-165030576D01*
X43836043Y-165033400D01*
X43860191Y-165038076D01*
X43873133Y-165041808D01*
X43916905Y-165058968D01*
X43956437Y-165082136D01*
X43992340Y-165111653D01*
X44003771Y-165123037D01*
X44018394Y-165138765D01*
X44031160Y-165153718D01*
X44040200Y-165165786D01*
X44041067Y-165167090D01*
X44048657Y-165177936D01*
X44054721Y-165185634D01*
X44058014Y-165188590D01*
X44058439Y-165185457D01*
X44058876Y-165175389D01*
X44059284Y-165158954D01*
X44059657Y-165136737D01*
X44059989Y-165109327D01*
X44060274Y-165077310D01*
X44060507Y-165041275D01*
X44060680Y-165001809D01*
X44060789Y-164959498D01*
X44060826Y-164914930D01*
X44060826Y-164641167D01*
X44195833Y-164641167D01*
X44195833Y-165901229D01*
G37*
G36*
X53166274Y-167607563D02*
G01*
X53031268Y-167607563D01*
X53031268Y-166756271D01*
X53166274Y-166756271D01*
X53166274Y-167607563D01*
G37*
G36*
X45845914Y-165901229D02*
G01*
X45710908Y-165901229D01*
X45710908Y-165049937D01*
X45845914Y-165049937D01*
X45845914Y-165901229D01*
G37*
G36*
X56036206Y-165539398D02*
G01*
X56030170Y-165595215D01*
X56019492Y-165648548D01*
X56004117Y-165698100D01*
X55985220Y-165740556D01*
X55959256Y-165783141D01*
X55928418Y-165820695D01*
X55893148Y-165852823D01*
X55853887Y-165879130D01*
X55811075Y-165899218D01*
X55765152Y-165912693D01*
X55751515Y-165915144D01*
X55720944Y-165918422D01*
X55686398Y-165919667D01*
X55651041Y-165918517D01*
X55600934Y-165911702D01*
X55554981Y-165898700D01*
X55513010Y-165879427D01*
X55474849Y-165853798D01*
X55440328Y-165821729D01*
X55409275Y-165783135D01*
X55388259Y-165753171D01*
X55386225Y-165901229D01*
X55251377Y-165901229D01*
X55251377Y-165451207D01*
X55386595Y-165451207D01*
X55386650Y-165466486D01*
X55387852Y-165512142D01*
X55390791Y-165551762D01*
X55395684Y-165586360D01*
X55402751Y-165616950D01*
X55412210Y-165644545D01*
X55424281Y-165670159D01*
X55439181Y-165694806D01*
X55444839Y-165703010D01*
X55471582Y-165735483D01*
X55501079Y-165761316D01*
X55533971Y-165780995D01*
X55570899Y-165795007D01*
X55572656Y-165795512D01*
X55588870Y-165799567D01*
X55604476Y-165802030D01*
X55622166Y-165803210D01*
X55644634Y-165803412D01*
X55660596Y-165803091D01*
X55688925Y-165801009D01*
X55713097Y-165796633D01*
X55735243Y-165789507D01*
X55757492Y-165779172D01*
X55785627Y-165761484D01*
X55815833Y-165734650D01*
X55841799Y-165702222D01*
X55863168Y-165664744D01*
X55879582Y-165622758D01*
X55890684Y-165576808D01*
X55893739Y-165554644D01*
X55896209Y-165519546D01*
X55896638Y-165481635D01*
X55895119Y-165442941D01*
X55891747Y-165405493D01*
X55886617Y-165371320D01*
X55879821Y-165342451D01*
X55870666Y-165315331D01*
X55851172Y-165273042D01*
X55827125Y-165236456D01*
X55798722Y-165205739D01*
X55766160Y-165181059D01*
X55729637Y-165162580D01*
X55689348Y-165150470D01*
X55645490Y-165144893D01*
X55608194Y-165145284D01*
X55566391Y-165151818D01*
X55528061Y-165164942D01*
X55493305Y-165184621D01*
X55462221Y-165210819D01*
X55444859Y-165229614D01*
X55427529Y-165252453D01*
X55413731Y-165276544D01*
X55403148Y-165302901D01*
X55395461Y-165332534D01*
X55390352Y-165366455D01*
X55387503Y-165405675D01*
X55386595Y-165451207D01*
X55251377Y-165451207D01*
X55251377Y-164641167D01*
X55390134Y-164641167D01*
X55390134Y-165167968D01*
X55403884Y-165147392D01*
X55419581Y-165126988D01*
X55441156Y-165104343D01*
X55464819Y-165083763D01*
X55488030Y-165067654D01*
X55494745Y-165063840D01*
X55533217Y-165046808D01*
X55575399Y-165035308D01*
X55620195Y-165029301D01*
X55666507Y-165028749D01*
X55713238Y-165033611D01*
X55759291Y-165043850D01*
X55803568Y-165059426D01*
X55844971Y-165080301D01*
X55852602Y-165085053D01*
X55882417Y-165107585D01*
X55911880Y-165135710D01*
X55939726Y-165167996D01*
X55964688Y-165203011D01*
X55985502Y-165239321D01*
X55998584Y-165268472D01*
X56014973Y-165317245D01*
X56026983Y-165370022D01*
X56034560Y-165425504D01*
X56037611Y-165481635D01*
X56037652Y-165482396D01*
X56036206Y-165539398D01*
G37*
G36*
X59331578Y-167607563D02*
G01*
X59196571Y-167607563D01*
X59196571Y-166347501D01*
X59331578Y-166347501D01*
X59331578Y-167607563D01*
G37*
G36*
X52666562Y-166523857D02*
G01*
X52733128Y-166545593D01*
X52735120Y-166756271D01*
X52881260Y-166756271D01*
X52881260Y-166868776D01*
X52735307Y-166868776D01*
X52734025Y-167158478D01*
X52733900Y-167186225D01*
X52733649Y-167236819D01*
X52733390Y-167280705D01*
X52733110Y-167318413D01*
X52732796Y-167350472D01*
X52732434Y-167377413D01*
X52732013Y-167399764D01*
X52731518Y-167418056D01*
X52730936Y-167432819D01*
X52730255Y-167444581D01*
X52729462Y-167453873D01*
X52728543Y-167461225D01*
X52727485Y-167467166D01*
X52726275Y-167472225D01*
X52714706Y-167505884D01*
X52696737Y-167539701D01*
X52674045Y-167568228D01*
X52646992Y-167591102D01*
X52615938Y-167607957D01*
X52581246Y-167618431D01*
X52572930Y-167620067D01*
X52560955Y-167622424D01*
X52553119Y-167623967D01*
X52545981Y-167625087D01*
X52524225Y-167626381D01*
X52498681Y-167625713D01*
X52471599Y-167623321D01*
X52445229Y-167619442D01*
X52421820Y-167614314D01*
X52403622Y-167608175D01*
X52386236Y-167600484D01*
X52386236Y-167485086D01*
X52409549Y-167496634D01*
X52414723Y-167499162D01*
X52424320Y-167503356D01*
X52433205Y-167505991D01*
X52443431Y-167507421D01*
X52457050Y-167507996D01*
X52476115Y-167508071D01*
X52493706Y-167507885D01*
X52508476Y-167507180D01*
X52519373Y-167505680D01*
X52528331Y-167503105D01*
X52537284Y-167499172D01*
X52548114Y-167493028D01*
X52565926Y-167477691D01*
X52579612Y-167457409D01*
X52589553Y-167431536D01*
X52596129Y-167399428D01*
X52596150Y-167399278D01*
X52596843Y-167390365D01*
X52597486Y-167374563D01*
X52598071Y-167352467D01*
X52598591Y-167324670D01*
X52599037Y-167291767D01*
X52599402Y-167254352D01*
X52599676Y-167213019D01*
X52599852Y-167168362D01*
X52599922Y-167120976D01*
X52599997Y-166868776D01*
X52386236Y-166868776D01*
X52386236Y-166756271D01*
X52599997Y-166756271D01*
X52599997Y-166502121D01*
X52666562Y-166523857D01*
G37*
G36*
X45116367Y-165036607D02*
G01*
X45144259Y-165040615D01*
X45167680Y-165046998D01*
X45178786Y-165051500D01*
X45212557Y-165070440D01*
X45243526Y-165096127D01*
X45271471Y-165128312D01*
X45296166Y-165166750D01*
X45317385Y-165211195D01*
X45318590Y-165213913D01*
X45320035Y-165215887D01*
X45321140Y-165214772D01*
X45321968Y-165209833D01*
X45322581Y-165200334D01*
X45323044Y-165185541D01*
X45323419Y-165164717D01*
X45323770Y-165137129D01*
X45324777Y-165049937D01*
X45459645Y-165049937D01*
X45459645Y-165901229D01*
X45324639Y-165901229D01*
X45324639Y-165674740D01*
X45324637Y-165665646D01*
X45324572Y-165613071D01*
X45324386Y-165567270D01*
X45324052Y-165527619D01*
X45323540Y-165493495D01*
X45322823Y-165464271D01*
X45321871Y-165439323D01*
X45320658Y-165418026D01*
X45319155Y-165399757D01*
X45317332Y-165383889D01*
X45315163Y-165369798D01*
X45312618Y-165356860D01*
X45309669Y-165344450D01*
X45299840Y-165312068D01*
X45282752Y-165272437D01*
X45261654Y-165238177D01*
X45236859Y-165209634D01*
X45208680Y-165187149D01*
X45177430Y-165171068D01*
X45143421Y-165161733D01*
X45119977Y-165159810D01*
X45090807Y-165161445D01*
X45062132Y-165166763D01*
X45037170Y-165175351D01*
X45017123Y-165184529D01*
X45017123Y-165043118D01*
X45042937Y-165038505D01*
X45057976Y-165036450D01*
X45086705Y-165035157D01*
X45116367Y-165036607D01*
G37*
G36*
X53636000Y-165049941D02*
G01*
X53658307Y-165050112D01*
X53677616Y-165050503D01*
X53692802Y-165051073D01*
X53702739Y-165051782D01*
X53706301Y-165052591D01*
X53705512Y-165054868D01*
X53702192Y-165063689D01*
X53696432Y-165078737D01*
X53688398Y-165099584D01*
X53678258Y-165125800D01*
X53666177Y-165156957D01*
X53652322Y-165192625D01*
X53636861Y-165232377D01*
X53619958Y-165275783D01*
X53601782Y-165322415D01*
X53582499Y-165371843D01*
X53562275Y-165423639D01*
X53541276Y-165477374D01*
X53376251Y-165899504D01*
X53415709Y-165992776D01*
X53421720Y-166006845D01*
X53434159Y-166035106D01*
X53445978Y-166060868D01*
X53456645Y-166083011D01*
X53465628Y-166100416D01*
X53472395Y-166111961D01*
X53474964Y-166115721D01*
X53496445Y-166140967D01*
X53521489Y-166161230D01*
X53548593Y-166175261D01*
X53563033Y-166179155D01*
X53584768Y-166181862D01*
X53608890Y-166182410D01*
X53632775Y-166180759D01*
X53653798Y-166176867D01*
X53662594Y-166174573D01*
X53672365Y-166172217D01*
X53677330Y-166171287D01*
X53677981Y-166172968D01*
X53678731Y-166180912D01*
X53679211Y-166194259D01*
X53679382Y-166211763D01*
X53679205Y-166232183D01*
X53678175Y-166293123D01*
X53653798Y-166297406D01*
X53652641Y-166297604D01*
X53636070Y-166299721D01*
X53616366Y-166301306D01*
X53597546Y-166302029D01*
X53570846Y-166301051D01*
X53528349Y-166293786D01*
X53488341Y-166279471D01*
X53450810Y-166258098D01*
X53415747Y-166229659D01*
X53383139Y-166194145D01*
X53352977Y-166151549D01*
X53325249Y-166101864D01*
X53322267Y-166095278D01*
X53316536Y-166081810D01*
X53308376Y-166062177D01*
X53297955Y-166036800D01*
X53285443Y-166006103D01*
X53271012Y-165970505D01*
X53254831Y-165930430D01*
X53237069Y-165886299D01*
X53217898Y-165838534D01*
X53197486Y-165787557D01*
X53176005Y-165733789D01*
X53153623Y-165677653D01*
X53130511Y-165619570D01*
X53106840Y-165559962D01*
X52905242Y-165051812D01*
X52974420Y-165050790D01*
X52995921Y-165050563D01*
X53015309Y-165050538D01*
X53030828Y-165050710D01*
X53041268Y-165051064D01*
X53045419Y-165051588D01*
X53045885Y-165052587D01*
X53048647Y-165059581D01*
X53053660Y-165072735D01*
X53060707Y-165091456D01*
X53069569Y-165115153D01*
X53080029Y-165143234D01*
X53091867Y-165175105D01*
X53104867Y-165210176D01*
X53118810Y-165247853D01*
X53133477Y-165287544D01*
X53148651Y-165328658D01*
X53164113Y-165370601D01*
X53179645Y-165412783D01*
X53195030Y-165454610D01*
X53210049Y-165495490D01*
X53224484Y-165534831D01*
X53238116Y-165572041D01*
X53250728Y-165606528D01*
X53262102Y-165637700D01*
X53272019Y-165664963D01*
X53280261Y-165687727D01*
X53286610Y-165705398D01*
X53290848Y-165717385D01*
X53292757Y-165723095D01*
X53293344Y-165725177D01*
X53297352Y-165739755D01*
X53301191Y-165754147D01*
X53302566Y-165758824D01*
X53305730Y-165766267D01*
X53308321Y-165768382D01*
X53310095Y-165765381D01*
X53313028Y-165756756D01*
X53316057Y-165744830D01*
X53317113Y-165741218D01*
X53320525Y-165730690D01*
X53326043Y-165714152D01*
X53333456Y-165692212D01*
X53342553Y-165665476D01*
X53353124Y-165634552D01*
X53364959Y-165600048D01*
X53377848Y-165562569D01*
X53391580Y-165522725D01*
X53405944Y-165481121D01*
X53420731Y-165438365D01*
X53435730Y-165395065D01*
X53450730Y-165351828D01*
X53465521Y-165309260D01*
X53479893Y-165267970D01*
X53493636Y-165228564D01*
X53506538Y-165191650D01*
X53518390Y-165157835D01*
X53528981Y-165127727D01*
X53538101Y-165101931D01*
X53545540Y-165081057D01*
X53551086Y-165065711D01*
X53554530Y-165056500D01*
X53555894Y-165054356D01*
X53558864Y-165052655D01*
X53564379Y-165051452D01*
X53573428Y-165050662D01*
X53587004Y-165050203D01*
X53606097Y-165049989D01*
X53631699Y-165049937D01*
X53636000Y-165049941D01*
G37*
G36*
X62763122Y-166362798D02*
G01*
X62784674Y-166366784D01*
X62802976Y-166376197D01*
X62820241Y-166392019D01*
X62832694Y-166410118D01*
X62840007Y-166433094D01*
X62840541Y-166459246D01*
X62840374Y-166460765D01*
X62833985Y-166485470D01*
X62821455Y-166506323D01*
X62803409Y-166522550D01*
X62780474Y-166533379D01*
X62775637Y-166534823D01*
X62759717Y-166537980D01*
X62744796Y-166537456D01*
X62727113Y-166533243D01*
X62714940Y-166528754D01*
X62693953Y-166515617D01*
X62678429Y-166497609D01*
X62668798Y-166475317D01*
X62665492Y-166449326D01*
X62666696Y-166432403D01*
X62673570Y-166408388D01*
X62686148Y-166388959D01*
X62703992Y-166374548D01*
X62726666Y-166365585D01*
X62753730Y-166362502D01*
X62763122Y-166362798D01*
G37*
G36*
X49381401Y-166523857D02*
G01*
X49447966Y-166545593D01*
X49449958Y-166756271D01*
X49596099Y-166756271D01*
X49596099Y-166868776D01*
X49450146Y-166868776D01*
X49448864Y-167158478D01*
X49448738Y-167186225D01*
X49448487Y-167236819D01*
X49448228Y-167280705D01*
X49447948Y-167318413D01*
X49447634Y-167350472D01*
X49447273Y-167377413D01*
X49446851Y-167399764D01*
X49446356Y-167418056D01*
X49445775Y-167432819D01*
X49445094Y-167444581D01*
X49444300Y-167453873D01*
X49443381Y-167461225D01*
X49442323Y-167467166D01*
X49441113Y-167472225D01*
X49429544Y-167505884D01*
X49411575Y-167539701D01*
X49388883Y-167568228D01*
X49361830Y-167591102D01*
X49330777Y-167607957D01*
X49296084Y-167618431D01*
X49287768Y-167620067D01*
X49275793Y-167622424D01*
X49267958Y-167623967D01*
X49260820Y-167625087D01*
X49239063Y-167626381D01*
X49213519Y-167625713D01*
X49186437Y-167623321D01*
X49160067Y-167619442D01*
X49136658Y-167614314D01*
X49118461Y-167608175D01*
X49101074Y-167600484D01*
X49101074Y-167485086D01*
X49124388Y-167496634D01*
X49129561Y-167499162D01*
X49139158Y-167503356D01*
X49148043Y-167505991D01*
X49158269Y-167507421D01*
X49171888Y-167507996D01*
X49190953Y-167508071D01*
X49208544Y-167507885D01*
X49223314Y-167507180D01*
X49234211Y-167505680D01*
X49243170Y-167503105D01*
X49252122Y-167499172D01*
X49262953Y-167493028D01*
X49280765Y-167477691D01*
X49294451Y-167457409D01*
X49304391Y-167431536D01*
X49310967Y-167399428D01*
X49310988Y-167399278D01*
X49311681Y-167390365D01*
X49312324Y-167374563D01*
X49312910Y-167352467D01*
X49313430Y-167324670D01*
X49313876Y-167291767D01*
X49314240Y-167254352D01*
X49314514Y-167213019D01*
X49314691Y-167168362D01*
X49314761Y-167120976D01*
X49314835Y-166868776D01*
X49101074Y-166868776D01*
X49101074Y-166756271D01*
X49314835Y-166756271D01*
X49314835Y-166502121D01*
X49381401Y-166523857D01*
G37*
G36*
X44657281Y-165030418D02*
G01*
X44705132Y-165037224D01*
X44750708Y-165048597D01*
X44793171Y-165064385D01*
X44831684Y-165084436D01*
X44865409Y-165108599D01*
X44893510Y-165136721D01*
X44906469Y-165153451D01*
X44923002Y-165180740D01*
X44934039Y-165209199D01*
X44940204Y-165240627D01*
X44942120Y-165276823D01*
X44941621Y-165296623D01*
X44938238Y-165326376D01*
X44931205Y-165353037D01*
X44919997Y-165379042D01*
X44910865Y-165395133D01*
X44897609Y-165413412D01*
X44881454Y-165430567D01*
X44861775Y-165447016D01*
X44837946Y-165463176D01*
X44809340Y-165479464D01*
X44775330Y-165496299D01*
X44735292Y-165514096D01*
X44688598Y-165533275D01*
X44677155Y-165537867D01*
X44645577Y-165551040D01*
X44619828Y-165562744D01*
X44598892Y-165573530D01*
X44581751Y-165583952D01*
X44567388Y-165594561D01*
X44554785Y-165605910D01*
X44541701Y-165620291D01*
X44530233Y-165638631D01*
X44524066Y-165658824D01*
X44522181Y-165683283D01*
X44522287Y-165692832D01*
X44524146Y-165714249D01*
X44528908Y-165731322D01*
X44537341Y-165746181D01*
X44550215Y-165760958D01*
X44563992Y-165773115D01*
X44582859Y-165784933D01*
X44604844Y-165793604D01*
X44630977Y-165799422D01*
X44662289Y-165802681D01*
X44699807Y-165803675D01*
X44703513Y-165803659D01*
X44753827Y-165800724D01*
X44800761Y-165792422D01*
X44845742Y-165778313D01*
X44890198Y-165757957D01*
X44935557Y-165730911D01*
X44945870Y-165724108D01*
X44945870Y-165870223D01*
X44919467Y-165882029D01*
X44887910Y-165894286D01*
X44847812Y-165905972D01*
X44805238Y-165914759D01*
X44792521Y-165916402D01*
X44768148Y-165918092D01*
X44739745Y-165918795D01*
X44709228Y-165918562D01*
X44678515Y-165917446D01*
X44649523Y-165915497D01*
X44624167Y-165912769D01*
X44604364Y-165909313D01*
X44576299Y-165901923D01*
X44530091Y-165885167D01*
X44489838Y-165864107D01*
X44455618Y-165838806D01*
X44427512Y-165809328D01*
X44405601Y-165775736D01*
X44389963Y-165738096D01*
X44387571Y-165729933D01*
X44384080Y-165713484D01*
X44382261Y-165695275D01*
X44381757Y-165672468D01*
X44382469Y-165650728D01*
X44387331Y-165616005D01*
X44397235Y-165585294D01*
X44412695Y-165557201D01*
X44434227Y-165530333D01*
X44442937Y-165521329D01*
X44458731Y-165507005D01*
X44476491Y-165493521D01*
X44497085Y-165480378D01*
X44521386Y-165467081D01*
X44550263Y-165453132D01*
X44584588Y-165438034D01*
X44625229Y-165421291D01*
X44646294Y-165412729D01*
X44668275Y-165403612D01*
X44687968Y-165395262D01*
X44703810Y-165388343D01*
X44714240Y-165383517D01*
X44737139Y-165371180D01*
X44762425Y-165353728D01*
X44781148Y-165334990D01*
X44793851Y-165314235D01*
X44801075Y-165290737D01*
X44803363Y-165263766D01*
X44802651Y-165251233D01*
X44796008Y-165224962D01*
X44782635Y-165201535D01*
X44762840Y-165181409D01*
X44736932Y-165165043D01*
X44724958Y-165159437D01*
X44709511Y-165153615D01*
X44693554Y-165149657D01*
X44675348Y-165147266D01*
X44653154Y-165146146D01*
X44625229Y-165145999D01*
X44596879Y-165146841D01*
X44559513Y-165150561D01*
X44525344Y-165157704D01*
X44492076Y-165168796D01*
X44457408Y-165184363D01*
X44420844Y-165202555D01*
X44420844Y-165065699D01*
X44448033Y-165055950D01*
X44459860Y-165051898D01*
X44508443Y-165038919D01*
X44558099Y-165031114D01*
X44607991Y-165028331D01*
X44657281Y-165030418D01*
G37*
G36*
X59091691Y-164656464D02*
G01*
X59113243Y-164660450D01*
X59131545Y-164669863D01*
X59148810Y-164685685D01*
X59161264Y-164703784D01*
X59168576Y-164726760D01*
X59169110Y-164752912D01*
X59168943Y-164754431D01*
X59162554Y-164779137D01*
X59150024Y-164799989D01*
X59131978Y-164816216D01*
X59109043Y-164827045D01*
X59104207Y-164828489D01*
X59088286Y-164831646D01*
X59073365Y-164831122D01*
X59055682Y-164826909D01*
X59043510Y-164822420D01*
X59022522Y-164809283D01*
X59006998Y-164791275D01*
X58997367Y-164768983D01*
X58994061Y-164742992D01*
X58995266Y-164726069D01*
X59002139Y-164702054D01*
X59014717Y-164682625D01*
X59032562Y-164668214D01*
X59055235Y-164659251D01*
X59082299Y-164656168D01*
X59091691Y-164656464D01*
G37*
G36*
X45642736Y-166395769D02*
G01*
X45696099Y-166403250D01*
X45745642Y-166415983D01*
X45791323Y-166434264D01*
X45834112Y-166458482D01*
X45874978Y-166489027D01*
X45894667Y-166505589D01*
X45894667Y-166652940D01*
X45869353Y-166628056D01*
X45857449Y-166616819D01*
X45821424Y-166587361D01*
X45782489Y-166561369D01*
X45742523Y-166540018D01*
X45703407Y-166524480D01*
X45674057Y-166516476D01*
X45631713Y-166509933D01*
X45590705Y-166509368D01*
X45551751Y-166514607D01*
X45515568Y-166525479D01*
X45482876Y-166541809D01*
X45454391Y-166563426D01*
X45430832Y-166590155D01*
X45427277Y-166595225D01*
X45414284Y-166616166D01*
X45404954Y-166636638D01*
X45398690Y-166658603D01*
X45394895Y-166684029D01*
X45392974Y-166714881D01*
X45392689Y-166742245D01*
X45395556Y-166784689D01*
X45402920Y-166823042D01*
X45415095Y-166858723D01*
X45432396Y-166893153D01*
X45440982Y-166907289D01*
X45457091Y-166930817D01*
X45475362Y-166953696D01*
X45496524Y-166976648D01*
X45521305Y-167000394D01*
X45550435Y-167025657D01*
X45584641Y-167053158D01*
X45624653Y-167083620D01*
X45626889Y-167085288D01*
X45679398Y-167125061D01*
X45725814Y-167161614D01*
X45766507Y-167195484D01*
X45801848Y-167227209D01*
X45832206Y-167257327D01*
X45857952Y-167286375D01*
X45879456Y-167314890D01*
X45897089Y-167343410D01*
X45911221Y-167372474D01*
X45922222Y-167402617D01*
X45930463Y-167434379D01*
X45936314Y-167468296D01*
X45940146Y-167504906D01*
X45942328Y-167544747D01*
X45944562Y-167607563D01*
X45204447Y-167607563D01*
X45205477Y-167546622D01*
X45206508Y-167485682D01*
X45503710Y-167484722D01*
X45531190Y-167484631D01*
X45581960Y-167484451D01*
X45625949Y-167484266D01*
X45663641Y-167484063D01*
X45695519Y-167483831D01*
X45722066Y-167483558D01*
X45743766Y-167483232D01*
X45761101Y-167482839D01*
X45774555Y-167482368D01*
X45784612Y-167481807D01*
X45791753Y-167481144D01*
X45796463Y-167480366D01*
X45799225Y-167479461D01*
X45800522Y-167478417D01*
X45800838Y-167477221D01*
X45799978Y-167465616D01*
X45797700Y-167448887D01*
X45794513Y-167430511D01*
X45790922Y-167413384D01*
X45787432Y-167400405D01*
X45784813Y-167393354D01*
X45773187Y-167370638D01*
X45756336Y-167345722D01*
X45735154Y-167319845D01*
X45710540Y-167294243D01*
X45707233Y-167291087D01*
X45697538Y-167282134D01*
X45686754Y-167272667D01*
X45674326Y-167262253D01*
X45659701Y-167250461D01*
X45642323Y-167236862D01*
X45621638Y-167221025D01*
X45597091Y-167202519D01*
X45568128Y-167180914D01*
X45534194Y-167155778D01*
X45494734Y-167126681D01*
X45471321Y-167109043D01*
X45424038Y-167070343D01*
X45383434Y-167032210D01*
X45349038Y-166994035D01*
X45320381Y-166955210D01*
X45296991Y-166915129D01*
X45278399Y-166873182D01*
X45264133Y-166828763D01*
X45259860Y-166807583D01*
X45256611Y-166780799D01*
X45254512Y-166750744D01*
X45253620Y-166719510D01*
X45253995Y-166689190D01*
X45255696Y-166661876D01*
X45258783Y-166639661D01*
X45264004Y-166617590D01*
X45279618Y-166573836D01*
X45301141Y-166534264D01*
X45328212Y-166499104D01*
X45360469Y-166468585D01*
X45397553Y-166442937D01*
X45439102Y-166422388D01*
X45484756Y-166407167D01*
X45534153Y-166397505D01*
X45586933Y-166393629D01*
X45642736Y-166395769D01*
G37*
G36*
X56327680Y-167607563D02*
G01*
X56192673Y-167607563D01*
X56192673Y-167403178D01*
X56192656Y-167380762D01*
X56192551Y-167343668D01*
X56192357Y-167309316D01*
X56192084Y-167278384D01*
X56191742Y-167251553D01*
X56191339Y-167229502D01*
X56190884Y-167212913D01*
X56190389Y-167202464D01*
X56189861Y-167198835D01*
X56187023Y-167201447D01*
X56179512Y-167209171D01*
X56167737Y-167221575D01*
X56152100Y-167238229D01*
X56133000Y-167258700D01*
X56110842Y-167282557D01*
X56086024Y-167309369D01*
X56058951Y-167338705D01*
X56030022Y-167370132D01*
X55999639Y-167403220D01*
X55812230Y-167607563D01*
X55620971Y-167607563D01*
X55645526Y-167582249D01*
X55651862Y-167575699D01*
X55663232Y-167563920D01*
X55678761Y-167547817D01*
X55697905Y-167527955D01*
X55720123Y-167504895D01*
X55744874Y-167479199D01*
X55771615Y-167451431D01*
X55799804Y-167422153D01*
X55828899Y-167391927D01*
X55855000Y-167364814D01*
X55883644Y-167335072D01*
X55911033Y-167306648D01*
X55936602Y-167280123D01*
X55959790Y-167256083D01*
X55980033Y-167235112D01*
X55996766Y-167217794D01*
X56009426Y-167204713D01*
X56017451Y-167196453D01*
X56047185Y-167165987D01*
X55851198Y-166962066D01*
X55655211Y-166758146D01*
X55741039Y-166757136D01*
X55754356Y-166756999D01*
X55777992Y-166756863D01*
X55798608Y-166756879D01*
X55815086Y-166757040D01*
X55826305Y-166757339D01*
X55831144Y-166757767D01*
X55832935Y-166759360D01*
X55839484Y-166766028D01*
X55850372Y-166777469D01*
X55865184Y-166793233D01*
X55883502Y-166812873D01*
X55904910Y-166835940D01*
X55928991Y-166861987D01*
X55955329Y-166890565D01*
X55983507Y-166921227D01*
X56013109Y-166953523D01*
X56190798Y-167147638D01*
X56191753Y-166747570D01*
X56192707Y-166347501D01*
X56327680Y-166347501D01*
X56327680Y-167607563D01*
G37*
G36*
X49001469Y-167438025D02*
G01*
X48993946Y-167466546D01*
X48977908Y-167503945D01*
X48955972Y-167536993D01*
X48928480Y-167565358D01*
X48895771Y-167588708D01*
X48858185Y-167606711D01*
X48816060Y-167619037D01*
X48794520Y-167622569D01*
X48763443Y-167625233D01*
X48730729Y-167625868D01*
X48699320Y-167624436D01*
X48672157Y-167620898D01*
X48629368Y-167609156D01*
X48588531Y-167590464D01*
X48551157Y-167565314D01*
X48517674Y-167533996D01*
X48488512Y-167496800D01*
X48471043Y-167470761D01*
X48471043Y-167607563D01*
X48335760Y-167607563D01*
X48336912Y-167285985D01*
X48337097Y-167234820D01*
X48337159Y-167218770D01*
X48471401Y-167218770D01*
X48471929Y-167246608D01*
X48472269Y-167259317D01*
X48473049Y-167282046D01*
X48474034Y-167299496D01*
X48475399Y-167313190D01*
X48477320Y-167324645D01*
X48479974Y-167335384D01*
X48483535Y-167346925D01*
X48484316Y-167349280D01*
X48500125Y-167386871D01*
X48521013Y-167419776D01*
X48547939Y-167449525D01*
X48575330Y-167472314D01*
X48607863Y-167491649D01*
X48642218Y-167504117D01*
X48655717Y-167506763D01*
X48679007Y-167509121D01*
X48705971Y-167509856D01*
X48738479Y-167508286D01*
X48765922Y-167503493D01*
X48789304Y-167494934D01*
X48810106Y-167482067D01*
X48829809Y-167464346D01*
X48834546Y-167459219D01*
X48852104Y-167434219D01*
X48863016Y-167406360D01*
X48867398Y-167375236D01*
X48865368Y-167340443D01*
X48859451Y-167311081D01*
X48850185Y-167287062D01*
X48836725Y-167267544D01*
X48818163Y-167251215D01*
X48793589Y-167236760D01*
X48791687Y-167235825D01*
X48772609Y-167227658D01*
X48750972Y-167219986D01*
X48731102Y-167214360D01*
X48724820Y-167213066D01*
X48710893Y-167210572D01*
X48691929Y-167207416D01*
X48669060Y-167203765D01*
X48643415Y-167199786D01*
X48616128Y-167195648D01*
X48588329Y-167191518D01*
X48561149Y-167187564D01*
X48535720Y-167183953D01*
X48513173Y-167180852D01*
X48494638Y-167178430D01*
X48481248Y-167176854D01*
X48474134Y-167176292D01*
X48473165Y-167177421D01*
X48472010Y-167184448D01*
X48471425Y-167198140D01*
X48471401Y-167218770D01*
X48337159Y-167218770D01*
X48337291Y-167184620D01*
X48337487Y-167140949D01*
X48337697Y-167103294D01*
X48337935Y-167071143D01*
X48338216Y-167043985D01*
X48338553Y-167021308D01*
X48338960Y-167002600D01*
X48339451Y-166987349D01*
X48340039Y-166975044D01*
X48340738Y-166965172D01*
X48341563Y-166957222D01*
X48342527Y-166950682D01*
X48343643Y-166945041D01*
X48344926Y-166939785D01*
X48346389Y-166934405D01*
X48355674Y-166905568D01*
X48374323Y-166864512D01*
X48397762Y-166829121D01*
X48425921Y-166799474D01*
X48458732Y-166775655D01*
X48496125Y-166757745D01*
X48508578Y-166753240D01*
X48530823Y-166746391D01*
X48552750Y-166741570D01*
X48576302Y-166738481D01*
X48603421Y-166736825D01*
X48636052Y-166736304D01*
X48682061Y-166737643D01*
X48736851Y-166743660D01*
X48788333Y-166754826D01*
X48838004Y-166771484D01*
X48887359Y-166793979D01*
X48924816Y-166813219D01*
X48924816Y-166882250D01*
X48924733Y-166903761D01*
X48924500Y-166922795D01*
X48924142Y-166937840D01*
X48923689Y-166947725D01*
X48923168Y-166951281D01*
X48922101Y-166950779D01*
X48916107Y-166946949D01*
X48906206Y-166940171D01*
X48893852Y-166931429D01*
X48868192Y-166914237D01*
X48818602Y-166887536D01*
X48766940Y-166867999D01*
X48713015Y-166855544D01*
X48711596Y-166855316D01*
X48666452Y-166850403D01*
X48626366Y-166850925D01*
X48591160Y-166856949D01*
X48560657Y-166868542D01*
X48534678Y-166885769D01*
X48513048Y-166908699D01*
X48495587Y-166937398D01*
X48490831Y-166948503D01*
X48485057Y-166965755D01*
X48479960Y-166984936D01*
X48475744Y-167004743D01*
X48472616Y-167023872D01*
X48470781Y-167041020D01*
X48470443Y-167054882D01*
X48471809Y-167064155D01*
X48475084Y-167067536D01*
X48478430Y-167067747D01*
X48489340Y-167068965D01*
X48506048Y-167071138D01*
X48527552Y-167074111D01*
X48552846Y-167077732D01*
X48580929Y-167081848D01*
X48610796Y-167086307D01*
X48641444Y-167090956D01*
X48671870Y-167095642D01*
X48701070Y-167100213D01*
X48728040Y-167104516D01*
X48751778Y-167108398D01*
X48771279Y-167111706D01*
X48785541Y-167114289D01*
X48793559Y-167115993D01*
X48825725Y-167125874D01*
X48866764Y-167142966D01*
X48902683Y-167163532D01*
X48932805Y-167187167D01*
X48956452Y-167213466D01*
X48967593Y-167230157D01*
X48986065Y-167267263D01*
X48998943Y-167307868D01*
X49005972Y-167350707D01*
X49006490Y-167375236D01*
X49006898Y-167394514D01*
X49001469Y-167438025D01*
G37*
G36*
X61659505Y-165900105D02*
G01*
X61643526Y-165899966D01*
X61600264Y-165899559D01*
X61563556Y-165899147D01*
X61532694Y-165898704D01*
X61506966Y-165898202D01*
X61485665Y-165897616D01*
X61468079Y-165896919D01*
X61453500Y-165896084D01*
X61441218Y-165895085D01*
X61430522Y-165893896D01*
X61420705Y-165892490D01*
X61411055Y-165890841D01*
X61378025Y-165884181D01*
X61309392Y-165865629D01*
X61245880Y-165841620D01*
X61187444Y-165812124D01*
X61134038Y-165777115D01*
X61085616Y-165736562D01*
X61042132Y-165690439D01*
X61003540Y-165638716D01*
X60988865Y-165615151D01*
X60961295Y-165560887D01*
X60939298Y-165502245D01*
X60922974Y-165439770D01*
X60912424Y-165374007D01*
X60907745Y-165305501D01*
X60908030Y-165289949D01*
X61055519Y-165289949D01*
X61055698Y-165317406D01*
X61056895Y-165351833D01*
X61059414Y-165382129D01*
X61063495Y-165410246D01*
X61069377Y-165438137D01*
X61077299Y-165467754D01*
X61085884Y-165494312D01*
X61107801Y-165544964D01*
X61135568Y-165591033D01*
X61169015Y-165632372D01*
X61207973Y-165668834D01*
X61252276Y-165700271D01*
X61301753Y-165726538D01*
X61356236Y-165747486D01*
X61415556Y-165762968D01*
X61417151Y-165763295D01*
X61428495Y-165765473D01*
X61439604Y-165767246D01*
X61451445Y-165768666D01*
X61464984Y-165769790D01*
X61481188Y-165770670D01*
X61501026Y-165771360D01*
X61525462Y-165771915D01*
X61555465Y-165772389D01*
X61592002Y-165772836D01*
X61727946Y-165774365D01*
X61727946Y-164832426D01*
X61622003Y-164832486D01*
X61591069Y-164832600D01*
X61544058Y-164833279D01*
X61502984Y-164834652D01*
X61466875Y-164836822D01*
X61434759Y-164839890D01*
X61405667Y-164843956D01*
X61378626Y-164849120D01*
X61352664Y-164855485D01*
X61326812Y-164863151D01*
X61279989Y-164881014D01*
X61234278Y-164904961D01*
X61193511Y-164933555D01*
X61158265Y-164966391D01*
X61129116Y-165003060D01*
X61128190Y-165004440D01*
X61105171Y-165043357D01*
X61086807Y-165084602D01*
X61072880Y-165129028D01*
X61063169Y-165177491D01*
X61057455Y-165230846D01*
X61055519Y-165289949D01*
X60908030Y-165289949D01*
X60909039Y-165234798D01*
X60916405Y-165162443D01*
X60928084Y-165100297D01*
X60945805Y-165039516D01*
X60969039Y-164983814D01*
X60997780Y-164933200D01*
X61032019Y-164887684D01*
X61071749Y-164847274D01*
X61116962Y-164811979D01*
X61167651Y-164781808D01*
X61223807Y-164756769D01*
X61285424Y-164736872D01*
X61300111Y-164732950D01*
X61317572Y-164728462D01*
X61333797Y-164724628D01*
X61349513Y-164721393D01*
X61365449Y-164718700D01*
X61382332Y-164716494D01*
X61400890Y-164714718D01*
X61421853Y-164713316D01*
X61445947Y-164712232D01*
X61473901Y-164711409D01*
X61506444Y-164710792D01*
X61544302Y-164710325D01*
X61588204Y-164709951D01*
X61638879Y-164709614D01*
X61866703Y-164708199D01*
X61866703Y-165901879D01*
X61659505Y-165900105D01*
G37*
G36*
X55563877Y-167187542D02*
G01*
X55562574Y-167235776D01*
X55556821Y-167294433D01*
X55546335Y-167347880D01*
X55530962Y-167396581D01*
X55510549Y-167441002D01*
X55484940Y-167481610D01*
X55453982Y-167518870D01*
X55434300Y-167538217D01*
X55397238Y-167567290D01*
X55356381Y-167590479D01*
X55311096Y-167608116D01*
X55260753Y-167620533D01*
X55245166Y-167622701D01*
X55220174Y-167624491D01*
X55191050Y-167625252D01*
X55159632Y-167625029D01*
X55127759Y-167623867D01*
X55097269Y-167621813D01*
X55069997Y-167618913D01*
X55047784Y-167615213D01*
X55014816Y-167607030D01*
X54975759Y-167594460D01*
X54939905Y-167579775D01*
X54909393Y-167563771D01*
X54880109Y-167546068D01*
X54880109Y-167483061D01*
X54880177Y-167466990D01*
X54880451Y-167448293D01*
X54880898Y-167433421D01*
X54881479Y-167423600D01*
X54882153Y-167420054D01*
X54883046Y-167420392D01*
X54888939Y-167423797D01*
X54898845Y-167430083D01*
X54911217Y-167438281D01*
X54928134Y-167449272D01*
X54971472Y-167473266D01*
X55014838Y-167490843D01*
X55059671Y-167502415D01*
X55107411Y-167508391D01*
X55159498Y-167509185D01*
X55172163Y-167508765D01*
X55192402Y-167507788D01*
X55208069Y-167506386D01*
X55221109Y-167504284D01*
X55233463Y-167501211D01*
X55247073Y-167496894D01*
X55275628Y-167485514D01*
X55310955Y-167465245D01*
X55341491Y-167439485D01*
X55367831Y-167407793D01*
X55368743Y-167406487D01*
X55389231Y-167371807D01*
X55404784Y-167333602D01*
X55415712Y-167290931D01*
X55422326Y-167242857D01*
X55424920Y-167213793D01*
X54823856Y-167213793D01*
X54823856Y-167144788D01*
X54825162Y-167101288D01*
X54961482Y-167101288D01*
X55420135Y-167101288D01*
X55420135Y-167092512D01*
X55419626Y-167086223D01*
X55416899Y-167071701D01*
X55412362Y-167053757D01*
X55406639Y-167034575D01*
X55400351Y-167016342D01*
X55394122Y-167001242D01*
X55393233Y-166999356D01*
X55370967Y-166960121D01*
X55344381Y-166926397D01*
X55313996Y-166898464D01*
X55280330Y-166876601D01*
X55243904Y-166861089D01*
X55205237Y-166852207D01*
X55164849Y-166850235D01*
X55123259Y-166855452D01*
X55113309Y-166857769D01*
X55082364Y-166868457D01*
X55055307Y-166884149D01*
X55030016Y-166905994D01*
X55020066Y-166916679D01*
X54997550Y-166947706D01*
X54980805Y-166982712D01*
X54969631Y-167022182D01*
X54963828Y-167066599D01*
X54961482Y-167101288D01*
X54825162Y-167101288D01*
X54825474Y-167090910D01*
X54831347Y-167035042D01*
X54841671Y-166984506D01*
X54856611Y-166938812D01*
X54876330Y-166897468D01*
X54900993Y-166859985D01*
X54930764Y-166825873D01*
X54937429Y-166819332D01*
X54968782Y-166792963D01*
X55002375Y-166772051D01*
X55039311Y-166756098D01*
X55080692Y-166744606D01*
X55127621Y-166737078D01*
X55136690Y-166736146D01*
X55189976Y-166734880D01*
X55241705Y-166740787D01*
X55291422Y-166753648D01*
X55338677Y-166773244D01*
X55383017Y-166799356D01*
X55423988Y-166831764D01*
X55461139Y-166870248D01*
X55494016Y-166914591D01*
X55508072Y-166937855D01*
X55528764Y-166980440D01*
X55544469Y-167025833D01*
X55555408Y-167074902D01*
X55558555Y-167101288D01*
X55561803Y-167128516D01*
X55563877Y-167187542D01*
G37*
G36*
X57391720Y-165030166D02*
G01*
X57422859Y-165032932D01*
X57449840Y-165037853D01*
X57485933Y-165049109D01*
X57528260Y-165068944D01*
X57566282Y-165094751D01*
X57578762Y-165105651D01*
X57594194Y-165120867D01*
X57609568Y-165137529D01*
X57623485Y-165154044D01*
X57634546Y-165168817D01*
X57641352Y-165180256D01*
X57644571Y-165185686D01*
X57648347Y-165188694D01*
X57649337Y-165185155D01*
X57650202Y-165175280D01*
X57650885Y-165160237D01*
X57651334Y-165141193D01*
X57651495Y-165119315D01*
X57651495Y-165049937D01*
X57786502Y-165049937D01*
X57786502Y-165901229D01*
X57651495Y-165901229D01*
X57651495Y-165650238D01*
X57651489Y-165622338D01*
X57651427Y-165572066D01*
X57651278Y-165528411D01*
X57651014Y-165490782D01*
X57650607Y-165458593D01*
X57650032Y-165431253D01*
X57649260Y-165408173D01*
X57648264Y-165388766D01*
X57647017Y-165372442D01*
X57645492Y-165358613D01*
X57643662Y-165346689D01*
X57641499Y-165336083D01*
X57638977Y-165326204D01*
X57636067Y-165316465D01*
X57629874Y-165298812D01*
X57611328Y-165260118D01*
X57587788Y-165226271D01*
X57559774Y-165197671D01*
X57527804Y-165174723D01*
X57492399Y-165157829D01*
X57454077Y-165147391D01*
X57413358Y-165143812D01*
X57382081Y-165145871D01*
X57346252Y-165154223D01*
X57314440Y-165168831D01*
X57286868Y-165189521D01*
X57263758Y-165216117D01*
X57245335Y-165248445D01*
X57231819Y-165286330D01*
X57229661Y-165294583D01*
X57227097Y-165305554D01*
X57224884Y-165316961D01*
X57222998Y-165329392D01*
X57221413Y-165343436D01*
X57220104Y-165359682D01*
X57219044Y-165378718D01*
X57218209Y-165401133D01*
X57217572Y-165427516D01*
X57217108Y-165458456D01*
X57216792Y-165494541D01*
X57216598Y-165536360D01*
X57216501Y-165584502D01*
X57216474Y-165639555D01*
X57216474Y-165901229D01*
X57081467Y-165901229D01*
X57081541Y-165609652D01*
X57081563Y-165580736D01*
X57081677Y-165529624D01*
X57081881Y-165482134D01*
X57082169Y-165438750D01*
X57082536Y-165399956D01*
X57082976Y-165366238D01*
X57083483Y-165338082D01*
X57084051Y-165315970D01*
X57084675Y-165300389D01*
X57085348Y-165291824D01*
X57088797Y-165270883D01*
X57102033Y-165218600D01*
X57121347Y-165170396D01*
X57122303Y-165168427D01*
X57131794Y-165150345D01*
X57141485Y-165135365D01*
X57153254Y-165120881D01*
X57168978Y-165104287D01*
X57188244Y-165086321D01*
X57216641Y-165065572D01*
X57247635Y-165049892D01*
X57283468Y-165037985D01*
X57298042Y-165034775D01*
X57326842Y-165031089D01*
X57358891Y-165029552D01*
X57391720Y-165030166D01*
G37*
G36*
X54422768Y-165901229D02*
G01*
X54421739Y-165838488D01*
X54420711Y-165775748D01*
X54403251Y-165800226D01*
X54385267Y-165823177D01*
X54352710Y-165855470D01*
X54316161Y-165881424D01*
X54275680Y-165900998D01*
X54231327Y-165914152D01*
X54219755Y-165916147D01*
X54195585Y-165918470D01*
X54167832Y-165919445D01*
X54138886Y-165919068D01*
X54111137Y-165917339D01*
X54086975Y-165914255D01*
X54083097Y-165913547D01*
X54052943Y-165906280D01*
X54021550Y-165896053D01*
X53991829Y-165883915D01*
X53966693Y-165870916D01*
X53960339Y-165866855D01*
X53941980Y-165853109D01*
X53921654Y-165835640D01*
X53901135Y-165816105D01*
X53882200Y-165796164D01*
X53866623Y-165777473D01*
X53859691Y-165767579D01*
X53848990Y-165750421D01*
X53837921Y-165730977D01*
X53828012Y-165711845D01*
X53810580Y-165671940D01*
X53796198Y-165628593D01*
X53785692Y-165582704D01*
X53778732Y-165532813D01*
X53774986Y-165477458D01*
X53774926Y-165440158D01*
X53913490Y-165440158D01*
X53915737Y-165499358D01*
X53918026Y-165521994D01*
X53927122Y-165576257D01*
X53940795Y-165625193D01*
X53958940Y-165668644D01*
X53981450Y-165706448D01*
X54008221Y-165738447D01*
X54039148Y-165764481D01*
X54074125Y-165784391D01*
X54113046Y-165798018D01*
X54113274Y-165798075D01*
X54130909Y-165801088D01*
X54153372Y-165802871D01*
X54178216Y-165803428D01*
X54202996Y-165802764D01*
X54225265Y-165800883D01*
X54242577Y-165797789D01*
X54252150Y-165795034D01*
X54289485Y-165779584D01*
X54323431Y-165757860D01*
X54353424Y-165730449D01*
X54378897Y-165697939D01*
X54399285Y-165660915D01*
X54414022Y-165619965D01*
X54415495Y-165614144D01*
X54417174Y-165605479D01*
X54418448Y-165595303D01*
X54419367Y-165582618D01*
X54419978Y-165566428D01*
X54420330Y-165545732D01*
X54420470Y-165519533D01*
X54420448Y-165486833D01*
X54420406Y-165472091D01*
X54420255Y-165443006D01*
X54419973Y-165419911D01*
X54419496Y-165401750D01*
X54418760Y-165387470D01*
X54417699Y-165376016D01*
X54416250Y-165366336D01*
X54414346Y-165357374D01*
X54411924Y-165348077D01*
X54410651Y-165343564D01*
X54394382Y-165298923D01*
X54373022Y-165259343D01*
X54346918Y-165225102D01*
X54316419Y-165196480D01*
X54281872Y-165173755D01*
X54243625Y-165157207D01*
X54202025Y-165147115D01*
X54157419Y-165143757D01*
X54135516Y-165144624D01*
X54094298Y-165151270D01*
X54056810Y-165164410D01*
X54023154Y-165183976D01*
X53993433Y-165209903D01*
X53967750Y-165242125D01*
X53946206Y-165280573D01*
X53941718Y-165290648D01*
X53926477Y-165335832D01*
X53917069Y-165385660D01*
X53913490Y-165440158D01*
X53774926Y-165440158D01*
X53774895Y-165420847D01*
X53780046Y-165359335D01*
X53790756Y-165302052D01*
X53806948Y-165249236D01*
X53828547Y-165201127D01*
X53855478Y-165157963D01*
X53887665Y-165119983D01*
X53913787Y-165096244D01*
X53949885Y-165071417D01*
X53990026Y-165052180D01*
X54035187Y-165037989D01*
X54044219Y-165035980D01*
X54075640Y-165031466D01*
X54110638Y-165029429D01*
X54146574Y-165029867D01*
X54180808Y-165032777D01*
X54210701Y-165038157D01*
X54216028Y-165039516D01*
X54261973Y-165055415D01*
X54304375Y-165077914D01*
X54343187Y-165106979D01*
X54378363Y-165142576D01*
X54409857Y-165184671D01*
X54420711Y-165201273D01*
X54421673Y-164921220D01*
X54422634Y-164641167D01*
X54557593Y-164641167D01*
X54557593Y-165901229D01*
X54422768Y-165901229D01*
G37*
G36*
X49386214Y-164656464D02*
G01*
X49407766Y-164660450D01*
X49426067Y-164669863D01*
X49443333Y-164685685D01*
X49455786Y-164703784D01*
X49463099Y-164726760D01*
X49463633Y-164752912D01*
X49463466Y-164754431D01*
X49457077Y-164779137D01*
X49444546Y-164799989D01*
X49426500Y-164816216D01*
X49403565Y-164827045D01*
X49398729Y-164828489D01*
X49382808Y-164831646D01*
X49367888Y-164831122D01*
X49350205Y-164826909D01*
X49338032Y-164822420D01*
X49317045Y-164809283D01*
X49301520Y-164791275D01*
X49291890Y-164768983D01*
X49288584Y-164742992D01*
X49289788Y-164726069D01*
X49296661Y-164702054D01*
X49309239Y-164682625D01*
X49327084Y-164668214D01*
X49349757Y-164659251D01*
X49376821Y-164656168D01*
X49386214Y-164656464D01*
G37*
G36*
X42961354Y-166395769D02*
G01*
X43014717Y-166403250D01*
X43064260Y-166415983D01*
X43109941Y-166434264D01*
X43152730Y-166458482D01*
X43193596Y-166489027D01*
X43213285Y-166505589D01*
X43213285Y-166652940D01*
X43187971Y-166628056D01*
X43176067Y-166616819D01*
X43140042Y-166587361D01*
X43101107Y-166561369D01*
X43061141Y-166540018D01*
X43022025Y-166524480D01*
X42992675Y-166516476D01*
X42950331Y-166509933D01*
X42909323Y-166509368D01*
X42870369Y-166514607D01*
X42834186Y-166525479D01*
X42801494Y-166541809D01*
X42773009Y-166563426D01*
X42749450Y-166590155D01*
X42745895Y-166595225D01*
X42732902Y-166616166D01*
X42723572Y-166636638D01*
X42717308Y-166658603D01*
X42713513Y-166684029D01*
X42711592Y-166714881D01*
X42711307Y-166742245D01*
X42714174Y-166784689D01*
X42721538Y-166823042D01*
X42733713Y-166858723D01*
X42751014Y-166893153D01*
X42759600Y-166907289D01*
X42775709Y-166930817D01*
X42793980Y-166953696D01*
X42815142Y-166976648D01*
X42839923Y-167000394D01*
X42869053Y-167025657D01*
X42903259Y-167053158D01*
X42943271Y-167083620D01*
X42945507Y-167085288D01*
X42998016Y-167125061D01*
X43044432Y-167161614D01*
X43085125Y-167195484D01*
X43120466Y-167227209D01*
X43150824Y-167257327D01*
X43176570Y-167286375D01*
X43198074Y-167314890D01*
X43215707Y-167343410D01*
X43229839Y-167372474D01*
X43240840Y-167402617D01*
X43249081Y-167434379D01*
X43254932Y-167468296D01*
X43258764Y-167504906D01*
X43260946Y-167544747D01*
X43263180Y-167607563D01*
X42523065Y-167607563D01*
X42524095Y-167546622D01*
X42525126Y-167485682D01*
X42822328Y-167484722D01*
X42849808Y-167484631D01*
X42900578Y-167484451D01*
X42944567Y-167484266D01*
X42982259Y-167484063D01*
X43014137Y-167483831D01*
X43040684Y-167483558D01*
X43062384Y-167483232D01*
X43079719Y-167482839D01*
X43093173Y-167482368D01*
X43103230Y-167481807D01*
X43110371Y-167481144D01*
X43115081Y-167480366D01*
X43117843Y-167479461D01*
X43119140Y-167478417D01*
X43119456Y-167477221D01*
X43118596Y-167465616D01*
X43116318Y-167448887D01*
X43113131Y-167430511D01*
X43109540Y-167413384D01*
X43106050Y-167400405D01*
X43103431Y-167393354D01*
X43091805Y-167370638D01*
X43074954Y-167345722D01*
X43053772Y-167319845D01*
X43029158Y-167294243D01*
X43025851Y-167291087D01*
X43016156Y-167282134D01*
X43005372Y-167272667D01*
X42992944Y-167262253D01*
X42978319Y-167250461D01*
X42960941Y-167236862D01*
X42940256Y-167221025D01*
X42915709Y-167202519D01*
X42886746Y-167180914D01*
X42852812Y-167155778D01*
X42813352Y-167126681D01*
X42789939Y-167109043D01*
X42742656Y-167070343D01*
X42702052Y-167032210D01*
X42667656Y-166994035D01*
X42638999Y-166955210D01*
X42615609Y-166915129D01*
X42597017Y-166873182D01*
X42582751Y-166828763D01*
X42578478Y-166807583D01*
X42575229Y-166780799D01*
X42573130Y-166750744D01*
X42572238Y-166719510D01*
X42572613Y-166689190D01*
X42574314Y-166661876D01*
X42577401Y-166639661D01*
X42582622Y-166617590D01*
X42598236Y-166573836D01*
X42619759Y-166534264D01*
X42646830Y-166499104D01*
X42679087Y-166468585D01*
X42716171Y-166442937D01*
X42757720Y-166422388D01*
X42803374Y-166407167D01*
X42852771Y-166397505D01*
X42905551Y-166393629D01*
X42961354Y-166395769D01*
G37*
G36*
X53685735Y-166395690D02*
G01*
X53723620Y-166397777D01*
X53757765Y-166401580D01*
X53790049Y-166407374D01*
X53822350Y-166415433D01*
X53856547Y-166426031D01*
X53866737Y-166429522D01*
X53917237Y-166449726D01*
X53963501Y-166473667D01*
X54006936Y-166502252D01*
X54048954Y-166536390D01*
X54090964Y-166576988D01*
X54107133Y-166594465D01*
X54147282Y-166645043D01*
X54181147Y-166699415D01*
X54208766Y-166757686D01*
X54230180Y-166819965D01*
X54245427Y-166886357D01*
X54254547Y-166956970D01*
X54257578Y-167031910D01*
X54257321Y-167054301D01*
X54252710Y-167125992D01*
X54242272Y-167193100D01*
X54225940Y-167255814D01*
X54203643Y-167314327D01*
X54175313Y-167368829D01*
X54140880Y-167419510D01*
X54100276Y-167466563D01*
X54073656Y-167492759D01*
X54040677Y-167520871D01*
X54006841Y-167544564D01*
X53970221Y-167565301D01*
X53969922Y-167565454D01*
X53910694Y-167591497D01*
X53849044Y-167610445D01*
X53785055Y-167622272D01*
X53774324Y-167623341D01*
X53752965Y-167624593D01*
X53727223Y-167625387D01*
X53698971Y-167625721D01*
X53670082Y-167625593D01*
X53642431Y-167625003D01*
X53617891Y-167623949D01*
X53598335Y-167622429D01*
X53544121Y-167614781D01*
X53489623Y-167603187D01*
X53438952Y-167588320D01*
X53393738Y-167570596D01*
X53368784Y-167559281D01*
X53368784Y-167423729D01*
X53402933Y-167440879D01*
X53441357Y-167458430D01*
X53493467Y-167476729D01*
X53547968Y-167489596D01*
X53606024Y-167497292D01*
X53668799Y-167500074D01*
X53702050Y-167499714D01*
X53743743Y-167497084D01*
X53781027Y-167491665D01*
X53815517Y-167483122D01*
X53848824Y-167471115D01*
X53882560Y-167455308D01*
X53907957Y-167441026D01*
X53952077Y-167409812D01*
X53991190Y-167373175D01*
X54025134Y-167331364D01*
X54053746Y-167284623D01*
X54076863Y-167233198D01*
X54094323Y-167177335D01*
X54105963Y-167117281D01*
X54107064Y-167108608D01*
X54109777Y-167075161D01*
X54110878Y-167037754D01*
X54110426Y-166998657D01*
X54108476Y-166960137D01*
X54105088Y-166924463D01*
X54100317Y-166893904D01*
X54095122Y-166870457D01*
X54077565Y-166812629D01*
X54054226Y-166759017D01*
X54025328Y-166709927D01*
X53991095Y-166665664D01*
X53951752Y-166626531D01*
X53907521Y-166592835D01*
X53858628Y-166564880D01*
X53845399Y-166558737D01*
X53795541Y-166540566D01*
X53742145Y-166528186D01*
X53686144Y-166521577D01*
X53628474Y-166520721D01*
X53570070Y-166525597D01*
X53511867Y-166536186D01*
X53454799Y-166552469D01*
X53399802Y-166574427D01*
X53395173Y-166576556D01*
X53382809Y-166582150D01*
X53373875Y-166586048D01*
X53370052Y-166587513D01*
X53369986Y-166587433D01*
X53369619Y-166582867D01*
X53369394Y-166572101D01*
X53369319Y-166556270D01*
X53369400Y-166536505D01*
X53369643Y-166513941D01*
X53370660Y-166440368D01*
X53389036Y-166433153D01*
X53407346Y-166426485D01*
X53457318Y-166412671D01*
X53513547Y-166402818D01*
X53575944Y-166396939D01*
X53644423Y-166395048D01*
X53685735Y-166395690D01*
G37*
G36*
X57929009Y-167607563D02*
G01*
X57310228Y-167607563D01*
X57310228Y-167480057D01*
X57790252Y-167480057D01*
X57790252Y-166415004D01*
X57929009Y-166415004D01*
X57929009Y-167607563D01*
G37*
G36*
X51469090Y-165731691D02*
G01*
X51461568Y-165760212D01*
X51445529Y-165797611D01*
X51423594Y-165830659D01*
X51396102Y-165859024D01*
X51363393Y-165882374D01*
X51325806Y-165900377D01*
X51283682Y-165912703D01*
X51262142Y-165916235D01*
X51231065Y-165918899D01*
X51198351Y-165919534D01*
X51166942Y-165918102D01*
X51139778Y-165914564D01*
X51096990Y-165902822D01*
X51056152Y-165884130D01*
X51018778Y-165858980D01*
X50985295Y-165827662D01*
X50956133Y-165790466D01*
X50938665Y-165764427D01*
X50938665Y-165901229D01*
X50803381Y-165901229D01*
X50804533Y-165579651D01*
X50804719Y-165528486D01*
X50804781Y-165512436D01*
X50939022Y-165512436D01*
X50939550Y-165540274D01*
X50939891Y-165552983D01*
X50940671Y-165575712D01*
X50941655Y-165593162D01*
X50943020Y-165606856D01*
X50944942Y-165618311D01*
X50947595Y-165629050D01*
X50951156Y-165640591D01*
X50951937Y-165642946D01*
X50967747Y-165680537D01*
X50988635Y-165713442D01*
X51015561Y-165743191D01*
X51042951Y-165765980D01*
X51075484Y-165785315D01*
X51109840Y-165797783D01*
X51123338Y-165800429D01*
X51146628Y-165802787D01*
X51173593Y-165803522D01*
X51206100Y-165801952D01*
X51233543Y-165797159D01*
X51256925Y-165788600D01*
X51277727Y-165775733D01*
X51297430Y-165758012D01*
X51302167Y-165752885D01*
X51319725Y-165727885D01*
X51330637Y-165700026D01*
X51335020Y-165668902D01*
X51332989Y-165634109D01*
X51327073Y-165604747D01*
X51317806Y-165580728D01*
X51304347Y-165561210D01*
X51285785Y-165544881D01*
X51261210Y-165530426D01*
X51259309Y-165529491D01*
X51240230Y-165521324D01*
X51218594Y-165513652D01*
X51198723Y-165508026D01*
X51192442Y-165506732D01*
X51178515Y-165504238D01*
X51159551Y-165501082D01*
X51136681Y-165497431D01*
X51111037Y-165493452D01*
X51083750Y-165489314D01*
X51055951Y-165485184D01*
X51028771Y-165481230D01*
X51003342Y-165477619D01*
X50980794Y-165474518D01*
X50962260Y-165472096D01*
X50948870Y-165470520D01*
X50941755Y-165469958D01*
X50940786Y-165471087D01*
X50939631Y-165478114D01*
X50939046Y-165491806D01*
X50939022Y-165512436D01*
X50804781Y-165512436D01*
X50804913Y-165478286D01*
X50805108Y-165434615D01*
X50805318Y-165396960D01*
X50805557Y-165364809D01*
X50805838Y-165337651D01*
X50806175Y-165314974D01*
X50806582Y-165296266D01*
X50807072Y-165281015D01*
X50807660Y-165268710D01*
X50808360Y-165258838D01*
X50809185Y-165250888D01*
X50810148Y-165244348D01*
X50811264Y-165238707D01*
X50812547Y-165233451D01*
X50814010Y-165228071D01*
X50823296Y-165199234D01*
X50841944Y-165158179D01*
X50865383Y-165122787D01*
X50893543Y-165093140D01*
X50926353Y-165069321D01*
X50963746Y-165051411D01*
X50976199Y-165046906D01*
X50998444Y-165040057D01*
X51020372Y-165035237D01*
X51043923Y-165032147D01*
X51071043Y-165030491D01*
X51103673Y-165029970D01*
X51149682Y-165031309D01*
X51204473Y-165037326D01*
X51255955Y-165048492D01*
X51305625Y-165065150D01*
X51354980Y-165087645D01*
X51392437Y-165106885D01*
X51392437Y-165175916D01*
X51392355Y-165197427D01*
X51392121Y-165216461D01*
X51391764Y-165231506D01*
X51391311Y-165241391D01*
X51390790Y-165244947D01*
X51389723Y-165244445D01*
X51383729Y-165240615D01*
X51373828Y-165233837D01*
X51361474Y-165225095D01*
X51335814Y-165207903D01*
X51286223Y-165181202D01*
X51234562Y-165161665D01*
X51180637Y-165149210D01*
X51179217Y-165148982D01*
X51134074Y-165144069D01*
X51093988Y-165144591D01*
X51058782Y-165150615D01*
X51028278Y-165162208D01*
X51002300Y-165179435D01*
X50980669Y-165202365D01*
X50963208Y-165231064D01*
X50958452Y-165242169D01*
X50952678Y-165259421D01*
X50947581Y-165278602D01*
X50943366Y-165298409D01*
X50940238Y-165317538D01*
X50938402Y-165334686D01*
X50938065Y-165348548D01*
X50939431Y-165357821D01*
X50942705Y-165361202D01*
X50946051Y-165361413D01*
X50956961Y-165362631D01*
X50973670Y-165364804D01*
X50995173Y-165367777D01*
X51020468Y-165371398D01*
X51048550Y-165375514D01*
X51078418Y-165379973D01*
X51109066Y-165384622D01*
X51139492Y-165389308D01*
X51168691Y-165393879D01*
X51195662Y-165398182D01*
X51219400Y-165402064D01*
X51238901Y-165405372D01*
X51253162Y-165407955D01*
X51261181Y-165409659D01*
X51293346Y-165419540D01*
X51334385Y-165436632D01*
X51370305Y-165457198D01*
X51400426Y-165480833D01*
X51424073Y-165507132D01*
X51435214Y-165523823D01*
X51453687Y-165560929D01*
X51466564Y-165601534D01*
X51473593Y-165644373D01*
X51474112Y-165668902D01*
X51474520Y-165688180D01*
X51469090Y-165731691D01*
G37*
G36*
X48099775Y-167607563D02*
G01*
X47965177Y-167607563D01*
X47963885Y-167338487D01*
X47963781Y-167316943D01*
X47963537Y-167268370D01*
X47963300Y-167226499D01*
X47963050Y-167190761D01*
X47962770Y-167160587D01*
X47962442Y-167135408D01*
X47962046Y-167114654D01*
X47961565Y-167097756D01*
X47960981Y-167084145D01*
X47960275Y-167073251D01*
X47959428Y-167064507D01*
X47958423Y-167057341D01*
X47957242Y-167051185D01*
X47955865Y-167045471D01*
X47954275Y-167039627D01*
X47940382Y-167000274D01*
X47920492Y-166962159D01*
X47895886Y-166928599D01*
X47867110Y-166900220D01*
X47834710Y-166877649D01*
X47799228Y-166861510D01*
X47791829Y-166859197D01*
X47764532Y-166853576D01*
X47734508Y-166850928D01*
X47704883Y-166851417D01*
X47678783Y-166855206D01*
X47663153Y-166859452D01*
X47631241Y-166872571D01*
X47604288Y-166890782D01*
X47581852Y-166914509D01*
X47563493Y-166944174D01*
X47548772Y-166980201D01*
X47547373Y-166984473D01*
X47544100Y-166995116D01*
X47541258Y-167005769D01*
X47538817Y-167017008D01*
X47536745Y-167029410D01*
X47535013Y-167043550D01*
X47533591Y-167060004D01*
X47532449Y-167079350D01*
X47531556Y-167102163D01*
X47530883Y-167129019D01*
X47530400Y-167160494D01*
X47530075Y-167197165D01*
X47529880Y-167239607D01*
X47529784Y-167288398D01*
X47529758Y-167344112D01*
X47529747Y-167607563D01*
X47394740Y-167607563D01*
X47394815Y-167312236D01*
X47394840Y-167280363D01*
X47394957Y-167228984D01*
X47395163Y-167181290D01*
X47395452Y-167137756D01*
X47395819Y-167098862D01*
X47396258Y-167065082D01*
X47396763Y-167036895D01*
X47397329Y-167014777D01*
X47397951Y-166999206D01*
X47398621Y-166990657D01*
X47404016Y-166959378D01*
X47416653Y-166911757D01*
X47433885Y-166869983D01*
X47455811Y-166833932D01*
X47482526Y-166803481D01*
X47514130Y-166778507D01*
X47550719Y-166758885D01*
X47592390Y-166744491D01*
X47593825Y-166744117D01*
X47618485Y-166739542D01*
X47647819Y-166736816D01*
X47679440Y-166735938D01*
X47710958Y-166736910D01*
X47739985Y-166739734D01*
X47764134Y-166744410D01*
X47777075Y-166748142D01*
X47820847Y-166765302D01*
X47860379Y-166788470D01*
X47896283Y-166817987D01*
X47907713Y-166829371D01*
X47922336Y-166845099D01*
X47935102Y-166860052D01*
X47944142Y-166872120D01*
X47945009Y-166873424D01*
X47952599Y-166884270D01*
X47958663Y-166891968D01*
X47961956Y-166894924D01*
X47962381Y-166891791D01*
X47962818Y-166881723D01*
X47963226Y-166865288D01*
X47963599Y-166843071D01*
X47963931Y-166815661D01*
X47964216Y-166783644D01*
X47964449Y-166747609D01*
X47964622Y-166708143D01*
X47964731Y-166665832D01*
X47964768Y-166621264D01*
X47964768Y-166347501D01*
X48099775Y-166347501D01*
X48099775Y-167607563D01*
G37*
G36*
X60691078Y-166395140D02*
G01*
X60725054Y-166396374D01*
X60755036Y-166398915D01*
X60783030Y-166403010D01*
X60811040Y-166408905D01*
X60841072Y-166416847D01*
X60846662Y-166418507D01*
X60875869Y-166428929D01*
X60906352Y-166442307D01*
X60935951Y-166457544D01*
X60962507Y-166473547D01*
X60983860Y-166489220D01*
X60998938Y-166502685D01*
X61030514Y-166537544D01*
X61055550Y-166575720D01*
X61073868Y-166616760D01*
X61085292Y-166660209D01*
X61089644Y-166705614D01*
X61086746Y-166752521D01*
X61079869Y-166788595D01*
X61068615Y-166822925D01*
X61052523Y-166854565D01*
X61030793Y-166885068D01*
X61002626Y-166915987D01*
X60994790Y-166923714D01*
X60981057Y-166936612D01*
X60967156Y-166948623D01*
X60952359Y-166960211D01*
X60935934Y-166971839D01*
X60917150Y-166983970D01*
X60895276Y-166997069D01*
X60869583Y-167011598D01*
X60839338Y-167028020D01*
X60803812Y-167046800D01*
X60762273Y-167068400D01*
X60759343Y-167069917D01*
X60718637Y-167091274D01*
X60684030Y-167110074D01*
X60654814Y-167126769D01*
X60630279Y-167141813D01*
X60609715Y-167155658D01*
X60592413Y-167168759D01*
X60577663Y-167181567D01*
X60564756Y-167194536D01*
X60549123Y-167213131D01*
X60530157Y-167243559D01*
X60518431Y-167275294D01*
X60513799Y-167308789D01*
X60516114Y-167344495D01*
X60521238Y-167368404D01*
X60533832Y-167400797D01*
X60552263Y-167428493D01*
X60576578Y-167451555D01*
X60606820Y-167470045D01*
X60622846Y-167477387D01*
X60644076Y-167485289D01*
X60666520Y-167491248D01*
X60692271Y-167495794D01*
X60723420Y-167499454D01*
X60726714Y-167499761D01*
X60770129Y-167501134D01*
X60816297Y-167498159D01*
X60863782Y-167491206D01*
X60911150Y-167480645D01*
X60956965Y-167466848D01*
X60999793Y-167450184D01*
X61038199Y-167431025D01*
X61070747Y-167409741D01*
X61077108Y-167405001D01*
X61084807Y-167399639D01*
X61088572Y-167397553D01*
X61088809Y-167398236D01*
X61089323Y-167404712D01*
X61089764Y-167417150D01*
X61090109Y-167434477D01*
X61090334Y-167455619D01*
X61090414Y-167479501D01*
X61090414Y-167561450D01*
X61065101Y-167572977D01*
X61061409Y-167574624D01*
X61030497Y-167586478D01*
X60994070Y-167597619D01*
X60953873Y-167607607D01*
X60911653Y-167616001D01*
X60869154Y-167622362D01*
X60865917Y-167622728D01*
X60846203Y-167624087D01*
X60821365Y-167624763D01*
X60793206Y-167624802D01*
X60763527Y-167624252D01*
X60734131Y-167623158D01*
X60706820Y-167621568D01*
X60683396Y-167619529D01*
X60665662Y-167617087D01*
X60653899Y-167614820D01*
X60598606Y-167600984D01*
X60549375Y-167582950D01*
X60505994Y-167560597D01*
X60468254Y-167533799D01*
X60435943Y-167502433D01*
X60408852Y-167466377D01*
X60397137Y-167445260D01*
X60383171Y-167409534D01*
X60373621Y-167370336D01*
X60368658Y-167329336D01*
X60368451Y-167288204D01*
X60373172Y-167248612D01*
X60382988Y-167212229D01*
X60393848Y-167186853D01*
X60416220Y-167148988D01*
X60445408Y-167112086D01*
X60481002Y-167076586D01*
X60522591Y-167042930D01*
X60569765Y-167011557D01*
X60572404Y-167009996D01*
X60584650Y-167003092D01*
X60602125Y-166993560D01*
X60623726Y-166981989D01*
X60648353Y-166968965D01*
X60674901Y-166955077D01*
X60702270Y-166940911D01*
X60704281Y-166939876D01*
X60743940Y-166919232D01*
X60777528Y-166901234D01*
X60805767Y-166885439D01*
X60829375Y-166871401D01*
X60849074Y-166858677D01*
X60865584Y-166846822D01*
X60879625Y-166835393D01*
X60891918Y-166823944D01*
X60900496Y-166814724D01*
X60919931Y-166787005D01*
X60933628Y-166756261D01*
X60941368Y-166723719D01*
X60942935Y-166690607D01*
X60938112Y-166658151D01*
X60926681Y-166627579D01*
X60926550Y-166627321D01*
X60909566Y-166601919D01*
X60886125Y-166579019D01*
X60856998Y-166559148D01*
X60822957Y-166542833D01*
X60784774Y-166530603D01*
X60773033Y-166527847D01*
X60759921Y-166525419D01*
X60746114Y-166523779D01*
X60729912Y-166522783D01*
X60709614Y-166522291D01*
X60683519Y-166522160D01*
X60667869Y-166522300D01*
X60612290Y-166525394D01*
X60562043Y-166532694D01*
X60516306Y-166544398D01*
X60474255Y-166560704D01*
X60435070Y-166581809D01*
X60419131Y-166591688D01*
X60419131Y-166434679D01*
X60437706Y-166426688D01*
X60465169Y-166416810D01*
X60504622Y-166407309D01*
X60550827Y-166400480D01*
X60603633Y-166396344D01*
X60662893Y-166394922D01*
X60691078Y-166395140D01*
G37*
G36*
X45067115Y-167096477D02*
G01*
X45066184Y-167128742D01*
X45064774Y-167156461D01*
X45062876Y-167178167D01*
X45052215Y-167249062D01*
X45037438Y-167314827D01*
X45018687Y-167374506D01*
X44996000Y-167428043D01*
X44969411Y-167475382D01*
X44938956Y-167516468D01*
X44904673Y-167551245D01*
X44866597Y-167579657D01*
X44824764Y-167601647D01*
X44779211Y-167617160D01*
X44771783Y-167618908D01*
X44743679Y-167623368D01*
X44711731Y-167625862D01*
X44678557Y-167626329D01*
X44646774Y-167624706D01*
X44618996Y-167620933D01*
X44606211Y-167618195D01*
X44558725Y-167603441D01*
X44514984Y-167582205D01*
X44475004Y-167554513D01*
X44438803Y-167520388D01*
X44406399Y-167479855D01*
X44377810Y-167432938D01*
X44353052Y-167379661D01*
X44332145Y-167320049D01*
X44315104Y-167254126D01*
X44301947Y-167181917D01*
X44300591Y-167171167D01*
X44298537Y-167147035D01*
X44296920Y-167117426D01*
X44295738Y-167083623D01*
X44294991Y-167046911D01*
X44294962Y-167043314D01*
X44432658Y-167043314D01*
X44433064Y-167078953D01*
X44434038Y-167110827D01*
X44435608Y-167137386D01*
X44437740Y-167161284D01*
X44445946Y-167225800D01*
X44457214Y-167283551D01*
X44471585Y-167334615D01*
X44489099Y-167379070D01*
X44509796Y-167416994D01*
X44533717Y-167448466D01*
X44560903Y-167473565D01*
X44591394Y-167492367D01*
X44625229Y-167504953D01*
X44637767Y-167507270D01*
X44657175Y-167508956D01*
X44679197Y-167509519D01*
X44701325Y-167508966D01*
X44721048Y-167507306D01*
X44735860Y-167504550D01*
X44742441Y-167502558D01*
X44775188Y-167488957D01*
X44804116Y-167470043D01*
X44829759Y-167445318D01*
X44852654Y-167414282D01*
X44873338Y-167376434D01*
X44879859Y-167361795D01*
X44894217Y-167321408D01*
X44906331Y-167274944D01*
X44916089Y-167223200D01*
X44923378Y-167166976D01*
X44928086Y-167107070D01*
X44930100Y-167044281D01*
X44929307Y-166979407D01*
X44927853Y-166945383D01*
X44922577Y-166873874D01*
X44914476Y-166809149D01*
X44903495Y-166751073D01*
X44889579Y-166699512D01*
X44872671Y-166654328D01*
X44852718Y-166615388D01*
X44829663Y-166582556D01*
X44803452Y-166555696D01*
X44774029Y-166534673D01*
X44741338Y-166519351D01*
X44734442Y-166517174D01*
X44712584Y-166512936D01*
X44687113Y-166510782D01*
X44660633Y-166510756D01*
X44635750Y-166512900D01*
X44615068Y-166517257D01*
X44608508Y-166519438D01*
X44576981Y-166534622D01*
X44548465Y-166556658D01*
X44522971Y-166585522D01*
X44500511Y-166621195D01*
X44481097Y-166663654D01*
X44464740Y-166712878D01*
X44451452Y-166768847D01*
X44441245Y-166831539D01*
X44440550Y-166837191D01*
X44438148Y-166862877D01*
X44436143Y-166894097D01*
X44434562Y-166929300D01*
X44433436Y-166966937D01*
X44432792Y-167005459D01*
X44432658Y-167043314D01*
X44294962Y-167043314D01*
X44294681Y-167008573D01*
X44294806Y-166969891D01*
X44295367Y-166932151D01*
X44296363Y-166896636D01*
X44297795Y-166864629D01*
X44299662Y-166837414D01*
X44301965Y-166816274D01*
X44305945Y-166790137D01*
X44318333Y-166725412D01*
X44333468Y-166667294D01*
X44351492Y-166615458D01*
X44372545Y-166569582D01*
X44396769Y-166529340D01*
X44424305Y-166494410D01*
X44455294Y-166464466D01*
X44470309Y-166453134D01*
X44493979Y-166438311D01*
X44520023Y-166424555D01*
X44545825Y-166413222D01*
X44568771Y-166405665D01*
X44615150Y-166396860D01*
X44665711Y-166393600D01*
X44715615Y-166396728D01*
X44763976Y-166406068D01*
X44809907Y-166421445D01*
X44852522Y-166442683D01*
X44890932Y-166469604D01*
X44903987Y-166481013D01*
X44937177Y-166516625D01*
X44966821Y-166558778D01*
X44992890Y-166607405D01*
X45015358Y-166662441D01*
X45034195Y-166723821D01*
X45049374Y-166791479D01*
X45060866Y-166865349D01*
X45061044Y-166866799D01*
X45063195Y-166889734D01*
X45064933Y-166918410D01*
X45066250Y-166951357D01*
X45067137Y-166987107D01*
X45067582Y-167024190D01*
X45067580Y-167044281D01*
X45067578Y-167061137D01*
X45067115Y-167096477D01*
G37*
G36*
X57229374Y-167438025D02*
G01*
X57221851Y-167466546D01*
X57205812Y-167503945D01*
X57183877Y-167536993D01*
X57156385Y-167565358D01*
X57123676Y-167588708D01*
X57086090Y-167606711D01*
X57043965Y-167619037D01*
X57022425Y-167622569D01*
X56991348Y-167625233D01*
X56958634Y-167625868D01*
X56927225Y-167624436D01*
X56900062Y-167620898D01*
X56857273Y-167609156D01*
X56816436Y-167590464D01*
X56779061Y-167565314D01*
X56745579Y-167533996D01*
X56716416Y-167496800D01*
X56698948Y-167470761D01*
X56698948Y-167607563D01*
X56563665Y-167607563D01*
X56564817Y-167285985D01*
X56565002Y-167234820D01*
X56565064Y-167218770D01*
X56699306Y-167218770D01*
X56699834Y-167246608D01*
X56700174Y-167259317D01*
X56700954Y-167282046D01*
X56701939Y-167299496D01*
X56703304Y-167313190D01*
X56705225Y-167324645D01*
X56707879Y-167335384D01*
X56711440Y-167346925D01*
X56712221Y-167349280D01*
X56728030Y-167386871D01*
X56748918Y-167419776D01*
X56775844Y-167449525D01*
X56803235Y-167472314D01*
X56835768Y-167491649D01*
X56870123Y-167504117D01*
X56883622Y-167506763D01*
X56906912Y-167509121D01*
X56933876Y-167509856D01*
X56966384Y-167508286D01*
X56993827Y-167503493D01*
X57017209Y-167494934D01*
X57038011Y-167482067D01*
X57057714Y-167464346D01*
X57062451Y-167459219D01*
X57080009Y-167434219D01*
X57090921Y-167406360D01*
X57095303Y-167375236D01*
X57093272Y-167340443D01*
X57087356Y-167311081D01*
X57078090Y-167287062D01*
X57064630Y-167267544D01*
X57046068Y-167251215D01*
X57021494Y-167236760D01*
X57019592Y-167235825D01*
X57000514Y-167227658D01*
X56978877Y-167219986D01*
X56959006Y-167214360D01*
X56952725Y-167213066D01*
X56938798Y-167210572D01*
X56919834Y-167207416D01*
X56896964Y-167203765D01*
X56871320Y-167199786D01*
X56844033Y-167195648D01*
X56816234Y-167191518D01*
X56789054Y-167187564D01*
X56763625Y-167183953D01*
X56741078Y-167180852D01*
X56722543Y-167178430D01*
X56709153Y-167176854D01*
X56702039Y-167176292D01*
X56701070Y-167177421D01*
X56699915Y-167184448D01*
X56699330Y-167198140D01*
X56699306Y-167218770D01*
X56565064Y-167218770D01*
X56565196Y-167184620D01*
X56565392Y-167140949D01*
X56565602Y-167103294D01*
X56565840Y-167071143D01*
X56566121Y-167043985D01*
X56566458Y-167021308D01*
X56566865Y-167002600D01*
X56567356Y-166987349D01*
X56567944Y-166975044D01*
X56568643Y-166965172D01*
X56569468Y-166957222D01*
X56570432Y-166950682D01*
X56571548Y-166945041D01*
X56572830Y-166939785D01*
X56574294Y-166934405D01*
X56583579Y-166905568D01*
X56602228Y-166864512D01*
X56625667Y-166829121D01*
X56653826Y-166799474D01*
X56686637Y-166775655D01*
X56724030Y-166757745D01*
X56736482Y-166753240D01*
X56758728Y-166746391D01*
X56780655Y-166741570D01*
X56804207Y-166738481D01*
X56831326Y-166736825D01*
X56863956Y-166736304D01*
X56909966Y-166737643D01*
X56964756Y-166743660D01*
X57016238Y-166754826D01*
X57065909Y-166771484D01*
X57115264Y-166793979D01*
X57152721Y-166813219D01*
X57152721Y-166882250D01*
X57152638Y-166903761D01*
X57152404Y-166922795D01*
X57152047Y-166937840D01*
X57151594Y-166947725D01*
X57151073Y-166951281D01*
X57150006Y-166950779D01*
X57144012Y-166946949D01*
X57134111Y-166940171D01*
X57121757Y-166931429D01*
X57096097Y-166914237D01*
X57046507Y-166887536D01*
X56994845Y-166867999D01*
X56940920Y-166855544D01*
X56939501Y-166855316D01*
X56894357Y-166850403D01*
X56854271Y-166850925D01*
X56819065Y-166856949D01*
X56788562Y-166868542D01*
X56762583Y-166885769D01*
X56740952Y-166908699D01*
X56723492Y-166937398D01*
X56718736Y-166948503D01*
X56712962Y-166965755D01*
X56707865Y-166984936D01*
X56703649Y-167004743D01*
X56700521Y-167023872D01*
X56698686Y-167041020D01*
X56698348Y-167054882D01*
X56699714Y-167064155D01*
X56702989Y-167067536D01*
X56706335Y-167067747D01*
X56717245Y-167068965D01*
X56733953Y-167071138D01*
X56755457Y-167074111D01*
X56780751Y-167077732D01*
X56808834Y-167081848D01*
X56838701Y-167086307D01*
X56869349Y-167090956D01*
X56899775Y-167095642D01*
X56928975Y-167100213D01*
X56955945Y-167104516D01*
X56979683Y-167108398D01*
X56999184Y-167111706D01*
X57013446Y-167114289D01*
X57021464Y-167115993D01*
X57053630Y-167125874D01*
X57094669Y-167142966D01*
X57130588Y-167163532D01*
X57160710Y-167187167D01*
X57184357Y-167213466D01*
X57195498Y-167230157D01*
X57213970Y-167267263D01*
X57226848Y-167307868D01*
X57233877Y-167350707D01*
X57234395Y-167375236D01*
X57234803Y-167394514D01*
X57229374Y-167438025D01*
G37*
G36*
X60772884Y-165481208D02*
G01*
X60771581Y-165529442D01*
X60765827Y-165588100D01*
X60755341Y-165641546D01*
X60739969Y-165690247D01*
X60719556Y-165734668D01*
X60693947Y-165775276D01*
X60662988Y-165812536D01*
X60643306Y-165831883D01*
X60606245Y-165860956D01*
X60565387Y-165884145D01*
X60520102Y-165901782D01*
X60469759Y-165914199D01*
X60454173Y-165916367D01*
X60429180Y-165918157D01*
X60400056Y-165918918D01*
X60368639Y-165918695D01*
X60336766Y-165917533D01*
X60306275Y-165915479D01*
X60279004Y-165912579D01*
X60256790Y-165908879D01*
X60223822Y-165900696D01*
X60184766Y-165888126D01*
X60148911Y-165873441D01*
X60118399Y-165857437D01*
X60089115Y-165839734D01*
X60089115Y-165776727D01*
X60089183Y-165760656D01*
X60089457Y-165741959D01*
X60089904Y-165727087D01*
X60090485Y-165717266D01*
X60091160Y-165713720D01*
X60092053Y-165714058D01*
X60097946Y-165717463D01*
X60107851Y-165723749D01*
X60120224Y-165731947D01*
X60137140Y-165742938D01*
X60180479Y-165766932D01*
X60223845Y-165784509D01*
X60268678Y-165796081D01*
X60316417Y-165802057D01*
X60368504Y-165802851D01*
X60381170Y-165802431D01*
X60401408Y-165801454D01*
X60417076Y-165800052D01*
X60430115Y-165797950D01*
X60442469Y-165794877D01*
X60456079Y-165790560D01*
X60484634Y-165779180D01*
X60519962Y-165758911D01*
X60550497Y-165733151D01*
X60576838Y-165701459D01*
X60577750Y-165700153D01*
X60598237Y-165665473D01*
X60613790Y-165627268D01*
X60624718Y-165584597D01*
X60631332Y-165536523D01*
X60633926Y-165507459D01*
X60032862Y-165507459D01*
X60032862Y-165438454D01*
X60034168Y-165394954D01*
X60170488Y-165394954D01*
X60629142Y-165394954D01*
X60629142Y-165386178D01*
X60628633Y-165379889D01*
X60625906Y-165365367D01*
X60621369Y-165347423D01*
X60615645Y-165328241D01*
X60609358Y-165310008D01*
X60603129Y-165294908D01*
X60602239Y-165293022D01*
X60579973Y-165253787D01*
X60553388Y-165220063D01*
X60523002Y-165192130D01*
X60489337Y-165170267D01*
X60452910Y-165154755D01*
X60414243Y-165145873D01*
X60373855Y-165143901D01*
X60332266Y-165149118D01*
X60322315Y-165151435D01*
X60291370Y-165162123D01*
X60264313Y-165177815D01*
X60239022Y-165199660D01*
X60229073Y-165210345D01*
X60206557Y-165241372D01*
X60189811Y-165276378D01*
X60178637Y-165315848D01*
X60172835Y-165360265D01*
X60170488Y-165394954D01*
X60034168Y-165394954D01*
X60034480Y-165384576D01*
X60040353Y-165328708D01*
X60050678Y-165278173D01*
X60065617Y-165232478D01*
X60085336Y-165191134D01*
X60109999Y-165153651D01*
X60139771Y-165119539D01*
X60146435Y-165112998D01*
X60177789Y-165086629D01*
X60211382Y-165065717D01*
X60248317Y-165049764D01*
X60289698Y-165038272D01*
X60336627Y-165030744D01*
X60345697Y-165029812D01*
X60398983Y-165028546D01*
X60450711Y-165034453D01*
X60500429Y-165047315D01*
X60547684Y-165066911D01*
X60592023Y-165093022D01*
X60632995Y-165125430D01*
X60670145Y-165163915D01*
X60703022Y-165208257D01*
X60717078Y-165231521D01*
X60737771Y-165274106D01*
X60753475Y-165319499D01*
X60764414Y-165368568D01*
X60767561Y-165394954D01*
X60770809Y-165422182D01*
X60772884Y-165481208D01*
G37*
G36*
X58828116Y-166523857D02*
G01*
X58894681Y-166545593D01*
X58896673Y-166756271D01*
X59042814Y-166756271D01*
X59042814Y-166868776D01*
X58896861Y-166868776D01*
X58895579Y-167158478D01*
X58895453Y-167186225D01*
X58895202Y-167236819D01*
X58894943Y-167280705D01*
X58894663Y-167318413D01*
X58894349Y-167350472D01*
X58893987Y-167377413D01*
X58893566Y-167399764D01*
X58893071Y-167418056D01*
X58892490Y-167432819D01*
X58891809Y-167444581D01*
X58891015Y-167453873D01*
X58890096Y-167461225D01*
X58889038Y-167467166D01*
X58887828Y-167472225D01*
X58876259Y-167505884D01*
X58858290Y-167539701D01*
X58835598Y-167568228D01*
X58808545Y-167591102D01*
X58777491Y-167607957D01*
X58742799Y-167618431D01*
X58734483Y-167620067D01*
X58722508Y-167622424D01*
X58714673Y-167623967D01*
X58707535Y-167625087D01*
X58685778Y-167626381D01*
X58660234Y-167625713D01*
X58633152Y-167623321D01*
X58606782Y-167619442D01*
X58583373Y-167614314D01*
X58565175Y-167608175D01*
X58547789Y-167600484D01*
X58547789Y-167485086D01*
X58571102Y-167496634D01*
X58576276Y-167499162D01*
X58585873Y-167503356D01*
X58594758Y-167505991D01*
X58604984Y-167507421D01*
X58618603Y-167507996D01*
X58637668Y-167508071D01*
X58655259Y-167507885D01*
X58670029Y-167507180D01*
X58680926Y-167505680D01*
X58689884Y-167503105D01*
X58698837Y-167499172D01*
X58709668Y-167493028D01*
X58727480Y-167477691D01*
X58741166Y-167457409D01*
X58751106Y-167431536D01*
X58757682Y-167399428D01*
X58757703Y-167399278D01*
X58758396Y-167390365D01*
X58759039Y-167374563D01*
X58759625Y-167352467D01*
X58760144Y-167324670D01*
X58760591Y-167291767D01*
X58760955Y-167254352D01*
X58761229Y-167213019D01*
X58761405Y-167168362D01*
X58761476Y-167120976D01*
X58761550Y-166868776D01*
X58547789Y-166868776D01*
X58547789Y-166756271D01*
X58761550Y-166756271D01*
X58761550Y-166502121D01*
X58828116Y-166523857D01*
G37*
G36*
X59613017Y-165030418D02*
G01*
X59660869Y-165037224D01*
X59706444Y-165048597D01*
X59748907Y-165064385D01*
X59787420Y-165084436D01*
X59821145Y-165108599D01*
X59849246Y-165136721D01*
X59862205Y-165153451D01*
X59878738Y-165180740D01*
X59889775Y-165209199D01*
X59895940Y-165240627D01*
X59897856Y-165276823D01*
X59897357Y-165296623D01*
X59893974Y-165326376D01*
X59886942Y-165353037D01*
X59875733Y-165379042D01*
X59866601Y-165395133D01*
X59853345Y-165413412D01*
X59837190Y-165430567D01*
X59817511Y-165447016D01*
X59793682Y-165463176D01*
X59765076Y-165479464D01*
X59731066Y-165496299D01*
X59691028Y-165514096D01*
X59644334Y-165533275D01*
X59632891Y-165537867D01*
X59601313Y-165551040D01*
X59575564Y-165562744D01*
X59554628Y-165573530D01*
X59537487Y-165583952D01*
X59523124Y-165594561D01*
X59510521Y-165605910D01*
X59497437Y-165620291D01*
X59485969Y-165638631D01*
X59479802Y-165658824D01*
X59477917Y-165683283D01*
X59478023Y-165692832D01*
X59479882Y-165714249D01*
X59484644Y-165731322D01*
X59493077Y-165746181D01*
X59505951Y-165760958D01*
X59519728Y-165773115D01*
X59538595Y-165784933D01*
X59560580Y-165793604D01*
X59586713Y-165799422D01*
X59618025Y-165802681D01*
X59655543Y-165803675D01*
X59659249Y-165803659D01*
X59709563Y-165800724D01*
X59756497Y-165792422D01*
X59801478Y-165778313D01*
X59845934Y-165757957D01*
X59891293Y-165730911D01*
X59901606Y-165724108D01*
X59901606Y-165870223D01*
X59875203Y-165882029D01*
X59843646Y-165894286D01*
X59803548Y-165905972D01*
X59760974Y-165914759D01*
X59748257Y-165916402D01*
X59723884Y-165918092D01*
X59695481Y-165918795D01*
X59664964Y-165918562D01*
X59634251Y-165917446D01*
X59605259Y-165915497D01*
X59579903Y-165912769D01*
X59560100Y-165909313D01*
X59532035Y-165901923D01*
X59485827Y-165885167D01*
X59445574Y-165864107D01*
X59411354Y-165838806D01*
X59383248Y-165809328D01*
X59361337Y-165775736D01*
X59345699Y-165738096D01*
X59343307Y-165729933D01*
X59339816Y-165713484D01*
X59337997Y-165695275D01*
X59337493Y-165672468D01*
X59338205Y-165650728D01*
X59343067Y-165616005D01*
X59352971Y-165585294D01*
X59368431Y-165557201D01*
X59389963Y-165530333D01*
X59398673Y-165521329D01*
X59414467Y-165507005D01*
X59432227Y-165493521D01*
X59452821Y-165480378D01*
X59477122Y-165467081D01*
X59505999Y-165453132D01*
X59540324Y-165438034D01*
X59580965Y-165421291D01*
X59602030Y-165412729D01*
X59624011Y-165403612D01*
X59643704Y-165395262D01*
X59659546Y-165388343D01*
X59669976Y-165383517D01*
X59692875Y-165371180D01*
X59718161Y-165353728D01*
X59736885Y-165334990D01*
X59749587Y-165314235D01*
X59756811Y-165290737D01*
X59759099Y-165263766D01*
X59758387Y-165251233D01*
X59751744Y-165224962D01*
X59738371Y-165201535D01*
X59718576Y-165181409D01*
X59692668Y-165165043D01*
X59680694Y-165159437D01*
X59665247Y-165153615D01*
X59649290Y-165149657D01*
X59631085Y-165147266D01*
X59608890Y-165146146D01*
X59580965Y-165145999D01*
X59552615Y-165146841D01*
X59515249Y-165150561D01*
X59481080Y-165157704D01*
X59447812Y-165168796D01*
X59413144Y-165184363D01*
X59376580Y-165202555D01*
X59376580Y-165065699D01*
X59403769Y-165055950D01*
X59415596Y-165051898D01*
X59464179Y-165038919D01*
X59513835Y-165031114D01*
X59563727Y-165028331D01*
X59613017Y-165030418D01*
G37*
G36*
X46653141Y-166303343D02*
G01*
X46714082Y-166304374D01*
X46715028Y-167156603D01*
X46715973Y-168008833D01*
X46592201Y-168008833D01*
X46592201Y-166302313D01*
X46653141Y-166303343D01*
G37*
G36*
X50453953Y-164817523D02*
G01*
X50520519Y-164839259D01*
X50522511Y-165049937D01*
X50668652Y-165049937D01*
X50668652Y-165162443D01*
X50522699Y-165162443D01*
X50521417Y-165452144D01*
X50521291Y-165479891D01*
X50521040Y-165530485D01*
X50520781Y-165574371D01*
X50520501Y-165612079D01*
X50520187Y-165644138D01*
X50519825Y-165671079D01*
X50519404Y-165693430D01*
X50518909Y-165711722D01*
X50518327Y-165726485D01*
X50517647Y-165738247D01*
X50516853Y-165747539D01*
X50515934Y-165754891D01*
X50514876Y-165760832D01*
X50513666Y-165765891D01*
X50502097Y-165799550D01*
X50484128Y-165833367D01*
X50461436Y-165861894D01*
X50434383Y-165884768D01*
X50403329Y-165901623D01*
X50368637Y-165912097D01*
X50360321Y-165913734D01*
X50348346Y-165916090D01*
X50340510Y-165917633D01*
X50333372Y-165918753D01*
X50311616Y-165920047D01*
X50286072Y-165919379D01*
X50258990Y-165916987D01*
X50232620Y-165913108D01*
X50209211Y-165907980D01*
X50191013Y-165901841D01*
X50173627Y-165894150D01*
X50173627Y-165778752D01*
X50196940Y-165790300D01*
X50202114Y-165792828D01*
X50211711Y-165797022D01*
X50220596Y-165799658D01*
X50230822Y-165801087D01*
X50244441Y-165801662D01*
X50263506Y-165801737D01*
X50281097Y-165801551D01*
X50295867Y-165800846D01*
X50306764Y-165799346D01*
X50315722Y-165796771D01*
X50324675Y-165792838D01*
X50335505Y-165786694D01*
X50353318Y-165771357D01*
X50367003Y-165751075D01*
X50376944Y-165725202D01*
X50383520Y-165693094D01*
X50383541Y-165692944D01*
X50384234Y-165684031D01*
X50384877Y-165668229D01*
X50385462Y-165646133D01*
X50385982Y-165618336D01*
X50386429Y-165585433D01*
X50386793Y-165548018D01*
X50387067Y-165506685D01*
X50387243Y-165462028D01*
X50387313Y-165414642D01*
X50387388Y-165162443D01*
X50173627Y-165162443D01*
X50173627Y-165049937D01*
X50387388Y-165049937D01*
X50387388Y-164795787D01*
X50453953Y-164817523D01*
G37*
G36*
X58822153Y-165546464D02*
G01*
X58819856Y-165579310D01*
X58816196Y-165606839D01*
X58805237Y-165655364D01*
X58787615Y-165707388D01*
X58764899Y-165754144D01*
X58737167Y-165795515D01*
X58704498Y-165831386D01*
X58666972Y-165861642D01*
X58624668Y-165886168D01*
X58611766Y-165892254D01*
X58587899Y-165902269D01*
X58565651Y-165909405D01*
X58542751Y-165914199D01*
X58516928Y-165917187D01*
X58485911Y-165918903D01*
X58448319Y-165918951D01*
X58400969Y-165914429D01*
X58357646Y-165904412D01*
X58317516Y-165888692D01*
X58279743Y-165867057D01*
X58260828Y-165852758D01*
X58240226Y-165834406D01*
X58220084Y-165814104D01*
X58202364Y-165793832D01*
X58189032Y-165775570D01*
X58184735Y-165769111D01*
X58178997Y-165761641D01*
X58175583Y-165758729D01*
X58175536Y-165758732D01*
X58174172Y-165762509D01*
X58173318Y-165772749D01*
X58172968Y-165788461D01*
X58173115Y-165808656D01*
X58173751Y-165832342D01*
X58174870Y-165858530D01*
X58176465Y-165886228D01*
X58179342Y-165918313D01*
X58187808Y-165969188D01*
X58200815Y-166014250D01*
X58218511Y-166053703D01*
X58241043Y-166087755D01*
X58268559Y-166116611D01*
X58301207Y-166140479D01*
X58339134Y-166159564D01*
X58382489Y-166174073D01*
X58395561Y-166177381D01*
X58408875Y-166180124D01*
X58422361Y-166181976D01*
X58437849Y-166183118D01*
X58457172Y-166183734D01*
X58482161Y-166184006D01*
X58522609Y-166183150D01*
X58562292Y-166179508D01*
X58599963Y-166172611D01*
X58637514Y-166162014D01*
X58676836Y-166147270D01*
X58719821Y-166127932D01*
X58721761Y-166127003D01*
X58737772Y-166119391D01*
X58751015Y-166113190D01*
X58760163Y-166109017D01*
X58763886Y-166107489D01*
X58764310Y-166110620D01*
X58764706Y-166120129D01*
X58765020Y-166134850D01*
X58765226Y-166153600D01*
X58765300Y-166175199D01*
X58765300Y-166242908D01*
X58743736Y-166252471D01*
X58719913Y-166262229D01*
X58672129Y-166277938D01*
X58621362Y-166290195D01*
X58570290Y-166298294D01*
X58559137Y-166299389D01*
X58531015Y-166301072D01*
X58499357Y-166301841D01*
X58466828Y-166301691D01*
X58436095Y-166300617D01*
X58409822Y-166298614D01*
X58399562Y-166297390D01*
X58365526Y-166291790D01*
X58330635Y-166284020D01*
X58297673Y-166274755D01*
X58269425Y-166264667D01*
X58247241Y-166254664D01*
X58203597Y-166229138D01*
X58164717Y-166197929D01*
X58130796Y-166161264D01*
X58102026Y-166119370D01*
X58078603Y-166072472D01*
X58060720Y-166020798D01*
X58058522Y-166012932D01*
X58055684Y-166002667D01*
X58053150Y-165993014D01*
X58050903Y-165983523D01*
X58048923Y-165973744D01*
X58047192Y-165963224D01*
X58045692Y-165951515D01*
X58044403Y-165938164D01*
X58043307Y-165922722D01*
X58042387Y-165904737D01*
X58041622Y-165883759D01*
X58040996Y-165859337D01*
X58040488Y-165831020D01*
X58040081Y-165798359D01*
X58039756Y-165760901D01*
X58039494Y-165718196D01*
X58039277Y-165669794D01*
X58039087Y-165615244D01*
X58038905Y-165554095D01*
X58038712Y-165485896D01*
X58038568Y-165435386D01*
X58173539Y-165435386D01*
X58173751Y-165465578D01*
X58174534Y-165496326D01*
X58175839Y-165526020D01*
X58177617Y-165553049D01*
X58179819Y-165575805D01*
X58182394Y-165592677D01*
X58183330Y-165597065D01*
X58195837Y-165638454D01*
X58214034Y-165676778D01*
X58237286Y-165711339D01*
X58264962Y-165741437D01*
X58296429Y-165766373D01*
X58331055Y-165785450D01*
X58368208Y-165797968D01*
X58383552Y-165800682D01*
X58407207Y-165802803D01*
X58433197Y-165803444D01*
X58459096Y-165802629D01*
X58482476Y-165800379D01*
X58500912Y-165796718D01*
X58533363Y-165784748D01*
X58568375Y-165764660D01*
X58599325Y-165738286D01*
X58626170Y-165705667D01*
X58648863Y-165666842D01*
X58655784Y-165651989D01*
X58666351Y-165624504D01*
X58674041Y-165596127D01*
X58679161Y-165565251D01*
X58682022Y-165530270D01*
X58682930Y-165489578D01*
X58682777Y-165473428D01*
X58679232Y-165416587D01*
X58670925Y-165365199D01*
X58657765Y-165318919D01*
X58639660Y-165277405D01*
X58616518Y-165240311D01*
X58606344Y-165227470D01*
X58578109Y-165199759D01*
X58545945Y-165177501D01*
X58510751Y-165160782D01*
X58473430Y-165149688D01*
X58434884Y-165144303D01*
X58396015Y-165144715D01*
X58357724Y-165151007D01*
X58320914Y-165163266D01*
X58286486Y-165181578D01*
X58255341Y-165206027D01*
X58233513Y-165228735D01*
X58210475Y-165260072D01*
X58193524Y-165294001D01*
X58182116Y-165331668D01*
X58175708Y-165374221D01*
X58175025Y-165383107D01*
X58173947Y-165407359D01*
X58173539Y-165435386D01*
X58038568Y-165435386D01*
X58037470Y-165049937D01*
X58172771Y-165049937D01*
X58172771Y-165108065D01*
X58172829Y-165119808D01*
X58173181Y-165138176D01*
X58173798Y-165152862D01*
X58174620Y-165162593D01*
X58175583Y-165166096D01*
X58178235Y-165164016D01*
X58183970Y-165157165D01*
X58191145Y-165147207D01*
X58206786Y-165126763D01*
X58236171Y-165097518D01*
X58270427Y-165072370D01*
X58308233Y-165052236D01*
X58348267Y-165038035D01*
X58358489Y-165035772D01*
X58380864Y-165032668D01*
X58407279Y-165030647D01*
X58435581Y-165029759D01*
X58463618Y-165030051D01*
X58489238Y-165031573D01*
X58510287Y-165034373D01*
X58520956Y-165036563D01*
X58571141Y-165051162D01*
X58617259Y-165071979D01*
X58659173Y-165098854D01*
X58696740Y-165131631D01*
X58729820Y-165170148D01*
X58758274Y-165214249D01*
X58781960Y-165263773D01*
X58800739Y-165318563D01*
X58814470Y-165378459D01*
X58818020Y-165403073D01*
X58821020Y-165436608D01*
X58822719Y-165473057D01*
X58822889Y-165489578D01*
X58823102Y-165510361D01*
X58822153Y-165546464D01*
G37*
G36*
X46258434Y-165229946D02*
G01*
X46877215Y-165229946D01*
X46877215Y-164708670D01*
X47015972Y-164708670D01*
X47015972Y-165901229D01*
X46877215Y-165901229D01*
X46877215Y-165357452D01*
X46258434Y-165357452D01*
X46258434Y-165901229D01*
X46119678Y-165901229D01*
X46119678Y-164708670D01*
X46258434Y-164708670D01*
X46258434Y-165229946D01*
G37*
G36*
X48734646Y-165031953D02*
G01*
X48786425Y-165040307D01*
X48835876Y-165053671D01*
X48881689Y-165072021D01*
X48894147Y-165078235D01*
X48940522Y-165106412D01*
X48981860Y-165140028D01*
X49018028Y-165178872D01*
X49048892Y-165222732D01*
X49074318Y-165271398D01*
X49094172Y-165324657D01*
X49108322Y-165382298D01*
X49116633Y-165444110D01*
X49118287Y-165470566D01*
X49117599Y-165531462D01*
X49110523Y-165589483D01*
X49097176Y-165644293D01*
X49077677Y-165695555D01*
X49052143Y-165742931D01*
X49020693Y-165786083D01*
X48983445Y-165824675D01*
X48976610Y-165830666D01*
X48937474Y-165859382D01*
X48893661Y-165883201D01*
X48846491Y-165901492D01*
X48797287Y-165913624D01*
X48779525Y-165916115D01*
X48750559Y-165918410D01*
X48718575Y-165919394D01*
X48686100Y-165919056D01*
X48655660Y-165917386D01*
X48629783Y-165914371D01*
X48626862Y-165913883D01*
X48604152Y-165909221D01*
X48580262Y-165903020D01*
X48556405Y-165895730D01*
X48533797Y-165887804D01*
X48513654Y-165879693D01*
X48497189Y-165871848D01*
X48485617Y-165864721D01*
X48480154Y-165858763D01*
X48479782Y-165856235D01*
X48479357Y-165846985D01*
X48479138Y-165832493D01*
X48479142Y-165814139D01*
X48479385Y-165793301D01*
X48480419Y-165732539D01*
X48497295Y-165743966D01*
X48509394Y-165751729D01*
X48541842Y-165769360D01*
X48576186Y-165784201D01*
X48609105Y-165794742D01*
X48633388Y-165799503D01*
X48665738Y-165802893D01*
X48699606Y-165803863D01*
X48732145Y-165802348D01*
X48760505Y-165798280D01*
X48790351Y-165790145D01*
X48829993Y-165773054D01*
X48865785Y-165749915D01*
X48897339Y-165721160D01*
X48924273Y-165687223D01*
X48946200Y-165648535D01*
X48962736Y-165605531D01*
X48973497Y-165558643D01*
X48974131Y-165554299D01*
X48976261Y-165531442D01*
X48977333Y-165504259D01*
X48977374Y-165475104D01*
X48976413Y-165446331D01*
X48974478Y-165420294D01*
X48971597Y-165399347D01*
X48969330Y-165388239D01*
X48955432Y-165339898D01*
X48935945Y-165296015D01*
X48911097Y-165256906D01*
X48881118Y-165222888D01*
X48846237Y-165194279D01*
X48806685Y-165171396D01*
X48794836Y-165165934D01*
X48773589Y-165157453D01*
X48753313Y-165151624D01*
X48731908Y-165148034D01*
X48707272Y-165146270D01*
X48677304Y-165145916D01*
X48667186Y-165146005D01*
X48646674Y-165146470D01*
X48630759Y-165147484D01*
X48617379Y-165149290D01*
X48604469Y-165152132D01*
X48589968Y-165156255D01*
X48577141Y-165160460D01*
X48553519Y-165169509D01*
X48530033Y-165179905D01*
X48509057Y-165190567D01*
X48492966Y-165200415D01*
X48492490Y-165200749D01*
X48485089Y-165205489D01*
X48480777Y-165207445D01*
X48480086Y-165204055D01*
X48479469Y-165194312D01*
X48478980Y-165179385D01*
X48478659Y-165160446D01*
X48478544Y-165138668D01*
X48478544Y-165069892D01*
X48488857Y-165065091D01*
X48530422Y-165049096D01*
X48578426Y-165037180D01*
X48629337Y-165030367D01*
X48681847Y-165028632D01*
X48734646Y-165031953D01*
G37*
G36*
X56902693Y-165481208D02*
G01*
X56901390Y-165529442D01*
X56895636Y-165588100D01*
X56885151Y-165641546D01*
X56869778Y-165690247D01*
X56849365Y-165734668D01*
X56823756Y-165775276D01*
X56792798Y-165812536D01*
X56773115Y-165831883D01*
X56736054Y-165860956D01*
X56695196Y-165884145D01*
X56649911Y-165901782D01*
X56599568Y-165914199D01*
X56583982Y-165916367D01*
X56558989Y-165918157D01*
X56529866Y-165918918D01*
X56498448Y-165918695D01*
X56466575Y-165917533D01*
X56436084Y-165915479D01*
X56408813Y-165912579D01*
X56386599Y-165908879D01*
X56353632Y-165900696D01*
X56314575Y-165888126D01*
X56278721Y-165873441D01*
X56248209Y-165857437D01*
X56218925Y-165839734D01*
X56218925Y-165776727D01*
X56218993Y-165760656D01*
X56219266Y-165741959D01*
X56219714Y-165727087D01*
X56220294Y-165717266D01*
X56220969Y-165713720D01*
X56221862Y-165714058D01*
X56227755Y-165717463D01*
X56237660Y-165723749D01*
X56250033Y-165731947D01*
X56266950Y-165742938D01*
X56310288Y-165766932D01*
X56353654Y-165784509D01*
X56398487Y-165796081D01*
X56446227Y-165802057D01*
X56498313Y-165802851D01*
X56510979Y-165802431D01*
X56531218Y-165801454D01*
X56546885Y-165800052D01*
X56559925Y-165797950D01*
X56572279Y-165794877D01*
X56585889Y-165790560D01*
X56614444Y-165779180D01*
X56649771Y-165758911D01*
X56680307Y-165733151D01*
X56706647Y-165701459D01*
X56707559Y-165700153D01*
X56728047Y-165665473D01*
X56743600Y-165627268D01*
X56754528Y-165584597D01*
X56761142Y-165536523D01*
X56763736Y-165507459D01*
X56162672Y-165507459D01*
X56162672Y-165438454D01*
X56163978Y-165394954D01*
X56300298Y-165394954D01*
X56758951Y-165394954D01*
X56758951Y-165386178D01*
X56758442Y-165379889D01*
X56755715Y-165365367D01*
X56751178Y-165347423D01*
X56745455Y-165328241D01*
X56739167Y-165310008D01*
X56732938Y-165294908D01*
X56732049Y-165293022D01*
X56709783Y-165253787D01*
X56683197Y-165220063D01*
X56652812Y-165192130D01*
X56619146Y-165170267D01*
X56582720Y-165154755D01*
X56544053Y-165145873D01*
X56503665Y-165143901D01*
X56462075Y-165149118D01*
X56452125Y-165151435D01*
X56421180Y-165162123D01*
X56394123Y-165177815D01*
X56368832Y-165199660D01*
X56358882Y-165210345D01*
X56336366Y-165241372D01*
X56319621Y-165276378D01*
X56308447Y-165315848D01*
X56302644Y-165360265D01*
X56300298Y-165394954D01*
X56163978Y-165394954D01*
X56164289Y-165384576D01*
X56170163Y-165328708D01*
X56180487Y-165278173D01*
X56195427Y-165232478D01*
X56215146Y-165191134D01*
X56239809Y-165153651D01*
X56269580Y-165119539D01*
X56276245Y-165112998D01*
X56307598Y-165086629D01*
X56341191Y-165065717D01*
X56378127Y-165049764D01*
X56419508Y-165038272D01*
X56466437Y-165030744D01*
X56475506Y-165029812D01*
X56528792Y-165028546D01*
X56580520Y-165034453D01*
X56630238Y-165047315D01*
X56677493Y-165066911D01*
X56721833Y-165093022D01*
X56762804Y-165125430D01*
X56799955Y-165163915D01*
X56832832Y-165208257D01*
X56846888Y-165231521D01*
X56867580Y-165274106D01*
X56883285Y-165319499D01*
X56894223Y-165368568D01*
X56897371Y-165394954D01*
X56900619Y-165422182D01*
X56902693Y-165481208D01*
G37*
G36*
X62823000Y-167607563D02*
G01*
X62687993Y-167607563D01*
X62687993Y-166756271D01*
X62823000Y-166756271D01*
X62823000Y-167607563D01*
G37*
G36*
X60229522Y-167438025D02*
G01*
X60221999Y-167466546D01*
X60205960Y-167503945D01*
X60184025Y-167536993D01*
X60156533Y-167565358D01*
X60123824Y-167588708D01*
X60086237Y-167606711D01*
X60044113Y-167619037D01*
X60022573Y-167622569D01*
X59991496Y-167625233D01*
X59958782Y-167625868D01*
X59927373Y-167624436D01*
X59900209Y-167620898D01*
X59857421Y-167609156D01*
X59816583Y-167590464D01*
X59779209Y-167565314D01*
X59745727Y-167533996D01*
X59716564Y-167496800D01*
X59699096Y-167470761D01*
X59699096Y-167607563D01*
X59563812Y-167607563D01*
X59564964Y-167285985D01*
X59565150Y-167234820D01*
X59565212Y-167218770D01*
X59699453Y-167218770D01*
X59699982Y-167246608D01*
X59700322Y-167259317D01*
X59701102Y-167282046D01*
X59702087Y-167299496D01*
X59703452Y-167313190D01*
X59705373Y-167324645D01*
X59708026Y-167335384D01*
X59711587Y-167346925D01*
X59712369Y-167349280D01*
X59728178Y-167386871D01*
X59749066Y-167419776D01*
X59775992Y-167449525D01*
X59803382Y-167472314D01*
X59835915Y-167491649D01*
X59870271Y-167504117D01*
X59883769Y-167506763D01*
X59907059Y-167509121D01*
X59934024Y-167509856D01*
X59966531Y-167508286D01*
X59993974Y-167503493D01*
X60017356Y-167494934D01*
X60038158Y-167482067D01*
X60057861Y-167464346D01*
X60062598Y-167459219D01*
X60080156Y-167434219D01*
X60091069Y-167406360D01*
X60095451Y-167375236D01*
X60093420Y-167340443D01*
X60087504Y-167311081D01*
X60078237Y-167287062D01*
X60064778Y-167267544D01*
X60046216Y-167251215D01*
X60021641Y-167236760D01*
X60019740Y-167235825D01*
X60000661Y-167227658D01*
X59979025Y-167219986D01*
X59959154Y-167214360D01*
X59952873Y-167213066D01*
X59938946Y-167210572D01*
X59919982Y-167207416D01*
X59897112Y-167203765D01*
X59871468Y-167199786D01*
X59844181Y-167195648D01*
X59816382Y-167191518D01*
X59789202Y-167187564D01*
X59763773Y-167183953D01*
X59741225Y-167180852D01*
X59722691Y-167178430D01*
X59709301Y-167176854D01*
X59702186Y-167176292D01*
X59701217Y-167177421D01*
X59700062Y-167184448D01*
X59699477Y-167198140D01*
X59699453Y-167218770D01*
X59565212Y-167218770D01*
X59565344Y-167184620D01*
X59565539Y-167140949D01*
X59565749Y-167103294D01*
X59565988Y-167071143D01*
X59566269Y-167043985D01*
X59566606Y-167021308D01*
X59567013Y-167002600D01*
X59567503Y-166987349D01*
X59568092Y-166975044D01*
X59568791Y-166965172D01*
X59569616Y-166957222D01*
X59570579Y-166950682D01*
X59571695Y-166945041D01*
X59572978Y-166939785D01*
X59574441Y-166934405D01*
X59583727Y-166905568D01*
X59602376Y-166864512D01*
X59625814Y-166829121D01*
X59653974Y-166799474D01*
X59686785Y-166775655D01*
X59724177Y-166757745D01*
X59736630Y-166753240D01*
X59758875Y-166746391D01*
X59780803Y-166741570D01*
X59804355Y-166738481D01*
X59831474Y-166736825D01*
X59864104Y-166736304D01*
X59910113Y-166737643D01*
X59964904Y-166743660D01*
X60016386Y-166754826D01*
X60066057Y-166771484D01*
X60115412Y-166793979D01*
X60152868Y-166813219D01*
X60152868Y-166882250D01*
X60152786Y-166903761D01*
X60152552Y-166922795D01*
X60152195Y-166937840D01*
X60151742Y-166947725D01*
X60151221Y-166951281D01*
X60150154Y-166950779D01*
X60144160Y-166946949D01*
X60134259Y-166940171D01*
X60121905Y-166931429D01*
X60096245Y-166914237D01*
X60046654Y-166887536D01*
X59994993Y-166867999D01*
X59941068Y-166855544D01*
X59939648Y-166855316D01*
X59894505Y-166850403D01*
X59854419Y-166850925D01*
X59819213Y-166856949D01*
X59788709Y-166868542D01*
X59762731Y-166885769D01*
X59741100Y-166908699D01*
X59723639Y-166937398D01*
X59718883Y-166948503D01*
X59713110Y-166965755D01*
X59708012Y-166984936D01*
X59703797Y-167004743D01*
X59700669Y-167023872D01*
X59698833Y-167041020D01*
X59698496Y-167054882D01*
X59699862Y-167064155D01*
X59703137Y-167067536D01*
X59706483Y-167067747D01*
X59717393Y-167068965D01*
X59734101Y-167071138D01*
X59755604Y-167074111D01*
X59780899Y-167077732D01*
X59808982Y-167081848D01*
X59838849Y-167086307D01*
X59869497Y-167090956D01*
X59899923Y-167095642D01*
X59929123Y-167100213D01*
X59956093Y-167104516D01*
X59979831Y-167108398D01*
X59999332Y-167111706D01*
X60013594Y-167114289D01*
X60021612Y-167115993D01*
X60053777Y-167125874D01*
X60094817Y-167142966D01*
X60130736Y-167163532D01*
X60160858Y-167187167D01*
X60184504Y-167213466D01*
X60195646Y-167230157D01*
X60214118Y-167267263D01*
X60226995Y-167307868D01*
X60234024Y-167350707D01*
X60234543Y-167375236D01*
X60234951Y-167394514D01*
X60229522Y-167438025D01*
G37*
G36*
X52179976Y-165901229D02*
G01*
X52179976Y-165447457D01*
X52070283Y-165447441D01*
X52047860Y-165447391D01*
X52012682Y-165447050D01*
X51983776Y-165446360D01*
X51960358Y-165445292D01*
X51941641Y-165443814D01*
X51926838Y-165441896D01*
X51925933Y-165441747D01*
X51869930Y-165429533D01*
X51819079Y-165412157D01*
X51772869Y-165389366D01*
X51730786Y-165360909D01*
X51692319Y-165326534D01*
X51671929Y-165304441D01*
X51654845Y-165282330D01*
X51639765Y-165258105D01*
X51624886Y-165229159D01*
X51623023Y-165225237D01*
X51613404Y-165203735D01*
X51606074Y-165184218D01*
X51600740Y-165165109D01*
X51597105Y-165144830D01*
X51594875Y-165121801D01*
X51593753Y-165094447D01*
X51593549Y-165072468D01*
X51738055Y-165072468D01*
X51738564Y-165097492D01*
X51740157Y-165119903D01*
X51742877Y-165137700D01*
X51750253Y-165163912D01*
X51766564Y-165200307D01*
X51788853Y-165232319D01*
X51816943Y-165259786D01*
X51850655Y-165282544D01*
X51889812Y-165300430D01*
X51934238Y-165313282D01*
X51945531Y-165315511D01*
X51958358Y-165317426D01*
X51973143Y-165318952D01*
X51990994Y-165320163D01*
X52013021Y-165321132D01*
X52040331Y-165321935D01*
X52074033Y-165322646D01*
X52179976Y-165324604D01*
X52179976Y-164831569D01*
X52064658Y-164833469D01*
X52044587Y-164833820D01*
X52013704Y-164834484D01*
X51988704Y-164835246D01*
X51968549Y-164836171D01*
X51952200Y-164837323D01*
X51938616Y-164838769D01*
X51926758Y-164840572D01*
X51915588Y-164842799D01*
X51877461Y-164853561D01*
X51840085Y-164870143D01*
X51808373Y-164891567D01*
X51782216Y-164917925D01*
X51761507Y-164949309D01*
X51746135Y-164985811D01*
X51746005Y-164986217D01*
X51742605Y-165001704D01*
X51740119Y-165022575D01*
X51738588Y-165046829D01*
X51738055Y-165072468D01*
X51593549Y-165072468D01*
X51593445Y-165061188D01*
X51593463Y-165051983D01*
X51593959Y-165020192D01*
X51595360Y-164993917D01*
X51597972Y-164971596D01*
X51602097Y-164951664D01*
X51608040Y-164932555D01*
X51616105Y-164912707D01*
X51626595Y-164890554D01*
X51633272Y-164877803D01*
X51659168Y-164838493D01*
X51690594Y-164804240D01*
X51727558Y-164775039D01*
X51770069Y-164750881D01*
X51818136Y-164731760D01*
X51823706Y-164729958D01*
X51838423Y-164725435D01*
X51852551Y-164721598D01*
X51866827Y-164718391D01*
X51881984Y-164715757D01*
X51898758Y-164713641D01*
X51917886Y-164711989D01*
X51940101Y-164710743D01*
X51966139Y-164709848D01*
X51996736Y-164709249D01*
X52032627Y-164708891D01*
X52074548Y-164708716D01*
X52123233Y-164708670D01*
X52318733Y-164708670D01*
X52318733Y-165901229D01*
X52179976Y-165901229D01*
G37*
G36*
X51368719Y-167417154D02*
G01*
X51435006Y-167418179D01*
X51482900Y-167618813D01*
X51488374Y-167641756D01*
X51497035Y-167678113D01*
X51505060Y-167711869D01*
X51512292Y-167742356D01*
X51518571Y-167768902D01*
X51523740Y-167790836D01*
X51527639Y-167807487D01*
X51530110Y-167818186D01*
X51530994Y-167822261D01*
X51530891Y-167822457D01*
X51526262Y-167823480D01*
X51515770Y-167824311D01*
X51500804Y-167824870D01*
X51482753Y-167825074D01*
X51434311Y-167825074D01*
X51417358Y-167773509D01*
X51414398Y-167764499D01*
X51403412Y-167731004D01*
X51391970Y-167696025D01*
X51380304Y-167660279D01*
X51368646Y-167624485D01*
X51357228Y-167589360D01*
X51346283Y-167555623D01*
X51336044Y-167523989D01*
X51326742Y-167495178D01*
X51318610Y-167469907D01*
X51311881Y-167448894D01*
X51306787Y-167432856D01*
X51303560Y-167422512D01*
X51302433Y-167418578D01*
X51305235Y-167417918D01*
X51314428Y-167417363D01*
X51328870Y-167417034D01*
X51347364Y-167416956D01*
X51368719Y-167417154D01*
G37*
G36*
X53106397Y-166362798D02*
G01*
X53127949Y-166366784D01*
X53146250Y-166376197D01*
X53163516Y-166392019D01*
X53175969Y-166410118D01*
X53183282Y-166433094D01*
X53183816Y-166459246D01*
X53183649Y-166460765D01*
X53177260Y-166485470D01*
X53164729Y-166506323D01*
X53146684Y-166522550D01*
X53123748Y-166533379D01*
X53118912Y-166534823D01*
X53102992Y-166537980D01*
X53088071Y-166537456D01*
X53070388Y-166533243D01*
X53058215Y-166528754D01*
X53037228Y-166515617D01*
X53021703Y-166497609D01*
X53012073Y-166475317D01*
X53008767Y-166449326D01*
X53009971Y-166432403D01*
X53016844Y-166408388D01*
X53029422Y-166388959D01*
X53047267Y-166374548D01*
X53069940Y-166365585D01*
X53097005Y-166362502D01*
X53106397Y-166362798D01*
G37*
G36*
X49672841Y-165036607D02*
G01*
X49700733Y-165040615D01*
X49724154Y-165046998D01*
X49735260Y-165051500D01*
X49769031Y-165070440D01*
X49800001Y-165096127D01*
X49827945Y-165128312D01*
X49852640Y-165166750D01*
X49873860Y-165211195D01*
X49875064Y-165213913D01*
X49876510Y-165215887D01*
X49877614Y-165214772D01*
X49878442Y-165209833D01*
X49879055Y-165200334D01*
X49879518Y-165185541D01*
X49879893Y-165164717D01*
X49880244Y-165137129D01*
X49881251Y-165049937D01*
X50016119Y-165049937D01*
X50016119Y-165901229D01*
X49881113Y-165901229D01*
X49881113Y-165674740D01*
X49881112Y-165665646D01*
X49881046Y-165613071D01*
X49880861Y-165567270D01*
X49880526Y-165527619D01*
X49880014Y-165493495D01*
X49879297Y-165464271D01*
X49878346Y-165439323D01*
X49877132Y-165418026D01*
X49875629Y-165399757D01*
X49873806Y-165383889D01*
X49871637Y-165369798D01*
X49869092Y-165356860D01*
X49866144Y-165344450D01*
X49856315Y-165312068D01*
X49839226Y-165272437D01*
X49818128Y-165238177D01*
X49793333Y-165209634D01*
X49765154Y-165187149D01*
X49733904Y-165171068D01*
X49699896Y-165161733D01*
X49676451Y-165159810D01*
X49647281Y-165161445D01*
X49618606Y-165166763D01*
X49593644Y-165175351D01*
X49573598Y-165184529D01*
X49573598Y-165043118D01*
X49599412Y-165038505D01*
X49614450Y-165036450D01*
X49643179Y-165035157D01*
X49672841Y-165036607D01*
G37*
G36*
X48298535Y-165901229D02*
G01*
X48163528Y-165901229D01*
X48163528Y-165696844D01*
X48163511Y-165674428D01*
X48163406Y-165637334D01*
X48163212Y-165602982D01*
X48162939Y-165572050D01*
X48162596Y-165545219D01*
X48162193Y-165523169D01*
X48161739Y-165506579D01*
X48161244Y-165496130D01*
X48160716Y-165492501D01*
X48157878Y-165495113D01*
X48150367Y-165502837D01*
X48138592Y-165515241D01*
X48122954Y-165531895D01*
X48103855Y-165552366D01*
X48081696Y-165576223D01*
X48056879Y-165603035D01*
X48029806Y-165632371D01*
X48000877Y-165663798D01*
X47970494Y-165696886D01*
X47783085Y-165901229D01*
X47591826Y-165901229D01*
X47616381Y-165875915D01*
X47622717Y-165869365D01*
X47634087Y-165857586D01*
X47649616Y-165841483D01*
X47668760Y-165821621D01*
X47690978Y-165798561D01*
X47715729Y-165772865D01*
X47742470Y-165745097D01*
X47770658Y-165715819D01*
X47799753Y-165685593D01*
X47825855Y-165658480D01*
X47854499Y-165628739D01*
X47881887Y-165600314D01*
X47907457Y-165573789D01*
X47930645Y-165549749D01*
X47950887Y-165528778D01*
X47967620Y-165511460D01*
X47980281Y-165498379D01*
X47988305Y-165490119D01*
X48018040Y-165459653D01*
X47822053Y-165255732D01*
X47626066Y-165051812D01*
X47711894Y-165050802D01*
X47725211Y-165050666D01*
X47748847Y-165050529D01*
X47769463Y-165050545D01*
X47785941Y-165050707D01*
X47797160Y-165051005D01*
X47801999Y-165051433D01*
X47803790Y-165053026D01*
X47810339Y-165059694D01*
X47821227Y-165071135D01*
X47836039Y-165086899D01*
X47854357Y-165106539D01*
X47875765Y-165129606D01*
X47899846Y-165155653D01*
X47926184Y-165184231D01*
X47954362Y-165214893D01*
X47983964Y-165247189D01*
X48161653Y-165441304D01*
X48162608Y-165041236D01*
X48163562Y-164641167D01*
X48298535Y-164641167D01*
X48298535Y-165901229D01*
G37*
G36*
X45786037Y-164656464D02*
G01*
X45807589Y-164660450D01*
X45825890Y-164669863D01*
X45843156Y-164685685D01*
X45855609Y-164703784D01*
X45862921Y-164726760D01*
X45863456Y-164752912D01*
X45863288Y-164754431D01*
X45856899Y-164779137D01*
X45844369Y-164799989D01*
X45826323Y-164816216D01*
X45803388Y-164827045D01*
X45798552Y-164828489D01*
X45782631Y-164831646D01*
X45767711Y-164831122D01*
X45750028Y-164826909D01*
X45737855Y-164822420D01*
X45716867Y-164809283D01*
X45701343Y-164791275D01*
X45691712Y-164768983D01*
X45688406Y-164742992D01*
X45689611Y-164726069D01*
X45696484Y-164702054D01*
X45709062Y-164682625D01*
X45726907Y-164668214D01*
X45749580Y-164659251D01*
X45776644Y-164656168D01*
X45786037Y-164656464D01*
G37*
G36*
X49889654Y-166813461D02*
G01*
X49889848Y-166858930D01*
X49890178Y-166924795D01*
X49890538Y-166983598D01*
X49890933Y-167035609D01*
X49891366Y-167081097D01*
X49891842Y-167120331D01*
X49892365Y-167153580D01*
X49892937Y-167181113D01*
X49893563Y-167203198D01*
X49894248Y-167220106D01*
X49894994Y-167232104D01*
X49895806Y-167239462D01*
X49899238Y-167258662D01*
X49907809Y-167295655D01*
X49918582Y-167328670D01*
X49932265Y-167360051D01*
X49953672Y-167395908D01*
X49980960Y-167427848D01*
X50013051Y-167454397D01*
X50049347Y-167475061D01*
X50089248Y-167489347D01*
X50102331Y-167492477D01*
X50143584Y-167498991D01*
X50186807Y-167501420D01*
X50228630Y-167499517D01*
X50249394Y-167497097D01*
X50276469Y-167492675D01*
X50300019Y-167486816D01*
X50322442Y-167478881D01*
X50346136Y-167468233D01*
X50364506Y-167458151D01*
X50396701Y-167434145D01*
X50425056Y-167404242D01*
X50449132Y-167369031D01*
X50468488Y-167329103D01*
X50482684Y-167285047D01*
X50483356Y-167282343D01*
X50485960Y-167271434D01*
X50488277Y-167260692D01*
X50490322Y-167249635D01*
X50492113Y-167237787D01*
X50493667Y-167224666D01*
X50495000Y-167209795D01*
X50496129Y-167192694D01*
X50497070Y-167172883D01*
X50497842Y-167149885D01*
X50498460Y-167123219D01*
X50498941Y-167092407D01*
X50499302Y-167056969D01*
X50499559Y-167016426D01*
X50499731Y-166970300D01*
X50499832Y-166918110D01*
X50499881Y-166859379D01*
X50499893Y-166793626D01*
X50499893Y-166415004D01*
X50638956Y-166415004D01*
X50637587Y-166832212D01*
X50637470Y-166868412D01*
X50637269Y-166930817D01*
X50637075Y-166986437D01*
X50636865Y-167035740D01*
X50636620Y-167079193D01*
X50636318Y-167117262D01*
X50635937Y-167150414D01*
X50635455Y-167179117D01*
X50634853Y-167203837D01*
X50634108Y-167225042D01*
X50633200Y-167243198D01*
X50632106Y-167258772D01*
X50630806Y-167272231D01*
X50629279Y-167284042D01*
X50627502Y-167294673D01*
X50625456Y-167304589D01*
X50623117Y-167314259D01*
X50620466Y-167324148D01*
X50617481Y-167334725D01*
X50614141Y-167346455D01*
X50603241Y-167380396D01*
X50581677Y-167430219D01*
X50555069Y-167474495D01*
X50523450Y-167513195D01*
X50486854Y-167546290D01*
X50445315Y-167573752D01*
X50398867Y-167595551D01*
X50347544Y-167611658D01*
X50291380Y-167622045D01*
X50275692Y-167623566D01*
X50251273Y-167624885D01*
X50223302Y-167625586D01*
X50193947Y-167625667D01*
X50165374Y-167625126D01*
X50139753Y-167623962D01*
X50119249Y-167622173D01*
X50093586Y-167618473D01*
X50037603Y-167605940D01*
X49986693Y-167587890D01*
X49940837Y-167564310D01*
X49900015Y-167535188D01*
X49864208Y-167500508D01*
X49833394Y-167460260D01*
X49807555Y-167414428D01*
X49807191Y-167413670D01*
X49790489Y-167375095D01*
X49777191Y-167335749D01*
X49766894Y-167294004D01*
X49759196Y-167248232D01*
X49753694Y-167196804D01*
X49753681Y-167196657D01*
X49753117Y-167185870D01*
X49752583Y-167168129D01*
X49752084Y-167143964D01*
X49751623Y-167113911D01*
X49751207Y-167078503D01*
X49750841Y-167038272D01*
X49750528Y-166993753D01*
X49750274Y-166945479D01*
X49750085Y-166893983D01*
X49749963Y-166839799D01*
X49749916Y-166783460D01*
X49749856Y-166415004D01*
X49888047Y-166415004D01*
X49889654Y-166813461D01*
G37*
G36*
X62038199Y-166736500D02*
G01*
X62069338Y-166739266D01*
X62096318Y-166744187D01*
X62132412Y-166755443D01*
X62174738Y-166775278D01*
X62212760Y-166801085D01*
X62225241Y-166811985D01*
X62240672Y-166827201D01*
X62256046Y-166843863D01*
X62269963Y-166860378D01*
X62281025Y-166875151D01*
X62287831Y-166886590D01*
X62291050Y-166892020D01*
X62294826Y-166895028D01*
X62295816Y-166891489D01*
X62296681Y-166881614D01*
X62297364Y-166866571D01*
X62297813Y-166847527D01*
X62297974Y-166825649D01*
X62297974Y-166756271D01*
X62432980Y-166756271D01*
X62432980Y-167607563D01*
X62297974Y-167607563D01*
X62297974Y-167356572D01*
X62297967Y-167328672D01*
X62297906Y-167278400D01*
X62297756Y-167234745D01*
X62297492Y-167197116D01*
X62297086Y-167164927D01*
X62296510Y-167137587D01*
X62295738Y-167114507D01*
X62294743Y-167095100D01*
X62293496Y-167078776D01*
X62291971Y-167064947D01*
X62290141Y-167053023D01*
X62287978Y-167042417D01*
X62285455Y-167032538D01*
X62282545Y-167022799D01*
X62276353Y-167005146D01*
X62257807Y-166966452D01*
X62234267Y-166932604D01*
X62206252Y-166904005D01*
X62174283Y-166881057D01*
X62138878Y-166864163D01*
X62100556Y-166853725D01*
X62059837Y-166850146D01*
X62028559Y-166852205D01*
X61992730Y-166860557D01*
X61960918Y-166875165D01*
X61933346Y-166895855D01*
X61910237Y-166922451D01*
X61891813Y-166954779D01*
X61878298Y-166992664D01*
X61876140Y-167000917D01*
X61873575Y-167011888D01*
X61871363Y-167023295D01*
X61869477Y-167035726D01*
X61867892Y-167049770D01*
X61866582Y-167066016D01*
X61865523Y-167085052D01*
X61864687Y-167107467D01*
X61864051Y-167133850D01*
X61863587Y-167164790D01*
X61863271Y-167200875D01*
X61863077Y-167242694D01*
X61862979Y-167290836D01*
X61862952Y-167345889D01*
X61862952Y-167607563D01*
X61727946Y-167607563D01*
X61728020Y-167315986D01*
X61728042Y-167287070D01*
X61728155Y-167235958D01*
X61728359Y-167188468D01*
X61728648Y-167145084D01*
X61729015Y-167106290D01*
X61729455Y-167072572D01*
X61729962Y-167044416D01*
X61730530Y-167022304D01*
X61731153Y-167006723D01*
X61731827Y-166998158D01*
X61735276Y-166977217D01*
X61748512Y-166924934D01*
X61767825Y-166876730D01*
X61768782Y-166874761D01*
X61778272Y-166856679D01*
X61787963Y-166841699D01*
X61799732Y-166827215D01*
X61815457Y-166810621D01*
X61834723Y-166792655D01*
X61863119Y-166771906D01*
X61894114Y-166756226D01*
X61929947Y-166744319D01*
X61944521Y-166741109D01*
X61973321Y-166737423D01*
X62005370Y-166735886D01*
X62038199Y-166736500D01*
G37*
G36*
X49446091Y-165901229D02*
G01*
X49311085Y-165901229D01*
X49311085Y-165049937D01*
X49446091Y-165049937D01*
X49446091Y-165901229D01*
G37*
G36*
X59151569Y-165901229D02*
G01*
X59016562Y-165901229D01*
X59016562Y-165049937D01*
X59151569Y-165049937D01*
X59151569Y-165901229D01*
G37*
G36*
X52282184Y-166756275D02*
G01*
X52304490Y-166756446D01*
X52323799Y-166756837D01*
X52338985Y-166757407D01*
X52348922Y-166758116D01*
X52352484Y-166758925D01*
X52351696Y-166761202D01*
X52348375Y-166770023D01*
X52342615Y-166785071D01*
X52334582Y-166805918D01*
X52324441Y-166832134D01*
X52312360Y-166863291D01*
X52298506Y-166898959D01*
X52283044Y-166938711D01*
X52266142Y-166982117D01*
X52247966Y-167028749D01*
X52228682Y-167078177D01*
X52208458Y-167129973D01*
X52187459Y-167183708D01*
X52022434Y-167605838D01*
X52061892Y-167699110D01*
X52067903Y-167713179D01*
X52080342Y-167741440D01*
X52092161Y-167767202D01*
X52102829Y-167789345D01*
X52111812Y-167806750D01*
X52118578Y-167818295D01*
X52121148Y-167822055D01*
X52142629Y-167847301D01*
X52167672Y-167867564D01*
X52194776Y-167881595D01*
X52209216Y-167885488D01*
X52230951Y-167888196D01*
X52255073Y-167888744D01*
X52278958Y-167887093D01*
X52299982Y-167883201D01*
X52308778Y-167880907D01*
X52318548Y-167878551D01*
X52323513Y-167877621D01*
X52324164Y-167879302D01*
X52324914Y-167887246D01*
X52325394Y-167900593D01*
X52325565Y-167918097D01*
X52325388Y-167938517D01*
X52324358Y-167999457D01*
X52299982Y-168003740D01*
X52298825Y-168003938D01*
X52282254Y-168006055D01*
X52262550Y-168007640D01*
X52243729Y-168008363D01*
X52217030Y-168007385D01*
X52174533Y-168000120D01*
X52134524Y-167985805D01*
X52096994Y-167964432D01*
X52061930Y-167935993D01*
X52029322Y-167900479D01*
X51999160Y-167857883D01*
X51971432Y-167808198D01*
X51968451Y-167801612D01*
X51962720Y-167788144D01*
X51954559Y-167768511D01*
X51944138Y-167743134D01*
X51931627Y-167712437D01*
X51917195Y-167676839D01*
X51901014Y-167636764D01*
X51883253Y-167592633D01*
X51864081Y-167544868D01*
X51843669Y-167493891D01*
X51822188Y-167440123D01*
X51799806Y-167383987D01*
X51776695Y-167325904D01*
X51753023Y-167266296D01*
X51551425Y-166758146D01*
X51620604Y-166757124D01*
X51642105Y-166756897D01*
X51661492Y-166756872D01*
X51677011Y-166757044D01*
X51687451Y-166757398D01*
X51691602Y-166757922D01*
X51692068Y-166758921D01*
X51694830Y-166765915D01*
X51699843Y-166779069D01*
X51706890Y-166797790D01*
X51715753Y-166821487D01*
X51726212Y-166849568D01*
X51738051Y-166881439D01*
X51751050Y-166916510D01*
X51764993Y-166954187D01*
X51779660Y-166993878D01*
X51794834Y-167034992D01*
X51810296Y-167076935D01*
X51825829Y-167119117D01*
X51841214Y-167160944D01*
X51856232Y-167201824D01*
X51870667Y-167241165D01*
X51884299Y-167278375D01*
X51896911Y-167312862D01*
X51908285Y-167344034D01*
X51918202Y-167371297D01*
X51926444Y-167394061D01*
X51932793Y-167411732D01*
X51937032Y-167423719D01*
X51938941Y-167429429D01*
X51939527Y-167431511D01*
X51943535Y-167446089D01*
X51947375Y-167460481D01*
X51948750Y-167465158D01*
X51951913Y-167472601D01*
X51954505Y-167474716D01*
X51956278Y-167471715D01*
X51959211Y-167463090D01*
X51962240Y-167451164D01*
X51963297Y-167447552D01*
X51966709Y-167437024D01*
X51972226Y-167420486D01*
X51979639Y-167398546D01*
X51988736Y-167371810D01*
X51999308Y-167340886D01*
X52011143Y-167306381D01*
X52024032Y-167268903D01*
X52037763Y-167229058D01*
X52052128Y-167187455D01*
X52066915Y-167144699D01*
X52081913Y-167101399D01*
X52096913Y-167058162D01*
X52111705Y-167015594D01*
X52126077Y-166974304D01*
X52139819Y-166934898D01*
X52152722Y-166897984D01*
X52164574Y-166864169D01*
X52175165Y-166834061D01*
X52184285Y-166808265D01*
X52191723Y-166787391D01*
X52197269Y-166772045D01*
X52200714Y-166762834D01*
X52202077Y-166760690D01*
X52205048Y-166758989D01*
X52210562Y-166757786D01*
X52219611Y-166756996D01*
X52233187Y-166756537D01*
X52252280Y-166756323D01*
X52277882Y-166756271D01*
X52282184Y-166756275D01*
G37*
%TD*%
M02*
