M48
; DRILL file {KiCad (6.0.2)} date Wed May 11 02:42:18 2022
; FORMAT={-:-/ absolute / inch / decimal}
; #@! TF.CreationDate,2022-05-11T02:42:18-06:00
; #@! TF.GenerationSoftware,Kicad,Pcbnew,(6.0.2)
; #@! TF.FileFunction,NonPlated,1,2,NPTH
FMAT,2
INCH
; #@! TA.AperFunction,NonPlated,NPTH,ComponentDrill
T1C0.0591
; #@! TA.AperFunction,NonPlated,NPTH,ComponentDrill
T2C0.0670
; #@! TA.AperFunction,NonPlated,NPTH,ComponentDrill
T3C0.1063
; #@! TA.AperFunction,NonPlated,NPTH,ComponentDrill
T4C0.1570
%
G90
G05
T1
X1.7466Y-7.3091
X1.7466Y-7.5157
X2.0694Y-7.3091
X2.0694Y-7.5157
T2
X2.6125Y-4.5
X2.6125Y-5.25
X2.6125Y-6.0
X2.6125Y-6.75
X2.6125Y-7.5
X3.0125Y-4.5
X3.0125Y-5.25
X3.0125Y-6.0
X3.0125Y-6.75
X3.0125Y-7.5
X3.55Y-4.5
X3.55Y-5.25
X3.55Y-6.0
X3.55Y-6.75
X3.55Y-7.5
X3.95Y-4.5
X3.95Y-5.25
X3.95Y-6.0
X3.95Y-6.75
X3.95Y-7.5
X4.3Y-4.5
X4.3Y-5.25
X4.3Y-6.0
X4.3Y-6.75
X4.3Y-7.5
X4.7Y-4.5
X4.7Y-5.25
X4.7Y-6.0
X4.7Y-6.75
X4.7Y-7.5
X5.05Y-4.5
X5.05Y-5.25
X5.05Y-6.0
X5.05Y-6.75
X5.45Y-4.5
X5.45Y-5.25
X5.45Y-6.0
X5.45Y-6.75
X5.6125Y-7.5
X5.8Y-4.5
X5.8Y-5.25
X5.8Y-6.0
X5.8Y-6.75
X6.0125Y-7.5
X6.2Y-4.5
X6.2Y-5.25
X6.2Y-6.0
X6.2Y-6.75
X6.55Y-4.5
X6.55Y-5.25
X6.55Y-6.0
X6.55Y-6.75
X6.55Y-7.5
X6.95Y-4.5
X6.95Y-5.25
X6.95Y-6.0
X6.95Y-6.75
X6.95Y-7.5
X7.3Y-4.5
X7.3Y-5.25
X7.3Y-6.0
X7.3Y-6.75
X7.4875Y-7.5
X7.7Y-4.5
X7.7Y-5.25
X7.7Y-6.0
X7.7Y-6.75
X7.8875Y-7.5
X8.05Y-4.5
X8.05Y-5.25
X8.05Y-6.0
X8.05Y-6.75
X8.45Y-4.5
X8.45Y-5.25
X8.45Y-6.0
X8.45Y-6.75
X8.8Y-4.5
X8.8Y-5.25
X8.8Y-6.0
X8.8Y-6.75
X8.8Y-7.5
X9.2Y-4.5
X9.2Y-5.25
X9.2Y-6.0
X9.2Y-6.75
X9.2Y-7.5
X9.55Y-4.5
X9.55Y-5.25
X9.55Y-6.0
X9.55Y-6.75
X9.55Y-7.5
X9.95Y-4.5
X9.95Y-5.25
X9.95Y-6.0
X9.95Y-6.75
X9.95Y-7.5
X10.3Y-4.5
X10.3Y-5.25
X10.3Y-6.0
X10.3Y-6.75
X10.3Y-7.5
X10.7Y-4.5
X10.7Y-5.25
X10.7Y-6.0
X10.7Y-6.75
X10.7Y-7.5
X11.05Y-4.5
X11.05Y-5.25
X11.05Y-6.0
X11.2375Y-6.75
X11.425Y-7.5
X11.45Y-4.5
X11.45Y-5.25
X11.45Y-6.0
X11.6375Y-6.75
X11.8Y-4.5
X11.8Y-5.25
X11.825Y-7.5
X11.9875Y-6.0
X12.175Y-6.75
X12.175Y-7.5
X12.2Y-4.5
X12.2Y-5.25
X12.3875Y-6.0
X12.575Y-6.75
X12.575Y-7.5
X12.7375Y-4.5
X12.7375Y-5.25
X12.925Y-6.0
X12.925Y-6.75
X12.925Y-7.5
X13.1375Y-4.5
X13.1375Y-5.25
X13.325Y-6.0
X13.325Y-6.75
X13.325Y-7.5
T3
X1.6841Y-4.2795
X1.6841Y-7.7205
X3.0Y-4.875
X3.0Y-7.125
X4.125Y-4.875
X4.125Y-7.125
X6.375Y-4.875
X6.375Y-7.125
X8.625Y-4.875
X8.625Y-7.125
X10.875Y-4.875
X10.875Y-7.125
X12.0Y-4.875
X12.0Y-7.125
T4
X2.8125Y-4.5
X2.8125Y-5.25
X2.8125Y-6.0
X2.8125Y-6.75
X2.8125Y-7.5
X3.75Y-4.5
X3.75Y-5.25
X3.75Y-6.0
X3.75Y-6.75
X3.75Y-7.5
X4.5Y-4.5
X4.5Y-5.25
X4.5Y-6.0
X4.5Y-6.75
X4.5Y-7.5
X5.25Y-4.5
X5.25Y-5.25
X5.25Y-6.0
X5.25Y-6.75
X5.8125Y-7.5
X6.0Y-4.5
X6.0Y-5.25
X6.0Y-6.0
X6.0Y-6.75
X6.75Y-4.5
X6.75Y-5.25
X6.75Y-6.0
X6.75Y-6.75
X6.75Y-7.5
X7.5Y-4.5
X7.5Y-5.25
X7.5Y-6.0
X7.5Y-6.75
X7.6875Y-7.5
X8.25Y-4.5
X8.25Y-5.25
X8.25Y-6.0
X8.25Y-6.75
X9.0Y-4.5
X9.0Y-5.25
X9.0Y-6.0
X9.0Y-6.75
X9.0Y-7.5
X9.75Y-4.5
X9.75Y-5.25
X9.75Y-6.0
X9.75Y-6.75
X9.75Y-7.5
X10.5Y-4.5
X10.5Y-5.25
X10.5Y-6.0
X10.5Y-6.75
X10.5Y-7.5
X11.25Y-4.5
X11.25Y-5.25
X11.25Y-6.0
X11.4375Y-6.75
X11.625Y-7.5
X12.0Y-4.5
X12.0Y-5.25
X12.1875Y-6.0
X12.375Y-6.75
X12.375Y-7.5
X12.9375Y-4.5
X12.9375Y-5.25
X13.125Y-6.0
X13.125Y-6.75
X13.125Y-7.5
T0
M30
