%TF.GenerationSoftware,KiCad,Pcbnew,(6.0.2)*%
%TF.CreationDate,2022-07-07T00:18:28-06:00*%
%TF.ProjectId,Uniform,556e6966-6f72-46d2-9e6b-696361645f70,rev?*%
%TF.SameCoordinates,Original*%
%TF.FileFunction,Soldermask,Bot*%
%TF.FilePolarity,Negative*%
%FSLAX46Y46*%
G04 Gerber Fmt 4.6, Leading zero omitted, Abs format (unit mm)*
G04 Created by KiCad (PCBNEW (6.0.2)) date 2022-07-07 00:18:28*
%MOMM*%
%LPD*%
G01*
G04 APERTURE LIST*
%ADD10O,1.700000X1.700000*%
%ADD11R,1.700000X1.700000*%
%ADD12C,1.371600*%
%ADD13O,1.600000X1.600000*%
%ADD14C,1.600000*%
%ADD15C,1.150000*%
%ADD16C,1.508000*%
%ADD17R,1.508000X1.508000*%
%ADD18R,1.238000X1.238000*%
%ADD19C,1.238000*%
%ADD20C,2.286000*%
%ADD21C,3.987800*%
%ADD22C,1.701800*%
%ADD23O,1.400000X1.400000*%
%ADD24C,1.400000*%
%ADD25C,1.308000*%
%ADD26R,1.308000X1.308000*%
%ADD27C,1.500000*%
%ADD28C,2.700000*%
%ADD29O,1.070000X1.800000*%
%ADD30R,1.070000X1.800000*%
%ADD31C,0.650000*%
%ADD32O,1.108000X2.216000*%
G04 APERTURE END LIST*
D10*
%TO.C,L4*%
X55387500Y-149380000D03*
X55387500Y-146840000D03*
D11*
X55387500Y-144300000D03*
%TD*%
D12*
%TO.C,C1*%
X54075000Y-118175000D03*
X54075000Y-115675000D03*
%TD*%
%TO.C,C2*%
X54075000Y-128715650D03*
X54075000Y-131215650D03*
%TD*%
D13*
%TO.C,C3*%
X52385000Y-143725000D03*
D14*
X44765000Y-143725000D03*
%TD*%
%TO.C,C4*%
X44765000Y-146725000D03*
D13*
X52385000Y-146725000D03*
%TD*%
D14*
%TO.C,C5*%
X44765000Y-149725000D03*
D13*
X52385000Y-149725000D03*
%TD*%
D15*
%TO.C,C6*%
X41775000Y-149325000D03*
X41775000Y-144325000D03*
%TD*%
D16*
%TO.C,SWD1*%
X43427500Y-153000000D03*
X45967500Y-153000000D03*
X48507500Y-153000000D03*
X51047500Y-153000000D03*
D17*
X53587500Y-153000000D03*
%TD*%
D18*
%TO.C,D_0_0*%
X80962500Y-118446000D03*
D19*
X80962500Y-110154000D03*
%TD*%
D18*
%TO.C,D_0_1*%
X85725000Y-118446000D03*
D19*
X85725000Y-110154000D03*
%TD*%
D18*
%TO.C,D_0_2*%
X104775000Y-118446000D03*
D19*
X104775000Y-110154000D03*
%TD*%
D18*
%TO.C,D_0_3*%
X123825000Y-118446000D03*
D19*
X123825000Y-110154000D03*
%TD*%
D18*
%TO.C,D_0_4*%
X142875000Y-118446000D03*
D19*
X142875000Y-110154000D03*
%TD*%
D18*
%TO.C,D_0_5*%
X161925000Y-118446000D03*
D19*
X161925000Y-110154000D03*
%TD*%
D18*
%TO.C,D_0_6*%
X180975000Y-118446000D03*
D19*
X180975000Y-110154000D03*
%TD*%
D18*
%TO.C,D_0_7*%
X200025000Y-118446000D03*
D19*
X200025000Y-110154000D03*
%TD*%
D18*
%TO.C,D_0_8*%
X219075000Y-118446000D03*
D19*
X219075000Y-110154000D03*
%TD*%
D18*
%TO.C,D_0_9*%
X238125000Y-118446000D03*
D19*
X238125000Y-110154000D03*
%TD*%
D18*
%TO.C,D_0_10*%
X257175000Y-118446000D03*
D19*
X257175000Y-110154000D03*
%TD*%
D18*
%TO.C,D_0_11*%
X276225000Y-118446000D03*
D19*
X276225000Y-110154000D03*
%TD*%
D18*
%TO.C,D_0_12*%
X295275000Y-118446000D03*
D19*
X295275000Y-110154000D03*
%TD*%
D18*
%TO.C,D_0_13*%
X319087500Y-118446000D03*
D19*
X319087500Y-110154000D03*
%TD*%
D18*
%TO.C,D_1_0*%
X80962500Y-137496000D03*
D19*
X80962500Y-129204000D03*
%TD*%
D18*
%TO.C,D_1_1*%
X85725000Y-137496000D03*
D19*
X85725000Y-129204000D03*
%TD*%
D18*
%TO.C,D_1_2*%
X104775000Y-137496000D03*
D19*
X104775000Y-129204000D03*
%TD*%
D18*
%TO.C,D_1_3*%
X123825000Y-137496000D03*
D19*
X123825000Y-129204000D03*
%TD*%
D18*
%TO.C,D_1_4*%
X142875000Y-137496000D03*
D19*
X142875000Y-129204000D03*
%TD*%
D18*
%TO.C,D_1_5*%
X161925000Y-137496000D03*
D19*
X161925000Y-129204000D03*
%TD*%
D18*
%TO.C,D_1_6*%
X180975000Y-137496000D03*
D19*
X180975000Y-129204000D03*
%TD*%
D18*
%TO.C,D_1_7*%
X200025000Y-137496000D03*
D19*
X200025000Y-129204000D03*
%TD*%
D18*
%TO.C,D_1_8*%
X219075000Y-137496000D03*
D19*
X219075000Y-129204000D03*
%TD*%
D18*
%TO.C,D_1_9*%
X238125000Y-137496000D03*
D19*
X238125000Y-129204000D03*
%TD*%
D18*
%TO.C,D_1_10*%
X257175000Y-137496000D03*
D19*
X257175000Y-129204000D03*
%TD*%
D18*
%TO.C,D_1_11*%
X276225000Y-137496000D03*
D19*
X276225000Y-129204000D03*
%TD*%
D18*
%TO.C,D_1_12*%
X295275000Y-137496000D03*
D19*
X295275000Y-129204000D03*
%TD*%
D18*
%TO.C,D_1_13*%
X319087500Y-137496000D03*
D19*
X319087500Y-129204000D03*
%TD*%
D18*
%TO.C,D_2_0*%
X80962500Y-156546000D03*
D19*
X80962500Y-148254000D03*
%TD*%
D18*
%TO.C,D_2_1*%
X85725000Y-156546000D03*
D19*
X85725000Y-148254000D03*
%TD*%
D18*
%TO.C,D_2_2*%
X104775000Y-156546000D03*
D19*
X104775000Y-148254000D03*
%TD*%
D18*
%TO.C,D_2_3*%
X123825000Y-156546000D03*
D19*
X123825000Y-148254000D03*
%TD*%
D18*
%TO.C,D_2_4*%
X142875000Y-156546000D03*
D19*
X142875000Y-148254000D03*
%TD*%
D18*
%TO.C,D_2_5*%
X161925000Y-156546000D03*
D19*
X161925000Y-148254000D03*
%TD*%
D18*
%TO.C,D_2_6*%
X180975000Y-156546000D03*
D19*
X180975000Y-148254000D03*
%TD*%
D18*
%TO.C,D_2_7*%
X200025000Y-156546000D03*
D19*
X200025000Y-148254000D03*
%TD*%
D18*
%TO.C,D_2_8*%
X219075000Y-156546000D03*
D19*
X219075000Y-148254000D03*
%TD*%
D18*
%TO.C,D_2_9*%
X238125000Y-156546000D03*
D19*
X238125000Y-148254000D03*
%TD*%
D18*
%TO.C,D_2_10*%
X257175000Y-156546000D03*
D19*
X257175000Y-148254000D03*
%TD*%
D18*
%TO.C,D_2_11*%
X276225000Y-156546000D03*
D19*
X276225000Y-148254000D03*
%TD*%
D18*
%TO.C,D_2_12*%
X300037500Y-156546000D03*
D19*
X300037500Y-148254000D03*
%TD*%
D18*
%TO.C,D_2_13*%
X323850000Y-156546000D03*
D19*
X323850000Y-148254000D03*
%TD*%
D18*
%TO.C,D_3_0*%
X80962500Y-175596000D03*
D19*
X80962500Y-167304000D03*
%TD*%
D18*
%TO.C,D_3_1*%
X85725000Y-175596000D03*
D19*
X85725000Y-167304000D03*
%TD*%
D18*
%TO.C,D_3_2*%
X104775000Y-175596000D03*
D19*
X104775000Y-167304000D03*
%TD*%
D18*
%TO.C,D_3_3*%
X123825000Y-175596000D03*
D19*
X123825000Y-167304000D03*
%TD*%
D18*
%TO.C,D_3_4*%
X142875000Y-175596000D03*
D19*
X142875000Y-167304000D03*
%TD*%
D18*
%TO.C,D_3_5*%
X161925000Y-175596000D03*
D19*
X161925000Y-167304000D03*
%TD*%
D18*
%TO.C,D_3_6*%
X180975000Y-175596000D03*
D19*
X180975000Y-167304000D03*
%TD*%
D18*
%TO.C,D_3_7*%
X200025000Y-175596000D03*
D19*
X200025000Y-167304000D03*
%TD*%
D18*
%TO.C,D_3_8*%
X219075000Y-175596000D03*
D19*
X219075000Y-167304000D03*
%TD*%
D18*
%TO.C,D_3_9*%
X238125000Y-175596000D03*
D19*
X238125000Y-167304000D03*
%TD*%
D18*
%TO.C,D_3_10*%
X257175000Y-175596000D03*
D19*
X257175000Y-167304000D03*
%TD*%
D18*
%TO.C,D_3_11*%
X280987500Y-175596000D03*
D19*
X280987500Y-167304000D03*
%TD*%
D18*
%TO.C,D_3_12*%
X304800000Y-175596000D03*
D19*
X304800000Y-167304000D03*
%TD*%
D18*
%TO.C,D_3_13*%
X323850000Y-175596000D03*
D19*
X323850000Y-167304000D03*
%TD*%
D18*
%TO.C,D_4_0*%
X80962500Y-194646000D03*
D19*
X80962500Y-186354000D03*
%TD*%
D18*
%TO.C,D_4_1*%
X85725000Y-194646000D03*
D19*
X85725000Y-186354000D03*
%TD*%
D18*
%TO.C,D_4_2*%
X104775000Y-194646000D03*
D19*
X104775000Y-186354000D03*
%TD*%
D18*
%TO.C,D_4_4*%
X138112500Y-194646000D03*
D19*
X138112500Y-186354000D03*
%TD*%
D18*
%TO.C,D_4_5*%
X161925000Y-194646000D03*
D19*
X161925000Y-186354000D03*
%TD*%
D18*
%TO.C,D_4_6*%
X185737500Y-194646000D03*
D19*
X185737500Y-186354000D03*
%TD*%
D18*
%TO.C,D_4_8*%
X219075000Y-194646000D03*
D19*
X219075000Y-186354000D03*
%TD*%
D18*
%TO.C,D_4_9*%
X238125000Y-194646000D03*
D19*
X238125000Y-186354000D03*
%TD*%
D18*
%TO.C,D_4_10*%
X257175000Y-194646000D03*
D19*
X257175000Y-186354000D03*
%TD*%
D18*
%TO.C,D_4_11*%
X285750000Y-194646000D03*
D19*
X285750000Y-186354000D03*
%TD*%
D18*
%TO.C,D_4_12*%
X304800000Y-194646000D03*
D19*
X304800000Y-186354000D03*
%TD*%
D18*
%TO.C,D_4_13*%
X323850000Y-194646000D03*
D19*
X323850000Y-186354000D03*
%TD*%
D20*
%TO.C,K_0_0*%
X67627500Y-111760000D03*
X73977500Y-109220000D03*
D21*
X71437500Y-114300000D03*
D22*
X66357500Y-114300000D03*
X76517500Y-114300000D03*
%TD*%
D20*
%TO.C,K_0_1*%
X91440000Y-111760000D03*
X97790000Y-109220000D03*
D22*
X100330000Y-114300000D03*
D21*
X95250000Y-114300000D03*
D22*
X90170000Y-114300000D03*
%TD*%
D20*
%TO.C,K_0_2*%
X110490000Y-111760000D03*
X116840000Y-109220000D03*
D22*
X119380000Y-114300000D03*
D21*
X114300000Y-114300000D03*
D22*
X109220000Y-114300000D03*
%TD*%
D20*
%TO.C,K_0_3*%
X129540000Y-111760000D03*
X135890000Y-109220000D03*
D21*
X133350000Y-114300000D03*
D22*
X138430000Y-114300000D03*
X128270000Y-114300000D03*
%TD*%
D20*
%TO.C,K_0_4*%
X148590000Y-111760000D03*
X154940000Y-109220000D03*
D22*
X157480000Y-114300000D03*
D21*
X152400000Y-114300000D03*
D22*
X147320000Y-114300000D03*
%TD*%
D20*
%TO.C,K_0_5*%
X167640000Y-111760000D03*
X173990000Y-109220000D03*
D21*
X171450000Y-114300000D03*
D22*
X166370000Y-114300000D03*
X176530000Y-114300000D03*
%TD*%
D20*
%TO.C,K_0_6*%
X186690000Y-111760000D03*
X193040000Y-109220000D03*
D22*
X195580000Y-114300000D03*
X185420000Y-114300000D03*
D21*
X190500000Y-114300000D03*
%TD*%
D20*
%TO.C,K_0_7*%
X205740000Y-111760000D03*
X212090000Y-109220000D03*
D22*
X204470000Y-114300000D03*
D21*
X209550000Y-114300000D03*
D22*
X214630000Y-114300000D03*
%TD*%
D20*
%TO.C,K_0_8*%
X224790000Y-111760000D03*
X231140000Y-109220000D03*
D22*
X223520000Y-114300000D03*
D21*
X228600000Y-114300000D03*
D22*
X233680000Y-114300000D03*
%TD*%
D20*
%TO.C,K_0_9*%
X243840000Y-111760000D03*
X250190000Y-109220000D03*
D22*
X252730000Y-114300000D03*
X242570000Y-114300000D03*
D21*
X247650000Y-114300000D03*
%TD*%
D20*
%TO.C,K_0_10*%
X262890000Y-111760000D03*
X269240000Y-109220000D03*
D21*
X266700000Y-114300000D03*
D22*
X271780000Y-114300000D03*
X261620000Y-114300000D03*
%TD*%
D20*
%TO.C,K_0_11*%
X281940000Y-111760000D03*
X288290000Y-109220000D03*
D22*
X280670000Y-114300000D03*
X290830000Y-114300000D03*
D21*
X285750000Y-114300000D03*
%TD*%
D20*
%TO.C,K_0_12*%
X300990000Y-111760000D03*
X307340000Y-109220000D03*
D21*
X304800000Y-114300000D03*
D22*
X309880000Y-114300000D03*
X299720000Y-114300000D03*
%TD*%
D20*
%TO.C,K_0_13*%
X324802500Y-111760000D03*
X331152500Y-109220000D03*
D22*
X323532500Y-114300000D03*
X333692500Y-114300000D03*
D21*
X328612500Y-114300000D03*
%TD*%
D20*
%TO.C,K_1_0*%
X67627500Y-130810000D03*
X73977500Y-128270000D03*
D22*
X76517500Y-133350000D03*
D21*
X71437500Y-133350000D03*
D22*
X66357500Y-133350000D03*
%TD*%
D20*
%TO.C,K_1_1*%
X91440000Y-130810000D03*
X97790000Y-128270000D03*
D21*
X95250000Y-133350000D03*
D22*
X100330000Y-133350000D03*
X90170000Y-133350000D03*
%TD*%
D20*
%TO.C,K_1_2*%
X110490000Y-130810000D03*
X116840000Y-128270000D03*
D21*
X114300000Y-133350000D03*
D22*
X119380000Y-133350000D03*
X109220000Y-133350000D03*
%TD*%
D20*
%TO.C,K_1_3*%
X129540000Y-130810000D03*
X135890000Y-128270000D03*
D22*
X138430000Y-133350000D03*
D21*
X133350000Y-133350000D03*
D22*
X128270000Y-133350000D03*
%TD*%
D20*
%TO.C,K_1_4*%
X148590000Y-130810000D03*
X154940000Y-128270000D03*
D22*
X147320000Y-133350000D03*
D21*
X152400000Y-133350000D03*
D22*
X157480000Y-133350000D03*
%TD*%
D20*
%TO.C,K_1_5*%
X167640000Y-130810000D03*
X173990000Y-128270000D03*
D21*
X171450000Y-133350000D03*
D22*
X166370000Y-133350000D03*
X176530000Y-133350000D03*
%TD*%
D20*
%TO.C,K_1_6*%
X186690000Y-130810000D03*
X193040000Y-128270000D03*
D22*
X195580000Y-133350000D03*
X185420000Y-133350000D03*
D21*
X190500000Y-133350000D03*
%TD*%
D20*
%TO.C,K_1_7*%
X205740000Y-130810000D03*
X212090000Y-128270000D03*
D22*
X204470000Y-133350000D03*
X214630000Y-133350000D03*
D21*
X209550000Y-133350000D03*
%TD*%
D20*
%TO.C,K_1_8*%
X224790000Y-130810000D03*
X231140000Y-128270000D03*
D21*
X228600000Y-133350000D03*
D22*
X223520000Y-133350000D03*
X233680000Y-133350000D03*
%TD*%
D20*
%TO.C,K_1_9*%
X243840000Y-130810000D03*
X250190000Y-128270000D03*
D22*
X252730000Y-133350000D03*
D21*
X247650000Y-133350000D03*
D22*
X242570000Y-133350000D03*
%TD*%
D20*
%TO.C,K_1_10*%
X262890000Y-130810000D03*
X269240000Y-128270000D03*
D22*
X261620000Y-133350000D03*
D21*
X266700000Y-133350000D03*
D22*
X271780000Y-133350000D03*
%TD*%
D20*
%TO.C,K_1_11*%
X281940000Y-130810000D03*
X288290000Y-128270000D03*
D22*
X290830000Y-133350000D03*
X280670000Y-133350000D03*
D21*
X285750000Y-133350000D03*
%TD*%
D20*
%TO.C,K_1_12*%
X300990000Y-130810000D03*
X307340000Y-128270000D03*
D21*
X304800000Y-133350000D03*
D22*
X299720000Y-133350000D03*
X309880000Y-133350000D03*
%TD*%
D20*
%TO.C,K_1_13*%
X324802500Y-130810000D03*
X331152500Y-128270000D03*
D22*
X333692500Y-133350000D03*
D21*
X328612500Y-133350000D03*
D22*
X323532500Y-133350000D03*
%TD*%
D20*
%TO.C,K_2_0*%
X67627500Y-149860000D03*
X73977500Y-147320000D03*
D22*
X66357500Y-152400000D03*
D21*
X71437500Y-152400000D03*
D22*
X76517500Y-152400000D03*
%TD*%
D20*
%TO.C,K_2_1*%
X91440000Y-149860000D03*
X97790000Y-147320000D03*
D21*
X95250000Y-152400000D03*
D22*
X100330000Y-152400000D03*
X90170000Y-152400000D03*
%TD*%
D20*
%TO.C,K_2_2*%
X110490000Y-149860000D03*
X116840000Y-147320000D03*
D21*
X114300000Y-152400000D03*
D22*
X119380000Y-152400000D03*
X109220000Y-152400000D03*
%TD*%
D20*
%TO.C,K_2_3*%
X129540000Y-149860000D03*
X135890000Y-147320000D03*
D21*
X133350000Y-152400000D03*
D22*
X138430000Y-152400000D03*
X128270000Y-152400000D03*
%TD*%
D20*
%TO.C,K_2_4*%
X148590000Y-149860000D03*
X154940000Y-147320000D03*
D22*
X157480000Y-152400000D03*
X147320000Y-152400000D03*
D21*
X152400000Y-152400000D03*
%TD*%
D20*
%TO.C,K_2_5*%
X167640000Y-149860000D03*
X173990000Y-147320000D03*
D22*
X176530000Y-152400000D03*
X166370000Y-152400000D03*
D21*
X171450000Y-152400000D03*
%TD*%
D20*
%TO.C,K_2_6*%
X186690000Y-149860000D03*
X193040000Y-147320000D03*
D22*
X195580000Y-152400000D03*
X185420000Y-152400000D03*
D21*
X190500000Y-152400000D03*
%TD*%
D20*
%TO.C,K_2_7*%
X205740000Y-149860000D03*
X212090000Y-147320000D03*
D21*
X209550000Y-152400000D03*
D22*
X214630000Y-152400000D03*
X204470000Y-152400000D03*
%TD*%
D20*
%TO.C,K_2_8*%
X224790000Y-149860000D03*
X231140000Y-147320000D03*
D21*
X228600000Y-152400000D03*
D22*
X233680000Y-152400000D03*
X223520000Y-152400000D03*
%TD*%
D20*
%TO.C,K_2_9*%
X243840000Y-149860000D03*
X250190000Y-147320000D03*
D22*
X252730000Y-152400000D03*
D21*
X247650000Y-152400000D03*
D22*
X242570000Y-152400000D03*
%TD*%
D20*
%TO.C,K_2_10*%
X262890000Y-149860000D03*
X269240000Y-147320000D03*
D22*
X261620000Y-152400000D03*
D21*
X266700000Y-152400000D03*
D22*
X271780000Y-152400000D03*
%TD*%
D20*
%TO.C,K_2_11*%
X281940000Y-149860000D03*
X288290000Y-147320000D03*
D22*
X280670000Y-152400000D03*
X290830000Y-152400000D03*
D21*
X285750000Y-152400000D03*
%TD*%
D20*
%TO.C,K_2_12*%
X305752500Y-149860000D03*
X312102500Y-147320000D03*
D22*
X304482500Y-152400000D03*
X314642500Y-152400000D03*
D21*
X309562500Y-152400000D03*
%TD*%
D20*
%TO.C,K_2_13*%
X329565000Y-149860000D03*
X335915000Y-147320000D03*
D22*
X328295000Y-152400000D03*
D21*
X333375000Y-152400000D03*
D22*
X338455000Y-152400000D03*
%TD*%
D20*
%TO.C,K_3_0*%
X67627500Y-168910000D03*
X73977500Y-166370000D03*
D22*
X66357500Y-171450000D03*
X76517500Y-171450000D03*
D21*
X71437500Y-171450000D03*
%TD*%
D20*
%TO.C,K_3_1*%
X91440000Y-168910000D03*
X97790000Y-166370000D03*
D22*
X90170000Y-171450000D03*
D21*
X95250000Y-171450000D03*
D22*
X100330000Y-171450000D03*
%TD*%
D20*
%TO.C,K_3_2*%
X110490000Y-168910000D03*
X116840000Y-166370000D03*
D22*
X119380000Y-171450000D03*
X109220000Y-171450000D03*
D21*
X114300000Y-171450000D03*
%TD*%
D20*
%TO.C,K_3_3*%
X129540000Y-168910000D03*
X135890000Y-166370000D03*
D22*
X138430000Y-171450000D03*
X128270000Y-171450000D03*
D21*
X133350000Y-171450000D03*
%TD*%
D20*
%TO.C,K_3_4*%
X148590000Y-168910000D03*
X154940000Y-166370000D03*
D21*
X152400000Y-171450000D03*
D22*
X157480000Y-171450000D03*
X147320000Y-171450000D03*
%TD*%
D20*
%TO.C,K_3_5*%
X167640000Y-168910000D03*
X173990000Y-166370000D03*
D22*
X166370000Y-171450000D03*
X176530000Y-171450000D03*
D21*
X171450000Y-171450000D03*
%TD*%
D20*
%TO.C,K_3_6*%
X186690000Y-168910000D03*
X193040000Y-166370000D03*
D22*
X195580000Y-171450000D03*
X185420000Y-171450000D03*
D21*
X190500000Y-171450000D03*
%TD*%
D20*
%TO.C,K_3_7*%
X205740000Y-168910000D03*
X212090000Y-166370000D03*
D22*
X214630000Y-171450000D03*
D21*
X209550000Y-171450000D03*
D22*
X204470000Y-171450000D03*
%TD*%
D20*
%TO.C,K_3_8*%
X224790000Y-168910000D03*
X231140000Y-166370000D03*
D21*
X228600000Y-171450000D03*
D22*
X233680000Y-171450000D03*
X223520000Y-171450000D03*
%TD*%
D20*
%TO.C,K_3_9*%
X243840000Y-168910000D03*
X250190000Y-166370000D03*
D21*
X247650000Y-171450000D03*
D22*
X242570000Y-171450000D03*
X252730000Y-171450000D03*
%TD*%
D20*
%TO.C,K_3_10*%
X262890000Y-168910000D03*
X269240000Y-166370000D03*
D22*
X261620000Y-171450000D03*
X271780000Y-171450000D03*
D21*
X266700000Y-171450000D03*
%TD*%
D20*
%TO.C,K_3_11*%
X286702500Y-168910000D03*
X293052500Y-166370000D03*
D22*
X295592500Y-171450000D03*
X285432500Y-171450000D03*
D21*
X290512500Y-171450000D03*
%TD*%
D20*
%TO.C,K_3_12*%
X310515000Y-168910000D03*
X316865000Y-166370000D03*
D22*
X309245000Y-171450000D03*
X319405000Y-171450000D03*
D21*
X314325000Y-171450000D03*
%TD*%
D20*
%TO.C,K_3_13*%
X329565000Y-168910000D03*
X335915000Y-166370000D03*
D22*
X328295000Y-171450000D03*
X338455000Y-171450000D03*
D21*
X333375000Y-171450000D03*
%TD*%
D20*
%TO.C,K_4_0*%
X67627500Y-187960000D03*
X73977500Y-185420000D03*
D22*
X76517500Y-190500000D03*
X66357500Y-190500000D03*
D21*
X71437500Y-190500000D03*
%TD*%
D20*
%TO.C,K_4_1*%
X91440000Y-187960000D03*
X97790000Y-185420000D03*
D22*
X90170000Y-190500000D03*
D21*
X95250000Y-190500000D03*
D22*
X100330000Y-190500000D03*
%TD*%
D20*
%TO.C,K_4_2*%
X110490000Y-187960000D03*
X116840000Y-185420000D03*
D21*
X114300000Y-190500000D03*
D22*
X109220000Y-190500000D03*
X119380000Y-190500000D03*
%TD*%
D20*
%TO.C,K_4_4*%
X143827500Y-187960000D03*
X150177500Y-185420000D03*
D21*
X147637500Y-190500000D03*
D22*
X142557500Y-190500000D03*
X152717500Y-190500000D03*
%TD*%
D20*
%TO.C,K_4_5*%
X167640000Y-187960000D03*
X173990000Y-185420000D03*
D21*
X171450000Y-190500000D03*
D22*
X166370000Y-190500000D03*
X176530000Y-190500000D03*
%TD*%
D20*
%TO.C,K_4_6*%
X191452500Y-187960000D03*
X197802500Y-185420000D03*
D22*
X200342500Y-190500000D03*
D21*
X195262500Y-190500000D03*
D22*
X190182500Y-190500000D03*
%TD*%
D20*
%TO.C,K_4_8*%
X224790000Y-187960000D03*
X231140000Y-185420000D03*
D22*
X233680000Y-190500000D03*
X223520000Y-190500000D03*
D21*
X228600000Y-190500000D03*
%TD*%
D20*
%TO.C,K_4_9*%
X243840000Y-187960000D03*
X250190000Y-185420000D03*
D21*
X247650000Y-190500000D03*
D22*
X242570000Y-190500000D03*
X252730000Y-190500000D03*
%TD*%
D20*
%TO.C,K_4_10*%
X262890000Y-187960000D03*
X269240000Y-185420000D03*
D22*
X271780000Y-190500000D03*
X261620000Y-190500000D03*
D21*
X266700000Y-190500000D03*
%TD*%
D20*
%TO.C,K_4_11*%
X291465000Y-187960000D03*
X297815000Y-185420000D03*
D22*
X290195000Y-190500000D03*
X300355000Y-190500000D03*
D21*
X295275000Y-190500000D03*
%TD*%
D20*
%TO.C,K_4_12*%
X310515000Y-187960000D03*
X316865000Y-185420000D03*
D21*
X314325000Y-190500000D03*
D22*
X309245000Y-190500000D03*
X319405000Y-190500000D03*
%TD*%
D20*
%TO.C,K_4_13*%
X329565000Y-187960000D03*
X335915000Y-185420000D03*
D22*
X328295000Y-190500000D03*
D21*
X333375000Y-190500000D03*
D22*
X338455000Y-190500000D03*
%TD*%
D23*
%TO.C,R1*%
X41425000Y-116515000D03*
D24*
X41425000Y-124135000D03*
%TD*%
%TO.C,R4*%
X52260000Y-178500000D03*
D23*
X44640000Y-178500000D03*
%TD*%
%TO.C,R2*%
X43775000Y-116515000D03*
D24*
X43775000Y-124135000D03*
%TD*%
%TO.C,R3*%
X44640000Y-175825000D03*
D23*
X52260000Y-175825000D03*
%TD*%
D14*
%TO.C,R6*%
X54925000Y-139825000D03*
D13*
X42225000Y-139825000D03*
%TD*%
%TO.C,R5*%
X54925000Y-135825000D03*
D14*
X42225000Y-135825000D03*
%TD*%
D25*
%TO.C,S1*%
X46462500Y-184075000D03*
X48462500Y-184075000D03*
D26*
X50462500Y-184075000D03*
D27*
X44362500Y-184075000D03*
X52562500Y-184075000D03*
%TD*%
D25*
%TO.C,S2*%
X46462500Y-190075000D03*
X48462500Y-190075000D03*
D26*
X50462500Y-190075000D03*
D27*
X44362500Y-190075000D03*
X52562500Y-190075000D03*
%TD*%
D28*
%TO.C,EM1*%
X42775000Y-108700000D03*
%TD*%
%TO.C,EM2*%
X42775000Y-196100000D03*
%TD*%
%TO.C,M6*%
X85725000Y-180975000D03*
%TD*%
%TO.C,M4*%
X257175000Y-123825000D03*
%TD*%
%TO.C,M9*%
X276225000Y-180975000D03*
%TD*%
%TO.C,M3*%
X200025000Y-123825000D03*
%TD*%
D29*
%TO.C,L2*%
X46665000Y-123425000D03*
X47935000Y-123425000D03*
X49205000Y-123425000D03*
D30*
X50475000Y-123425000D03*
%TD*%
%TO.C,L1*%
X50475000Y-129925000D03*
D29*
X49205000Y-129925000D03*
X47935000Y-129925000D03*
X46665000Y-129925000D03*
%TD*%
D28*
%TO.C,M5*%
X319087500Y-123825000D03*
%TD*%
%TO.C,M1*%
X85725000Y-123825000D03*
%TD*%
%TO.C,M7*%
X123825000Y-180975000D03*
%TD*%
%TO.C,M8*%
X219075000Y-180975000D03*
%TD*%
%TO.C,M10*%
X323850000Y-180975000D03*
%TD*%
D30*
%TO.C,L3*%
X50475000Y-116925000D03*
D29*
X49205000Y-116925000D03*
X47935000Y-116925000D03*
X46665000Y-116925000D03*
%TD*%
D28*
%TO.C,M2*%
X142875000Y-123825000D03*
%TD*%
D31*
%TO.C,USBC1*%
X53550000Y-111825000D03*
X54400000Y-111825000D03*
X55250000Y-111825000D03*
X56100000Y-111825000D03*
X56950000Y-111825000D03*
X57800000Y-111825000D03*
X58650000Y-111825000D03*
X59500000Y-111825000D03*
X59500000Y-110475000D03*
X58650000Y-110475000D03*
X57800000Y-110475000D03*
X56950000Y-110475000D03*
X56100000Y-110475000D03*
X55250000Y-110475000D03*
X54400000Y-110475000D03*
X53550000Y-110475000D03*
D32*
X52200000Y-110845000D03*
X60850000Y-110845000D03*
X60850000Y-107465000D03*
X52200000Y-107465000D03*
%TD*%
M02*
