<?xml version="1.0" standalone="no"?>
 <!DOCTYPE svg PUBLIC "-//W3C//DTD SVG 1.1//EN" 
 "http://www.w3.org/Graphics/SVG/1.1/DTD/svg11.dtd"> 
<svg
  xmlns:svg="http://www.w3.org/2000/svg"
  xmlns="http://www.w3.org/2000/svg"
  xmlns:xlink="http://www.w3.org/1999/xlink"
  version="1.1"
  width="41.998900cm" height="29.700220cm" viewBox="0 0 419989000 297002200">
<title>SVG Picture created as Uniform-User_Comments.svg date 2022/04/28 16:56:11 </title>
  <desc>Picture generated by PCBNEW </desc>
<g style="fill:#000000; fill-opacity:1.000000;stroke:#000000; stroke-opacity:1.000000;
stroke-linecap:round; stroke-linejoin:round;"
 transform="translate(0 0) scale(1 1)">
</g>
<g style="fill:#000000; fill-opacity:0.0; 
stroke:#000000; stroke-width:0.000000; stroke-opacity:1; 
stroke-linecap:round; stroke-linejoin:round;">
</g>
<g style="fill:#000000; fill-opacity:0.0; 
stroke:#000000; stroke-width:21200.000000; stroke-opacity:1; 
stroke-linecap:round; stroke-linejoin:round;">
</g>
<g style="fill:#000000; fill-opacity:0.0; 
stroke:#000000; stroke-width:150000.000000; stroke-opacity:1; 
stroke-linecap:round; stroke-linejoin:round;">
<rect x="299989000.000000" y="253002200.000000" width="108000000.000000" height="32000000.000000" rx="0.000000" />
</g>
<g style="fill:#000000; fill-opacity:0.0; 
stroke:#000000; stroke-width:21200.000000; stroke-opacity:1; 
stroke-linecap:round; stroke-linejoin:round;">
</g>
<g style="fill:#000000; fill-opacity:0.0; 
stroke:#000000; stroke-width:150000.000000; stroke-opacity:1; 
stroke-linecap:round; stroke-linejoin:round;">
<rect x="10000000.000000" y="10000000.000000" width="399989000.000000" height="277002200.000000" rx="0.000000" />
</g>
<g style="fill:#000000; fill-opacity:0.0; 
stroke:#000000; stroke-width:21200.000000; stroke-opacity:1; 
stroke-linecap:round; stroke-linejoin:round;">
</g>
<g style="fill:#000000; fill-opacity:0.0; 
stroke:#000000; stroke-width:150000.000000; stroke-opacity:1; 
stroke-linecap:round; stroke-linejoin:round;">
<rect x="12000000.000000" y="12000000.000000" width="395989000.000000" height="273002200.000000" rx="0.000000" />
</g>
<g style="fill:#000000; fill-opacity:0.0; 
stroke:#000000; stroke-width:21200.000000; stroke-opacity:1; 
stroke-linecap:round; stroke-linejoin:round;">
</g>
<g style="fill:#000000; fill-opacity:0.0; 
stroke:#000000; stroke-width:150000.000000; stroke-opacity:1; 
stroke-linecap:round; stroke-linejoin:round;">
<path d="M60000000 12000000
L60000000 10000000
" />
</g>
<g style="fill:#000000; fill-opacity:0.0; 
stroke:#000000; stroke-width:21200.000000; stroke-opacity:1; 
stroke-linecap:round; stroke-linejoin:round;">
</g>
<g style="fill:#000000; fill-opacity:0.0; 
stroke:#000000; stroke-width:150000.000000; stroke-opacity:1; 
stroke-linecap:round; stroke-linejoin:round;">
<path d="M110000000 12000000
L110000000 10000000
" />
</g>
<g style="fill:#000000; fill-opacity:0.0; 
stroke:#000000; stroke-width:21200.000000; stroke-opacity:1; 
stroke-linecap:round; stroke-linejoin:round;">
</g>
<g style="fill:#000000; fill-opacity:0.0; 
stroke:#000000; stroke-width:150000.000000; stroke-opacity:1; 
stroke-linecap:round; stroke-linejoin:round;">
<path d="M160000000 12000000
L160000000 10000000
" />
</g>
<g style="fill:#000000; fill-opacity:0.0; 
stroke:#000000; stroke-width:21200.000000; stroke-opacity:1; 
stroke-linecap:round; stroke-linejoin:round;">
</g>
<g style="fill:#000000; fill-opacity:0.0; 
stroke:#000000; stroke-width:150000.000000; stroke-opacity:1; 
stroke-linecap:round; stroke-linejoin:round;">
<path d="M210000000 12000000
L210000000 10000000
" />
</g>
<g style="fill:#000000; fill-opacity:0.0; 
stroke:#000000; stroke-width:21200.000000; stroke-opacity:1; 
stroke-linecap:round; stroke-linejoin:round;">
</g>
<g style="fill:#000000; fill-opacity:0.0; 
stroke:#000000; stroke-width:150000.000000; stroke-opacity:1; 
stroke-linecap:round; stroke-linejoin:round;">
<path d="M260000000 12000000
L260000000 10000000
" />
</g>
<g style="fill:#000000; fill-opacity:0.0; 
stroke:#000000; stroke-width:21200.000000; stroke-opacity:1; 
stroke-linecap:round; stroke-linejoin:round;">
</g>
<g style="fill:#000000; fill-opacity:0.0; 
stroke:#000000; stroke-width:150000.000000; stroke-opacity:1; 
stroke-linecap:round; stroke-linejoin:round;">
<path d="M310000000 12000000
L310000000 10000000
" />
</g>
<g style="fill:#000000; fill-opacity:0.0; 
stroke:#000000; stroke-width:21200.000000; stroke-opacity:1; 
stroke-linecap:round; stroke-linejoin:round;">
</g>
<g style="fill:#000000; fill-opacity:0.0; 
stroke:#000000; stroke-width:150000.000000; stroke-opacity:1; 
stroke-linecap:round; stroke-linejoin:round;">
<path d="M360000000 12000000
L360000000 10000000
" />
</g>
<g style="fill:#000000; fill-opacity:0.0; 
stroke:#000000; stroke-width:21200.000000; stroke-opacity:1; 
stroke-linecap:round; stroke-linejoin:round;">
</g>
<g style="fill:#000000; fill-opacity:0.0; 
stroke:#000000; stroke-width:150000.000000; stroke-opacity:1; 
stroke-linecap:round; stroke-linejoin:round;">
<text x="35000000.000000" y="11650000.000000"
textLength="1433095.000000" font-size="1733333.000000" lengthAdjust="spacingAndGlyphs"
text-anchor="start" opacity="0">1</text>
<g class="stroked-text"><desc>1</desc>
<path d="M36065476 11588095
L35322619 11588095
" />
<path d="M35694047 11588095
L35694047 10288095
L35570238 10473809
L35446428 10597619
L35322619 10659523
" />
</g></g>
<g style="fill:#000000; fill-opacity:0.0; 
stroke:#000000; stroke-width:21200.000000; stroke-opacity:1; 
stroke-linecap:round; stroke-linejoin:round;">
</g>
<g style="fill:#000000; fill-opacity:0.0; 
stroke:#000000; stroke-width:150000.000000; stroke-opacity:1; 
stroke-linecap:round; stroke-linejoin:round;">
<text x="85000000.000000" y="11650000.000000"
textLength="1388095.000000" font-size="1733333.000000" lengthAdjust="spacingAndGlyphs"
text-anchor="start" opacity="0">2</text>
<g class="stroked-text"><desc>2</desc>
<path d="M85322619 10411904
L85384523 10350000
L85508333 10288095
L85817857 10288095
L85941666 10350000
L86003571 10411904
L86065476 10535714
L86065476 10659523
L86003571 10845238
L85260714 11588095
L86065476 11588095
" />
</g></g>
<g style="fill:#000000; fill-opacity:0.0; 
stroke:#000000; stroke-width:21200.000000; stroke-opacity:1; 
stroke-linecap:round; stroke-linejoin:round;">
</g>
<g style="fill:#000000; fill-opacity:0.0; 
stroke:#000000; stroke-width:150000.000000; stroke-opacity:1; 
stroke-linecap:round; stroke-linejoin:round;">
<text x="135000000.000000" y="11650000.000000"
textLength="1388095.000000" font-size="1733333.000000" lengthAdjust="spacingAndGlyphs"
text-anchor="start" opacity="0">3</text>
<g class="stroked-text"><desc>3</desc>
<path d="M135260714 10288095
L136065476 10288095
L135632142 10783333
L135817857 10783333
L135941666 10845238
L136003571 10907142
L136065476 11030952
L136065476 11340476
L136003571 11464285
L135941666 11526190
L135817857 11588095
L135446428 11588095
L135322619 11526190
L135260714 11464285
" />
</g></g>
<g style="fill:#000000; fill-opacity:0.0; 
stroke:#000000; stroke-width:21200.000000; stroke-opacity:1; 
stroke-linecap:round; stroke-linejoin:round;">
</g>
<g style="fill:#000000; fill-opacity:0.0; 
stroke:#000000; stroke-width:150000.000000; stroke-opacity:1; 
stroke-linecap:round; stroke-linejoin:round;">
<text x="185000000.000000" y="11650000.000000"
textLength="1388095.000000" font-size="1733333.000000" lengthAdjust="spacingAndGlyphs"
text-anchor="start" opacity="0">4</text>
<g class="stroked-text"><desc>4</desc>
<path d="M185941666 10721428
L185941666 11588095
" />
<path d="M185632142 10226190
L185322619 11154761
L186127380 11154761
" />
</g></g>
<g style="fill:#000000; fill-opacity:0.0; 
stroke:#000000; stroke-width:21200.000000; stroke-opacity:1; 
stroke-linecap:round; stroke-linejoin:round;">
</g>
<g style="fill:#000000; fill-opacity:0.0; 
stroke:#000000; stroke-width:150000.000000; stroke-opacity:1; 
stroke-linecap:round; stroke-linejoin:round;">
<text x="235000000.000000" y="11650000.000000"
textLength="1388095.000000" font-size="1733333.000000" lengthAdjust="spacingAndGlyphs"
text-anchor="start" opacity="0">5</text>
<g class="stroked-text"><desc>5</desc>
<path d="M236003571 10288095
L235384523 10288095
L235322619 10907142
L235384523 10845238
L235508333 10783333
L235817857 10783333
L235941666 10845238
L236003571 10907142
L236065476 11030952
L236065476 11340476
L236003571 11464285
L235941666 11526190
L235817857 11588095
L235508333 11588095
L235384523 11526190
L235322619 11464285
" />
</g></g>
<g style="fill:#000000; fill-opacity:0.0; 
stroke:#000000; stroke-width:21200.000000; stroke-opacity:1; 
stroke-linecap:round; stroke-linejoin:round;">
</g>
<g style="fill:#000000; fill-opacity:0.0; 
stroke:#000000; stroke-width:150000.000000; stroke-opacity:1; 
stroke-linecap:round; stroke-linejoin:round;">
<text x="285000000.000000" y="11650000.000000"
textLength="1388095.000000" font-size="1733333.000000" lengthAdjust="spacingAndGlyphs"
text-anchor="start" opacity="0">6</text>
<g class="stroked-text"><desc>6</desc>
<path d="M285941666 10288095
L285694047 10288095
L285570238 10350000
L285508333 10411904
L285384523 10597619
L285322619 10845238
L285322619 11340476
L285384523 11464285
L285446428 11526190
L285570238 11588095
L285817857 11588095
L285941666 11526190
L286003571 11464285
L286065476 11340476
L286065476 11030952
L286003571 10907142
L285941666 10845238
L285817857 10783333
L285570238 10783333
L285446428 10845238
L285384523 10907142
L285322619 11030952
" />
</g></g>
<g style="fill:#000000; fill-opacity:0.0; 
stroke:#000000; stroke-width:21200.000000; stroke-opacity:1; 
stroke-linecap:round; stroke-linejoin:round;">
</g>
<g style="fill:#000000; fill-opacity:0.0; 
stroke:#000000; stroke-width:150000.000000; stroke-opacity:1; 
stroke-linecap:round; stroke-linejoin:round;">
<text x="335000000.000000" y="11650000.000000"
textLength="1388095.000000" font-size="1733333.000000" lengthAdjust="spacingAndGlyphs"
text-anchor="start" opacity="0">7</text>
<g class="stroked-text"><desc>7</desc>
<path d="M335260714 10288095
L336127380 10288095
L335570238 11588095
" />
</g></g>
<g style="fill:#000000; fill-opacity:0.0; 
stroke:#000000; stroke-width:21200.000000; stroke-opacity:1; 
stroke-linecap:round; stroke-linejoin:round;">
</g>
<g style="fill:#000000; fill-opacity:0.0; 
stroke:#000000; stroke-width:150000.000000; stroke-opacity:1; 
stroke-linecap:round; stroke-linejoin:round;">
<text x="385000000.000000" y="11650000.000000"
textLength="1388095.000000" font-size="1733333.000000" lengthAdjust="spacingAndGlyphs"
text-anchor="start" opacity="0">8</text>
<g class="stroked-text"><desc>8</desc>
<path d="M385570238 10845238
L385446428 10783333
L385384523 10721428
L385322619 10597619
L385322619 10535714
L385384523 10411904
L385446428 10350000
L385570238 10288095
L385817857 10288095
L385941666 10350000
L386003571 10411904
L386065476 10535714
L386065476 10597619
L386003571 10721428
L385941666 10783333
L385817857 10845238
L385570238 10845238
L385446428 10907142
L385384523 10969047
L385322619 11092857
L385322619 11340476
L385384523 11464285
L385446428 11526190
L385570238 11588095
L385817857 11588095
L385941666 11526190
L386003571 11464285
L386065476 11340476
L386065476 11092857
L386003571 10969047
L385941666 10907142
L385817857 10845238
" />
</g></g>
<g style="fill:#000000; fill-opacity:0.0; 
stroke:#000000; stroke-width:21200.000000; stroke-opacity:1; 
stroke-linecap:round; stroke-linejoin:round;">
</g>
<g style="fill:#000000; fill-opacity:0.0; 
stroke:#000000; stroke-width:150000.000000; stroke-opacity:1; 
stroke-linecap:round; stroke-linejoin:round;">
<path d="M60000000 285002200
L60000000 287002200
" />
</g>
<g style="fill:#000000; fill-opacity:0.0; 
stroke:#000000; stroke-width:21200.000000; stroke-opacity:1; 
stroke-linecap:round; stroke-linejoin:round;">
</g>
<g style="fill:#000000; fill-opacity:0.0; 
stroke:#000000; stroke-width:150000.000000; stroke-opacity:1; 
stroke-linecap:round; stroke-linejoin:round;">
<path d="M110000000 285002200
L110000000 287002200
" />
</g>
<g style="fill:#000000; fill-opacity:0.0; 
stroke:#000000; stroke-width:21200.000000; stroke-opacity:1; 
stroke-linecap:round; stroke-linejoin:round;">
</g>
<g style="fill:#000000; fill-opacity:0.0; 
stroke:#000000; stroke-width:150000.000000; stroke-opacity:1; 
stroke-linecap:round; stroke-linejoin:round;">
<path d="M160000000 285002200
L160000000 287002200
" />
</g>
<g style="fill:#000000; fill-opacity:0.0; 
stroke:#000000; stroke-width:21200.000000; stroke-opacity:1; 
stroke-linecap:round; stroke-linejoin:round;">
</g>
<g style="fill:#000000; fill-opacity:0.0; 
stroke:#000000; stroke-width:150000.000000; stroke-opacity:1; 
stroke-linecap:round; stroke-linejoin:round;">
<path d="M210000000 285002200
L210000000 287002200
" />
</g>
<g style="fill:#000000; fill-opacity:0.0; 
stroke:#000000; stroke-width:21200.000000; stroke-opacity:1; 
stroke-linecap:round; stroke-linejoin:round;">
</g>
<g style="fill:#000000; fill-opacity:0.0; 
stroke:#000000; stroke-width:150000.000000; stroke-opacity:1; 
stroke-linecap:round; stroke-linejoin:round;">
<path d="M260000000 285002200
L260000000 287002200
" />
</g>
<g style="fill:#000000; fill-opacity:0.0; 
stroke:#000000; stroke-width:21200.000000; stroke-opacity:1; 
stroke-linecap:round; stroke-linejoin:round;">
</g>
<g style="fill:#000000; fill-opacity:0.0; 
stroke:#000000; stroke-width:150000.000000; stroke-opacity:1; 
stroke-linecap:round; stroke-linejoin:round;">
<path d="M310000000 285002200
L310000000 287002200
" />
</g>
<g style="fill:#000000; fill-opacity:0.0; 
stroke:#000000; stroke-width:21200.000000; stroke-opacity:1; 
stroke-linecap:round; stroke-linejoin:round;">
</g>
<g style="fill:#000000; fill-opacity:0.0; 
stroke:#000000; stroke-width:150000.000000; stroke-opacity:1; 
stroke-linecap:round; stroke-linejoin:round;">
<path d="M360000000 285002200
L360000000 287002200
" />
</g>
<g style="fill:#000000; fill-opacity:0.0; 
stroke:#000000; stroke-width:21200.000000; stroke-opacity:1; 
stroke-linecap:round; stroke-linejoin:round;">
</g>
<g style="fill:#000000; fill-opacity:0.0; 
stroke:#000000; stroke-width:150000.000000; stroke-opacity:1; 
stroke-linecap:round; stroke-linejoin:round;">
<text x="35000000.000000" y="286652200.000000"
textLength="1388095.000000" font-size="1733333.000000" lengthAdjust="spacingAndGlyphs"
text-anchor="start" opacity="0">1</text>
<g class="stroked-text"><desc>1</desc>
<path d="M36065476 286590295
L35322619 286590295
" />
<path d="M35694047 286590295
L35694047 285290295
L35570238 285476009
L35446428 285599819
L35322619 285661723
" />
</g></g>
<g style="fill:#000000; fill-opacity:0.0; 
stroke:#000000; stroke-width:21200.000000; stroke-opacity:1; 
stroke-linecap:round; stroke-linejoin:round;">
</g>
<g style="fill:#000000; fill-opacity:0.0; 
stroke:#000000; stroke-width:150000.000000; stroke-opacity:1; 
stroke-linecap:round; stroke-linejoin:round;">
<text x="85000000.000000" y="286652200.000000"
textLength="1388095.000000" font-size="1733333.000000" lengthAdjust="spacingAndGlyphs"
text-anchor="start" opacity="0">2</text>
<g class="stroked-text"><desc>2</desc>
<path d="M85322619 285414104
L85384523 285352200
L85508333 285290295
L85817857 285290295
L85941666 285352200
L86003571 285414104
L86065476 285537914
L86065476 285661723
L86003571 285847438
L85260714 286590295
L86065476 286590295
" />
</g></g>
<g style="fill:#000000; fill-opacity:0.0; 
stroke:#000000; stroke-width:21200.000000; stroke-opacity:1; 
stroke-linecap:round; stroke-linejoin:round;">
</g>
<g style="fill:#000000; fill-opacity:0.0; 
stroke:#000000; stroke-width:150000.000000; stroke-opacity:1; 
stroke-linecap:round; stroke-linejoin:round;">
<text x="135000000.000000" y="286652200.000000"
textLength="1388095.000000" font-size="1733333.000000" lengthAdjust="spacingAndGlyphs"
text-anchor="start" opacity="0">3</text>
<g class="stroked-text"><desc>3</desc>
<path d="M135260714 285290295
L136065476 285290295
L135632142 285785533
L135817857 285785533
L135941666 285847438
L136003571 285909342
L136065476 286033152
L136065476 286342676
L136003571 286466485
L135941666 286528390
L135817857 286590295
L135446428 286590295
L135322619 286528390
L135260714 286466485
" />
</g></g>
<g style="fill:#000000; fill-opacity:0.0; 
stroke:#000000; stroke-width:21200.000000; stroke-opacity:1; 
stroke-linecap:round; stroke-linejoin:round;">
</g>
<g style="fill:#000000; fill-opacity:0.0; 
stroke:#000000; stroke-width:150000.000000; stroke-opacity:1; 
stroke-linecap:round; stroke-linejoin:round;">
<text x="185000000.000000" y="286652200.000000"
textLength="1388095.000000" font-size="1733333.000000" lengthAdjust="spacingAndGlyphs"
text-anchor="start" opacity="0">4</text>
<g class="stroked-text"><desc>4</desc>
<path d="M185941666 285723628
L185941666 286590295
" />
<path d="M185632142 285228390
L185322619 286156961
L186127380 286156961
" />
</g></g>
<g style="fill:#000000; fill-opacity:0.0; 
stroke:#000000; stroke-width:21200.000000; stroke-opacity:1; 
stroke-linecap:round; stroke-linejoin:round;">
</g>
<g style="fill:#000000; fill-opacity:0.0; 
stroke:#000000; stroke-width:150000.000000; stroke-opacity:1; 
stroke-linecap:round; stroke-linejoin:round;">
<text x="235000000.000000" y="286652200.000000"
textLength="1388095.000000" font-size="1733333.000000" lengthAdjust="spacingAndGlyphs"
text-anchor="start" opacity="0">5</text>
<g class="stroked-text"><desc>5</desc>
<path d="M236003571 285290295
L235384523 285290295
L235322619 285909342
L235384523 285847438
L235508333 285785533
L235817857 285785533
L235941666 285847438
L236003571 285909342
L236065476 286033152
L236065476 286342676
L236003571 286466485
L235941666 286528390
L235817857 286590295
L235508333 286590295
L235384523 286528390
L235322619 286466485
" />
</g></g>
<g style="fill:#000000; fill-opacity:0.0; 
stroke:#000000; stroke-width:21200.000000; stroke-opacity:1; 
stroke-linecap:round; stroke-linejoin:round;">
</g>
<g style="fill:#000000; fill-opacity:0.0; 
stroke:#000000; stroke-width:150000.000000; stroke-opacity:1; 
stroke-linecap:round; stroke-linejoin:round;">
<text x="285000000.000000" y="286652200.000000"
textLength="1388095.000000" font-size="1733333.000000" lengthAdjust="spacingAndGlyphs"
text-anchor="start" opacity="0">6</text>
<g class="stroked-text"><desc>6</desc>
<path d="M285941666 285290295
L285694047 285290295
L285570238 285352200
L285508333 285414104
L285384523 285599819
L285322619 285847438
L285322619 286342676
L285384523 286466485
L285446428 286528390
L285570238 286590295
L285817857 286590295
L285941666 286528390
L286003571 286466485
L286065476 286342676
L286065476 286033152
L286003571 285909342
L285941666 285847438
L285817857 285785533
L285570238 285785533
L285446428 285847438
L285384523 285909342
L285322619 286033152
" />
</g></g>
<g style="fill:#000000; fill-opacity:0.0; 
stroke:#000000; stroke-width:21200.000000; stroke-opacity:1; 
stroke-linecap:round; stroke-linejoin:round;">
</g>
<g style="fill:#000000; fill-opacity:0.0; 
stroke:#000000; stroke-width:150000.000000; stroke-opacity:1; 
stroke-linecap:round; stroke-linejoin:round;">
<text x="335000000.000000" y="286652200.000000"
textLength="1388095.000000" font-size="1733333.000000" lengthAdjust="spacingAndGlyphs"
text-anchor="start" opacity="0">7</text>
<g class="stroked-text"><desc>7</desc>
<path d="M335260714 285290295
L336127380 285290295
L335570238 286590295
" />
</g></g>
<g style="fill:#000000; fill-opacity:0.0; 
stroke:#000000; stroke-width:21200.000000; stroke-opacity:1; 
stroke-linecap:round; stroke-linejoin:round;">
</g>
<g style="fill:#000000; fill-opacity:0.0; 
stroke:#000000; stroke-width:150000.000000; stroke-opacity:1; 
stroke-linecap:round; stroke-linejoin:round;">
<text x="385000000.000000" y="286652200.000000"
textLength="1388095.000000" font-size="1733333.000000" lengthAdjust="spacingAndGlyphs"
text-anchor="start" opacity="0">8</text>
<g class="stroked-text"><desc>8</desc>
<path d="M385570238 285847438
L385446428 285785533
L385384523 285723628
L385322619 285599819
L385322619 285537914
L385384523 285414104
L385446428 285352200
L385570238 285290295
L385817857 285290295
L385941666 285352200
L386003571 285414104
L386065476 285537914
L386065476 285599819
L386003571 285723628
L385941666 285785533
L385817857 285847438
L385570238 285847438
L385446428 285909342
L385384523 285971247
L385322619 286095057
L385322619 286342676
L385384523 286466485
L385446428 286528390
L385570238 286590295
L385817857 286590295
L385941666 286528390
L386003571 286466485
L386065476 286342676
L386065476 286095057
L386003571 285971247
L385941666 285909342
L385817857 285847438
" />
</g></g>
<g style="fill:#000000; fill-opacity:0.0; 
stroke:#000000; stroke-width:21200.000000; stroke-opacity:1; 
stroke-linecap:round; stroke-linejoin:round;">
</g>
<g style="fill:#000000; fill-opacity:0.0; 
stroke:#000000; stroke-width:150000.000000; stroke-opacity:1; 
stroke-linecap:round; stroke-linejoin:round;">
<path d="M10000000 60000000
L12000000 60000000
" />
</g>
<g style="fill:#000000; fill-opacity:0.0; 
stroke:#000000; stroke-width:21200.000000; stroke-opacity:1; 
stroke-linecap:round; stroke-linejoin:round;">
</g>
<g style="fill:#000000; fill-opacity:0.0; 
stroke:#000000; stroke-width:150000.000000; stroke-opacity:1; 
stroke-linecap:round; stroke-linejoin:round;">
<path d="M10000000 110000000
L12000000 110000000
" />
</g>
<g style="fill:#000000; fill-opacity:0.0; 
stroke:#000000; stroke-width:21200.000000; stroke-opacity:1; 
stroke-linecap:round; stroke-linejoin:round;">
</g>
<g style="fill:#000000; fill-opacity:0.0; 
stroke:#000000; stroke-width:150000.000000; stroke-opacity:1; 
stroke-linecap:round; stroke-linejoin:round;">
<path d="M10000000 160000000
L12000000 160000000
" />
</g>
<g style="fill:#000000; fill-opacity:0.0; 
stroke:#000000; stroke-width:21200.000000; stroke-opacity:1; 
stroke-linecap:round; stroke-linejoin:round;">
</g>
<g style="fill:#000000; fill-opacity:0.0; 
stroke:#000000; stroke-width:150000.000000; stroke-opacity:1; 
stroke-linecap:round; stroke-linejoin:round;">
<path d="M10000000 210000000
L12000000 210000000
" />
</g>
<g style="fill:#000000; fill-opacity:0.0; 
stroke:#000000; stroke-width:21200.000000; stroke-opacity:1; 
stroke-linecap:round; stroke-linejoin:round;">
</g>
<g style="fill:#000000; fill-opacity:0.0; 
stroke:#000000; stroke-width:150000.000000; stroke-opacity:1; 
stroke-linecap:round; stroke-linejoin:round;">
<path d="M10000000 260000000
L12000000 260000000
" />
</g>
<g style="fill:#000000; fill-opacity:0.0; 
stroke:#000000; stroke-width:21200.000000; stroke-opacity:1; 
stroke-linecap:round; stroke-linejoin:round;">
</g>
<g style="fill:#000000; fill-opacity:0.0; 
stroke:#000000; stroke-width:150000.000000; stroke-opacity:1; 
stroke-linecap:round; stroke-linejoin:round;">
<text x="11000000.000000" y="35650000.000000"
textLength="1264286.000000" font-size="1733333.000000" lengthAdjust="spacingAndGlyphs"
text-anchor="middle" opacity="0">A</text>
<g class="stroked-text"><desc>A</desc>
<path d="M10690476 35216666
L11309523 35216666
" />
<path d="M10566666 35588095
L11000000 34288095
L11433333 35588095
" />
</g></g>
<g style="fill:#000000; fill-opacity:0.0; 
stroke:#000000; stroke-width:21200.000000; stroke-opacity:1; 
stroke-linecap:round; stroke-linejoin:round;">
</g>
<g style="fill:#000000; fill-opacity:0.0; 
stroke:#000000; stroke-width:150000.000000; stroke-opacity:1; 
stroke-linecap:round; stroke-linejoin:round;">
<text x="11000000.000000" y="85650000.000000"
textLength="1450000.000000" font-size="1733333.000000" lengthAdjust="spacingAndGlyphs"
text-anchor="middle" opacity="0">B</text>
<g class="stroked-text"><desc>B</desc>
<path d="M11092857 84907142
L11278571 84969047
L11340476 85030952
L11402380 85154761
L11402380 85340476
L11340476 85464285
L11278571 85526190
L11154761 85588095
L10659523 85588095
L10659523 84288095
L11092857 84288095
L11216666 84350000
L11278571 84411904
L11340476 84535714
L11340476 84659523
L11278571 84783333
L11216666 84845238
L11092857 84907142
L10659523 84907142
" />
</g></g>
<g style="fill:#000000; fill-opacity:0.0; 
stroke:#000000; stroke-width:21200.000000; stroke-opacity:1; 
stroke-linecap:round; stroke-linejoin:round;">
</g>
<g style="fill:#000000; fill-opacity:0.0; 
stroke:#000000; stroke-width:150000.000000; stroke-opacity:1; 
stroke-linecap:round; stroke-linejoin:round;">
<text x="11000000.000000" y="135650000.000000"
textLength="1450000.000000" font-size="1733333.000000" lengthAdjust="spacingAndGlyphs"
text-anchor="middle" opacity="0">C</text>
<g class="stroked-text"><desc>C</desc>
<path d="M11402380 135464285
L11340476 135526190
L11154761 135588095
L11030952 135588095
L10845238 135526190
L10721428 135402380
L10659523 135278571
L10597619 135030952
L10597619 134845238
L10659523 134597619
L10721428 134473809
L10845238 134350000
L11030952 134288095
L11154761 134288095
L11340476 134350000
L11402380 134411904
" />
</g></g>
<g style="fill:#000000; fill-opacity:0.0; 
stroke:#000000; stroke-width:21200.000000; stroke-opacity:1; 
stroke-linecap:round; stroke-linejoin:round;">
</g>
<g style="fill:#000000; fill-opacity:0.0; 
stroke:#000000; stroke-width:150000.000000; stroke-opacity:1; 
stroke-linecap:round; stroke-linejoin:round;">
<text x="11000000.000000" y="185650000.000000"
textLength="1450000.000000" font-size="1733333.000000" lengthAdjust="spacingAndGlyphs"
text-anchor="middle" opacity="0">D</text>
<g class="stroked-text"><desc>D</desc>
<path d="M10659523 185588095
L10659523 184288095
L10969047 184288095
L11154761 184350000
L11278571 184473809
L11340476 184597619
L11402380 184845238
L11402380 185030952
L11340476 185278571
L11278571 185402380
L11154761 185526190
L10969047 185588095
L10659523 185588095
" />
</g></g>
<g style="fill:#000000; fill-opacity:0.0; 
stroke:#000000; stroke-width:21200.000000; stroke-opacity:1; 
stroke-linecap:round; stroke-linejoin:round;">
</g>
<g style="fill:#000000; fill-opacity:0.0; 
stroke:#000000; stroke-width:150000.000000; stroke-opacity:1; 
stroke-linecap:round; stroke-linejoin:round;">
<text x="11000000.000000" y="235650000.000000"
textLength="1326190.000000" font-size="1733333.000000" lengthAdjust="spacingAndGlyphs"
text-anchor="middle" opacity="0">E</text>
<g class="stroked-text"><desc>E</desc>
<path d="M10721428 234907142
L11154761 234907142
" />
<path d="M11340476 235588095
L10721428 235588095
L10721428 234288095
L11340476 234288095
" />
</g></g>
<g style="fill:#000000; fill-opacity:0.0; 
stroke:#000000; stroke-width:21200.000000; stroke-opacity:1; 
stroke-linecap:round; stroke-linejoin:round;">
</g>
<g style="fill:#000000; fill-opacity:0.0; 
stroke:#000000; stroke-width:150000.000000; stroke-opacity:1; 
stroke-linecap:round; stroke-linejoin:round;">
<text x="11000000.000000" y="285650000.000000"
textLength="1264286.000000" font-size="1733333.000000" lengthAdjust="spacingAndGlyphs"
text-anchor="middle" opacity="0">F</text>
<g class="stroked-text"><desc>F</desc>
<path d="M11185714 284907142
L10752380 284907142
" />
<path d="M10752380 285588095
L10752380 284288095
L11371428 284288095
" />
</g></g>
<g style="fill:#000000; fill-opacity:0.0; 
stroke:#000000; stroke-width:21200.000000; stroke-opacity:1; 
stroke-linecap:round; stroke-linejoin:round;">
</g>
<g style="fill:#000000; fill-opacity:0.0; 
stroke:#000000; stroke-width:150000.000000; stroke-opacity:1; 
stroke-linecap:round; stroke-linejoin:round;">
<path d="M409989000 60000000
L407989000 60000000
" />
</g>
<g style="fill:#000000; fill-opacity:0.0; 
stroke:#000000; stroke-width:21200.000000; stroke-opacity:1; 
stroke-linecap:round; stroke-linejoin:round;">
</g>
<g style="fill:#000000; fill-opacity:0.0; 
stroke:#000000; stroke-width:150000.000000; stroke-opacity:1; 
stroke-linecap:round; stroke-linejoin:round;">
<path d="M409989000 110000000
L407989000 110000000
" />
</g>
<g style="fill:#000000; fill-opacity:0.0; 
stroke:#000000; stroke-width:21200.000000; stroke-opacity:1; 
stroke-linecap:round; stroke-linejoin:round;">
</g>
<g style="fill:#000000; fill-opacity:0.0; 
stroke:#000000; stroke-width:150000.000000; stroke-opacity:1; 
stroke-linecap:round; stroke-linejoin:round;">
<path d="M409989000 160000000
L407989000 160000000
" />
</g>
<g style="fill:#000000; fill-opacity:0.0; 
stroke:#000000; stroke-width:21200.000000; stroke-opacity:1; 
stroke-linecap:round; stroke-linejoin:round;">
</g>
<g style="fill:#000000; fill-opacity:0.0; 
stroke:#000000; stroke-width:150000.000000; stroke-opacity:1; 
stroke-linecap:round; stroke-linejoin:round;">
<path d="M409989000 210000000
L407989000 210000000
" />
</g>
<g style="fill:#000000; fill-opacity:0.0; 
stroke:#000000; stroke-width:21200.000000; stroke-opacity:1; 
stroke-linecap:round; stroke-linejoin:round;">
</g>
<g style="fill:#000000; fill-opacity:0.0; 
stroke:#000000; stroke-width:150000.000000; stroke-opacity:1; 
stroke-linecap:round; stroke-linejoin:round;">
<path d="M409989000 260000000
L407989000 260000000
" />
</g>
<g style="fill:#000000; fill-opacity:0.0; 
stroke:#000000; stroke-width:21200.000000; stroke-opacity:1; 
stroke-linecap:round; stroke-linejoin:round;">
</g>
<g style="fill:#000000; fill-opacity:0.0; 
stroke:#000000; stroke-width:150000.000000; stroke-opacity:1; 
stroke-linecap:round; stroke-linejoin:round;">
<text x="408989000.000000" y="35650000.000000"
textLength="1264286.000000" font-size="1733333.000000" lengthAdjust="spacingAndGlyphs"
text-anchor="middle" opacity="0">A</text>
<g class="stroked-text"><desc>A</desc>
<path d="M408679476 35216666
L409298523 35216666
" />
<path d="M408555666 35588095
L408989000 34288095
L409422333 35588095
" />
</g></g>
<g style="fill:#000000; fill-opacity:0.0; 
stroke:#000000; stroke-width:21200.000000; stroke-opacity:1; 
stroke-linecap:round; stroke-linejoin:round;">
</g>
<g style="fill:#000000; fill-opacity:0.0; 
stroke:#000000; stroke-width:150000.000000; stroke-opacity:1; 
stroke-linecap:round; stroke-linejoin:round;">
<text x="408989000.000000" y="85650000.000000"
textLength="1450000.000000" font-size="1733333.000000" lengthAdjust="spacingAndGlyphs"
text-anchor="middle" opacity="0">B</text>
<g class="stroked-text"><desc>B</desc>
<path d="M409081857 84907142
L409267571 84969047
L409329476 85030952
L409391380 85154761
L409391380 85340476
L409329476 85464285
L409267571 85526190
L409143761 85588095
L408648523 85588095
L408648523 84288095
L409081857 84288095
L409205666 84350000
L409267571 84411904
L409329476 84535714
L409329476 84659523
L409267571 84783333
L409205666 84845238
L409081857 84907142
L408648523 84907142
" />
</g></g>
<g style="fill:#000000; fill-opacity:0.0; 
stroke:#000000; stroke-width:21200.000000; stroke-opacity:1; 
stroke-linecap:round; stroke-linejoin:round;">
</g>
<g style="fill:#000000; fill-opacity:0.0; 
stroke:#000000; stroke-width:150000.000000; stroke-opacity:1; 
stroke-linecap:round; stroke-linejoin:round;">
<text x="408989000.000000" y="135650000.000000"
textLength="1450000.000000" font-size="1733333.000000" lengthAdjust="spacingAndGlyphs"
text-anchor="middle" opacity="0">C</text>
<g class="stroked-text"><desc>C</desc>
<path d="M409391380 135464285
L409329476 135526190
L409143761 135588095
L409019952 135588095
L408834238 135526190
L408710428 135402380
L408648523 135278571
L408586619 135030952
L408586619 134845238
L408648523 134597619
L408710428 134473809
L408834238 134350000
L409019952 134288095
L409143761 134288095
L409329476 134350000
L409391380 134411904
" />
</g></g>
<g style="fill:#000000; fill-opacity:0.0; 
stroke:#000000; stroke-width:21200.000000; stroke-opacity:1; 
stroke-linecap:round; stroke-linejoin:round;">
</g>
<g style="fill:#000000; fill-opacity:0.0; 
stroke:#000000; stroke-width:150000.000000; stroke-opacity:1; 
stroke-linecap:round; stroke-linejoin:round;">
<text x="408989000.000000" y="185650000.000000"
textLength="1450000.000000" font-size="1733333.000000" lengthAdjust="spacingAndGlyphs"
text-anchor="middle" opacity="0">D</text>
<g class="stroked-text"><desc>D</desc>
<path d="M408648523 185588095
L408648523 184288095
L408958047 184288095
L409143761 184350000
L409267571 184473809
L409329476 184597619
L409391380 184845238
L409391380 185030952
L409329476 185278571
L409267571 185402380
L409143761 185526190
L408958047 185588095
L408648523 185588095
" />
</g></g>
<g style="fill:#000000; fill-opacity:0.0; 
stroke:#000000; stroke-width:21200.000000; stroke-opacity:1; 
stroke-linecap:round; stroke-linejoin:round;">
</g>
<g style="fill:#000000; fill-opacity:0.0; 
stroke:#000000; stroke-width:150000.000000; stroke-opacity:1; 
stroke-linecap:round; stroke-linejoin:round;">
<text x="408989000.000000" y="235650000.000000"
textLength="1326190.000000" font-size="1733333.000000" lengthAdjust="spacingAndGlyphs"
text-anchor="middle" opacity="0">E</text>
<g class="stroked-text"><desc>E</desc>
<path d="M408710428 234907142
L409143761 234907142
" />
<path d="M409329476 235588095
L408710428 235588095
L408710428 234288095
L409329476 234288095
" />
</g></g>
<g style="fill:#000000; fill-opacity:0.0; 
stroke:#000000; stroke-width:21200.000000; stroke-opacity:1; 
stroke-linecap:round; stroke-linejoin:round;">
</g>
<g style="fill:#000000; fill-opacity:0.0; 
stroke:#000000; stroke-width:150000.000000; stroke-opacity:1; 
stroke-linecap:round; stroke-linejoin:round;">
<text x="408989000.000000" y="285650000.000000"
textLength="1264286.000000" font-size="1733333.000000" lengthAdjust="spacingAndGlyphs"
text-anchor="middle" opacity="0">F</text>
<g class="stroked-text"><desc>F</desc>
<path d="M409174714 284907142
L408741380 284907142
" />
<path d="M408741380 285588095
L408741380 284288095
L409360428 284288095
" />
</g></g>
<g style="fill:#000000; fill-opacity:0.0; 
stroke:#000000; stroke-width:21200.000000; stroke-opacity:1; 
stroke-linecap:round; stroke-linejoin:round;">
</g>
<g style="fill:#000000; fill-opacity:0.0; 
stroke:#000000; stroke-width:150000.000000; stroke-opacity:1; 
stroke-linecap:round; stroke-linejoin:round;">
<text x="322989000.000000" y="280852200.000000"
textLength="7007143.000000" font-size="2000000.000000" lengthAdjust="spacingAndGlyphs"
text-anchor="start" opacity="0">Date: </text>
<g class="stroked-text"><desc>Date: </desc>
<path d="M323421142 280780771
L323421142 279280771
L323778285 279280771
L323992571 279352200
L324135428 279495057
L324206857 279637914
L324278285 279923628
L324278285 280137914
L324206857 280423628
L324135428 280566485
L323992571 280709342
L323778285 280780771
L323421142 280780771
" />
<path d="M325564000 280780771
L325564000 279995057
L325492571 279852200
L325349714 279780771
L325064000 279780771
L324921142 279852200
" />
<path d="M325564000 280709342
L325421142 280780771
L325064000 280780771
L324921142 280709342
L324849714 280566485
L324849714 280423628
L324921142 280280771
L325064000 280209342
L325421142 280209342
L325564000 280137914
" />
<path d="M326064000 279780771
L326635428 279780771
" />
<path d="M326278285 279280771
L326278285 280566485
L326349714 280709342
L326492571 280780771
L326635428 280780771
" />
<path d="M327706857 280709342
L327564000 280780771
L327278285 280780771
L327135428 280709342
L327064000 280566485
L327064000 279995057
L327135428 279852200
L327278285 279780771
L327564000 279780771
L327706857 279852200
L327778285 279995057
L327778285 280137914
L327064000 280280771
" />
<path d="M328421142 280637914
L328492571 280709342
L328421142 280780771
L328349714 280709342
L328421142 280637914
L328421142 280780771
" />
<path d="M328421142 279852200
L328492571 279923628
L328421142 279995057
L328349714 279923628
L328421142 279852200
L328421142 279995057
" />
</g></g>
<g style="fill:#000000; fill-opacity:0.0; 
stroke:#000000; stroke-width:21200.000000; stroke-opacity:1; 
stroke-linecap:round; stroke-linejoin:round;">
</g>
<g style="fill:#000000; fill-opacity:0.0; 
stroke:#000000; stroke-width:150000.000000; stroke-opacity:1; 
stroke-linecap:round; stroke-linejoin:round;">
<path d="M299989000 281502200
L407989000 281502200
" />
</g>
<g style="fill:#000000; fill-opacity:0.0; 
stroke:#000000; stroke-width:21200.000000; stroke-opacity:1; 
stroke-linecap:round; stroke-linejoin:round;">
</g>
<g style="fill:#000000; fill-opacity:0.0; 
stroke:#000000; stroke-width:150000.000000; stroke-opacity:1; 
stroke-linecap:round; stroke-linejoin:round;">
<text x="300989000.000000" y="283652200.000000"
textLength="31078571.000000" font-size="2000000.000000" lengthAdjust="spacingAndGlyphs"
text-anchor="start" opacity="0">KiCad E.D.A.  kicad (6.0.2)</text>
<g class="stroked-text"><desc>KiCad E.D.A.  kicad (6.0.2)</desc>
<path d="M301421142 283580771
L301421142 282080771
" />
<path d="M302278285 283580771
L301635428 282723628
" />
<path d="M302278285 282080771
L301421142 282937914
" />
<path d="M302921142 283580771
L302921142 282580771
" />
<path d="M302921142 282080771
L302849714 282152200
L302921142 282223628
L302992571 282152200
L302921142 282080771
L302921142 282223628
" />
<path d="M304492571 283437914
L304421142 283509342
L304206857 283580771
L304064000 283580771
L303849714 283509342
L303706857 283366485
L303635428 283223628
L303564000 282937914
L303564000 282723628
L303635428 282437914
L303706857 282295057
L303849714 282152200
L304064000 282080771
L304206857 282080771
L304421142 282152200
L304492571 282223628
" />
<path d="M305778285 283580771
L305778285 282795057
L305706857 282652200
L305564000 282580771
L305278285 282580771
L305135428 282652200
" />
<path d="M305778285 283509342
L305635428 283580771
L305278285 283580771
L305135428 283509342
L305064000 283366485
L305064000 283223628
L305135428 283080771
L305278285 283009342
L305635428 283009342
L305778285 282937914
" />
<path d="M307135428 283580771
L307135428 282080771
" />
<path d="M307135428 283509342
L306992571 283580771
L306706857 283580771
L306564000 283509342
L306492571 283437914
L306421142 283295057
L306421142 282866485
L306492571 282723628
L306564000 282652200
L306706857 282580771
L306992571 282580771
L307135428 282652200
" />
<path d="M308992571 282795057
L309492571 282795057
" />
<path d="M309706857 283580771
L308992571 283580771
L308992571 282080771
L309706857 282080771
" />
<path d="M310349714 283437914
L310421142 283509342
L310349714 283580771
L310278285 283509342
L310349714 283437914
L310349714 283580771
" />
<path d="M311064000 283580771
L311064000 282080771
L311421142 282080771
L311635428 282152200
L311778285 282295057
L311849714 282437914
L311921142 282723628
L311921142 282937914
L311849714 283223628
L311778285 283366485
L311635428 283509342
L311421142 283580771
L311064000 283580771
" />
<path d="M312564000 283437914
L312635428 283509342
L312564000 283580771
L312492571 283509342
L312564000 283437914
L312564000 283580771
" />
<path d="M313206857 283152200
L313921142 283152200
" />
<path d="M313064000 283580771
L313564000 282080771
L314064000 283580771
" />
<path d="M314564000 283437914
L314635428 283509342
L314564000 283580771
L314492571 283509342
L314564000 283437914
L314564000 283580771
" />
<path d="M317564000 283580771
L317564000 282080771
" />
<path d="M317706857 283009342
L318135428 283580771
" />
<path d="M318135428 282580771
L317564000 283152200
" />
<path d="M318778285 283580771
L318778285 282580771
" />
<path d="M318778285 282080771
L318706857 282152200
L318778285 282223628
L318849714 282152200
L318778285 282080771
L318778285 282223628
" />
<path d="M320135428 283509342
L319992571 283580771
L319706857 283580771
L319564000 283509342
L319492571 283437914
L319421142 283295057
L319421142 282866485
L319492571 282723628
L319564000 282652200
L319706857 282580771
L319992571 282580771
L320135428 282652200
" />
<path d="M321421142 283580771
L321421142 282795057
L321349714 282652200
L321206857 282580771
L320921142 282580771
L320778285 282652200
" />
<path d="M321421142 283509342
L321278285 283580771
L320921142 283580771
L320778285 283509342
L320706857 283366485
L320706857 283223628
L320778285 283080771
L320921142 283009342
L321278285 283009342
L321421142 282937914
" />
<path d="M322778285 283580771
L322778285 282080771
" />
<path d="M322778285 283509342
L322635428 283580771
L322349714 283580771
L322206857 283509342
L322135428 283437914
L322064000 283295057
L322064000 282866485
L322135428 282723628
L322206857 282652200
L322349714 282580771
L322635428 282580771
L322778285 282652200
" />
<path d="M325064000 284152200
L324992571 284080771
L324849714 283866485
L324778285 283723628
L324706857 283509342
L324635428 283152200
L324635428 282866485
L324706857 282509342
L324778285 282295057
L324849714 282152200
L324992571 281937914
L325064000 281866485
" />
<path d="M326278285 282080771
L325992571 282080771
L325849714 282152200
L325778285 282223628
L325635428 282437914
L325564000 282723628
L325564000 283295057
L325635428 283437914
L325706857 283509342
L325849714 283580771
L326135428 283580771
L326278285 283509342
L326349714 283437914
L326421142 283295057
L326421142 282937914
L326349714 282795057
L326278285 282723628
L326135428 282652200
L325849714 282652200
L325706857 282723628
L325635428 282795057
L325564000 282937914
" />
<path d="M327064000 283437914
L327135428 283509342
L327064000 283580771
L326992571 283509342
L327064000 283437914
L327064000 283580771
" />
<path d="M328064000 282080771
L328206857 282080771
L328349714 282152200
L328421142 282223628
L328492571 282366485
L328564000 282652200
L328564000 283009342
L328492571 283295057
L328421142 283437914
L328349714 283509342
L328206857 283580771
L328064000 283580771
L327921142 283509342
L327849714 283437914
L327778285 283295057
L327706857 283009342
L327706857 282652200
L327778285 282366485
L327849714 282223628
L327921142 282152200
L328064000 282080771
" />
<path d="M329206857 283437914
L329278285 283509342
L329206857 283580771
L329135428 283509342
L329206857 283437914
L329206857 283580771
" />
<path d="M329849714 282223628
L329921142 282152200
L330064000 282080771
L330421142 282080771
L330564000 282152200
L330635428 282223628
L330706857 282366485
L330706857 282509342
L330635428 282723628
L329778285 283580771
L330706857 283580771
" />
<path d="M331206857 284152200
L331278285 284080771
L331421142 283866485
L331492571 283723628
L331564000 283509342
L331635428 283152200
L331635428 282866485
L331564000 282509342
L331492571 282295057
L331421142 282152200
L331278285 281937914
L331206857 281866485
" />
</g></g>
<g style="fill:#000000; fill-opacity:0.0; 
stroke:#000000; stroke-width:21200.000000; stroke-opacity:1; 
stroke-linecap:round; stroke-linejoin:round;">
</g>
<g style="fill:#000000; fill-opacity:0.0; 
stroke:#000000; stroke-width:150000.000000; stroke-opacity:1; 
stroke-linecap:round; stroke-linejoin:round;">
<path d="M299989000 278502200
L407989000 278502200
" />
</g>
<g style="fill:#000000; fill-opacity:0.0; 
stroke:#000000; stroke-width:21200.000000; stroke-opacity:1; 
stroke-linecap:round; stroke-linejoin:round;">
</g>
<g style="fill:#000000; fill-opacity:0.0; 
stroke:#000000; stroke-width:300000.000000; stroke-opacity:1; 
stroke-linecap:round; stroke-linejoin:round;">
<text x="385989000.000000" y="280852200.000000"
textLength="5935714.000000" font-size="2000000.000000" lengthAdjust="spacingAndGlyphs"
text-anchor="start" opacity="0">Rev: </text>
<g class="stroked-text"><desc>Rev: </desc>
<path d="M387398285 280780771
L386898285 280066485
" />
<path d="M386541142 280780771
L386541142 279280771
L387112571 279280771
L387255428 279352200
L387326857 279423628
L387398285 279566485
L387398285 279780771
L387326857 279923628
L387255428 279995057
L387112571 280066485
L386541142 280066485
" />
<path d="M388612571 280709342
L388469714 280780771
L388184000 280780771
L388041142 280709342
L387969714 280566485
L387969714 279995057
L388041142 279852200
L388184000 279780771
L388469714 279780771
L388612571 279852200
L388684000 279995057
L388684000 280137914
L387969714 280280771
" />
<path d="M389184000 279780771
L389541142 280780771
L389898285 279780771
" />
<path d="M390469714 280637914
L390541142 280709342
L390469714 280780771
L390398285 280709342
L390469714 280637914
L390469714 280780771
" />
<path d="M390469714 279852200
L390541142 279923628
L390469714 279995057
L390398285 279923628
L390469714 279852200
L390469714 279995057
" />
</g></g>
<g style="fill:#000000; fill-opacity:0.0; 
stroke:#000000; stroke-width:21200.000000; stroke-opacity:1; 
stroke-linecap:round; stroke-linejoin:round;">
</g>
<g style="fill:#000000; fill-opacity:0.0; 
stroke:#000000; stroke-width:150000.000000; stroke-opacity:1; 
stroke-linecap:round; stroke-linejoin:round;">
<text x="300989000.000000" y="280852200.000000"
textLength="9604286.000000" font-size="2000000.000000" lengthAdjust="spacingAndGlyphs"
text-anchor="start" opacity="0">Size: A3</text>
<g class="stroked-text"><desc>Size: A3</desc>
<path d="M301349714 280709342
L301564000 280780771
L301921142 280780771
L302064000 280709342
L302135428 280637914
L302206857 280495057
L302206857 280352200
L302135428 280209342
L302064000 280137914
L301921142 280066485
L301635428 279995057
L301492571 279923628
L301421142 279852200
L301349714 279709342
L301349714 279566485
L301421142 279423628
L301492571 279352200
L301635428 279280771
L301992571 279280771
L302206857 279352200
" />
<path d="M302849714 280780771
L302849714 279780771
" />
<path d="M302849714 279280771
L302778285 279352200
L302849714 279423628
L302921142 279352200
L302849714 279280771
L302849714 279423628
" />
<path d="M303421142 279780771
L304206857 279780771
L303421142 280780771
L304206857 280780771
" />
<path d="M305349714 280709342
L305206857 280780771
L304921142 280780771
L304778285 280709342
L304706857 280566485
L304706857 279995057
L304778285 279852200
L304921142 279780771
L305206857 279780771
L305349714 279852200
L305421142 279995057
L305421142 280137914
L304706857 280280771
" />
<path d="M306064000 280637914
L306135428 280709342
L306064000 280780771
L305992571 280709342
L306064000 280637914
L306064000 280780771
" />
<path d="M306064000 279852200
L306135428 279923628
L306064000 279995057
L305992571 279923628
L306064000 279852200
L306064000 279995057
" />
<path d="M307849714 280352200
L308564000 280352200
" />
<path d="M307706857 280780771
L308206857 279280771
L308706857 280780771
" />
<path d="M309064000 279280771
L309992571 279280771
L309492571 279852200
L309706857 279852200
L309849714 279923628
L309921142 279995057
L309992571 280137914
L309992571 280495057
L309921142 280637914
L309849714 280709342
L309706857 280780771
L309278285 280780771
L309135428 280709342
L309064000 280637914
" />
</g></g>
<g style="fill:#000000; fill-opacity:0.0; 
stroke:#000000; stroke-width:21200.000000; stroke-opacity:1; 
stroke-linecap:round; stroke-linejoin:round;">
</g>
<g style="fill:#000000; fill-opacity:0.0; 
stroke:#000000; stroke-width:150000.000000; stroke-opacity:1; 
stroke-linecap:round; stroke-linejoin:round;">
<text x="385989000.000000" y="283652200.000000"
textLength="8507143.000000" font-size="2000000.000000" lengthAdjust="spacingAndGlyphs"
text-anchor="start" opacity="0">Id: 1/1</text>
<g class="stroked-text"><desc>Id: 1/1</desc>
<path d="M386421142 283580771
L386421142 282080771
" />
<path d="M387778285 283580771
L387778285 282080771
" />
<path d="M387778285 283509342
L387635428 283580771
L387349714 283580771
L387206857 283509342
L387135428 283437914
L387064000 283295057
L387064000 282866485
L387135428 282723628
L387206857 282652200
L387349714 282580771
L387635428 282580771
L387778285 282652200
" />
<path d="M388492571 283437914
L388564000 283509342
L388492571 283580771
L388421142 283509342
L388492571 283437914
L388492571 283580771
" />
<path d="M388492571 282652200
L388564000 282723628
L388492571 282795057
L388421142 282723628
L388492571 282652200
L388492571 282795057
" />
<path d="M391135428 283580771
L390278285 283580771
" />
<path d="M390706857 283580771
L390706857 282080771
L390564000 282295057
L390421142 282437914
L390278285 282509342
" />
<path d="M392849714 282009342
L391564000 283937914
" />
<path d="M394135428 283580771
L393278285 283580771
" />
<path d="M393706857 283580771
L393706857 282080771
L393564000 282295057
L393421142 282437914
L393278285 282509342
" />
</g></g>
<g style="fill:#000000; fill-opacity:0.0; 
stroke:#000000; stroke-width:21200.000000; stroke-opacity:1; 
stroke-linecap:round; stroke-linejoin:round;">
</g>
<g style="fill:#000000; fill-opacity:0.0; 
stroke:#000000; stroke-width:150000.000000; stroke-opacity:1; 
stroke-linecap:round; stroke-linejoin:round;">
<path d="M299989000 274502200
L407989000 274502200
" />
</g>
<g style="fill:#000000; fill-opacity:0.0; 
stroke:#000000; stroke-width:21200.000000; stroke-opacity:1; 
stroke-linecap:round; stroke-linejoin:round;">
</g>
<g style="fill:#000000; fill-opacity:0.0; 
stroke:#000000; stroke-width:400000.000000; stroke-opacity:1; 
stroke-linecap:round; stroke-linejoin:round;">
<text x="300989000.000000" y="277302200.000000"
textLength="9409643.000000" font-size="2666666.000000" lengthAdjust="spacingAndGlyphs"
text-anchor="start" opacity="0">Title: </text>
<g class="stroked-text"><desc>Title: </desc>
<path d="M301701380 275206961
L302844238 275206961
" />
<path d="M302022809 277206961
L302272809 275206961
" />
<path d="M303260904 277206961
L303427571 275873628
" />
<path d="M303510904 275206961
L303403761 275302200
L303487095 275397438
L303594238 275302200
L303510904 275206961
L303487095 275397438
" />
<path d="M304094238 275873628
L304856142 275873628
" />
<path d="M304463285 275206961
L304249000 276921247
L304320428 277111723
L304499000 277206961
L304689476 277206961
" />
<path d="M305641857 277206961
L305463285 277111723
L305391857 276921247
L305606142 275206961
" />
<path d="M307177571 277111723
L306975190 277206961
L306594238 277206961
L306415666 277111723
L306344238 276921247
L306439476 276159342
L306558523 275968866
L306760904 275873628
L307141857 275873628
L307320428 275968866
L307391857 276159342
L307368047 276349819
L306391857 276540295
" />
<path d="M308141857 277016485
L308225190 277111723
L308118047 277206961
L308034714 277111723
L308141857 277016485
L308118047 277206961
" />
<path d="M308272809 275968866
L308356142 276064104
L308249000 276159342
L308165666 276064104
L308272809 275968866
L308249000 276159342
" />
</g></g>
<g style="fill:#000000; fill-opacity:0.0; 
stroke:#000000; stroke-width:21200.000000; stroke-opacity:1; 
stroke-linecap:round; stroke-linejoin:round;">
</g>
<g style="fill:#000000; fill-opacity:0.0; 
stroke:#000000; stroke-width:150000.000000; stroke-opacity:1; 
stroke-linecap:round; stroke-linejoin:round;">
<text x="300989000.000000" y="273452200.000000"
textLength="27020000.000000" font-size="2000000.000000" lengthAdjust="spacingAndGlyphs"
text-anchor="start" opacity="0">File: Uniform.kicad_pcb</text>
<g class="stroked-text"><desc>File: Uniform.kicad_pcb</desc>
<path d="M301921142 272595057
L301421142 272595057
" />
<path d="M301421142 273380771
L301421142 271880771
L302135428 271880771
" />
<path d="M302706857 273380771
L302706857 272380771
" />
<path d="M302706857 271880771
L302635428 271952200
L302706857 272023628
L302778285 271952200
L302706857 271880771
L302706857 272023628
" />
<path d="M303635428 273380771
L303492571 273309342
L303421142 273166485
L303421142 271880771
" />
<path d="M304778285 273309342
L304635428 273380771
L304349714 273380771
L304206857 273309342
L304135428 273166485
L304135428 272595057
L304206857 272452200
L304349714 272380771
L304635428 272380771
L304778285 272452200
L304849714 272595057
L304849714 272737914
L304135428 272880771
" />
<path d="M305492571 273237914
L305564000 273309342
L305492571 273380771
L305421142 273309342
L305492571 273237914
L305492571 273380771
" />
<path d="M305492571 272452200
L305564000 272523628
L305492571 272595057
L305421142 272523628
L305492571 272452200
L305492571 272595057
" />
<path d="M307349714 271880771
L307349714 273095057
L307421142 273237914
L307492571 273309342
L307635428 273380771
L307921142 273380771
L308064000 273309342
L308135428 273237914
L308206857 273095057
L308206857 271880771
" />
<path d="M308921142 272380771
L308921142 273380771
" />
<path d="M308921142 272523628
L308992571 272452200
L309135428 272380771
L309349714 272380771
L309492571 272452200
L309564000 272595057
L309564000 273380771
" />
<path d="M310278285 273380771
L310278285 272380771
" />
<path d="M310278285 271880771
L310206857 271952200
L310278285 272023628
L310349714 271952200
L310278285 271880771
L310278285 272023628
" />
<path d="M310778285 272380771
L311349714 272380771
" />
<path d="M310992571 273380771
L310992571 272095057
L311064000 271952200
L311206857 271880771
L311349714 271880771
" />
<path d="M312064000 273380771
L311921142 273309342
L311849714 273237914
L311778285 273095057
L311778285 272666485
L311849714 272523628
L311921142 272452200
L312064000 272380771
L312278285 272380771
L312421142 272452200
L312492571 272523628
L312564000 272666485
L312564000 273095057
L312492571 273237914
L312421142 273309342
L312278285 273380771
L312064000 273380771
" />
<path d="M313206857 273380771
L313206857 272380771
" />
<path d="M313206857 272666485
L313278285 272523628
L313349714 272452200
L313492571 272380771
L313635428 272380771
" />
<path d="M314135428 273380771
L314135428 272380771
" />
<path d="M314135428 272523628
L314206857 272452200
L314349714 272380771
L314564000 272380771
L314706857 272452200
L314778285 272595057
L314778285 273380771
" />
<path d="M314778285 272595057
L314849714 272452200
L314992571 272380771
L315206857 272380771
L315349714 272452200
L315421142 272595057
L315421142 273380771
" />
<path d="M316135428 273237914
L316206857 273309342
L316135428 273380771
L316064000 273309342
L316135428 273237914
L316135428 273380771
" />
<path d="M316849714 273380771
L316849714 271880771
" />
<path d="M316992571 272809342
L317421142 273380771
" />
<path d="M317421142 272380771
L316849714 272952200
" />
<path d="M318064000 273380771
L318064000 272380771
" />
<path d="M318064000 271880771
L317992571 271952200
L318064000 272023628
L318135428 271952200
L318064000 271880771
L318064000 272023628
" />
<path d="M319421142 273309342
L319278285 273380771
L318992571 273380771
L318849714 273309342
L318778285 273237914
L318706857 273095057
L318706857 272666485
L318778285 272523628
L318849714 272452200
L318992571 272380771
L319278285 272380771
L319421142 272452200
" />
<path d="M320706857 273380771
L320706857 272595057
L320635428 272452200
L320492571 272380771
L320206857 272380771
L320064000 272452200
" />
<path d="M320706857 273309342
L320564000 273380771
L320206857 273380771
L320064000 273309342
L319992571 273166485
L319992571 273023628
L320064000 272880771
L320206857 272809342
L320564000 272809342
L320706857 272737914
" />
<path d="M322064000 273380771
L322064000 271880771
" />
<path d="M322064000 273309342
L321921142 273380771
L321635428 273380771
L321492571 273309342
L321421142 273237914
L321349714 273095057
L321349714 272666485
L321421142 272523628
L321492571 272452200
L321635428 272380771
L321921142 272380771
L322064000 272452200
" />
<path d="M322421142 273523628
L323564000 273523628
" />
<path d="M323921142 272380771
L323921142 273880771
" />
<path d="M323921142 272452200
L324064000 272380771
L324349714 272380771
L324492571 272452200
L324564000 272523628
L324635428 272666485
L324635428 273095057
L324564000 273237914
L324492571 273309342
L324349714 273380771
L324064000 273380771
L323921142 273309342
" />
<path d="M325921142 273309342
L325778285 273380771
L325492571 273380771
L325349714 273309342
L325278285 273237914
L325206857 273095057
L325206857 272666485
L325278285 272523628
L325349714 272452200
L325492571 272380771
L325778285 272380771
L325921142 272452200
" />
<path d="M326564000 273380771
L326564000 271880771
" />
<path d="M326564000 272452200
L326706857 272380771
L326992571 272380771
L327135428 272452200
L327206857 272523628
L327278285 272666485
L327278285 273095057
L327206857 273237914
L327135428 273309342
L326992571 273380771
L326706857 273380771
L326564000 273309342
" />
</g></g>
<g style="fill:#000000; fill-opacity:0.0; 
stroke:#000000; stroke-width:21200.000000; stroke-opacity:1; 
stroke-linecap:round; stroke-linejoin:round;">
</g>
<g style="fill:#000000; fill-opacity:0.0; 
stroke:#000000; stroke-width:150000.000000; stroke-opacity:1; 
stroke-linecap:round; stroke-linejoin:round;">
<path d="M299989000 268502200
L407989000 268502200
" />
</g>
<g style="fill:#000000; fill-opacity:0.0; 
stroke:#000000; stroke-width:21200.000000; stroke-opacity:1; 
stroke-linecap:round; stroke-linejoin:round;">
</g>
<g style="fill:#000000; fill-opacity:0.0; 
stroke:#000000; stroke-width:150000.000000; stroke-opacity:1; 
stroke-linecap:round; stroke-linejoin:round;">
<text x="300989000.000000" y="270752200.000000"
textLength="8221429.000000" font-size="2000000.000000" lengthAdjust="spacingAndGlyphs"
text-anchor="start" opacity="0">Sheet: </text>
<g class="stroked-text"><desc>Sheet: </desc>
<path d="M301349714 270609342
L301564000 270680771
L301921142 270680771
L302064000 270609342
L302135428 270537914
L302206857 270395057
L302206857 270252200
L302135428 270109342
L302064000 270037914
L301921142 269966485
L301635428 269895057
L301492571 269823628
L301421142 269752200
L301349714 269609342
L301349714 269466485
L301421142 269323628
L301492571 269252200
L301635428 269180771
L301992571 269180771
L302206857 269252200
" />
<path d="M302849714 270680771
L302849714 269180771
" />
<path d="M303492571 270680771
L303492571 269895057
L303421142 269752200
L303278285 269680771
L303064000 269680771
L302921142 269752200
L302849714 269823628
" />
<path d="M304778285 270609342
L304635428 270680771
L304349714 270680771
L304206857 270609342
L304135428 270466485
L304135428 269895057
L304206857 269752200
L304349714 269680771
L304635428 269680771
L304778285 269752200
L304849714 269895057
L304849714 270037914
L304135428 270180771
" />
<path d="M306064000 270609342
L305921142 270680771
L305635428 270680771
L305492571 270609342
L305421142 270466485
L305421142 269895057
L305492571 269752200
L305635428 269680771
L305921142 269680771
L306064000 269752200
L306135428 269895057
L306135428 270037914
L305421142 270180771
" />
<path d="M306564000 269680771
L307135428 269680771
" />
<path d="M306778285 269180771
L306778285 270466485
L306849714 270609342
L306992571 270680771
L307135428 270680771
" />
<path d="M307635428 270537914
L307706857 270609342
L307635428 270680771
L307564000 270609342
L307635428 270537914
L307635428 270680771
" />
<path d="M307635428 269752200
L307706857 269823628
L307635428 269895057
L307564000 269823628
L307635428 269752200
L307635428 269895057
" />
</g></g>
<g style="fill:#000000; fill-opacity:0.0; 
stroke:#000000; stroke-width:21200.000000; stroke-opacity:1; 
stroke-linecap:round; stroke-linejoin:round;">
</g>
<g style="fill:#000000; fill-opacity:0.0; 
stroke:#000000; stroke-width:300000.000000; stroke-opacity:1; 
stroke-linecap:round; stroke-linejoin:round;">
<text x="300989000.000000" y="267752200.000000"
textLength="150000.000000" font-size="2000000.000000" lengthAdjust="spacingAndGlyphs"
text-anchor="start" opacity="0"></text>
<g class="stroked-text"><desc></desc>
</g></g>
<g style="fill:#000000; fill-opacity:0.0; 
stroke:#000000; stroke-width:21200.000000; stroke-opacity:1; 
stroke-linecap:round; stroke-linejoin:round;">
</g>
<g style="fill:#000000; fill-opacity:0.0; 
stroke:#000000; stroke-width:150000.000000; stroke-opacity:1; 
stroke-linecap:round; stroke-linejoin:round;">
<text x="300989000.000000" y="264752200.000000"
textLength="300000.000000" font-size="2000000.000000" lengthAdjust="spacingAndGlyphs"
text-anchor="start" opacity="0"></text>
<g class="stroked-text"><desc></desc>
</g></g>
<g style="fill:#000000; fill-opacity:0.0; 
stroke:#000000; stroke-width:21200.000000; stroke-opacity:1; 
stroke-linecap:round; stroke-linejoin:round;">
</g>
<g style="fill:#000000; fill-opacity:0.0; 
stroke:#000000; stroke-width:150000.000000; stroke-opacity:1; 
stroke-linecap:round; stroke-linejoin:round;">
<text x="300989000.000000" y="261752200.000000"
textLength="150000.000000" font-size="2000000.000000" lengthAdjust="spacingAndGlyphs"
text-anchor="start" opacity="0"></text>
<g class="stroked-text"><desc></desc>
</g></g>
<g style="fill:#000000; fill-opacity:0.0; 
stroke:#000000; stroke-width:21200.000000; stroke-opacity:1; 
stroke-linecap:round; stroke-linejoin:round;">
</g>
<g style="fill:#000000; fill-opacity:0.0; 
stroke:#000000; stroke-width:150000.000000; stroke-opacity:1; 
stroke-linecap:round; stroke-linejoin:round;">
<text x="300989000.000000" y="258752200.000000"
textLength="150000.000000" font-size="2000000.000000" lengthAdjust="spacingAndGlyphs"
text-anchor="start" opacity="0"></text>
<g class="stroked-text"><desc></desc>
</g></g>
<g style="fill:#000000; fill-opacity:0.0; 
stroke:#000000; stroke-width:21200.000000; stroke-opacity:1; 
stroke-linecap:round; stroke-linejoin:round;">
</g>
<g style="fill:#000000; fill-opacity:0.0; 
stroke:#000000; stroke-width:150000.000000; stroke-opacity:1; 
stroke-linecap:round; stroke-linejoin:round;">
<text x="300989000.000000" y="255752200.000000"
textLength="150000.000000" font-size="2000000.000000" lengthAdjust="spacingAndGlyphs"
text-anchor="start" opacity="0"></text>
<g class="stroked-text"><desc></desc>
</g></g>
<g style="fill:#000000; fill-opacity:0.0; 
stroke:#000000; stroke-width:21200.000000; stroke-opacity:1; 
stroke-linecap:round; stroke-linejoin:round;">
</g>
<g style="fill:#000000; fill-opacity:0.0; 
stroke:#000000; stroke-width:150000.000000; stroke-opacity:1; 
stroke-linecap:round; stroke-linejoin:round;">
<path d="M319989000 278502200
L319989000 281502200
" />
</g>
<g style="fill:#000000; fill-opacity:0.0; 
stroke:#000000; stroke-width:21200.000000; stroke-opacity:1; 
stroke-linecap:round; stroke-linejoin:round;">
</g>
<g style="fill:#000000; fill-opacity:0.0; 
stroke:#000000; stroke-width:150000.000000; stroke-opacity:1; 
stroke-linecap:round; stroke-linejoin:round;">
<path d="M383989000 278502200
L383989000 285002200
" />
</g>
<g style="fill:#5994DC; fill-opacity:0.0; 
stroke:#5994DC; stroke-width:150000.000000; stroke-opacity:1; 
stroke-linecap:round; stroke-linejoin:round;">
</g>
<g style="fill:#5994DC; fill-opacity:0.0; 
stroke:#5994DC; stroke-width:2000.000000; stroke-opacity:1; 
stroke-linecap:round; stroke-linejoin:round;">
<g transform="rotate(-90.000000 54112500.000000 127975000.000000)">
<text x="54112500.000000" y="128038500.000000"
textLength="5647286.000000" font-size="169333.000000" lengthAdjust="spacingAndGlyphs"
text-anchor="middle" opacity="0">Copyright 2021 Accelerated Designs. All rights reserved.</text>
</g>
<g class="stroked-text"><desc>Copyright 2021 Accelerated Designs. All rights reserved.</desc>
<path d="M54157857 130620833
L54163904 130626880
L54169952 130645023
L54169952 130657119
L54163904 130675261
L54151809 130687357
L54139714 130693404
L54115523 130699452
L54097380 130699452
L54073190 130693404
L54061095 130687357
L54049000 130675261
L54042952 130657119
L54042952 130645023
L54049000 130626880
L54055047 130620833
" />
<path d="M54169952 130548261
L54163904 130560357
L54157857 130566404
L54145761 130572452
L54109476 130572452
L54097380 130566404
L54091333 130560357
L54085285 130548261
L54085285 130530119
L54091333 130518023
L54097380 130511976
L54109476 130505928
L54145761 130505928
L54157857 130511976
L54163904 130518023
L54169952 130530119
L54169952 130548261
" />
<path d="M54085285 130451500
L54212285 130451500
" />
<path d="M54091333 130451500
L54085285 130439404
L54085285 130415214
L54091333 130403119
L54097380 130397071
L54109476 130391023
L54145761 130391023
L54157857 130397071
L54163904 130403119
L54169952 130415214
L54169952 130439404
L54163904 130451500
" />
<path d="M54085285 130348690
L54169952 130318452
" />
<path d="M54085285 130288214
L54169952 130318452
L54200190 130330547
L54206238 130336595
L54212285 130348690
" />
<path d="M54169952 130239833
L54085285 130239833
" />
<path d="M54109476 130239833
L54097380 130233785
L54091333 130227738
L54085285 130215642
L54085285 130203547
" />
<path d="M54169952 130161214
L54085285 130161214
" />
<path d="M54042952 130161214
L54049000 130167261
L54055047 130161214
L54049000 130155166
L54042952 130161214
L54055047 130161214
" />
<path d="M54085285 130046309
L54188095 130046309
L54200190 130052357
L54206238 130058404
L54212285 130070500
L54212285 130088642
L54206238 130100738
" />
<path d="M54163904 130046309
L54169952 130058404
L54169952 130082595
L54163904 130094690
L54157857 130100738
L54145761 130106785
L54109476 130106785
L54097380 130100738
L54091333 130094690
L54085285 130082595
L54085285 130058404
L54091333 130046309
" />
<path d="M54169952 129985833
L54042952 129985833
" />
<path d="M54169952 129931404
L54103428 129931404
L54091333 129937452
L54085285 129949547
L54085285 129967690
L54091333 129979785
L54097380 129985833
" />
<path d="M54085285 129889071
L54085285 129840690
" />
<path d="M54042952 129870928
L54151809 129870928
L54163904 129864880
L54169952 129852785
L54169952 129840690
" />
<path d="M54055047 129707642
L54049000 129701595
L54042952 129689500
L54042952 129659261
L54049000 129647166
L54055047 129641119
L54067142 129635071
L54079238 129635071
L54097380 129641119
L54169952 129713690
L54169952 129635071
" />
<path d="M54042952 129556452
L54042952 129544357
L54049000 129532261
L54055047 129526214
L54067142 129520166
L54091333 129514119
L54121571 129514119
L54145761 129520166
L54157857 129526214
L54163904 129532261
L54169952 129544357
L54169952 129556452
L54163904 129568547
L54157857 129574595
L54145761 129580642
L54121571 129586690
L54091333 129586690
L54067142 129580642
L54055047 129574595
L54049000 129568547
L54042952 129556452
" />
<path d="M54055047 129465738
L54049000 129459690
L54042952 129447595
L54042952 129417357
L54049000 129405261
L54055047 129399214
L54067142 129393166
L54079238 129393166
L54097380 129399214
L54169952 129471785
L54169952 129393166
" />
<path d="M54169952 129272214
L54169952 129344785
" />
<path d="M54169952 129308500
L54042952 129308500
L54061095 129320595
L54073190 129332690
L54079238 129344785
" />
<path d="M54133666 129127071
L54133666 129066595
" />
<path d="M54169952 129139166
L54042952 129096833
L54169952 129054500
" />
<path d="M54163904 128957738
L54169952 128969833
L54169952 128994023
L54163904 129006119
L54157857 129012166
L54145761 129018214
L54109476 129018214
L54097380 129012166
L54091333 129006119
L54085285 128994023
L54085285 128969833
L54091333 128957738
" />
<path d="M54163904 128848880
L54169952 128860976
L54169952 128885166
L54163904 128897261
L54157857 128903309
L54145761 128909357
L54109476 128909357
L54097380 128903309
L54091333 128897261
L54085285 128885166
L54085285 128860976
L54091333 128848880
" />
<path d="M54163904 128746071
L54169952 128758166
L54169952 128782357
L54163904 128794452
L54151809 128800500
L54103428 128800500
L54091333 128794452
L54085285 128782357
L54085285 128758166
L54091333 128746071
L54103428 128740023
L54115523 128740023
L54127619 128800500
" />
<path d="M54169952 128667452
L54163904 128679547
L54151809 128685595
L54042952 128685595
" />
<path d="M54163904 128570690
L54169952 128582785
L54169952 128606976
L54163904 128619071
L54151809 128625119
L54103428 128625119
L54091333 128619071
L54085285 128606976
L54085285 128582785
L54091333 128570690
L54103428 128564642
L54115523 128564642
L54127619 128625119
" />
<path d="M54169952 128510214
L54085285 128510214
" />
<path d="M54109476 128510214
L54097380 128504166
L54091333 128498119
L54085285 128486023
L54085285 128473928
" />
<path d="M54169952 128377166
L54103428 128377166
L54091333 128383214
L54085285 128395309
L54085285 128419500
L54091333 128431595
" />
<path d="M54163904 128377166
L54169952 128389261
L54169952 128419500
L54163904 128431595
L54151809 128437642
L54139714 128437642
L54127619 128431595
L54121571 128419500
L54121571 128389261
L54115523 128377166
" />
<path d="M54085285 128334833
L54085285 128286452
" />
<path d="M54042952 128316690
L54151809 128316690
L54163904 128310642
L54169952 128298547
L54169952 128286452
" />
<path d="M54163904 128195738
L54169952 128207833
L54169952 128232023
L54163904 128244119
L54151809 128250166
L54103428 128250166
L54091333 128244119
L54085285 128232023
L54085285 128207833
L54091333 128195738
L54103428 128189690
L54115523 128189690
L54127619 128250166
" />
<path d="M54169952 128080833
L54042952 128080833
" />
<path d="M54163904 128080833
L54169952 128092928
L54169952 128117119
L54163904 128129214
L54157857 128135261
L54145761 128141309
L54109476 128141309
L54097380 128135261
L54091333 128129214
L54085285 128117119
L54085285 128092928
L54091333 128080833
" />
<path d="M54169952 127923595
L54042952 127923595
L54042952 127893357
L54049000 127875214
L54061095 127863119
L54073190 127857071
L54097380 127851023
L54115523 127851023
L54139714 127857071
L54151809 127863119
L54163904 127875214
L54169952 127893357
L54169952 127923595
" />
<path d="M54163904 127748214
L54169952 127760309
L54169952 127784500
L54163904 127796595
L54151809 127802642
L54103428 127802642
L54091333 127796595
L54085285 127784500
L54085285 127760309
L54091333 127748214
L54103428 127742166
L54115523 127742166
L54127619 127802642
" />
<path d="M54163904 127693785
L54169952 127681690
L54169952 127657500
L54163904 127645404
L54151809 127639357
L54145761 127639357
L54133666 127645404
L54127619 127657500
L54127619 127675642
L54121571 127687738
L54109476 127693785
L54103428 127693785
L54091333 127687738
L54085285 127675642
L54085285 127657500
L54091333 127645404
" />
<path d="M54169952 127584928
L54085285 127584928
" />
<path d="M54042952 127584928
L54049000 127590976
L54055047 127584928
L54049000 127578880
L54042952 127584928
L54055047 127584928
" />
<path d="M54085285 127470023
L54188095 127470023
L54200190 127476071
L54206238 127482119
L54212285 127494214
L54212285 127512357
L54206238 127524452
" />
<path d="M54163904 127470023
L54169952 127482119
L54169952 127506309
L54163904 127518404
L54157857 127524452
L54145761 127530500
L54109476 127530500
L54097380 127524452
L54091333 127518404
L54085285 127506309
L54085285 127482119
L54091333 127470023
" />
<path d="M54085285 127409547
L54169952 127409547
" />
<path d="M54097380 127409547
L54091333 127403500
L54085285 127391404
L54085285 127373261
L54091333 127361166
L54103428 127355119
L54169952 127355119
" />
<path d="M54163904 127300690
L54169952 127288595
L54169952 127264404
L54163904 127252309
L54151809 127246261
L54145761 127246261
L54133666 127252309
L54127619 127264404
L54127619 127282547
L54121571 127294642
L54109476 127300690
L54103428 127300690
L54091333 127294642
L54085285 127282547
L54085285 127264404
L54091333 127252309
" />
<path d="M54157857 127191833
L54163904 127185785
L54169952 127191833
L54163904 127197880
L54157857 127191833
L54169952 127191833
" />
<path d="M54133666 127040642
L54133666 126980166
" />
<path d="M54169952 127052738
L54042952 127010404
L54169952 126968071
" />
<path d="M54169952 126907595
L54163904 126919690
L54151809 126925738
L54042952 126925738
" />
<path d="M54169952 126841071
L54163904 126853166
L54151809 126859214
L54042952 126859214
" />
<path d="M54169952 126695928
L54085285 126695928
" />
<path d="M54109476 126695928
L54097380 126689880
L54091333 126683833
L54085285 126671738
L54085285 126659642
" />
<path d="M54169952 126617309
L54085285 126617309
" />
<path d="M54042952 126617309
L54049000 126623357
L54055047 126617309
L54049000 126611261
L54042952 126617309
L54055047 126617309
" />
<path d="M54085285 126502404
L54188095 126502404
L54200190 126508452
L54206238 126514500
L54212285 126526595
L54212285 126544738
L54206238 126556833
" />
<path d="M54163904 126502404
L54169952 126514500
L54169952 126538690
L54163904 126550785
L54157857 126556833
L54145761 126562880
L54109476 126562880
L54097380 126556833
L54091333 126550785
L54085285 126538690
L54085285 126514500
L54091333 126502404
" />
<path d="M54169952 126441928
L54042952 126441928
" />
<path d="M54169952 126387500
L54103428 126387500
L54091333 126393547
L54085285 126405642
L54085285 126423785
L54091333 126435880
L54097380 126441928
" />
<path d="M54085285 126345166
L54085285 126296785
" />
<path d="M54042952 126327023
L54151809 126327023
L54163904 126320976
L54169952 126308880
L54169952 126296785
" />
<path d="M54163904 126260500
L54169952 126248404
L54169952 126224214
L54163904 126212119
L54151809 126206071
L54145761 126206071
L54133666 126212119
L54127619 126224214
L54127619 126242357
L54121571 126254452
L54109476 126260500
L54103428 126260500
L54091333 126254452
L54085285 126242357
L54085285 126224214
L54091333 126212119
" />
<path d="M54169952 126054880
L54085285 126054880
" />
<path d="M54109476 126054880
L54097380 126048833
L54091333 126042785
L54085285 126030690
L54085285 126018595
" />
<path d="M54163904 125927880
L54169952 125939976
L54169952 125964166
L54163904 125976261
L54151809 125982309
L54103428 125982309
L54091333 125976261
L54085285 125964166
L54085285 125939976
L54091333 125927880
L54103428 125921833
L54115523 125921833
L54127619 125982309
" />
<path d="M54163904 125873452
L54169952 125861357
L54169952 125837166
L54163904 125825071
L54151809 125819023
L54145761 125819023
L54133666 125825071
L54127619 125837166
L54127619 125855309
L54121571 125867404
L54109476 125873452
L54103428 125873452
L54091333 125867404
L54085285 125855309
L54085285 125837166
L54091333 125825071
" />
<path d="M54163904 125716214
L54169952 125728309
L54169952 125752500
L54163904 125764595
L54151809 125770642
L54103428 125770642
L54091333 125764595
L54085285 125752500
L54085285 125728309
L54091333 125716214
L54103428 125710166
L54115523 125710166
L54127619 125770642
" />
<path d="M54169952 125655738
L54085285 125655738
" />
<path d="M54109476 125655738
L54097380 125649690
L54091333 125643642
L54085285 125631547
L54085285 125619452
" />
<path d="M54085285 125589214
L54169952 125558976
L54085285 125528738
" />
<path d="M54163904 125431976
L54169952 125444071
L54169952 125468261
L54163904 125480357
L54151809 125486404
L54103428 125486404
L54091333 125480357
L54085285 125468261
L54085285 125444071
L54091333 125431976
L54103428 125425928
L54115523 125425928
L54127619 125486404
" />
<path d="M54169952 125317071
L54042952 125317071
" />
<path d="M54163904 125317071
L54169952 125329166
L54169952 125353357
L54163904 125365452
L54157857 125371500
L54145761 125377547
L54109476 125377547
L54097380 125371500
L54091333 125365452
L54085285 125353357
L54085285 125329166
L54091333 125317071
" />
<path d="M54157857 125256595
L54163904 125250547
L54169952 125256595
L54163904 125262642
L54157857 125256595
L54169952 125256595
" />
</g><g transform="rotate(-90.000000 42700000.000000 125487500.000000)">
<text x="42700000.000000" y="125551000.000000"
textLength="5499886.000000" font-size="169333.000000" lengthAdjust="spacingAndGlyphs"
text-anchor="middle" opacity="0">Copyright 2021 Accelerated Designs. All rights reserved.</text>
</g>
<g class="stroked-text"><desc>Copyright 2021 Accelerated Designs. All rights reserved.</desc>
<path d="M42745357 128133333
L42751404 128139380
L42757452 128157523
L42757452 128169619
L42751404 128187761
L42739309 128199857
L42727214 128205904
L42703023 128211952
L42684880 128211952
L42660690 128205904
L42648595 128199857
L42636500 128187761
L42630452 128169619
L42630452 128157523
L42636500 128139380
L42642547 128133333
" />
<path d="M42757452 128060761
L42751404 128072857
L42745357 128078904
L42733261 128084952
L42696976 128084952
L42684880 128078904
L42678833 128072857
L42672785 128060761
L42672785 128042619
L42678833 128030523
L42684880 128024476
L42696976 128018428
L42733261 128018428
L42745357 128024476
L42751404 128030523
L42757452 128042619
L42757452 128060761
" />
<path d="M42672785 127964000
L42799785 127964000
" />
<path d="M42678833 127964000
L42672785 127951904
L42672785 127927714
L42678833 127915619
L42684880 127909571
L42696976 127903523
L42733261 127903523
L42745357 127909571
L42751404 127915619
L42757452 127927714
L42757452 127951904
L42751404 127964000
" />
<path d="M42672785 127861190
L42757452 127830952
" />
<path d="M42672785 127800714
L42757452 127830952
L42787690 127843047
L42793738 127849095
L42799785 127861190
" />
<path d="M42757452 127752333
L42672785 127752333
" />
<path d="M42696976 127752333
L42684880 127746285
L42678833 127740238
L42672785 127728142
L42672785 127716047
" />
<path d="M42757452 127673714
L42672785 127673714
" />
<path d="M42630452 127673714
L42636500 127679761
L42642547 127673714
L42636500 127667666
L42630452 127673714
L42642547 127673714
" />
<path d="M42672785 127558809
L42775595 127558809
L42787690 127564857
L42793738 127570904
L42799785 127583000
L42799785 127601142
L42793738 127613238
" />
<path d="M42751404 127558809
L42757452 127570904
L42757452 127595095
L42751404 127607190
L42745357 127613238
L42733261 127619285
L42696976 127619285
L42684880 127613238
L42678833 127607190
L42672785 127595095
L42672785 127570904
L42678833 127558809
" />
<path d="M42757452 127498333
L42630452 127498333
" />
<path d="M42757452 127443904
L42690928 127443904
L42678833 127449952
L42672785 127462047
L42672785 127480190
L42678833 127492285
L42684880 127498333
" />
<path d="M42672785 127401571
L42672785 127353190
" />
<path d="M42630452 127383428
L42739309 127383428
L42751404 127377380
L42757452 127365285
L42757452 127353190
" />
<path d="M42642547 127220142
L42636500 127214095
L42630452 127202000
L42630452 127171761
L42636500 127159666
L42642547 127153619
L42654642 127147571
L42666738 127147571
L42684880 127153619
L42757452 127226190
L42757452 127147571
" />
<path d="M42630452 127068952
L42630452 127056857
L42636500 127044761
L42642547 127038714
L42654642 127032666
L42678833 127026619
L42709071 127026619
L42733261 127032666
L42745357 127038714
L42751404 127044761
L42757452 127056857
L42757452 127068952
L42751404 127081047
L42745357 127087095
L42733261 127093142
L42709071 127099190
L42678833 127099190
L42654642 127093142
L42642547 127087095
L42636500 127081047
L42630452 127068952
" />
<path d="M42642547 126978238
L42636500 126972190
L42630452 126960095
L42630452 126929857
L42636500 126917761
L42642547 126911714
L42654642 126905666
L42666738 126905666
L42684880 126911714
L42757452 126984285
L42757452 126905666
" />
<path d="M42757452 126784714
L42757452 126857285
" />
<path d="M42757452 126821000
L42630452 126821000
L42648595 126833095
L42660690 126845190
L42666738 126857285
" />
<path d="M42721166 126639571
L42721166 126579095
" />
<path d="M42757452 126651666
L42630452 126609333
L42757452 126567000
" />
<path d="M42751404 126470238
L42757452 126482333
L42757452 126506523
L42751404 126518619
L42745357 126524666
L42733261 126530714
L42696976 126530714
L42684880 126524666
L42678833 126518619
L42672785 126506523
L42672785 126482333
L42678833 126470238
" />
<path d="M42751404 126361380
L42757452 126373476
L42757452 126397666
L42751404 126409761
L42745357 126415809
L42733261 126421857
L42696976 126421857
L42684880 126415809
L42678833 126409761
L42672785 126397666
L42672785 126373476
L42678833 126361380
" />
<path d="M42751404 126258571
L42757452 126270666
L42757452 126294857
L42751404 126306952
L42739309 126313000
L42690928 126313000
L42678833 126306952
L42672785 126294857
L42672785 126270666
L42678833 126258571
L42690928 126252523
L42703023 126252523
L42715119 126313000
" />
<path d="M42757452 126179952
L42751404 126192047
L42739309 126198095
L42630452 126198095
" />
<path d="M42751404 126083190
L42757452 126095285
L42757452 126119476
L42751404 126131571
L42739309 126137619
L42690928 126137619
L42678833 126131571
L42672785 126119476
L42672785 126095285
L42678833 126083190
L42690928 126077142
L42703023 126077142
L42715119 126137619
" />
<path d="M42757452 126022714
L42672785 126022714
" />
<path d="M42696976 126022714
L42684880 126016666
L42678833 126010619
L42672785 125998523
L42672785 125986428
" />
<path d="M42757452 125889666
L42690928 125889666
L42678833 125895714
L42672785 125907809
L42672785 125932000
L42678833 125944095
" />
<path d="M42751404 125889666
L42757452 125901761
L42757452 125932000
L42751404 125944095
L42739309 125950142
L42727214 125950142
L42715119 125944095
L42709071 125932000
L42709071 125901761
L42703023 125889666
" />
<path d="M42672785 125847333
L42672785 125798952
" />
<path d="M42630452 125829190
L42739309 125829190
L42751404 125823142
L42757452 125811047
L42757452 125798952
" />
<path d="M42751404 125708238
L42757452 125720333
L42757452 125744523
L42751404 125756619
L42739309 125762666
L42690928 125762666
L42678833 125756619
L42672785 125744523
L42672785 125720333
L42678833 125708238
L42690928 125702190
L42703023 125702190
L42715119 125762666
" />
<path d="M42757452 125593333
L42630452 125593333
" />
<path d="M42751404 125593333
L42757452 125605428
L42757452 125629619
L42751404 125641714
L42745357 125647761
L42733261 125653809
L42696976 125653809
L42684880 125647761
L42678833 125641714
L42672785 125629619
L42672785 125605428
L42678833 125593333
" />
<path d="M42757452 125436095
L42630452 125436095
L42630452 125405857
L42636500 125387714
L42648595 125375619
L42660690 125369571
L42684880 125363523
L42703023 125363523
L42727214 125369571
L42739309 125375619
L42751404 125387714
L42757452 125405857
L42757452 125436095
" />
<path d="M42751404 125260714
L42757452 125272809
L42757452 125297000
L42751404 125309095
L42739309 125315142
L42690928 125315142
L42678833 125309095
L42672785 125297000
L42672785 125272809
L42678833 125260714
L42690928 125254666
L42703023 125254666
L42715119 125315142
" />
<path d="M42751404 125206285
L42757452 125194190
L42757452 125170000
L42751404 125157904
L42739309 125151857
L42733261 125151857
L42721166 125157904
L42715119 125170000
L42715119 125188142
L42709071 125200238
L42696976 125206285
L42690928 125206285
L42678833 125200238
L42672785 125188142
L42672785 125170000
L42678833 125157904
" />
<path d="M42757452 125097428
L42672785 125097428
" />
<path d="M42630452 125097428
L42636500 125103476
L42642547 125097428
L42636500 125091380
L42630452 125097428
L42642547 125097428
" />
<path d="M42672785 124982523
L42775595 124982523
L42787690 124988571
L42793738 124994619
L42799785 125006714
L42799785 125024857
L42793738 125036952
" />
<path d="M42751404 124982523
L42757452 124994619
L42757452 125018809
L42751404 125030904
L42745357 125036952
L42733261 125043000
L42696976 125043000
L42684880 125036952
L42678833 125030904
L42672785 125018809
L42672785 124994619
L42678833 124982523
" />
<path d="M42672785 124922047
L42757452 124922047
" />
<path d="M42684880 124922047
L42678833 124916000
L42672785 124903904
L42672785 124885761
L42678833 124873666
L42690928 124867619
L42757452 124867619
" />
<path d="M42751404 124813190
L42757452 124801095
L42757452 124776904
L42751404 124764809
L42739309 124758761
L42733261 124758761
L42721166 124764809
L42715119 124776904
L42715119 124795047
L42709071 124807142
L42696976 124813190
L42690928 124813190
L42678833 124807142
L42672785 124795047
L42672785 124776904
L42678833 124764809
" />
<path d="M42745357 124704333
L42751404 124698285
L42757452 124704333
L42751404 124710380
L42745357 124704333
L42757452 124704333
" />
<path d="M42721166 124553142
L42721166 124492666
" />
<path d="M42757452 124565238
L42630452 124522904
L42757452 124480571
" />
<path d="M42757452 124420095
L42751404 124432190
L42739309 124438238
L42630452 124438238
" />
<path d="M42757452 124353571
L42751404 124365666
L42739309 124371714
L42630452 124371714
" />
<path d="M42757452 124208428
L42672785 124208428
" />
<path d="M42696976 124208428
L42684880 124202380
L42678833 124196333
L42672785 124184238
L42672785 124172142
" />
<path d="M42757452 124129809
L42672785 124129809
" />
<path d="M42630452 124129809
L42636500 124135857
L42642547 124129809
L42636500 124123761
L42630452 124129809
L42642547 124129809
" />
<path d="M42672785 124014904
L42775595 124014904
L42787690 124020952
L42793738 124027000
L42799785 124039095
L42799785 124057238
L42793738 124069333
" />
<path d="M42751404 124014904
L42757452 124027000
L42757452 124051190
L42751404 124063285
L42745357 124069333
L42733261 124075380
L42696976 124075380
L42684880 124069333
L42678833 124063285
L42672785 124051190
L42672785 124027000
L42678833 124014904
" />
<path d="M42757452 123954428
L42630452 123954428
" />
<path d="M42757452 123900000
L42690928 123900000
L42678833 123906047
L42672785 123918142
L42672785 123936285
L42678833 123948380
L42684880 123954428
" />
<path d="M42672785 123857666
L42672785 123809285
" />
<path d="M42630452 123839523
L42739309 123839523
L42751404 123833476
L42757452 123821380
L42757452 123809285
" />
<path d="M42751404 123773000
L42757452 123760904
L42757452 123736714
L42751404 123724619
L42739309 123718571
L42733261 123718571
L42721166 123724619
L42715119 123736714
L42715119 123754857
L42709071 123766952
L42696976 123773000
L42690928 123773000
L42678833 123766952
L42672785 123754857
L42672785 123736714
L42678833 123724619
" />
<path d="M42757452 123567380
L42672785 123567380
" />
<path d="M42696976 123567380
L42684880 123561333
L42678833 123555285
L42672785 123543190
L42672785 123531095
" />
<path d="M42751404 123440380
L42757452 123452476
L42757452 123476666
L42751404 123488761
L42739309 123494809
L42690928 123494809
L42678833 123488761
L42672785 123476666
L42672785 123452476
L42678833 123440380
L42690928 123434333
L42703023 123434333
L42715119 123494809
" />
<path d="M42751404 123385952
L42757452 123373857
L42757452 123349666
L42751404 123337571
L42739309 123331523
L42733261 123331523
L42721166 123337571
L42715119 123349666
L42715119 123367809
L42709071 123379904
L42696976 123385952
L42690928 123385952
L42678833 123379904
L42672785 123367809
L42672785 123349666
L42678833 123337571
" />
<path d="M42751404 123228714
L42757452 123240809
L42757452 123265000
L42751404 123277095
L42739309 123283142
L42690928 123283142
L42678833 123277095
L42672785 123265000
L42672785 123240809
L42678833 123228714
L42690928 123222666
L42703023 123222666
L42715119 123283142
" />
<path d="M42757452 123168238
L42672785 123168238
" />
<path d="M42696976 123168238
L42684880 123162190
L42678833 123156142
L42672785 123144047
L42672785 123131952
" />
<path d="M42672785 123101714
L42757452 123071476
L42672785 123041238
" />
<path d="M42751404 122944476
L42757452 122956571
L42757452 122980761
L42751404 122992857
L42739309 122998904
L42690928 122998904
L42678833 122992857
L42672785 122980761
L42672785 122956571
L42678833 122944476
L42690928 122938428
L42703023 122938428
L42715119 122998904
" />
<path d="M42757452 122829571
L42630452 122829571
" />
<path d="M42751404 122829571
L42757452 122841666
L42757452 122865857
L42751404 122877952
L42745357 122884000
L42733261 122890047
L42696976 122890047
L42684880 122884000
L42678833 122877952
L42672785 122865857
L42672785 122841666
L42678833 122829571
" />
<path d="M42745357 122769095
L42751404 122763047
L42757452 122769095
L42751404 122775142
L42745357 122769095
L42757452 122769095
" />
</g></g>
<g style="fill:#5994DC; fill-opacity:0.0; 
stroke:#5994DC; stroke-width:100000.000000; stroke-opacity:1; 
stroke-linecap:round; stroke-linejoin:round;">
<path d="M57135100 125475000
L57008100 125221000
" />
<path d="M57135100 127975000
L57262100 128229000
" />
<path d="M57135100 127975000
L57135100 129245000
" />
<path d="M52359900 126725000
L52359900 123321400
" />
<path d="M56119100 123829400
L56119100 123575400
" />
<path d="M51089900 123969100
L51216900 124223100
" />
<path d="M52359900 123702400
L51089900 123702400
" />
<path d="M54112500 123969100
L50708900 123969100
" />
<path d="M57135100 127975000
L57008100 128229000
" />
<path d="M51089900 129480900
L51216900 129226900
" />
<path d="M50962900 124223100
L51216900 124223100
" />
<path d="M52359900 123702400
L52105900 123575400
" />
<path d="M55865100 123702400
L56119100 123575400
" />
<path d="M57008100 125221000
L57262100 125221000
" />
<path d="M54112500 129480900
L50708900 129480900
" />
<path d="M57135100 125475000
L57135100 124205000
" />
<path d="M51089900 129480900
L50962900 129226900
" />
<path d="M51089900 123969100
L50962900 124223100
" />
<path d="M57135100 125475000
L57262100 125221000
" />
<path d="M54112500 125475000
L57516100 125475000
" />
<path d="M54112500 127975000
L57516100 127975000
" />
<path d="M57008100 128229000
L57262100 128229000
" />
<path d="M52359900 123702400
L52105900 123829400
" />
<path d="M51089900 129480900
L51089900 123969100
" />
<path d="M55865100 123702400
L57135100 123702400
" />
<path d="M55865100 123702400
L56119100 123829400
" />
<path d="M52105900 123829400
L52105900 123575400
" />
<path d="M50962900 129226900
L51216900 129226900
" />
<path d="M55865100 126725000
L55865100 123321400
" />
<path d="M42700000 125487500
L39296400 125487500
" />
<path d="M40947400 129760100
L39677400 129760100
" />
<path d="M39677400 125487500
L39550400 125233500
" />
<path d="M39677400 127987500
L39677400 129257500
" />
<path d="M45722600 123981600
L45849600 124235600
" />
<path d="M44706600 129633100
L44706600 129887100
" />
<path d="M39677400 125487500
L39677400 124217500
" />
<path d="M40947400 129760100
L40693400 129887100
" />
<path d="M39677400 127987500
L39804400 128241500
" />
<path d="M44452600 129760100
L45722600 129760100
" />
<path d="M42700000 127987500
L39296400 127987500
" />
<path d="M45722600 129493400
L45595600 129239400
" />
<path d="M40693400 129633100
L40693400 129887100
" />
<path d="M45722600 123981600
L45595600 124235600
" />
<path d="M40947400 129760100
L40693400 129633100
" />
<path d="M44452600 129760100
L44706600 129887100
" />
<path d="M42700000 123981600
L46103600 123981600
" />
<path d="M39677400 125487500
L39804400 125233500
" />
<path d="M45722600 123981600
L45722600 129493400
" />
<path d="M39804400 125233500
L39550400 125233500
" />
<path d="M45849600 124235600
L45595600 124235600
" />
<path d="M45722600 129493400
L45849600 129239400
" />
<path d="M45849600 129239400
L45595600 129239400
" />
<path d="M39677400 127987500
L39550400 128241500
" />
<path d="M44452600 126737500
L44452600 130141100
" />
<path d="M44452600 129760100
L44706600 129633100
" />
<path d="M42700000 129493400
L46103600 129493400
" />
<path d="M40947400 126737500
L40947400 130141100
" />
<path d="M39804400 128241500
L39550400 128241500
" />
</g>
<g style="fill:#5994DC; fill-opacity:0.0; 
stroke:#5994DC; stroke-width:150000.000000; stroke-opacity:1; 
stroke-linecap:round; stroke-linejoin:round;">
<circle cx="42775000.000000" cy="108700000.000000" r="2700000.000000" /> 
<circle cx="42775000.000000" cy="196100000.000000" r="2700000.000000" /> 
<circle cx="66675000.000000" cy="180975000.000000" r="2700000.000000" /> 
<circle cx="314325000.000000" cy="180975000.000000" r="2700000.000000" /> 
<circle cx="314325000.000000" cy="123825000.000000" r="2700000.000000" /> 
<circle cx="66675000.000000" cy="123825000.000000" r="2700000.000000" /> 
<circle cx="142875000.000000" cy="164975250.000000" r="2700000.000000" /> 
<circle cx="238125000.000000" cy="164975250.000000" r="2700000.000000" /> 
<g >
</g>
<g >
</g>
<g >
</g>
<g >
</g>
<g >
</g>
<g >
</g>
<g >
</g>
<g >
</g>
<g >
</g>
<g >
</g>
<g >
</g>
<g >
</g>
<g >
</g>
<g >
</g>
<g >
</g>
<g >
</g>
<g >
</g>
<g >
</g>
<g >
</g>
<g >
</g>
<g >
</g>
<g >
</g>
<g >
</g>
<g >
</g>
<g >
</g>
<g >
</g>
<g >
</g>
<g >
</g>
<g >
</g>
<g >
</g>
<g >
</g>
<g >
</g>
<g >
</g>
<g >
</g>
<g >
</g>
<g >
</g>
<g >
</g>
<g >
</g>
<g >
</g>
<g >
</g>
<g >
</g>
<g >
</g>
<g >
</g>
<g >
</g>
<g >
</g>
<g >
</g>
<g >
</g>
<g >
</g>
<g >
</g>
<g >
</g>
<g >
</g>
<g >
</g>
<g >
</g>
<g >
</g>
<g >
</g>
<g >
</g>
<g >
</g>
<g >
</g>
<g >
</g>
<g >
</g>
<g >
</g>
<g >
</g>
<g >
</g>
<g >
</g>
<g >
</g>
<g >
</g>
<g >
</g>
<g >
</g>
<g >
</g>
<g >
</g>
<g >
</g>
<g >
</g>
<g >
</g>
<g >
</g>
<g >
</g>
<g >
</g>
<g >
</g>
<g >
</g>
<g >
</g>
<g >
</g>
<g >
</g>
<g >
</g>
<g >
</g>
<g >
</g>
<g >
</g>
<g >
</g>
<g >
</g>
<g >
</g>
<g >
</g>
<g >
</g>
<g >
</g>
<g >
</g>
<g >
</g>
<g >
</g>
<g >
</g>
<g >
</g>
<g >
</g>
<g >
</g>
<g >
</g>
<g >
</g>
<g >
</g>
<g >
</g>
<g >
</g>
<g >
</g>
<g >
</g>
<g >
</g>
<g >
</g>
<g >
</g>
<g >
</g>
<g >
</g>
<g >
</g>
<g >
</g>
<g >
</g>
<g >
</g>
<g >
</g>
<g >
</g>
<g >
</g>
<g >
</g>
<g >
</g>
<g >
</g>
<g >
</g>
<g >
</g>
<g >
</g>
<g >
</g>
<g >
</g>
<g >
</g>
<g >
</g>
<g >
</g>
<g >
</g>
<g >
</g>
<g >
</g>
<g >
</g>
<g >
</g>
<g >
</g>
<g >
</g>
<g >
</g>
<g >
</g>
<g >
</g>
<g >
</g>
<g >
</g>
<g >
</g>
<g >
</g>
<g >
</g>
<g >
</g>
<g >
</g>
<g >
</g>
<g >
</g>
<g >
</g>
<g >
</g>
<g >
</g>
<g >
</g>
<g >
</g>
<g >
</g>
<g >
</g>
<g >
</g>
<g >
</g>
<g >
</g>
<g >
</g>
<g >
</g>
<g >
</g>
<g >
</g>
<g >
</g>
<g >
</g>
<g >
</g>
<g >
</g>
<g >
</g>
<g >
</g>
<g >
</g>
<g >
</g>
<g >
</g>
<g >
</g>
<g >
</g>
<g >
</g>
<g >
</g>
<g >
</g>
<g >
</g>
</g>
<g style="fill:#000000; fill-opacity:0.0; 
stroke:#000000; stroke-width:150000.000000; stroke-opacity:1; 
stroke-linecap:round; stroke-linejoin:round;">
</g>
<g style="fill:#D0D2CD; fill-opacity:0.0; 
stroke:#D0D2CD; stroke-width:150000.000000; stroke-opacity:1; 
stroke-linecap:round; stroke-linejoin:round;">
<path d="M341225000 196100000
L341225000 108700000
" />
<path d="M42775000 105700000
L338225000 105700000
" />
<path d="M39775000.000000 196100000.000000 A3000001.000000 3000001.000000 0.0 0 0 42775000.000000 199100000.000000" />
<path d="M42775000.000000 105700000.000000 A3000001.000000 3000001.000000 0.0 0 0 39775000.000000 108700000.000000" />
<path d="M338225000 199100000
L42775000 199100000
" />
<path d="M39775000 196100000
L39775000 108700000
" />
<path d="M338225000.000000 199100000.000000 A3000001.000000 3000001.000000 0.0 0 0 341225000.000000 196100000.000000" />
<path d="M341225000.000000 108700000.000000 A3000001.000000 3000001.000000 0.0 0 0 338225000.000000 105700000.000000" />
<g >
</g>
<g >
</g>
<g >
</g>
<g >
</g>
<g >
</g>
<g >
</g>
<g >
</g>
<g >
</g>
<g >
</g>
<g >
</g>
<g >
</g>
<g >
</g>
<g >
</g>
<g >
</g>
<g >
</g>
<g >
</g>
<g >
</g>
<g >
</g>
<g >
</g>
<g >
</g>
<g >
</g>
<g >
</g>
<g >
</g>
<g >
</g>
<g >
</g>
<g >
</g>
<g >
</g>
<g >
</g>
<g >
</g>
<g >
</g>
<g >
</g>
<g >
</g>
<g >
</g>
<g >
</g>
<g >
</g>
<g >
</g>
<g >
</g>
<g >
</g>
<g >
</g>
<g >
</g>
<g >
</g>
<g >
</g>
<g >
</g>
<g >
</g>
<g >
</g>
<g >
</g>
<g >
</g>
<g >
</g>
<g >
</g>
<g >
</g>
<g >
</g>
<g >
</g>
<g >
</g>
<g >
</g>
<g >
</g>
<g >
</g>
<g >
</g>
<g >
</g>
<g >
</g>
<g >
</g>
<g >
</g>
<g >
</g>
<g >
</g>
<g >
</g>
<g >
</g>
<g >
</g>
<g >
</g>
<g >
</g>
<g >
</g>
<g >
</g>
<g >
</g>
<g >
</g>
<g >
</g>
<g >
</g>
<g >
</g>
<g >
</g>
<g >
</g>
<g >
</g>
<g >
</g>
<g >
</g>
<g >
</g>
<g >
</g>
<g >
</g>
<g >
</g>
<g >
</g>
<g >
</g>
<g >
</g>
<g >
</g>
<g >
</g>
<g >
</g>
<g >
</g>
<g >
</g>
<g >
</g>
<g >
</g>
<g >
</g>
<g >
</g>
<g >
</g>
<g >
</g>
<g >
</g>
<g >
</g>
<g >
</g>
<g >
</g>
<g >
</g>
<g >
</g>
<g >
</g>
<g >
</g>
<g >
</g>
<g >
</g>
<g >
</g>
<g >
</g>
<g >
</g>
<g >
</g>
<g >
</g>
<g >
</g>
<g >
</g>
<g >
</g>
<g >
</g>
<g >
</g>
<g >
</g>
<g >
</g>
<g >
</g>
<g >
</g>
<g >
</g>
<g >
</g>
<g >
</g>
<g >
</g>
<g >
</g>
<g >
</g>
<g >
</g>
<g >
</g>
<g >
</g>
<g >
</g>
<g >
</g>
<g >
</g>
<g >
</g>
<g >
</g>
<g >
</g>
<g >
</g>
<g >
</g>
<g >
</g>
<g >
</g>
<g >
</g>
<g >
</g>
<g >
</g>
<g >
</g>
<g >
</g>
<g >
</g>
<g >
</g>
<g >
</g>
<g >
</g>
<g >
</g>
<g >
</g>
<g >
</g>
<g >
</g>
<g >
</g>
<g >
</g>
<g >
</g>
<g >
</g>
<g >
</g>
<g >
</g>
<g >
</g>
<g >
</g>
<g >
</g>
<g >
</g>
<g >
</g>
<g >
</g>
<g >
</g>
<g >
</g>
<g >
</g>
<g >
</g>
<g >
</g>
<g >
</g>
<g >
</g>
<g >
</g>
<g >
</g>
<g >
</g>
</g> 
</svg>
